<svg width="1931" height="2048" viewBox="0 0 1931 2048" fill="none" xmlns="http://www.w3.org/2000/svg">
<path d="M718.438 1376.23C718.187 1370.07 725.811 1364.74 736.332 1363.72L919.757 1345.94C925.94 1345.35 931.36 1343.21 934.59 1340.11L1025.89 1252.44C1036.49 1242.27 1063 1245.69 1064.68 1257.52C1071.05 1302.32 1078.37 1374.06 1062.82 1389.61C1033.05 1419.38 976.99 1475.48 950.948 1501.54C943.905 1508.59 927.206 1509.86 917.225 1504.12L725.096 1393.51C721.184 1391.26 718.927 1388.22 718.797 1385.03L718.438 1376.23Z" fill="url(#paint0_linear_660_37906)"/>
<path d="M918.578 1204.98C918.369 1196.13 936.011 1190.78 948.318 1196.03L1051.82 1240.19C1056.12 1242.02 1058.79 1244.82 1059.11 1247.89C1060.34 1259.59 1063.34 1290.07 1064.46 1319.17C1065.03 1333.72 1065.12 1347.92 1064.29 1359.26C1063.88 1364.93 1063.23 1369.87 1062.3 1373.78C1061.37 1377.71 1060.16 1380.55 1058.66 1382.03C1022.02 1418.36 971.07 1470.36 948.015 1493.96C942.091 1500.03 927.769 1501.14 919.278 1496.19L724.201 1382.61C715.418 1377.5 717.905 1368.89 729.058 1365.66C764.41 1355.4 833.206 1334.83 890.93 1313.84C894.308 1312.61 897.252 1310.51 899.826 1307.76C902.404 1305 904.635 1301.56 906.567 1297.61C910.431 1289.69 913.12 1279.68 914.966 1268.89C918.659 1247.29 918.991 1222.51 918.578 1204.98Z" fill="url(#paint1_linear_660_37906)" stroke="url(#paint2_linear_660_37906)"/>
<path fill-rule="evenodd" clip-rule="evenodd" d="M1361.71 1470.55C1363.7 1469.02 1364.9 1466.23 1364.9 1462.43L1364.88 929.154C1364.88 920.69 1358.94 910.397 1351.61 906.165L614.165 480.365C610.003 477.962 606.288 478.03 603.855 480.087L588.78 487.135L600.894 503.024L600.914 1021.3C600.914 1029.76 606.857 1040.06 614.187 1044.29L1327.66 1456.25L1344.12 1477.84L1359.19 1471.72C1359.91 1471.56 1360.58 1471.29 1361.18 1470.92L1361.79 1470.67L1361.71 1470.55Z" fill="url(#paint3_linear_660_37906)"/>
<rect x="-0.948058" y="-1.64209" width="880.006" height="561.733" rx="14.2311" transform="matrix(-0.866007 -0.500033 -3.77426e-05 -1 1347.81 1480.56)" fill="url(#paint4_radial_660_37906)" stroke="url(#paint5_linear_660_37906)" stroke-width="2.1894"/>
<rect width="846.866" height="529.291" rx="2" transform="matrix(-0.866007 -0.500033 -3.77426e-05 -1 1334.28 1458.17)" fill="url(#paint6_radial_660_37906)"/>
<rect width="846.866" height="529.291" rx="2" transform="matrix(-0.866007 -0.500033 -3.77426e-05 -1 1333.41 1457.75)" fill="#1E1E1E"/>
<rect width="197.36" height="529.291" transform="matrix(-0.866007 -0.500033 -3.77426e-05 -1 770.956 1132.98)" fill="#252526"/>
<rect width="197.36" height="18.2499" transform="matrix(-0.866007 -0.500033 -3.77426e-05 -1 770.95 1036.34)" fill="#1E1E1E"/>
<rect width="53.513" height="5.40704" rx="2.70352" transform="matrix(-0.866007 -0.500033 -3.77426e-05 -1 687.895 981.965)" fill="#393939"/>
<rect width="55.5682" height="5.40704" rx="2.70352" transform="matrix(-0.866007 -0.500033 -3.77426e-05 -1 697.453 1007.48)" fill="#808080"/>
<rect width="44.5312" height="5.40704" rx="2.70352" transform="matrix(-0.866007 -0.500033 -3.77426e-05 -1 687.895 1014.96)" fill="#808080"/>
<rect width="61" height="5.40704" rx="2.70352" transform="matrix(-0.866007 -0.500033 -3.77426e-05 -1 702.157 1036.2)" fill="#808080"/>
<rect width="36.0924" height="5.40704" rx="2.70352" transform="matrix(-0.866007 -0.500033 -3.77426e-05 -1 680.586 1036.75)" fill="#808080"/>
<rect width="5.57502" height="5.40704" rx="2.70352" transform="matrix(-0.866007 -0.500033 -3.77426e-05 -1 646.45 978.035)" fill="#2A7D02"/>
<rect width="5.57502" height="5.40704" rx="2.70352" transform="matrix(-0.866007 -0.500033 -3.77426e-05 -1 646.45 991.035)" fill="#A51818"/>
<rect width="5.57502" height="5.40704" rx="2.70352" transform="matrix(-0.866007 -0.500033 -3.77426e-05 -1 646.45 1004.03)" fill="#808080"/>
<rect width="5.57502" height="5.40704" rx="2.70352" transform="matrix(-0.866007 -0.500033 -3.77426e-05 -1 646.45 1017.03)" fill="#2A7D02"/>
<rect width="197.36" height="17.1278" transform="matrix(-0.866007 -0.500033 -3.77426e-05 -1 770.95 846.779)" fill="#2E2E2E"/>
<rect width="5.6767" height="6.17705" rx="2.83835" transform="matrix(-0.866007 -0.500033 -3.77426e-05 -1 653.924 597.977)" fill="#808080"/>
<rect width="54.7687" height="6.17705" rx="3.08852" transform="matrix(-0.866007 -0.500033 -3.77426e-05 -1 703.644 626.685)" fill="#808080"/>
<rect width="5.6767" height="6.17705" rx="2.83835" transform="matrix(-0.866007 -0.500033 -3.77426e-05 -1 653.925 609.975)" fill="#808080"/>
<rect width="34.5558" height="6.17705" rx="3.08852" transform="matrix(-0.866007 -0.500033 -3.77426e-05 -1 686.14 628.576)" fill="#808080"/>
<rect width="5.6767" height="6.17705" rx="2.83835" transform="matrix(-0.866007 -0.500033 -3.77426e-05 -1 653.925 622.975)" fill="#FFB800"/>
<rect width="45.4862" height="6.17705" rx="3.08852" transform="matrix(-0.866007 -0.500033 -3.77426e-05 -1 695.606 647.041)" fill="#808080"/>
<rect width="5.6767" height="6.17705" rx="2.83835" transform="matrix(-0.866007 -0.500033 -3.77426e-05 -1 653.925 635.976)" fill="#FFB800"/>
<rect width="58.3178" height="6.17705" rx="3.08852" transform="matrix(-0.866007 -0.500033 -3.77426e-05 -1 706.718 666.458)" fill="#808080"/>
<rect width="5.6767" height="6.17705" rx="2.83835" transform="matrix(-0.866007 -0.500033 -3.77426e-05 -1 653.925 648.977)" fill="#808080"/>
<rect width="45.4862" height="6.17705" rx="3.08852" transform="matrix(-0.866007 -0.500033 -3.77426e-05 -1 695.606 673.043)" fill="#808080"/>
<rect width="5.6767" height="6.17705" rx="2.83835" transform="matrix(-0.866007 -0.500033 -3.77426e-05 -1 661.926 666.977)" fill="#3490DF"/>
<rect width="60.0734" height="6.17705" rx="3.08852" transform="matrix(-0.866007 -0.500033 -3.77426e-05 -1 716.239 698.337)" fill="#808080"/>
<rect width="5.6767" height="6.17705" rx="2.83835" transform="matrix(-0.866007 -0.500033 -3.77426e-05 -1 661.926 680.977)" fill="#FFB800"/>
<rect width="40.2115" height="6.17705" rx="3.08852" transform="matrix(-0.866007 -0.500033 -3.77426e-05 -1 699.039 702.406)" fill="#808080"/>
<rect width="5.6767" height="6.17705" rx="2.83835" transform="matrix(-0.866007 -0.500033 -3.77426e-05 -1 661.926 694.977)" fill="#3490DF"/>
<rect width="43.0487" height="6.17705" rx="3.08852" transform="matrix(-0.866007 -0.500033 -3.77426e-05 -1 701.496 717.824)" fill="#808080"/>
<rect width="5.6767" height="6.17705" rx="2.83835" transform="matrix(-0.866007 -0.500033 -3.77426e-05 -1 653.926 704.977)" fill="#808080"/>
<rect width="41.2918" height="6.17705" rx="3.08852" transform="matrix(-0.866007 -0.500033 -3.77426e-05 -1 691.975 726.945)" fill="#E5B072"/>
<rect width="5.6767" height="6.17705" rx="2.83835" transform="matrix(-0.866007 -0.500033 -3.77426e-05 -1 661.927 722.977)" fill="#FFB800"/>
<rect width="32.3182" height="6.17705" rx="3.08852" transform="matrix(-0.866007 -0.500033 -3.77426e-05 -1 692.204 740.458)" fill="#808080"/>
<rect width="5.6767" height="6.17705" rx="2.83835" transform="matrix(-0.866007 -0.500033 -3.77426e-05 -1 661.927 736.977)" fill="#3490DF"/>
<rect width="45.4862" height="6.17705" rx="3.08852" transform="matrix(-0.866007 -0.500033 -3.77426e-05 -1 703.608 761.043)" fill="#E5B072"/>
<rect width="5.6767" height="6.17705" rx="2.83835" transform="matrix(-0.866007 -0.500033 -3.77426e-05 -1 661.927 750.977)" fill="#3490DF"/>
<rect width="56.2582" height="6.17705" rx="3.08852" transform="matrix(-0.866007 -0.500033 -3.77426e-05 -1 712.937 780.429)" fill="#808080"/>
<rect width="5.6767" height="6.17705" rx="2.83835" transform="matrix(-0.866007 -0.500033 -3.77426e-05 -1 661.927 764.977)" fill="#808080"/>
<rect width="42.6953" height="6.17705" rx="3.08852" transform="matrix(-0.866007 -0.500033 -3.77426e-05 -1 701.191 787.647)" fill="#E5B072"/>
<rect width="5.6767" height="6.17705" rx="2.83835" transform="matrix(-0.866007 -0.500033 -3.77426e-05 -1 670.927 782.977)" fill="#3490DF"/>
<rect width="56.7711" height="6.17705" rx="3.08852" transform="matrix(-0.866007 -0.500033 -3.77426e-05 -1 722.381 812.686)" fill="#E5B072"/>
<rect width="5.6767" height="6.17705" rx="2.83835" transform="matrix(-0.866007 -0.500033 -3.77426e-05 -1 670.927 796.977)" fill="#3490DF"/>
<rect width="41.5207" height="6.17705" rx="3.08852" transform="matrix(-0.866007 -0.500033 -3.77426e-05 -1 709.174 819.06)" fill="#808080"/>
<rect width="5.6767" height="6.17705" rx="2.83835" transform="matrix(-0.866007 -0.500033 -3.77426e-05 -1 670.927 810.977)" fill="#AD084E"/>
<rect width="43.2934" height="6.17705" rx="3.08852" transform="matrix(-0.866007 -0.500033 -3.77426e-05 -1 710.71 833.946)" fill="#E5B072"/>
<rect width="5.6767" height="6.17705" rx="2.83835" transform="matrix(-0.866007 -0.500033 -3.77426e-05 -1 661.928 820.977)" fill="#3490DF"/>
<rect width="54.3954" height="6.17705" rx="3.08852" transform="matrix(-0.866007 -0.500033 -3.77426e-05 -1 711.324 849.498)" fill="#808080"/>
<rect width="5.6767" height="6.17705" rx="2.83835" transform="matrix(-0.866007 -0.500033 -3.77426e-05 -1 661.928 834.977)" fill="#3490DF"/>
<rect width="45.4862" height="6.17705" rx="3.08852" transform="matrix(-0.866007 -0.500033 -3.77426e-05 -1 703.609 859.043)" fill="#808080"/>
<rect width="5.6767" height="6.17705" rx="2.83835" transform="matrix(-0.866007 -0.500033 -3.77426e-05 -1 653.928 844.977)" fill="#808080"/>
<rect width="37.0325" height="6.17705" rx="3.08852" transform="matrix(-0.866007 -0.500033 -3.77426e-05 -1 688.288 864.816)" fill="#808080"/>
<rect width="5.6767" height="6.17705" rx="2.83835" transform="matrix(-0.866007 -0.500033 -3.77426e-05 -1 661.929 862.977)" fill="#3490DF"/>
<rect width="56.4362" height="6.17705" rx="3.08852" transform="matrix(-0.866007 -0.500033 -3.77426e-05 -1 713.092 892.518)" fill="#808080"/>
<rect width="5.6767" height="6.17705" rx="2.83835" transform="matrix(-0.866007 -0.500033 -3.77426e-05 -1 661.929 876.977)" fill="#3490DF"/>
<rect width="48.3644" height="6.17705" rx="3.08852" transform="matrix(-0.866007 -0.500033 -3.77426e-05 -1 706.102 902.482)" fill="#808080"/>
<rect width="5.6767" height="6.17705" rx="2.83835" transform="matrix(-0.866007 -0.500033 -3.77426e-05 -1 661.929 890.977)" fill="#AD084E"/>
<rect width="56.8769" height="6.17705" rx="3.08852" transform="matrix(-0.866007 -0.500033 -3.77426e-05 -1 713.474 920.739)" fill="#808080"/>
<rect width="5.6767" height="6.17705" rx="2.83835" transform="matrix(-0.866007 -0.500033 -3.77426e-05 -1 653.929 900.977)" fill="#808080"/>
<rect width="45.4862" height="6.17705" rx="3.08852" transform="matrix(-0.866007 -0.500033 -3.77426e-05 -1 695.61 925.043)" fill="#E5B072"/>
<rect width="5.6767" height="6.17705" rx="2.83835" transform="matrix(-0.866007 -0.500033 -3.77426e-05 -1 653.929 914.977)" fill="#808080"/>
<rect width="29.228" height="6.17705" rx="3.08852" transform="matrix(-0.866007 -0.500033 -3.77426e-05 -1 681.53 930.913)" fill="#808080"/>
<rect width="5.6767" height="6.17705" rx="2.83835" transform="matrix(-0.866007 -0.500033 -3.77426e-05 -1 653.925 622.975)" fill="#FFB800"/>
<rect width="45.4862" height="6.17705" rx="3.08852" transform="matrix(-0.866007 -0.500033 -3.77426e-05 -1 695.606 647.041)" fill="#808080"/>
<rect width="50.6243" height="6.17705" rx="3.08852" transform="matrix(-0.866007 -0.500033 -3.77426e-05 -1 687.854 605.569)" fill="#C4C4C4"/>
<rect width="43.0343" height="529.291" transform="matrix(-0.866007 -0.500033 -3.77426e-05 -1 637.309 1055.81)" fill="#363636"/>
<rect width="2.33436" height="51.0758" transform="matrix(-0.866007 -0.500033 -3.77426e-05 -1 602.045 590.559)" fill="#C4C4C4"/>
<rect width="13.9995" height="21.3008" transform="matrix(-0.866007 -0.500033 -3.77426e-05 -1 623.129 588.716)" stroke="#C4C4C4" stroke-width="1.5" stroke-linejoin="round"/>
<path d="M627.075 586.382L614.952 579.382L614.951 558.081L624.247 563.449L627.075 568.567L627.075 586.382Z" fill="#363636"/>
<path d="M627.075 568.567L627.075 586.382L614.952 579.382L614.951 558.081L624.247 563.449M627.075 568.567L624.247 563.449M627.075 568.567L624.247 567.377L624.247 563.449" stroke="#C4C4C4" stroke-width="1.5" stroke-linejoin="round"/>
<rect width="845.915" height="33.1918" transform="matrix(-0.866007 -0.500033 -3.77426e-05 -1 1332.57 961.26)" fill="#3C3C3C"/>
<rect width="607.828" height="36.6567" transform="matrix(-0.866007 -0.500033 3.77426e-05 1 1297.05 940.744)" fill="#2D2D2D"/>
<rect width="219.633" height="36.6567" transform="matrix(-0.866007 -0.500033 3.77426e-05 1 1333.34 961.701)" fill="#252525"/>
<rect width="80.7112" height="7" rx="3.5" transform="matrix(-0.866007 -0.500033 3.77426e-05 1 1133.32 861.1)" fill="#E6B072"/>
<rect width="8.03928" height="8.317" rx="4.01964" transform="matrix(-0.866007 -0.500033 3.77426e-05 1 1059.27 817.679)" fill="#3490DF"/>
<rect width="50.988" height="7" rx="3.5" transform="matrix(-0.866007 -0.500033 3.77426e-05 1 1040.58 807.224)" fill="#808080"/>
<rect width="8.03928" height="8.317" rx="4.01964" transform="matrix(-0.866007 -0.500033 3.77426e-05 1 992.275 778.679)" fill="#FFB800"/>
<rect width="95.6748" height="36.8921" transform="matrix(-0.866007 -0.500033 3.77426e-05 1 978.674 756.914)" fill="#1E1E1E"/>
<rect width="61.3058" height="7" rx="3.5" transform="matrix(-0.866007 -0.500033 3.77426e-05 1 968.334 765.479)" fill="#E5B072"/>
<rect width="7.97048" height="8.317" rx="3.98524" transform="matrix(-0.866007 -0.500033 3.77426e-05 1 909.913 731.068)" fill="#3490DF"/>
<rect width="50.988" height="7" rx="3.5" transform="matrix(-0.866007 -0.500033 3.77426e-05 1 888.578 719.254)" fill="#E6B072"/>
<rect width="8.03928" height="8.317" rx="4.01964" transform="matrix(-0.866007 -0.500033 3.77426e-05 1 840.275 690.679)" fill="#AD084E"/>
<rect width="38.4824" height="7" rx="3.5" transform="matrix(-0.866007 -0.500033 3.77426e-05 1 823.748 681.994)" fill="#808080"/>
<rect width="8.03928" height="8.317" rx="4.01964" transform="matrix(-0.866007 -0.500033 3.77426e-05 1 786.275 659.679)" fill="#3490DF"/>
<rect width="19.7963" height="324.319" transform="matrix(-0.866007 -0.500033 -3.77426e-05 -1 788.494 1007.97)" fill="#1C1C1C"/>
<rect width="11.6236" height="4.03324" rx="2.01662" transform="matrix(-0.866007 -0.500033 -3.77426e-05 -1 784.943 696.44)" fill="#2C2C2C"/>
<rect width="11.6236" height="4.03324" rx="2.01662" transform="matrix(-0.866007 -0.500033 -3.77426e-05 -1 784.943 708.44)" fill="#2C2C2C"/>
<rect width="11.6236" height="4.03324" rx="2.01662" transform="matrix(-0.866007 -0.500033 -3.77426e-05 -1 784.943 720.44)" fill="#2C2C2C"/>
<rect width="11.6236" height="4.03324" rx="2.01662" transform="matrix(-0.866007 -0.500033 -3.77426e-05 -1 784.943 732.44)" fill="#2C2C2C"/>
<rect width="11.6236" height="4.03324" rx="2.01662" transform="matrix(-0.866007 -0.500033 -3.77426e-05 -1 784.943 744.44)" fill="#2C2C2C"/>
<rect width="11.6236" height="4.03324" rx="2.01662" transform="matrix(-0.866007 -0.500033 -3.77426e-05 -1 784.943 756.44)" fill="#2C2C2C"/>
<rect width="11.6236" height="4.03324" rx="2.01662" transform="matrix(-0.866007 -0.500033 -3.77426e-05 -1 784.943 768.44)" fill="#2C2C2C"/>
<rect width="11.6236" height="4.03324" rx="2.01662" transform="matrix(-0.866007 -0.500033 -3.77426e-05 -1 784.943 780.44)" fill="#2C2C2C"/>
<rect width="11.6236" height="4.03324" rx="2.01662" transform="matrix(-0.866007 -0.500033 -3.77426e-05 -1 784.943 792.44)" fill="#2C2C2C"/>
<rect width="11.6236" height="4.03324" rx="2.01662" transform="matrix(-0.866007 -0.500033 -3.77426e-05 -1 784.943 804.44)" fill="#2C2C2C"/>
<rect width="11.6236" height="4.03324" rx="2.01662" transform="matrix(-0.866007 -0.500033 -3.77426e-05 -1 784.943 816.44)" fill="#2C2C2C"/>
<rect width="11.6236" height="4.03324" rx="2.01662" transform="matrix(-0.866007 -0.500033 -3.77426e-05 -1 784.943 828.44)" fill="#2C2C2C"/>
<rect width="11.6236" height="4.03324" rx="2.01662" transform="matrix(-0.866007 -0.500033 -3.77426e-05 -1 784.943 840.44)" fill="#2C2C2C"/>
<rect width="11.6236" height="4.03324" rx="2.01662" transform="matrix(-0.866007 -0.500033 -3.77426e-05 -1 784.943 852.44)" fill="#2C2C2C"/>
<rect width="11.6236" height="4.03324" rx="2.01662" transform="matrix(-0.866007 -0.500033 -3.77426e-05 -1 784.943 864.44)" fill="#2C2C2C"/>
<rect width="11.6236" height="4.03324" rx="2.01662" transform="matrix(-0.866007 -0.500033 -3.77426e-05 -1 784.943 876.44)" fill="#2C2C2C"/>
<rect width="11.6236" height="4.03324" rx="2.01662" transform="matrix(-0.866007 -0.500033 -3.77426e-05 -1 784.943 888.44)" fill="#2C2C2C"/>
<rect width="11.6236" height="4.03324" rx="2.01662" transform="matrix(-0.866007 -0.500033 -3.77426e-05 -1 784.943 900.44)" fill="#2C2C2C"/>
<rect width="11.6236" height="4.03324" rx="2.01662" transform="matrix(-0.866007 -0.500033 -3.77426e-05 -1 784.943 912.44)" fill="#2C2C2C"/>
<rect width="11.6236" height="4.03324" rx="2.01662" transform="matrix(-0.866007 -0.500033 -3.77426e-05 -1 784.943 924.44)" fill="#2C2C2C"/>
<rect width="11.6236" height="4.03324" rx="2.01662" transform="matrix(-0.866007 -0.500033 -3.77426e-05 -1 784.943 936.44)" fill="#2C2C2C"/>
<rect width="11.6236" height="4.03324" rx="2.01662" transform="matrix(-0.866007 -0.500033 -3.77426e-05 -1 784.943 948.44)" fill="#2C2C2C"/>
<rect width="11.6236" height="4.03324" rx="2.01662" transform="matrix(-0.866007 -0.500033 -3.77426e-05 -1 784.943 960.44)" fill="#2C2C2C"/>
<rect width="11.6236" height="4.03324" rx="2.01662" transform="matrix(-0.866007 -0.500033 -3.77426e-05 -1 784.943 972.44)" fill="#2C2C2C"/>
<rect width="11.6236" height="4.03324" rx="2.01662" transform="matrix(-0.866007 -0.500033 -3.77426e-05 -1 784.943 984.44)" fill="#2C2C2C"/>
<rect width="11.6236" height="4.03324" rx="2.01662" transform="matrix(-0.866007 -0.500033 -3.77426e-05 -1 784.943 996.44)" fill="#2C2C2C"/>
<rect width="11.6236" height="4.03324" rx="2.01662" transform="matrix(-0.866007 -0.500033 -3.77426e-05 -1 784.943 1008.44)" fill="#2C2C2C"/>
<rect width="68.9214" height="246.115" transform="matrix(-0.866007 -0.500033 -3.77426e-05 -1 1333.4 1244.4)" fill="#262626"/>
<rect width="26.7988" height="6.30265" rx="3.15133" transform="matrix(-0.866007 -0.500033 3.77426e-05 1 819.978 710.634)" fill="#9467BC"/>
<rect width="26.7988" height="6.30265" rx="3.15133" transform="matrix(-0.866007 -0.500033 3.77426e-05 1 819.978 722.634)" fill="#9467BC"/>
<rect width="26.7988" height="6.30265" rx="3.15133" transform="matrix(-0.866007 -0.500033 3.77426e-05 1 819.978 734.634)" fill="#9467BC"/>
<rect width="21.9117" height="6.30265" rx="3.15133" transform="matrix(-0.866007 -0.500033 3.77426e-05 1 815.746 755.19)" fill="#3490DF"/>
<rect width="22.1196" height="6.30265" rx="3.15133" transform="matrix(-0.866007 -0.500033 3.77426e-05 1 822.852 771.294)" fill="#3490DF"/>
<rect width="22.1196" height="6.30265" rx="3.15133" transform="matrix(-0.866007 -0.500033 3.77426e-05 1 822.852 783.294)" fill="#3490DF"/>
<rect width="22.1196" height="6.30265" rx="3.15133" transform="matrix(-0.866007 -0.500033 3.77426e-05 1 822.852 795.294)" fill="#3490DF"/>
<rect width="22.1196" height="6.30265" rx="3.15133" transform="matrix(-0.866007 -0.500033 3.77426e-05 1 822.852 819.294)" fill="#3490DF"/>
<rect width="23.1076" height="6.30265" rx="3.15133" transform="matrix(-0.866007 -0.500033 3.77426e-05 1 830.372 847.636)" fill="#3490DF"/>
<rect width="23.1076" height="6.30265" rx="3.15133" transform="matrix(-0.866007 -0.500033 3.77426e-05 1 830.372 859.636)" fill="#3490DF"/>
<rect width="59.6296" height="7.11756" rx="3.55878" transform="matrix(-0.866007 -0.500033 3.77426e-05 1 862 889.083)" fill="#DCDC8B"/>
<rect width="37.7189" height="7.11756" rx="3.55878" transform="matrix(-0.866007 -0.500033 3.77426e-05 1 835.497 909.78)" fill="#9467BC"/>
<rect width="18.6276" height="7.11756" rx="3.55878" transform="matrix(-0.866007 -0.500033 3.77426e-05 1 828.195 917.718)" fill="#3490DF"/>
<rect width="18.3442" height="7.11756" rx="3.55878" transform="matrix(-0.866007 -0.500033 3.77426e-05 1 833.557 932.856)" fill="#3490DF"/>
<rect width="18.3442" height="7.11756" rx="3.55878" transform="matrix(-0.866007 -0.500033 3.77426e-05 1 833.557 1004.86)" fill="#3490DF"/>
<rect width="18.3442" height="7.11756" rx="3.55878" transform="matrix(-0.866007 -0.500033 3.77426e-05 1 833.557 1016.86)" fill="#3490DF"/>
<rect width="55.2875" height="7.11756" rx="3.55878" transform="matrix(-0.866007 -0.500033 3.77426e-05 1 870.585 1050.24)" fill="#59C9A1"/>
<rect width="83.2685" height="7.11756" rx="3.55878" transform="matrix(-0.866007 -0.500033 3.77426e-05 1 945.999 1093.78)" fill="#76B4D1"/>
<rect width="44.09" height="7.11756" rx="3.55878" transform="matrix(-0.866007 -0.500033 3.77426e-05 1 873.01 1039.64)" fill="#76B4D1"/>
<rect width="44.09" height="7.11756" rx="3.55878" transform="matrix(-0.866007 -0.500033 3.77426e-05 1 912.462 1062.42)" fill="#DA8C6C"/>
<rect width="11.8386" height="7.11756" rx="3.55878" transform="matrix(-0.866007 -0.500033 3.77426e-05 1 835.996 946.264)" fill="#3490DF"/>
<rect width="11.8386" height="7.11756" rx="3.55878" transform="matrix(-0.866007 -0.500033 3.77426e-05 1 835.996 994.264)" fill="#3490DF"/>
<rect width="40.0399" height="7.11756" rx="3.55878" transform="matrix(-0.866007 -0.500033 3.77426e-05 1 873.646 1016)" fill="#76B4D1"/>
<rect width="32.2246" height="7.11756" rx="3.55878" transform="matrix(-0.866007 -0.500033 3.77426e-05 1 904.528 1033.83)" fill="#DA8C6C"/>
<rect width="22.6319" height="7.11756" rx="3.55878" transform="matrix(-0.866007 -0.500033 3.77426e-05 1 927.103 1046.87)" fill="#DCDC8B"/>
<rect width="38.2725" height="7.11756" rx="3.55878" transform="matrix(-0.866007 -0.500033 3.77426e-05 1 963.222 1067.73)" fill="#DA8C6C"/>
<rect width="69.7623" height="7.11756" rx="3.55878" transform="matrix(-0.866007 -0.500033 3.77426e-05 1 1026.61 1104.33)" fill="#2EB6E7"/>
<rect width="25.2333" height="7.11756" rx="3.55878" transform="matrix(-0.866007 -0.500033 3.77426e-05 1 1050.81 1118.3)" fill="#76B4D1"/>
<rect width="30.6555" height="7.11756" rx="3.55878" transform="matrix(-0.866007 -0.500033 3.77426e-05 1 1079.71 1134.98)" fill="#DA8C6C"/>
<rect width="12.0953" height="7.11756" rx="3.55878" transform="matrix(-0.866007 -0.500033 3.77426e-05 1 1092.53 1142.39)" fill="#2EB6E7"/>
<rect width="18.3805" height="7.11756" rx="3.55878" transform="matrix(-0.866007 -0.500033 3.77426e-05 1 841.661 961.536)" fill="#3490DF"/>
<rect width="18.3805" height="7.11756" rx="3.55878" transform="matrix(-0.866007 -0.500033 3.77426e-05 1 841.661 985.536)" fill="#3490DF"/>
<rect width="18.2267" height="7.11756" rx="3.55878" transform="matrix(-0.866007 -0.500033 3.77426e-05 1 850.029 978.367)" fill="#3490DF"/>
<rect width="82.2986" height="7.11756" rx="3.55878" transform="matrix(-0.866007 -0.500033 3.77426e-05 1 959.007 1029.29)" fill="#76B4D1"/>
<rect width="86.7482" height="7.11756" rx="3.55878" transform="matrix(-0.866007 -0.500033 3.77426e-05 1 973.272 1049.53)" fill="#76B4D1"/>
<rect width="63.2495" height="7.11756" rx="3.55878" transform="matrix(-0.866007 -0.500033 3.77426e-05 1 1034.13 1084.67)" fill="#76B4D1"/>
<rect width="68.3006" height="7.11756" rx="3.55878" transform="matrix(-0.866007 -0.500033 3.77426e-05 1 1099.37 1122.33)" fill="#2EB6E7"/>
<rect width="28.7698" height="7.11756" rx="3.55878" transform="matrix(-0.866007 -0.500033 3.77426e-05 1 1126.37 1137.93)" fill="#76B4D1"/>
<rect width="20.2047" height="7.11756" rx="3.55878" transform="matrix(-0.866007 -0.500033 3.77426e-05 1 1145.96 1149.24)" fill="#DA8C6C"/>
<rect width="18.2282" height="7.11756" rx="3.55878" transform="matrix(-0.866007 -0.500033 3.77426e-05 1 1163.84 1159.56)" fill="#2EB6E7"/>
<rect width="44.3625" height="7.11756" rx="3.55878" transform="matrix(-0.866007 -0.500033 3.77426e-05 1 883.883 985.915)" fill="#76B4D1"/>
<rect width="45.2408" height="7.11756" rx="3.55878" transform="matrix(-0.866007 -0.500033 3.77426e-05 1 893.773 1003.62)" fill="#76B4D1"/>
<rect width="112.685" height="7.11756" rx="3.55878" transform="matrix(-0.866007 -0.500033 3.77426e-05 1 928.056 975.378)" fill="#76B4D1"/>
<rect width="51.2416" height="7.11756" rx="3.55878" transform="matrix(-0.866007 -0.500033 3.77426e-05 1 881.972 960.811)" fill="#76B4D1"/>
<rect width="66.0969" height="7.11756" rx="3.55878" transform="matrix(-0.866007 -0.500033 3.77426e-05 1 942.49 995.754)" fill="#DA8C6C"/>
<rect width="73.6677" height="7.11756" rx="3.55878" transform="matrix(-0.866007 -0.500033 3.77426e-05 1 1009.56 1034.48)" fill="#2EB6E7"/>
<rect width="30.8651" height="7.11756" rx="3.55878" transform="matrix(-0.866007 -0.500033 3.77426e-05 1 1039.57 1051.81)" fill="#76B4D1"/>
<rect width="85.8969" height="7.11756" rx="3.55878" transform="matrix(-0.866007 -0.500033 3.77426e-05 1 1009.25 1022.26)" fill="#76B4D1"/>
<rect width="34.4645" height="7.11756" rx="3.55878" transform="matrix(-0.866007 -0.500033 3.77426e-05 1 896.026 908.729)" fill="#2EB6E7"/>
<rect width="28.9176" height="6.30265" rx="3.15133" transform="matrix(-0.866007 -0.500033 3.77426e-05 1 859.191 864.276)" fill="#2EB6E7"/>
<rect width="28.9176" height="6.30265" rx="3.15133" transform="matrix(-0.866007 -0.500033 3.77426e-05 1 859.191 876.276)" fill="#2EB6E7"/>
<rect width="41.0813" height="6.30265" rx="3.15133" transform="matrix(-0.866007 -0.500033 3.77426e-05 1 898.544 886.998)" fill="#76B4D1"/>
<rect width="67.3132" height="6.30265" rx="3.15133" transform="matrix(-0.866007 -0.500033 3.77426e-05 1 921.261 912.115)" fill="#76B4D1"/>
<rect width="21.2432" height="6.30265" rx="3.15133" transform="matrix(-0.866007 -0.500033 3.77426e-05 1 942.125 924.162)" fill="#DCDC8B"/>
<rect width="62.2787" height="6.30265" rx="3.15133" transform="matrix(-0.866007 -0.500033 3.77426e-05 1 998.526 956.728)" fill="#76B4D1"/>
<rect width="100.379" height="6.30265" rx="3.15133" transform="matrix(-0.866007 -0.500033 3.77426e-05 1 1087.92 1008.35)" fill="#2EB6E7"/>
<rect width="9.63902" height="6.30265" rx="3.15133" transform="matrix(-0.866007 -0.500033 3.77426e-05 1 910.668 893.999)" fill="#9467BC"/>
<rect width="71.6057" height="6.30265" rx="3.15133" transform="matrix(-0.866007 -0.500033 3.77426e-05 1 976.455 931.984)" fill="#59C9A1"/>
<rect width="21.8027" height="6.30265" rx="3.15133" transform="matrix(-0.866007 -0.500033 3.77426e-05 1 999.112 945.066)" fill="#76B4D1"/>
<rect width="30.5241" height="6.30265" rx="3.15133" transform="matrix(-0.866007 -0.500033 3.77426e-05 1 1029.32 962.51)" fill="#DCDC8B"/>
<rect width="47.7369" height="6.30265" rx="3.15133" transform="matrix(-0.866007 -0.500033 3.77426e-05 1 1074.44 988.561)" fill="#DA8C6C"/>
<rect width="54.9915" height="6.30265" rx="3.15133" transform="matrix(-0.866007 -0.500033 3.77426e-05 1 874.812 849.295)" fill="#DCDC8B"/>
<rect width="27.6513" height="6.30265" rx="3.15133" transform="matrix(-0.866007 -0.500033 3.77426e-05 1 903.094 865.625)" fill="#76B4D1"/>
<rect width="143.833" height="6.30265" rx="3.15133" transform="matrix(-0.866007 -0.500033 3.77426e-05 1 1031.99 940.051)" fill="#59C9A1"/>
<rect width="24.9383" height="6.30265" rx="3.15133" transform="matrix(-0.866007 -0.500033 3.77426e-05 1 850.265 787.122)" fill="#2EB6E7"/>
<rect width="51.2113" height="6.30265" rx="3.15133" transform="matrix(-0.866007 -0.500033 3.77426e-05 1 873.018 812.259)" fill="#2EB6E7"/>
<rect width="71.8595" height="6.30265" rx="3.15133" transform="matrix(-0.866007 -0.500033 3.77426e-05 1 890.899 834.584)" fill="#2EB6E7"/>
<rect width="10.4303" height="6.30265" rx="3.15133" transform="matrix(-0.866007 -0.500033 3.77426e-05 1 821.46 830.49)" fill="#76B4D1"/>
<rect width="66.5645" height="6.30265" rx="3.15133" transform="matrix(-0.866007 -0.500033 3.77426e-05 1 883.044 866.048)" fill="#DCDC8B"/>
<rect width="51.1941" height="6.30265" rx="3.15133" transform="matrix(-0.866007 -0.500033 3.77426e-05 1 1044.9 923.505)" fill="#2EB6E7"/>
<rect width="115.323" height="6.30265" rx="3.15133" transform="matrix(-0.866007 -0.500033 3.77426e-05 1 996.304 895.445)" fill="#DCDC8B"/>
<rect width="65.4302" height="6.30265" rx="3.15133" transform="matrix(-0.866007 -0.500033 3.77426e-05 1 912.744 823.197)" fill="#DCDC8B"/>
<rect width="33.7498" height="6.30265" rx="3.15133" transform="matrix(-0.866007 -0.500033 3.77426e-05 1 906.46 831.569)" fill="#59C9A1"/>
<rect width="43.1014" height="6.30265" rx="3.15133" transform="matrix(-0.866007 -0.500033 3.77426e-05 1 955.886 848.107)" fill="#76B4D1"/>
<rect width="86.7799" height="6.30265" rx="3.15133" transform="matrix(-0.866007 -0.500033 3.77426e-05 1 988.511 878.945)" fill="#76B4D1"/>
<rect width="55.3923" height="6.30265" rx="3.15133" transform="matrix(-0.866007 -0.500033 3.77426e-05 1 867.652 785.161)" fill="#DCDC8B"/>
<rect width="81.6198" height="6.30265" rx="3.15133" transform="matrix(-0.866007 -0.500033 3.77426e-05 1 942.271 828.247)" fill="#76B4D1"/>
<rect width="29.8359" height="6.30265" rx="3.15133" transform="matrix(-0.866007 -0.500033 3.77426e-05 1 972.046 845.438)" fill="#59C9A1"/>
<rect width="20.6644" height="6.30265" rx="3.15133" transform="matrix(-0.866007 -0.500033 3.77426e-05 1 891 751.643)" fill="#9467BC"/>
<rect width="20.6644" height="6.30265" rx="3.15133" transform="matrix(-0.866007 -0.500033 3.77426e-05 1 885.408 760.414)" fill="#9467BC"/>
<rect width="20.4789" height="6.30265" rx="3.15133" transform="matrix(-0.866007 -0.500033 3.77426e-05 1 868.191 762.472)" fill="#9467BC"/>
<rect width="69.6029" height="6.30265" rx="3.15133" transform="matrix(-0.866007 -0.500033 3.77426e-05 1 955.871 789.099)" fill="#DA8C6C"/>
<rect width="49.5845" height="6.30265" rx="3.15133" transform="matrix(-0.866007 -0.500033 3.77426e-05 1 932.383 787.537)" fill="#DA8C6C"/>
<rect width="70.7107" height="6.30265" rx="3.15133" transform="matrix(-0.866007 -0.500033 3.77426e-05 1 936.578 801.959)" fill="#DA8C6C"/>
<rect width="53.5967" height="6.30265" rx="3.15133" transform="matrix(-0.866007 -0.500033 3.77426e-05 1 870.868 740.018)" fill="#2EB6E7"/>
<rect width="45.2019" height="6.30265" rx="3.15133" transform="matrix(-0.866007 -0.500033 3.77426e-05 1 863.598 747.82)" fill="#2EB6E7"/>
<rect width="26.4748" height="6.30265" rx="3.15133" transform="matrix(-0.866007 -0.500033 3.77426e-05 1 847.38 750.457)" fill="#2EB6E7"/>
<path d="M798.5 755.081L799.521 1014.08" stroke="#2F2F2F"/>
<path d="M805.5 820.081L805.521 873.081" stroke="#2F2F2F"/>
<path d="M805.5 902.081L805.521 1019.08" stroke="#2F2F2F"/>
<path d="M812.573 919.902L812.533 1022.11" stroke="#2F2F2F"/>
<path d="M819.638 935.757L819.419 994.19" stroke="#2F2F2F"/>
<path d="M826.751 963.358L826.348 976.919" stroke="#2F2F2F"/>
<rect width="50.5312" height="7.11756" rx="3.55878" transform="matrix(-0.866007 -0.500033 3.77426e-05 1 881.972 972.811)" fill="#76B4D1"/>
<rect width="96.6388" height="7.11756" rx="3.55878" transform="matrix(-0.866007 -0.500033 3.77426e-05 1 968.392 1022.67)" fill="#76B4D1"/>
<rect width="48.5315" height="7.11756" rx="3.55878" transform="matrix(-0.866007 -0.500033 3.77426e-05 1 1012.61 1048.24)" fill="#DA8C6C"/>
<rect width="74.7858" height="7.11756" rx="3.55878" transform="matrix(-0.866007 -0.500033 3.77426e-05 1 1081.28 1087.89)" fill="#2EB6E7"/>
<rect width="25.9896" height="7.11756" rx="3.55878" transform="matrix(-0.866007 -0.500033 3.77426e-05 1 1131.8 1117.06)" fill="#DA8C6C"/>
<rect width="24.9286" height="7.11756" rx="3.55878" transform="matrix(-0.866007 -0.500033 3.77426e-05 1 1106.54 1102.48)" fill="#76B4D1"/>
<rect width="12.9817" height="7.11756" rx="3.55878" transform="matrix(-0.866007 -0.500033 3.77426e-05 1 1146.28 1125.42)" fill="#2EB6E7"/>
<rect width="176.463" height="6.17705" rx="3.08852" transform="matrix(-0.866007 -0.500033 -3.77426e-05 -1 931.829 1218.5)" fill="#919191"/>
<rect width="115.107" height="6.17705" rx="3.08852" transform="matrix(-0.866007 -0.500033 -3.77426e-05 -1 878.695 1175.82)" fill="#919191"/>
<rect width="192.465" height="6.17705" rx="3.08852" transform="matrix(-0.866007 -0.500033 -3.77426e-05 -1 945.687 1192.5)" fill="#919191"/>
<rect width="285.986" height="6.17705" rx="3.08852" transform="matrix(-0.866007 -0.500033 -3.77426e-05 -1 1026.68 1227.26)" fill="#919191"/>
<rect width="78.0409" height="6.17705" rx="3.08852" transform="matrix(-0.866007 -0.500033 -3.77426e-05 -1 846.595 1111.28)" fill="#919191"/>
<rect width="140.24" height="6.17705" rx="3.08852" transform="matrix(-0.866007 -0.500033 -3.77426e-05 -1 900.46 1130.38)" fill="#919191"/>
<rect width="211.144" height="6.17705" rx="3.08852" transform="matrix(-0.866007 -0.500033 -3.77426e-05 -1 961.863 1153.84)" fill="#919191"/>
<rect width="50.6243" height="6.17705" rx="3.08852" transform="matrix(-0.866007 -0.500033 -3.77426e-05 -1 822.852 1062.57)" fill="#919191"/>
<rect width="54.599" height="6.17705" rx="3.08852" transform="matrix(0.866007 0.500033 -3.77426e-05 -1 1281.4 1350.65)" fill="#808080"/>
<rect width="54.599" height="6.17705" rx="3.08852" transform="matrix(0.866007 0.500033 -3.77426e-05 -1 1281.4 1350.65)" fill="#808080"/>
<rect width="54.599" height="6.17705" rx="3.08852" transform="matrix(0.866007 0.500033 -3.77426e-05 -1 1281.4 1350.65)" fill="#808080"/>
<rect width="32.85" height="6.17705" rx="3.08852" transform="matrix(0.866007 0.500033 -3.77426e-05 -1 1281.4 1338.65)" fill="#808080"/>
<rect width="32.85" height="6.17705" rx="3.08852" transform="matrix(0.866007 0.500033 -3.77426e-05 -1 1281.4 1338.65)" fill="#808080"/>
<rect width="32.85" height="6.17705" rx="3.08852" transform="matrix(0.866007 0.500033 -3.77426e-05 -1 1281.4 1338.65)" fill="#808080"/>
<rect width="46.6013" height="6.17705" rx="3.08852" transform="matrix(0.866007 0.500033 -3.77426e-05 -1 1281.4 1326.65)" fill="#808080"/>
<rect width="46.6013" height="6.17705" rx="3.08852" transform="matrix(0.866007 0.500033 -3.77426e-05 -1 1281.4 1326.65)" fill="#808080"/>
<rect width="46.6013" height="6.17705" rx="3.08852" transform="matrix(0.866007 0.500033 -3.77426e-05 -1 1281.4 1326.65)" fill="#808080"/>
<rect width="649.489" height="21.4703" transform="matrix(-0.866007 -0.500033 -3.77426e-05 -1 1333.14 1344.26)" fill="#2D2D2D"/>
<rect width="34.5322" height="6.17705" rx="3.08852" transform="matrix(-0.866007 -0.500033 -3.77426e-05 -1 939.152 1108.72)" fill="#808080"/>
<rect width="60.0723" height="1.53719" transform="matrix(-0.866007 -0.500033 -3.77426e-05 -1 902.953 1095.87)" fill="#C4C4C4"/>
<rect width="50.6243" height="6.17705" rx="3.08852" transform="matrix(-0.866007 -0.500033 -3.77426e-05 -1 899.75 1085.97)" fill="#C4C4C4"/>
<rect width="34.5319" height="6.17705" rx="3.08852" transform="matrix(0.866007 0.500033 -3.77426e-05 -1 817.464 1038.46)" fill="#808080"/>
<rect width="42.6142" height="6.17705" rx="3.08852" transform="matrix(-0.866007 -0.500033 -3.77426e-05 -1 812.215 1035.43)" fill="#808080"/>
<rect width="5.759" height="6.17705" rx="2.8795" transform="matrix(0.866007 0.500033 -3.77426e-05 -1 1321.4 1330.65)" fill="#808080"/>
<rect width="5.759" height="6.17705" rx="2.8795" transform="matrix(0.866007 0.500033 -3.77426e-05 -1 1321.4 1330.65)" fill="#808080"/>
<rect width="5.759" height="6.17705" rx="2.8795" transform="matrix(0.866007 0.500033 -3.77426e-05 -1 1321.4 1330.65)" fill="#808080"/>
<rect width="5.759" height="6.17705" rx="2.8795" transform="matrix(0.866007 0.500033 -3.77426e-05 -1 1314.4 1326.65)" fill="#808080"/>
<rect width="5.759" height="6.17705" rx="2.8795" transform="matrix(0.866007 0.500033 -3.77426e-05 -1 1314.4 1326.65)" fill="#808080"/>
<rect width="5.759" height="6.17705" rx="2.8795" transform="matrix(0.866007 0.500033 -3.77426e-05 -1 1314.4 1326.65)" fill="#808080"/>
<rect width="5.759" height="6.17705" rx="2.8795" transform="matrix(0.866007 0.500033 -3.77426e-05 -1 1307.4 1322.65)" fill="#808080"/>
<rect width="5.759" height="6.17705" rx="2.8795" transform="matrix(0.866007 0.500033 -3.77426e-05 -1 1307.4 1322.65)" fill="#808080"/>
<rect width="5.759" height="6.17705" rx="2.8795" transform="matrix(0.866007 0.500033 -3.77426e-05 -1 1307.4 1322.65)" fill="#808080"/>
<rect width="846.866" height="529.291" rx="2" transform="matrix(-0.866007 -0.500033 -3.77426e-05 -1 1334.28 1458.17)" fill="url(#paint7_radial_660_37906)"/>
<defs>
<linearGradient id="paint0_linear_660_37906" x1="837" y1="1485.5" x2="1010.24" y2="1493.79" gradientUnits="userSpaceOnUse">
<stop stop-color="#E9E9E9"/>
<stop offset="0.419827" stop-color="#DBDBDB"/>
<stop offset="0.489583" stop-color="#EFEFEF"/>
<stop offset="0.624219" stop-color="#D1D1D1"/>
<stop offset="1" stop-color="#BABABA"/>
</linearGradient>
<linearGradient id="paint1_linear_660_37906" x1="858.857" y1="1464.44" x2="1031.76" y2="1170.82" gradientUnits="userSpaceOnUse">
<stop stop-color="#E9E9E9"/>
<stop offset="0.409375" stop-color="#C7C7C7"/>
<stop offset="0.497917" stop-color="#B8B8B8"/>
<stop offset="0.583781" stop-color="#C5C5C5"/>
<stop offset="0.742708" stop-color="#9D9D9D"/>
<stop offset="1" stop-color="#E7E7E7"/>
</linearGradient>
<linearGradient id="paint2_linear_660_37906" x1="780.295" y1="1379.54" x2="1147.86" y2="1607.44" gradientUnits="userSpaceOnUse">
<stop stop-color="white"/>
<stop offset="1" stop-color="white" stop-opacity="0"/>
</linearGradient>
<linearGradient id="paint3_linear_660_37906" x1="604.139" y1="828.869" x2="1390.92" y2="925.507" gradientUnits="userSpaceOnUse">
<stop stop-color="#F2F2F2"/>
<stop offset="0.861933" stop-color="#F5F5F5"/>
<stop offset="0.896166" stop-color="#FAFAFA"/>
<stop offset="0.9589" stop-color="#EDEDED"/>
<stop offset="1" stop-color="#D2D2D2"/>
</linearGradient>
<radialGradient id="paint4_radial_660_37906" cx="0" cy="0" r="1" gradientUnits="userSpaceOnUse" gradientTransform="translate(291.923 533.923) rotate(-52.5485) scale(568.662 671.357)">
<stop stop-color="#FCFCFC"/>
<stop offset="1" stop-color="#F5F5F5"/>
</radialGradient>
<linearGradient id="paint5_linear_660_37906" x1="243.604" y1="532.257" x2="1098.49" y2="-89.1404" gradientUnits="userSpaceOnUse">
<stop stop-color="white"/>
<stop offset="1" stop-color="white" stop-opacity="0"/>
</linearGradient>
<radialGradient id="paint6_radial_660_37906" cx="0" cy="0" r="1" gradientUnits="userSpaceOnUse" gradientTransform="translate(689.094 577.919) rotate(-143.984) scale(892.975 804.359)">
<stop stop-color="#505050"/>
<stop offset="1" stop-color="#313131"/>
</radialGradient>
<radialGradient id="paint7_radial_660_37906" cx="0" cy="0" r="1" gradientUnits="userSpaceOnUse" gradientTransform="translate(689.094 577.919) rotate(-143.984) scale(892.975 804.359)">
<stop stop-color="white" stop-opacity="0.13"/>
<stop offset="1" stop-color="white" stop-opacity="0"/>
</radialGradient>
</defs>
</svg>
