<svg width="1024" height="1024" viewBox="0 0 1024 1024" fill="none" xmlns="http://www.w3.org/2000/svg">
<g clip-path="url(#clip0_346_1836)">
<path d="M710.987 676.761L920.998 798L623.011 969.719L413 848.48L710.987 676.761Z" fill="#2B8600"/>
<rect width="242.494" height="342.921" transform="matrix(0.866044 0.499967 -0.866044 0.499967 709.985 674.031)" fill="#FBFBFB"/>
<line y1="-0.5" x2="243.311" y2="-0.5" transform="matrix(0.866044 0.499967 -0.866044 0.499967 702.944 676.696)" stroke="#D0F4DA"/>
<line y1="-0.5" x2="243.311" y2="-0.5" transform="matrix(0.866044 0.499967 -0.866044 0.499967 695.873 680.778)" stroke="#D0F4DA"/>
<line y1="-0.5" x2="243.311" y2="-0.5" transform="matrix(0.866044 0.499967 -0.866044 0.499967 688.802 684.86)" stroke="#D0F4DA"/>
<line y1="-0.5" x2="243.311" y2="-0.5" transform="matrix(0.866044 0.499967 -0.866044 0.499967 681.731 688.942)" stroke="#D0F4DA"/>
<line y1="-0.5" x2="243.311" y2="-0.5" transform="matrix(0.866044 0.499967 -0.866044 0.499967 674.66 693.024)" stroke="#D0F4DA"/>
<line y1="-0.5" x2="243.311" y2="-0.5" transform="matrix(0.866044 0.499967 -0.866044 0.499967 667.589 697.106)" stroke="#D0F4DA"/>
<line y1="-0.5" x2="243.311" y2="-0.5" transform="matrix(0.866044 0.499967 -0.866044 0.499967 660.518 701.189)" stroke="#D0F4DA"/>
<line y1="-0.5" x2="243.311" y2="-0.5" transform="matrix(0.866044 0.499967 -0.866044 0.499967 653.447 705.271)" stroke="#D0F4DA"/>
<line y1="-0.5" x2="243.311" y2="-0.5" transform="matrix(0.866044 0.499967 -0.866044 0.499967 646.375 709.353)" stroke="#D0F4DA"/>
<line y1="-0.5" x2="243.311" y2="-0.5" transform="matrix(0.866044 0.499967 -0.866044 0.499967 639.304 713.435)" stroke="#D0F4DA"/>
<line y1="-0.5" x2="243.311" y2="-0.5" transform="matrix(0.866044 0.499967 -0.866044 0.499967 632.233 717.517)" stroke="#D0F4DA"/>
<line y1="-0.5" x2="243.311" y2="-0.5" transform="matrix(0.866044 0.499967 -0.866044 0.499967 625.162 721.599)" stroke="#D0F4DA"/>
<line y1="-0.5" x2="243.311" y2="-0.5" transform="matrix(0.866044 0.499967 -0.866044 0.499967 618.091 725.681)" stroke="#D0F4DA"/>
<line y1="-0.5" x2="243.311" y2="-0.5" transform="matrix(0.866044 0.499967 -0.866044 0.499967 611.02 729.764)" stroke="#D0F4DA"/>
<line y1="-0.5" x2="243.311" y2="-0.5" transform="matrix(0.866044 0.499967 -0.866044 0.499967 603.949 733.846)" stroke="#D0F4DA"/>
<line y1="-0.5" x2="243.311" y2="-0.5" transform="matrix(0.866044 0.499967 -0.866044 0.499967 596.878 737.928)" stroke="#D0F4DA"/>
<line y1="-0.5" x2="243.311" y2="-0.5" transform="matrix(0.866044 0.499967 -0.866044 0.499967 589.807 742.01)" stroke="#D0F4DA"/>
<line y1="-0.5" x2="243.311" y2="-0.5" transform="matrix(0.866044 0.499967 -0.866044 0.499967 582.736 746.092)" stroke="#D0F4DA"/>
<line y1="-0.5" x2="243.311" y2="-0.5" transform="matrix(0.866044 0.499967 -0.866044 0.499967 575.665 750.174)" stroke="#D0F4DA"/>
<line y1="-0.5" x2="243.311" y2="-0.5" transform="matrix(0.866044 0.499967 -0.866044 0.499967 568.594 754.256)" stroke="#D0F4DA"/>
<line y1="-0.5" x2="243.311" y2="-0.5" transform="matrix(0.866044 0.499967 -0.866044 0.499967 561.523 758.338)" stroke="#D0F4DA"/>
<line y1="-0.5" x2="243.311" y2="-0.5" transform="matrix(0.866044 0.499967 -0.866044 0.499967 554.451 762.42)" stroke="#D0F4DA"/>
<line y1="-0.5" x2="243.311" y2="-0.5" transform="matrix(0.866044 0.499967 -0.866044 0.499967 547.381 766.503)" stroke="#D0F4DA"/>
<line y1="-0.5" x2="243.311" y2="-0.5" transform="matrix(0.866044 0.499967 -0.866044 0.499967 540.31 770.585)" stroke="#D0F4DA"/>
<line y1="-0.5" x2="243.311" y2="-0.5" transform="matrix(0.866044 0.499967 -0.866044 0.499967 533.239 774.667)" stroke="#D0F4DA"/>
<line y1="-0.5" x2="243.311" y2="-0.5" transform="matrix(0.866044 0.499967 -0.866044 0.499967 526.167 778.749)" stroke="#D0F4DA"/>
<line y1="-0.5" x2="243.311" y2="-0.5" transform="matrix(0.866044 0.499967 -0.866044 0.499967 519.096 782.831)" stroke="#D0F4DA"/>
<line y1="-0.5" x2="243.311" y2="-0.5" transform="matrix(0.866044 0.499967 -0.866044 0.499967 512.025 786.913)" stroke="#D0F4DA"/>
<line y1="-0.5" x2="243.311" y2="-0.5" transform="matrix(0.866044 0.499967 -0.866044 0.499967 504.954 790.995)" stroke="#D0F4DA"/>
<line y1="-0.5" x2="243.311" y2="-0.5" transform="matrix(0.866044 0.499967 -0.866044 0.499967 497.883 795.078)" stroke="#D0F4DA"/>
<line y1="-0.5" x2="243.311" y2="-0.5" transform="matrix(0.866044 0.499967 -0.866044 0.499967 490.812 799.16)" stroke="#D0F4DA"/>
<line y1="-0.5" x2="243.311" y2="-0.5" transform="matrix(0.866044 0.499967 -0.866044 0.499967 483.741 803.242)" stroke="#D0F4DA"/>
<line y1="-0.5" x2="243.311" y2="-0.5" transform="matrix(0.866044 0.499967 -0.866044 0.499967 476.67 807.324)" stroke="#D0F4DA"/>
<line y1="-0.5" x2="243.311" y2="-0.5" transform="matrix(0.866044 0.499967 -0.866044 0.499967 469.599 811.406)" stroke="#D0F4DA"/>
<line y1="-0.5" x2="243.311" y2="-0.5" transform="matrix(0.866044 0.499967 -0.866044 0.499967 462.528 815.488)" stroke="#D0F4DA"/>
<line y1="-0.5" x2="243.311" y2="-0.5" transform="matrix(0.866044 0.499967 -0.866044 0.499967 455.457 819.57)" stroke="#D0F4DA"/>
<line y1="-0.5" x2="243.311" y2="-0.5" transform="matrix(0.866044 0.499967 -0.866044 0.499967 448.385 823.653)" stroke="#D0F4DA"/>
<line y1="-0.5" x2="243.311" y2="-0.5" transform="matrix(0.866044 0.499967 -0.866044 0.499967 441.314 827.735)" stroke="#D0F4DA"/>
<line y1="-0.5" x2="243.311" y2="-0.5" transform="matrix(0.866044 0.499967 -0.866044 0.499967 434.243 831.817)" stroke="#D0F4DA"/>
<line y1="-0.5" x2="243.311" y2="-0.5" transform="matrix(0.866044 0.499967 -0.866044 0.499967 427.172 835.899)" stroke="#D0F4DA"/>
<line y1="-0.5" x2="243.311" y2="-0.5" transform="matrix(0.866044 0.499967 -0.866044 0.499967 420.101 839.981)" stroke="#D0F4DA"/>
<line y1="-0.5" x2="243.311" y2="-0.5" transform="matrix(0.866044 0.499967 -0.866044 0.499967 413.03 844.063)" stroke="#D0F4DA"/>
<path d="M715.672 677.92L420.455 848.349" stroke="#D0F4DA"/>
<path d="M715.672 677.92L420.455 848.349" stroke="#D0F4DA"/>
<path d="M722.743 682.003L427.526 852.432" stroke="#D0F4DA"/>
<path d="M722.743 682.003L427.526 852.432" stroke="#D0F4DA"/>
<path d="M729.814 686.085L434.597 856.514" stroke="#D0F4DA"/>
<path d="M729.814 686.085L434.597 856.514" stroke="#D0F4DA"/>
<path d="M736.885 690.167L441.668 860.596" stroke="#D0F4DA"/>
<path d="M736.885 690.167L441.668 860.596" stroke="#D0F4DA"/>
<path d="M743.956 694.249L448.739 864.678" stroke="#D0F4DA"/>
<path d="M743.956 694.249L448.739 864.678" stroke="#D0F4DA"/>
<path d="M751.027 698.331L455.81 868.76" stroke="#D0F4DA"/>
<path d="M751.027 698.331L455.81 868.76" stroke="#D0F4DA"/>
<path d="M758.098 702.413L462.881 872.842" stroke="#D0F4DA"/>
<path d="M758.098 702.413L462.881 872.842" stroke="#D0F4DA"/>
<path d="M765.169 706.495L469.952 876.924" stroke="#D0F4DA"/>
<path d="M765.169 706.495L469.952 876.924" stroke="#D0F4DA"/>
<path d="M772.24 710.578L477.023 881.006" stroke="#D0F4DA"/>
<path d="M772.24 710.578L477.023 881.006" stroke="#D0F4DA"/>
<path d="M779.312 714.66L484.094 885.088" stroke="#D0F4DA"/>
<path d="M779.312 714.66L484.094 885.088" stroke="#D0F4DA"/>
<path d="M786.383 718.742L491.165 889.171" stroke="#D0F4DA"/>
<path d="M786.383 718.742L491.165 889.171" stroke="#D0F4DA"/>
<path d="M793.454 722.824L498.236 893.253" stroke="#D0F4DA"/>
<path d="M793.454 722.824L498.236 893.253" stroke="#D0F4DA"/>
<path d="M800.525 726.906L505.308 897.335" stroke="#D0F4DA"/>
<path d="M800.525 726.906L505.308 897.335" stroke="#D0F4DA"/>
<path d="M807.596 730.988L512.379 901.417" stroke="#D0F4DA"/>
<path d="M807.596 730.988L512.379 901.417" stroke="#D0F4DA"/>
<path d="M814.667 735.07L519.45 905.499" stroke="#D0F4DA"/>
<path d="M814.667 735.07L519.45 905.499" stroke="#D0F4DA"/>
<path d="M821.738 739.153L526.521 909.581" stroke="#D0F4DA"/>
<path d="M821.738 739.153L526.521 909.581" stroke="#D0F4DA"/>
<path d="M828.809 743.235L533.592 913.663" stroke="#D0F4DA"/>
<path d="M828.809 743.235L533.592 913.663" stroke="#D0F4DA"/>
<path d="M835.88 747.317L540.663 917.745" stroke="#D0F4DA"/>
<path d="M835.88 747.317L540.663 917.745" stroke="#D0F4DA"/>
<path d="M842.951 751.399L547.734 921.828" stroke="#D0F4DA"/>
<path d="M842.951 751.399L547.734 921.828" stroke="#D0F4DA"/>
<path d="M850.022 755.481L554.805 925.91" stroke="#D0F4DA"/>
<path d="M850.022 755.481L554.805 925.91" stroke="#D0F4DA"/>
<path d="M857.093 759.563L561.876 929.992" stroke="#D0F4DA"/>
<path d="M857.093 759.563L561.876 929.992" stroke="#D0F4DA"/>
<path d="M864.164 763.645L568.947 934.074" stroke="#D0F4DA"/>
<path d="M864.164 763.645L568.947 934.074" stroke="#D0F4DA"/>
<path d="M871.235 767.727L576.018 938.156" stroke="#D0F4DA"/>
<path d="M871.235 767.727L576.018 938.156" stroke="#D0F4DA"/>
<path d="M878.306 771.809L583.089 942.238" stroke="#D0F4DA"/>
<path d="M878.306 771.809L583.089 942.238" stroke="#D0F4DA"/>
<path d="M885.378 775.892L590.161 946.32" stroke="#D0F4DA"/>
<path d="M885.378 775.892L590.161 946.32" stroke="#D0F4DA"/>
<path d="M892.449 779.974L597.232 950.402" stroke="#D0F4DA"/>
<path d="M892.449 779.974L597.232 950.402" stroke="#D0F4DA"/>
<path d="M899.52 784.056L604.303 954.485" stroke="#D0F4DA"/>
<path d="M899.52 784.056L604.303 954.485" stroke="#D0F4DA"/>
<path d="M906.591 788.138L611.374 958.567" stroke="#D0F4DA"/>
<path d="M906.591 788.138L611.374 958.567" stroke="#D0F4DA"/>
<path d="M913.662 792.22L618.445 962.649" stroke="#D0F4DA"/>
<path d="M913.662 792.22L618.445 962.649" stroke="#D0F4DA"/>
<rect width="242.494" height="342.921" transform="matrix(0.866044 0.499967 -0.866044 0.499967 709.985 675.031)" fill="#FBFBFB"/>
<line y1="-0.5" x2="243.311" y2="-0.5" transform="matrix(0.866044 0.499967 -0.866044 0.499967 702.944 677.696)" stroke="#D0F4DA"/>
<line y1="-0.5" x2="243.311" y2="-0.5" transform="matrix(0.866044 0.499967 -0.866044 0.499967 695.873 681.778)" stroke="#D0F4DA"/>
<line y1="-0.5" x2="243.311" y2="-0.5" transform="matrix(0.866044 0.499967 -0.866044 0.499967 688.802 685.86)" stroke="#D0F4DA"/>
<line y1="-0.5" x2="243.311" y2="-0.5" transform="matrix(0.866044 0.499967 -0.866044 0.499967 681.731 689.942)" stroke="#D0F4DA"/>
<line y1="-0.5" x2="243.311" y2="-0.5" transform="matrix(0.866044 0.499967 -0.866044 0.499967 674.66 694.024)" stroke="#D0F4DA"/>
<line y1="-0.5" x2="243.311" y2="-0.5" transform="matrix(0.866044 0.499967 -0.866044 0.499967 667.589 698.106)" stroke="#D0F4DA"/>
<line y1="-0.5" x2="243.311" y2="-0.5" transform="matrix(0.866044 0.499967 -0.866044 0.499967 660.518 702.189)" stroke="#D0F4DA"/>
<line y1="-0.5" x2="243.311" y2="-0.5" transform="matrix(0.866044 0.499967 -0.866044 0.499967 653.447 706.271)" stroke="#D0F4DA"/>
<line y1="-0.5" x2="243.311" y2="-0.5" transform="matrix(0.866044 0.499967 -0.866044 0.499967 646.375 710.353)" stroke="#D0F4DA"/>
<line y1="-0.5" x2="243.311" y2="-0.5" transform="matrix(0.866044 0.499967 -0.866044 0.499967 639.304 714.435)" stroke="#D0F4DA"/>
<line y1="-0.5" x2="243.311" y2="-0.5" transform="matrix(0.866044 0.499967 -0.866044 0.499967 632.233 718.517)" stroke="#D0F4DA"/>
<line y1="-0.5" x2="243.311" y2="-0.5" transform="matrix(0.866044 0.499967 -0.866044 0.499967 625.162 722.599)" stroke="#D0F4DA"/>
<line y1="-0.5" x2="243.311" y2="-0.5" transform="matrix(0.866044 0.499967 -0.866044 0.499967 618.091 726.681)" stroke="#D0F4DA"/>
<line y1="-0.5" x2="243.311" y2="-0.5" transform="matrix(0.866044 0.499967 -0.866044 0.499967 611.02 730.764)" stroke="#D0F4DA"/>
<line y1="-0.5" x2="243.311" y2="-0.5" transform="matrix(0.866044 0.499967 -0.866044 0.499967 603.949 734.846)" stroke="#D0F4DA"/>
<line y1="-0.5" x2="243.311" y2="-0.5" transform="matrix(0.866044 0.499967 -0.866044 0.499967 596.878 738.928)" stroke="#D0F4DA"/>
<line y1="-0.5" x2="243.311" y2="-0.5" transform="matrix(0.866044 0.499967 -0.866044 0.499967 589.807 743.01)" stroke="#D0F4DA"/>
<line y1="-0.5" x2="243.311" y2="-0.5" transform="matrix(0.866044 0.499967 -0.866044 0.499967 582.736 747.092)" stroke="#D0F4DA"/>
<line y1="-0.5" x2="243.311" y2="-0.5" transform="matrix(0.866044 0.499967 -0.866044 0.499967 575.665 751.174)" stroke="#D0F4DA"/>
<line y1="-0.5" x2="243.311" y2="-0.5" transform="matrix(0.866044 0.499967 -0.866044 0.499967 568.594 755.256)" stroke="#D0F4DA"/>
<line y1="-0.5" x2="243.311" y2="-0.5" transform="matrix(0.866044 0.499967 -0.866044 0.499967 561.523 759.338)" stroke="#D0F4DA"/>
<line y1="-0.5" x2="243.311" y2="-0.5" transform="matrix(0.866044 0.499967 -0.866044 0.499967 554.451 763.42)" stroke="#D0F4DA"/>
<line y1="-0.5" x2="243.311" y2="-0.5" transform="matrix(0.866044 0.499967 -0.866044 0.499967 547.381 767.503)" stroke="#D0F4DA"/>
<line y1="-0.5" x2="243.311" y2="-0.5" transform="matrix(0.866044 0.499967 -0.866044 0.499967 540.31 771.585)" stroke="#D0F4DA"/>
<line y1="-0.5" x2="243.311" y2="-0.5" transform="matrix(0.866044 0.499967 -0.866044 0.499967 533.239 775.667)" stroke="#D0F4DA"/>
<line y1="-0.5" x2="243.311" y2="-0.5" transform="matrix(0.866044 0.499967 -0.866044 0.499967 526.167 779.749)" stroke="#D0F4DA"/>
<line y1="-0.5" x2="243.311" y2="-0.5" transform="matrix(0.866044 0.499967 -0.866044 0.499967 519.096 783.831)" stroke="#D0F4DA"/>
<line y1="-0.5" x2="243.311" y2="-0.5" transform="matrix(0.866044 0.499967 -0.866044 0.499967 512.025 787.913)" stroke="#D0F4DA"/>
<line y1="-0.5" x2="243.311" y2="-0.5" transform="matrix(0.866044 0.499967 -0.866044 0.499967 504.954 791.995)" stroke="#D0F4DA"/>
<line y1="-0.5" x2="243.311" y2="-0.5" transform="matrix(0.866044 0.499967 -0.866044 0.499967 497.883 796.078)" stroke="#D0F4DA"/>
<line y1="-0.5" x2="243.311" y2="-0.5" transform="matrix(0.866044 0.499967 -0.866044 0.499967 490.812 800.16)" stroke="#D0F4DA"/>
<line y1="-0.5" x2="243.311" y2="-0.5" transform="matrix(0.866044 0.499967 -0.866044 0.499967 483.741 804.242)" stroke="#D0F4DA"/>
<line y1="-0.5" x2="243.311" y2="-0.5" transform="matrix(0.866044 0.499967 -0.866044 0.499967 476.67 808.324)" stroke="#D0F4DA"/>
<line y1="-0.5" x2="243.311" y2="-0.5" transform="matrix(0.866044 0.499967 -0.866044 0.499967 469.599 812.406)" stroke="#D0F4DA"/>
<line y1="-0.5" x2="243.311" y2="-0.5" transform="matrix(0.866044 0.499967 -0.866044 0.499967 462.528 816.488)" stroke="#D0F4DA"/>
<line y1="-0.5" x2="243.311" y2="-0.5" transform="matrix(0.866044 0.499967 -0.866044 0.499967 455.457 820.57)" stroke="#D0F4DA"/>
<line y1="-0.5" x2="243.311" y2="-0.5" transform="matrix(0.866044 0.499967 -0.866044 0.499967 448.385 824.653)" stroke="#D0F4DA"/>
<line y1="-0.5" x2="243.311" y2="-0.5" transform="matrix(0.866044 0.499967 -0.866044 0.499967 441.314 828.735)" stroke="#D0F4DA"/>
<line y1="-0.5" x2="243.311" y2="-0.5" transform="matrix(0.866044 0.499967 -0.866044 0.499967 434.243 832.817)" stroke="#D0F4DA"/>
<line y1="-0.5" x2="243.311" y2="-0.5" transform="matrix(0.866044 0.499967 -0.866044 0.499967 427.172 836.899)" stroke="#D0F4DA"/>
<line y1="-0.5" x2="243.311" y2="-0.5" transform="matrix(0.866044 0.499967 -0.866044 0.499967 420.101 840.981)" stroke="#D0F4DA"/>
<line y1="-0.5" x2="243.311" y2="-0.5" transform="matrix(0.866044 0.499967 -0.866044 0.499967 413.03 845.063)" stroke="#D0F4DA"/>
<path d="M715.672 678.92L420.455 849.349" stroke="#D0F4DA"/>
<path d="M715.672 678.92L420.455 849.349" stroke="#D0F4DA"/>
<path d="M722.743 683.003L427.526 853.432" stroke="#D0F4DA"/>
<path d="M722.743 683.003L427.526 853.432" stroke="#D0F4DA"/>
<path d="M729.814 687.085L434.597 857.514" stroke="#D0F4DA"/>
<path d="M729.814 687.085L434.597 857.514" stroke="#D0F4DA"/>
<path d="M736.885 691.167L441.668 861.596" stroke="#D0F4DA"/>
<path d="M736.885 691.167L441.668 861.596" stroke="#D0F4DA"/>
<path d="M743.956 695.249L448.739 865.678" stroke="#D0F4DA"/>
<path d="M743.956 695.249L448.739 865.678" stroke="#D0F4DA"/>
<path d="M751.027 699.331L455.81 869.76" stroke="#D0F4DA"/>
<path d="M751.027 699.331L455.81 869.76" stroke="#D0F4DA"/>
<path d="M758.098 703.413L462.881 873.842" stroke="#D0F4DA"/>
<path d="M758.098 703.413L462.881 873.842" stroke="#D0F4DA"/>
<path d="M765.169 707.495L469.952 877.924" stroke="#D0F4DA"/>
<path d="M765.169 707.495L469.952 877.924" stroke="#D0F4DA"/>
<path d="M772.24 711.578L477.023 882.006" stroke="#D0F4DA"/>
<path d="M772.24 711.578L477.023 882.006" stroke="#D0F4DA"/>
<path d="M779.312 715.66L484.094 886.088" stroke="#D0F4DA"/>
<path d="M779.312 715.66L484.094 886.088" stroke="#D0F4DA"/>
<path d="M786.383 719.742L491.165 890.171" stroke="#D0F4DA"/>
<path d="M786.383 719.742L491.165 890.171" stroke="#D0F4DA"/>
<path d="M793.454 723.824L498.236 894.253" stroke="#D0F4DA"/>
<path d="M793.454 723.824L498.236 894.253" stroke="#D0F4DA"/>
<path d="M800.525 727.906L505.308 898.335" stroke="#D0F4DA"/>
<path d="M800.525 727.906L505.308 898.335" stroke="#D0F4DA"/>
<path d="M807.596 731.988L512.379 902.417" stroke="#D0F4DA"/>
<path d="M807.596 731.988L512.379 902.417" stroke="#D0F4DA"/>
<path d="M814.667 736.07L519.45 906.499" stroke="#D0F4DA"/>
<path d="M814.667 736.07L519.45 906.499" stroke="#D0F4DA"/>
<path d="M821.738 740.153L526.521 910.581" stroke="#D0F4DA"/>
<path d="M821.738 740.153L526.521 910.581" stroke="#D0F4DA"/>
<path d="M828.809 744.235L533.592 914.663" stroke="#D0F4DA"/>
<path d="M828.809 744.235L533.592 914.663" stroke="#D0F4DA"/>
<path d="M835.88 748.317L540.663 918.745" stroke="#D0F4DA"/>
<path d="M835.88 748.317L540.663 918.745" stroke="#D0F4DA"/>
<path d="M842.951 752.399L547.734 922.828" stroke="#D0F4DA"/>
<path d="M842.951 752.399L547.734 922.828" stroke="#D0F4DA"/>
<path d="M850.022 756.481L554.805 926.91" stroke="#D0F4DA"/>
<path d="M850.022 756.481L554.805 926.91" stroke="#D0F4DA"/>
<path d="M857.093 760.563L561.876 930.992" stroke="#D0F4DA"/>
<path d="M857.093 760.563L561.876 930.992" stroke="#D0F4DA"/>
<path d="M864.164 764.645L568.947 935.074" stroke="#D0F4DA"/>
<path d="M864.164 764.645L568.947 935.074" stroke="#D0F4DA"/>
<path d="M871.235 768.727L576.018 939.156" stroke="#D0F4DA"/>
<path d="M871.235 768.727L576.018 939.156" stroke="#D0F4DA"/>
<path d="M878.306 772.809L583.089 943.238" stroke="#D0F4DA"/>
<path d="M878.306 772.809L583.089 943.238" stroke="#D0F4DA"/>
<path d="M885.378 776.892L590.161 947.32" stroke="#D0F4DA"/>
<path d="M885.378 776.892L590.161 947.32" stroke="#D0F4DA"/>
<path d="M892.449 780.974L597.232 951.402" stroke="#D0F4DA"/>
<path d="M892.449 780.974L597.232 951.402" stroke="#D0F4DA"/>
<path d="M899.52 785.056L604.303 955.485" stroke="#D0F4DA"/>
<path d="M899.52 785.056L604.303 955.485" stroke="#D0F4DA"/>
<path d="M906.591 789.138L611.374 959.567" stroke="#D0F4DA"/>
<path d="M906.591 789.138L611.374 959.567" stroke="#D0F4DA"/>
<path d="M913.662 793.22L618.445 963.649" stroke="#D0F4DA"/>
<path d="M913.662 793.22L618.445 963.649" stroke="#D0F4DA"/>
<rect width="242.494" height="342.921" transform="matrix(0.866044 0.499967 -0.866044 0.499967 709.985 674.031)" fill="#FBFBFB"/>
<line y1="-0.5" x2="243.311" y2="-0.5" transform="matrix(0.866044 0.499967 -0.866044 0.499967 702.944 676.696)" stroke="#D0F4DA"/>
<line y1="-0.5" x2="243.311" y2="-0.5" transform="matrix(0.866044 0.499967 -0.866044 0.499967 695.873 680.778)" stroke="#D0F4DA"/>
<line y1="-0.5" x2="243.311" y2="-0.5" transform="matrix(0.866044 0.499967 -0.866044 0.499967 688.802 684.86)" stroke="#D0F4DA"/>
<line y1="-0.5" x2="243.311" y2="-0.5" transform="matrix(0.866044 0.499967 -0.866044 0.499967 681.731 688.942)" stroke="#D0F4DA"/>
<line y1="-0.5" x2="243.311" y2="-0.5" transform="matrix(0.866044 0.499967 -0.866044 0.499967 674.66 693.024)" stroke="#D0F4DA"/>
<line y1="-0.5" x2="243.311" y2="-0.5" transform="matrix(0.866044 0.499967 -0.866044 0.499967 667.589 697.106)" stroke="#D0F4DA"/>
<line y1="-0.5" x2="243.311" y2="-0.5" transform="matrix(0.866044 0.499967 -0.866044 0.499967 660.518 701.189)" stroke="#D0F4DA"/>
<line y1="-0.5" x2="243.311" y2="-0.5" transform="matrix(0.866044 0.499967 -0.866044 0.499967 653.447 705.271)" stroke="#D0F4DA"/>
<line y1="-0.5" x2="243.311" y2="-0.5" transform="matrix(0.866044 0.499967 -0.866044 0.499967 646.375 709.353)" stroke="#D0F4DA"/>
<line y1="-0.5" x2="243.311" y2="-0.5" transform="matrix(0.866044 0.499967 -0.866044 0.499967 639.304 713.435)" stroke="#D0F4DA"/>
<line y1="-0.5" x2="243.311" y2="-0.5" transform="matrix(0.866044 0.499967 -0.866044 0.499967 632.233 717.517)" stroke="#D0F4DA"/>
<line y1="-0.5" x2="243.311" y2="-0.5" transform="matrix(0.866044 0.499967 -0.866044 0.499967 625.162 721.599)" stroke="#D0F4DA"/>
<line y1="-0.5" x2="243.311" y2="-0.5" transform="matrix(0.866044 0.499967 -0.866044 0.499967 618.091 725.681)" stroke="#D0F4DA"/>
<line y1="-0.5" x2="243.311" y2="-0.5" transform="matrix(0.866044 0.499967 -0.866044 0.499967 611.02 729.764)" stroke="#D0F4DA"/>
<line y1="-0.5" x2="243.311" y2="-0.5" transform="matrix(0.866044 0.499967 -0.866044 0.499967 603.949 733.846)" stroke="#D0F4DA"/>
<line y1="-0.5" x2="243.311" y2="-0.5" transform="matrix(0.866044 0.499967 -0.866044 0.499967 596.878 737.928)" stroke="#D0F4DA"/>
<line y1="-0.5" x2="243.311" y2="-0.5" transform="matrix(0.866044 0.499967 -0.866044 0.499967 589.807 742.01)" stroke="#D0F4DA"/>
<line y1="-0.5" x2="243.311" y2="-0.5" transform="matrix(0.866044 0.499967 -0.866044 0.499967 582.736 746.092)" stroke="#D0F4DA"/>
<line y1="-0.5" x2="243.311" y2="-0.5" transform="matrix(0.866044 0.499967 -0.866044 0.499967 575.665 750.174)" stroke="#D0F4DA"/>
<line y1="-0.5" x2="243.311" y2="-0.5" transform="matrix(0.866044 0.499967 -0.866044 0.499967 568.594 754.256)" stroke="#D0F4DA"/>
<line y1="-0.5" x2="243.311" y2="-0.5" transform="matrix(0.866044 0.499967 -0.866044 0.499967 561.523 758.338)" stroke="#D0F4DA"/>
<line y1="-0.5" x2="243.311" y2="-0.5" transform="matrix(0.866044 0.499967 -0.866044 0.499967 554.451 762.42)" stroke="#D0F4DA"/>
<line y1="-0.5" x2="243.311" y2="-0.5" transform="matrix(0.866044 0.499967 -0.866044 0.499967 547.381 766.503)" stroke="#D0F4DA"/>
<line y1="-0.5" x2="243.311" y2="-0.5" transform="matrix(0.866044 0.499967 -0.866044 0.499967 540.31 770.585)" stroke="#D0F4DA"/>
<line y1="-0.5" x2="243.311" y2="-0.5" transform="matrix(0.866044 0.499967 -0.866044 0.499967 533.239 774.667)" stroke="#D0F4DA"/>
<line y1="-0.5" x2="243.311" y2="-0.5" transform="matrix(0.866044 0.499967 -0.866044 0.499967 526.167 778.749)" stroke="#D0F4DA"/>
<line y1="-0.5" x2="243.311" y2="-0.5" transform="matrix(0.866044 0.499967 -0.866044 0.499967 519.096 782.831)" stroke="#D0F4DA"/>
<line y1="-0.5" x2="243.311" y2="-0.5" transform="matrix(0.866044 0.499967 -0.866044 0.499967 512.025 786.913)" stroke="#D0F4DA"/>
<line y1="-0.5" x2="243.311" y2="-0.5" transform="matrix(0.866044 0.499967 -0.866044 0.499967 504.954 790.995)" stroke="#D0F4DA"/>
<line y1="-0.5" x2="243.311" y2="-0.5" transform="matrix(0.866044 0.499967 -0.866044 0.499967 497.883 795.078)" stroke="#D0F4DA"/>
<line y1="-0.5" x2="243.311" y2="-0.5" transform="matrix(0.866044 0.499967 -0.866044 0.499967 490.812 799.16)" stroke="#D0F4DA"/>
<line y1="-0.5" x2="243.311" y2="-0.5" transform="matrix(0.866044 0.499967 -0.866044 0.499967 483.741 803.242)" stroke="#D0F4DA"/>
<line y1="-0.5" x2="243.311" y2="-0.5" transform="matrix(0.866044 0.499967 -0.866044 0.499967 476.67 807.324)" stroke="#D0F4DA"/>
<line y1="-0.5" x2="243.311" y2="-0.5" transform="matrix(0.866044 0.499967 -0.866044 0.499967 469.599 811.406)" stroke="#D0F4DA"/>
<line y1="-0.5" x2="243.311" y2="-0.5" transform="matrix(0.866044 0.499967 -0.866044 0.499967 462.528 815.488)" stroke="#D0F4DA"/>
<line y1="-0.5" x2="243.311" y2="-0.5" transform="matrix(0.866044 0.499967 -0.866044 0.499967 455.457 819.57)" stroke="#D0F4DA"/>
<line y1="-0.5" x2="243.311" y2="-0.5" transform="matrix(0.866044 0.499967 -0.866044 0.499967 448.385 823.653)" stroke="#D0F4DA"/>
<line y1="-0.5" x2="243.311" y2="-0.5" transform="matrix(0.866044 0.499967 -0.866044 0.499967 441.314 827.735)" stroke="#D0F4DA"/>
<line y1="-0.5" x2="243.311" y2="-0.5" transform="matrix(0.866044 0.499967 -0.866044 0.499967 434.243 831.817)" stroke="#D0F4DA"/>
<line y1="-0.5" x2="243.311" y2="-0.5" transform="matrix(0.866044 0.499967 -0.866044 0.499967 427.172 835.899)" stroke="#D0F4DA"/>
<line y1="-0.5" x2="243.311" y2="-0.5" transform="matrix(0.866044 0.499967 -0.866044 0.499967 420.101 839.981)" stroke="#D0F4DA"/>
<line y1="-0.5" x2="243.311" y2="-0.5" transform="matrix(0.866044 0.499967 -0.866044 0.499967 413.03 844.063)" stroke="#D0F4DA"/>
<path d="M715.672 677.92L420.455 848.349" stroke="#D0F4DA"/>
<path d="M715.672 677.92L420.455 848.349" stroke="#D0F4DA"/>
<path d="M722.743 682.003L427.526 852.432" stroke="#D0F4DA"/>
<path d="M722.743 682.003L427.526 852.432" stroke="#D0F4DA"/>
<path d="M729.814 686.085L434.597 856.514" stroke="#D0F4DA"/>
<path d="M729.814 686.085L434.597 856.514" stroke="#D0F4DA"/>
<path d="M736.885 690.167L441.668 860.596" stroke="#D0F4DA"/>
<path d="M736.885 690.167L441.668 860.596" stroke="#D0F4DA"/>
<path d="M743.956 694.249L448.739 864.678" stroke="#D0F4DA"/>
<path d="M743.956 694.249L448.739 864.678" stroke="#D0F4DA"/>
<path d="M751.027 698.331L455.81 868.76" stroke="#D0F4DA"/>
<path d="M751.027 698.331L455.81 868.76" stroke="#D0F4DA"/>
<path d="M758.098 702.413L462.881 872.842" stroke="#D0F4DA"/>
<path d="M758.098 702.413L462.881 872.842" stroke="#D0F4DA"/>
<path d="M765.169 706.495L469.952 876.924" stroke="#D0F4DA"/>
<path d="M765.169 706.495L469.952 876.924" stroke="#D0F4DA"/>
<path d="M772.24 710.578L477.023 881.006" stroke="#D0F4DA"/>
<path d="M772.24 710.578L477.023 881.006" stroke="#D0F4DA"/>
<path d="M779.312 714.66L484.094 885.088" stroke="#D0F4DA"/>
<path d="M779.312 714.66L484.094 885.088" stroke="#D0F4DA"/>
<path d="M786.383 718.742L491.165 889.171" stroke="#D0F4DA"/>
<path d="M786.383 718.742L491.165 889.171" stroke="#D0F4DA"/>
<path d="M793.454 722.824L498.236 893.253" stroke="#D0F4DA"/>
<path d="M793.454 722.824L498.236 893.253" stroke="#D0F4DA"/>
<path d="M800.525 726.906L505.308 897.335" stroke="#D0F4DA"/>
<path d="M800.525 726.906L505.308 897.335" stroke="#D0F4DA"/>
<path d="M807.596 730.988L512.379 901.417" stroke="#D0F4DA"/>
<path d="M807.596 730.988L512.379 901.417" stroke="#D0F4DA"/>
<path d="M814.667 735.07L519.45 905.499" stroke="#D0F4DA"/>
<path d="M814.667 735.07L519.45 905.499" stroke="#D0F4DA"/>
<path d="M821.738 739.153L526.521 909.581" stroke="#D0F4DA"/>
<path d="M821.738 739.153L526.521 909.581" stroke="#D0F4DA"/>
<path d="M828.809 743.235L533.592 913.663" stroke="#D0F4DA"/>
<path d="M828.809 743.235L533.592 913.663" stroke="#D0F4DA"/>
<path d="M835.88 747.317L540.663 917.745" stroke="#D0F4DA"/>
<path d="M835.88 747.317L540.663 917.745" stroke="#D0F4DA"/>
<path d="M842.951 751.399L547.734 921.828" stroke="#D0F4DA"/>
<path d="M842.951 751.399L547.734 921.828" stroke="#D0F4DA"/>
<path d="M850.022 755.481L554.805 925.91" stroke="#D0F4DA"/>
<path d="M850.022 755.481L554.805 925.91" stroke="#D0F4DA"/>
<path d="M857.093 759.563L561.876 929.992" stroke="#D0F4DA"/>
<path d="M857.093 759.563L561.876 929.992" stroke="#D0F4DA"/>
<path d="M864.164 763.645L568.947 934.074" stroke="#D0F4DA"/>
<path d="M864.164 763.645L568.947 934.074" stroke="#D0F4DA"/>
<path d="M871.235 767.727L576.018 938.156" stroke="#D0F4DA"/>
<path d="M871.235 767.727L576.018 938.156" stroke="#D0F4DA"/>
<path d="M878.306 771.809L583.089 942.238" stroke="#D0F4DA"/>
<path d="M878.306 771.809L583.089 942.238" stroke="#D0F4DA"/>
<path d="M885.378 775.892L590.161 946.32" stroke="#D0F4DA"/>
<path d="M885.378 775.892L590.161 946.32" stroke="#D0F4DA"/>
<path d="M892.449 779.974L597.232 950.402" stroke="#D0F4DA"/>
<path d="M892.449 779.974L597.232 950.402" stroke="#D0F4DA"/>
<path d="M899.52 784.056L604.303 954.485" stroke="#D0F4DA"/>
<path d="M899.52 784.056L604.303 954.485" stroke="#D0F4DA"/>
<path d="M906.591 788.138L611.374 958.567" stroke="#D0F4DA"/>
<path d="M906.591 788.138L611.374 958.567" stroke="#D0F4DA"/>
<path d="M913.662 792.22L618.445 962.649" stroke="#D0F4DA"/>
<path d="M913.662 792.22L618.445 962.649" stroke="#D0F4DA"/>
<rect width="242.494" height="342.921" transform="matrix(0.866044 0.499967 -0.866044 0.499967 710.985 672.031)" fill="#FBFBFB"/>
<line y1="-0.5" x2="243.311" y2="-0.5" transform="matrix(0.866044 0.499967 -0.866044 0.499967 703.944 674.696)" stroke="#D0F4DA"/>
<line y1="-0.5" x2="243.311" y2="-0.5" transform="matrix(0.866044 0.499967 -0.866044 0.499967 696.873 678.778)" stroke="#D0F4DA"/>
<line y1="-0.5" x2="243.311" y2="-0.5" transform="matrix(0.866044 0.499967 -0.866044 0.499967 689.802 682.86)" stroke="#D0F4DA"/>
<line y1="-0.5" x2="243.311" y2="-0.5" transform="matrix(0.866044 0.499967 -0.866044 0.499967 682.731 686.942)" stroke="#D0F4DA"/>
<line y1="-0.5" x2="243.311" y2="-0.5" transform="matrix(0.866044 0.499967 -0.866044 0.499967 675.66 691.024)" stroke="#D0F4DA"/>
<line y1="-0.5" x2="243.311" y2="-0.5" transform="matrix(0.866044 0.499967 -0.866044 0.499967 668.589 695.106)" stroke="#D0F4DA"/>
<line y1="-0.5" x2="243.311" y2="-0.5" transform="matrix(0.866044 0.499967 -0.866044 0.499967 661.518 699.189)" stroke="#D0F4DA"/>
<line y1="-0.5" x2="243.311" y2="-0.5" transform="matrix(0.866044 0.499967 -0.866044 0.499967 654.447 703.271)" stroke="#D0F4DA"/>
<line y1="-0.5" x2="243.311" y2="-0.5" transform="matrix(0.866044 0.499967 -0.866044 0.499967 647.375 707.353)" stroke="#D0F4DA"/>
<line y1="-0.5" x2="243.311" y2="-0.5" transform="matrix(0.866044 0.499967 -0.866044 0.499967 640.304 711.435)" stroke="#D0F4DA"/>
<line y1="-0.5" x2="243.311" y2="-0.5" transform="matrix(0.866044 0.499967 -0.866044 0.499967 633.233 715.517)" stroke="#D0F4DA"/>
<line y1="-0.5" x2="243.311" y2="-0.5" transform="matrix(0.866044 0.499967 -0.866044 0.499967 626.162 719.599)" stroke="#D0F4DA"/>
<line y1="-0.5" x2="243.311" y2="-0.5" transform="matrix(0.866044 0.499967 -0.866044 0.499967 619.091 723.681)" stroke="#D0F4DA"/>
<line y1="-0.5" x2="243.311" y2="-0.5" transform="matrix(0.866044 0.499967 -0.866044 0.499967 612.02 727.764)" stroke="#D0F4DA"/>
<line y1="-0.5" x2="243.311" y2="-0.5" transform="matrix(0.866044 0.499967 -0.866044 0.499967 604.949 731.846)" stroke="#D0F4DA"/>
<line y1="-0.5" x2="243.311" y2="-0.5" transform="matrix(0.866044 0.499967 -0.866044 0.499967 597.878 735.928)" stroke="#D0F4DA"/>
<line y1="-0.5" x2="243.311" y2="-0.5" transform="matrix(0.866044 0.499967 -0.866044 0.499967 590.807 740.01)" stroke="#D0F4DA"/>
<line y1="-0.5" x2="243.311" y2="-0.5" transform="matrix(0.866044 0.499967 -0.866044 0.499967 583.736 744.092)" stroke="#D0F4DA"/>
<line y1="-0.5" x2="243.311" y2="-0.5" transform="matrix(0.866044 0.499967 -0.866044 0.499967 576.665 748.174)" stroke="#D0F4DA"/>
<line y1="-0.5" x2="243.311" y2="-0.5" transform="matrix(0.866044 0.499967 -0.866044 0.499967 569.594 752.256)" stroke="#D0F4DA"/>
<line y1="-0.5" x2="243.311" y2="-0.5" transform="matrix(0.866044 0.499967 -0.866044 0.499967 562.523 756.338)" stroke="#D0F4DA"/>
<line y1="-0.5" x2="243.311" y2="-0.5" transform="matrix(0.866044 0.499967 -0.866044 0.499967 555.451 760.42)" stroke="#D0F4DA"/>
<line y1="-0.5" x2="243.311" y2="-0.5" transform="matrix(0.866044 0.499967 -0.866044 0.499967 548.381 764.503)" stroke="#D0F4DA"/>
<line y1="-0.5" x2="243.311" y2="-0.5" transform="matrix(0.866044 0.499967 -0.866044 0.499967 541.31 768.585)" stroke="#D0F4DA"/>
<line y1="-0.5" x2="243.311" y2="-0.5" transform="matrix(0.866044 0.499967 -0.866044 0.499967 534.239 772.667)" stroke="#D0F4DA"/>
<line y1="-0.5" x2="243.311" y2="-0.5" transform="matrix(0.866044 0.499967 -0.866044 0.499967 527.167 776.749)" stroke="#D0F4DA"/>
<line y1="-0.5" x2="243.311" y2="-0.5" transform="matrix(0.866044 0.499967 -0.866044 0.499967 520.096 780.831)" stroke="#D0F4DA"/>
<line y1="-0.5" x2="243.311" y2="-0.5" transform="matrix(0.866044 0.499967 -0.866044 0.499967 513.025 784.913)" stroke="#D0F4DA"/>
<line y1="-0.5" x2="243.311" y2="-0.5" transform="matrix(0.866044 0.499967 -0.866044 0.499967 505.954 788.995)" stroke="#D0F4DA"/>
<line y1="-0.5" x2="243.311" y2="-0.5" transform="matrix(0.866044 0.499967 -0.866044 0.499967 498.883 793.078)" stroke="#D0F4DA"/>
<line y1="-0.5" x2="243.311" y2="-0.5" transform="matrix(0.866044 0.499967 -0.866044 0.499967 491.812 797.16)" stroke="#D0F4DA"/>
<line y1="-0.5" x2="243.311" y2="-0.5" transform="matrix(0.866044 0.499967 -0.866044 0.499967 484.741 801.242)" stroke="#D0F4DA"/>
<line y1="-0.5" x2="243.311" y2="-0.5" transform="matrix(0.866044 0.499967 -0.866044 0.499967 477.67 805.324)" stroke="#D0F4DA"/>
<line y1="-0.5" x2="243.311" y2="-0.5" transform="matrix(0.866044 0.499967 -0.866044 0.499967 470.599 809.406)" stroke="#D0F4DA"/>
<line y1="-0.5" x2="243.311" y2="-0.5" transform="matrix(0.866044 0.499967 -0.866044 0.499967 463.528 813.488)" stroke="#D0F4DA"/>
<line y1="-0.5" x2="243.311" y2="-0.5" transform="matrix(0.866044 0.499967 -0.866044 0.499967 456.457 817.57)" stroke="#D0F4DA"/>
<line y1="-0.5" x2="243.311" y2="-0.5" transform="matrix(0.866044 0.499967 -0.866044 0.499967 449.385 821.653)" stroke="#D0F4DA"/>
<line y1="-0.5" x2="243.311" y2="-0.5" transform="matrix(0.866044 0.499967 -0.866044 0.499967 442.314 825.735)" stroke="#D0F4DA"/>
<line y1="-0.5" x2="243.311" y2="-0.5" transform="matrix(0.866044 0.499967 -0.866044 0.499967 435.243 829.817)" stroke="#D0F4DA"/>
<line y1="-0.5" x2="243.311" y2="-0.5" transform="matrix(0.866044 0.499967 -0.866044 0.499967 428.172 833.899)" stroke="#D0F4DA"/>
<line y1="-0.5" x2="243.311" y2="-0.5" transform="matrix(0.866044 0.499967 -0.866044 0.499967 421.101 837.981)" stroke="#D0F4DA"/>
<line y1="-0.5" x2="243.311" y2="-0.5" transform="matrix(0.866044 0.499967 -0.866044 0.499967 414.03 842.063)" stroke="#D0F4DA"/>
<path d="M716.672 675.92L421.455 846.349" stroke="#D0F4DA"/>
<path d="M716.672 675.92L421.455 846.349" stroke="#D0F4DA"/>
<path d="M723.743 680.003L428.526 850.432" stroke="#D0F4DA"/>
<path d="M723.743 680.003L428.526 850.432" stroke="#D0F4DA"/>
<path d="M730.814 684.085L435.597 854.514" stroke="#D0F4DA"/>
<path d="M730.814 684.085L435.597 854.514" stroke="#D0F4DA"/>
<path d="M737.885 688.167L442.668 858.596" stroke="#D0F4DA"/>
<path d="M737.885 688.167L442.668 858.596" stroke="#D0F4DA"/>
<path d="M744.956 692.249L449.739 862.678" stroke="#D0F4DA"/>
<path d="M744.956 692.249L449.739 862.678" stroke="#D0F4DA"/>
<path d="M752.027 696.331L456.81 866.76" stroke="#D0F4DA"/>
<path d="M752.027 696.331L456.81 866.76" stroke="#D0F4DA"/>
<path d="M759.098 700.413L463.881 870.842" stroke="#D0F4DA"/>
<path d="M759.098 700.413L463.881 870.842" stroke="#D0F4DA"/>
<path d="M766.169 704.495L470.952 874.924" stroke="#D0F4DA"/>
<path d="M766.169 704.495L470.952 874.924" stroke="#D0F4DA"/>
<path d="M773.24 708.578L478.023 879.006" stroke="#D0F4DA"/>
<path d="M773.24 708.578L478.023 879.006" stroke="#D0F4DA"/>
<path d="M780.312 712.66L485.094 883.088" stroke="#D0F4DA"/>
<path d="M780.312 712.66L485.094 883.088" stroke="#D0F4DA"/>
<path d="M787.383 716.742L492.165 887.171" stroke="#D0F4DA"/>
<path d="M787.383 716.742L492.165 887.171" stroke="#D0F4DA"/>
<path d="M794.454 720.824L499.236 891.253" stroke="#D0F4DA"/>
<path d="M794.454 720.824L499.236 891.253" stroke="#D0F4DA"/>
<path d="M801.525 724.906L506.308 895.335" stroke="#D0F4DA"/>
<path d="M801.525 724.906L506.308 895.335" stroke="#D0F4DA"/>
<path d="M808.596 728.988L513.379 899.417" stroke="#D0F4DA"/>
<path d="M808.596 728.988L513.379 899.417" stroke="#D0F4DA"/>
<path d="M815.667 733.07L520.45 903.499" stroke="#D0F4DA"/>
<path d="M815.667 733.07L520.45 903.499" stroke="#D0F4DA"/>
<path d="M822.738 737.153L527.521 907.581" stroke="#D0F4DA"/>
<path d="M822.738 737.153L527.521 907.581" stroke="#D0F4DA"/>
<path d="M829.809 741.235L534.592 911.663" stroke="#D0F4DA"/>
<path d="M829.809 741.235L534.592 911.663" stroke="#D0F4DA"/>
<path d="M836.88 745.317L541.663 915.745" stroke="#D0F4DA"/>
<path d="M836.88 745.317L541.663 915.745" stroke="#D0F4DA"/>
<path d="M843.951 749.399L548.734 919.828" stroke="#D0F4DA"/>
<path d="M843.951 749.399L548.734 919.828" stroke="#D0F4DA"/>
<path d="M851.022 753.481L555.805 923.91" stroke="#D0F4DA"/>
<path d="M851.022 753.481L555.805 923.91" stroke="#D0F4DA"/>
<path d="M858.093 757.563L562.876 927.992" stroke="#D0F4DA"/>
<path d="M858.093 757.563L562.876 927.992" stroke="#D0F4DA"/>
<path d="M865.164 761.645L569.947 932.074" stroke="#D0F4DA"/>
<path d="M865.164 761.645L569.947 932.074" stroke="#D0F4DA"/>
<path d="M872.235 765.727L577.018 936.156" stroke="#D0F4DA"/>
<path d="M872.235 765.727L577.018 936.156" stroke="#D0F4DA"/>
<path d="M879.306 769.809L584.089 940.238" stroke="#D0F4DA"/>
<path d="M879.306 769.809L584.089 940.238" stroke="#D0F4DA"/>
<path d="M886.378 773.892L591.161 944.32" stroke="#D0F4DA"/>
<path d="M886.378 773.892L591.161 944.32" stroke="#D0F4DA"/>
<path d="M893.449 777.974L598.232 948.402" stroke="#D0F4DA"/>
<path d="M893.449 777.974L598.232 948.402" stroke="#D0F4DA"/>
<path d="M900.52 782.056L605.303 952.485" stroke="#D0F4DA"/>
<path d="M900.52 782.056L605.303 952.485" stroke="#D0F4DA"/>
<path d="M907.591 786.138L612.374 956.567" stroke="#D0F4DA"/>
<path d="M907.591 786.138L612.374 956.567" stroke="#D0F4DA"/>
<path d="M914.662 790.22L619.445 960.649" stroke="#D0F4DA"/>
<path d="M914.662 790.22L619.445 960.649" stroke="#D0F4DA"/>
<rect width="242.494" height="342.921" transform="matrix(0.866044 0.499967 -0.866044 0.499967 710.985 669.031)" fill="#FBFBFB"/>
<line y1="-0.5" x2="243.311" y2="-0.5" transform="matrix(0.866044 0.499967 -0.866044 0.499967 703.944 671.696)" stroke="#D0F4DA"/>
<line y1="-0.5" x2="243.311" y2="-0.5" transform="matrix(0.866044 0.499967 -0.866044 0.499967 696.873 675.778)" stroke="#D0F4DA"/>
<line y1="-0.5" x2="243.311" y2="-0.5" transform="matrix(0.866044 0.499967 -0.866044 0.499967 689.802 679.86)" stroke="#D0F4DA"/>
<line y1="-0.5" x2="243.311" y2="-0.5" transform="matrix(0.866044 0.499967 -0.866044 0.499967 682.731 683.942)" stroke="#D0F4DA"/>
<line y1="-0.5" x2="243.311" y2="-0.5" transform="matrix(0.866044 0.499967 -0.866044 0.499967 675.66 688.024)" stroke="#D0F4DA"/>
<line y1="-0.5" x2="243.311" y2="-0.5" transform="matrix(0.866044 0.499967 -0.866044 0.499967 668.589 692.106)" stroke="#D0F4DA"/>
<line y1="-0.5" x2="243.311" y2="-0.5" transform="matrix(0.866044 0.499967 -0.866044 0.499967 661.518 696.189)" stroke="#D0F4DA"/>
<line y1="-0.5" x2="243.311" y2="-0.5" transform="matrix(0.866044 0.499967 -0.866044 0.499967 654.447 700.271)" stroke="#D0F4DA"/>
<line y1="-0.5" x2="243.311" y2="-0.5" transform="matrix(0.866044 0.499967 -0.866044 0.499967 647.375 704.353)" stroke="#D0F4DA"/>
<line y1="-0.5" x2="243.311" y2="-0.5" transform="matrix(0.866044 0.499967 -0.866044 0.499967 640.304 708.435)" stroke="#D0F4DA"/>
<line y1="-0.5" x2="243.311" y2="-0.5" transform="matrix(0.866044 0.499967 -0.866044 0.499967 633.233 712.517)" stroke="#D0F4DA"/>
<line y1="-0.5" x2="243.311" y2="-0.5" transform="matrix(0.866044 0.499967 -0.866044 0.499967 626.162 716.599)" stroke="#D0F4DA"/>
<line y1="-0.5" x2="243.311" y2="-0.5" transform="matrix(0.866044 0.499967 -0.866044 0.499967 619.091 720.681)" stroke="#D0F4DA"/>
<line y1="-0.5" x2="243.311" y2="-0.5" transform="matrix(0.866044 0.499967 -0.866044 0.499967 612.02 724.764)" stroke="#D0F4DA"/>
<line y1="-0.5" x2="243.311" y2="-0.5" transform="matrix(0.866044 0.499967 -0.866044 0.499967 604.949 728.846)" stroke="#D0F4DA"/>
<line y1="-0.5" x2="243.311" y2="-0.5" transform="matrix(0.866044 0.499967 -0.866044 0.499967 597.878 732.928)" stroke="#D0F4DA"/>
<line y1="-0.5" x2="243.311" y2="-0.5" transform="matrix(0.866044 0.499967 -0.866044 0.499967 590.807 737.01)" stroke="#D0F4DA"/>
<line y1="-0.5" x2="243.311" y2="-0.5" transform="matrix(0.866044 0.499967 -0.866044 0.499967 583.736 741.092)" stroke="#D0F4DA"/>
<line y1="-0.5" x2="243.311" y2="-0.5" transform="matrix(0.866044 0.499967 -0.866044 0.499967 576.665 745.174)" stroke="#D0F4DA"/>
<line y1="-0.5" x2="243.311" y2="-0.5" transform="matrix(0.866044 0.499967 -0.866044 0.499967 569.594 749.256)" stroke="#D0F4DA"/>
<line y1="-0.5" x2="243.311" y2="-0.5" transform="matrix(0.866044 0.499967 -0.866044 0.499967 562.523 753.338)" stroke="#D0F4DA"/>
<line y1="-0.5" x2="243.311" y2="-0.5" transform="matrix(0.866044 0.499967 -0.866044 0.499967 555.451 757.42)" stroke="#D0F4DA"/>
<line y1="-0.5" x2="243.311" y2="-0.5" transform="matrix(0.866044 0.499967 -0.866044 0.499967 548.381 761.503)" stroke="#D0F4DA"/>
<line y1="-0.5" x2="243.311" y2="-0.5" transform="matrix(0.866044 0.499967 -0.866044 0.499967 541.31 765.585)" stroke="#D0F4DA"/>
<line y1="-0.5" x2="243.311" y2="-0.5" transform="matrix(0.866044 0.499967 -0.866044 0.499967 534.239 769.667)" stroke="#D0F4DA"/>
<line y1="-0.5" x2="243.311" y2="-0.5" transform="matrix(0.866044 0.499967 -0.866044 0.499967 527.167 773.749)" stroke="#D0F4DA"/>
<line y1="-0.5" x2="243.311" y2="-0.5" transform="matrix(0.866044 0.499967 -0.866044 0.499967 520.096 777.831)" stroke="#D0F4DA"/>
<line y1="-0.5" x2="243.311" y2="-0.5" transform="matrix(0.866044 0.499967 -0.866044 0.499967 513.025 781.913)" stroke="#D0F4DA"/>
<line y1="-0.5" x2="243.311" y2="-0.5" transform="matrix(0.866044 0.499967 -0.866044 0.499967 505.954 785.995)" stroke="#D0F4DA"/>
<line y1="-0.5" x2="243.311" y2="-0.5" transform="matrix(0.866044 0.499967 -0.866044 0.499967 498.883 790.078)" stroke="#D0F4DA"/>
<line y1="-0.5" x2="243.311" y2="-0.5" transform="matrix(0.866044 0.499967 -0.866044 0.499967 491.812 794.16)" stroke="#D0F4DA"/>
<line y1="-0.5" x2="243.311" y2="-0.5" transform="matrix(0.866044 0.499967 -0.866044 0.499967 484.741 798.242)" stroke="#D0F4DA"/>
<line y1="-0.5" x2="243.311" y2="-0.5" transform="matrix(0.866044 0.499967 -0.866044 0.499967 477.67 802.324)" stroke="#D0F4DA"/>
<line y1="-0.5" x2="243.311" y2="-0.5" transform="matrix(0.866044 0.499967 -0.866044 0.499967 470.599 806.406)" stroke="#D0F4DA"/>
<line y1="-0.5" x2="243.311" y2="-0.5" transform="matrix(0.866044 0.499967 -0.866044 0.499967 463.528 810.488)" stroke="#D0F4DA"/>
<line y1="-0.5" x2="243.311" y2="-0.5" transform="matrix(0.866044 0.499967 -0.866044 0.499967 456.457 814.57)" stroke="#D0F4DA"/>
<line y1="-0.5" x2="243.311" y2="-0.5" transform="matrix(0.866044 0.499967 -0.866044 0.499967 449.385 818.653)" stroke="#D0F4DA"/>
<line y1="-0.5" x2="243.311" y2="-0.5" transform="matrix(0.866044 0.499967 -0.866044 0.499967 442.314 822.735)" stroke="#D0F4DA"/>
<line y1="-0.5" x2="243.311" y2="-0.5" transform="matrix(0.866044 0.499967 -0.866044 0.499967 435.243 826.817)" stroke="#D0F4DA"/>
<line y1="-0.5" x2="243.311" y2="-0.5" transform="matrix(0.866044 0.499967 -0.866044 0.499967 428.172 830.899)" stroke="#D0F4DA"/>
<line y1="-0.5" x2="243.311" y2="-0.5" transform="matrix(0.866044 0.499967 -0.866044 0.499967 421.101 834.981)" stroke="#D0F4DA"/>
<line y1="-0.5" x2="243.311" y2="-0.5" transform="matrix(0.866044 0.499967 -0.866044 0.499967 414.03 839.063)" stroke="#D0F4DA"/>
<path d="M716.672 672.92L421.455 843.349" stroke="#D0F4DA"/>
<path d="M716.672 672.92L421.455 843.349" stroke="#D0F4DA"/>
<path d="M723.743 677.003L428.526 847.432" stroke="#D0F4DA"/>
<path d="M723.743 677.003L428.526 847.432" stroke="#D0F4DA"/>
<path d="M730.814 681.085L435.597 851.514" stroke="#D0F4DA"/>
<path d="M730.814 681.085L435.597 851.514" stroke="#D0F4DA"/>
<path d="M737.885 685.167L442.668 855.596" stroke="#D0F4DA"/>
<path d="M737.885 685.167L442.668 855.596" stroke="#D0F4DA"/>
<path d="M744.956 689.249L449.739 859.678" stroke="#D0F4DA"/>
<path d="M744.956 689.249L449.739 859.678" stroke="#D0F4DA"/>
<path d="M752.027 693.331L456.81 863.76" stroke="#D0F4DA"/>
<path d="M752.027 693.331L456.81 863.76" stroke="#D0F4DA"/>
<path d="M759.098 697.413L463.881 867.842" stroke="#D0F4DA"/>
<path d="M759.098 697.413L463.881 867.842" stroke="#D0F4DA"/>
<path d="M766.169 701.495L470.952 871.924" stroke="#D0F4DA"/>
<path d="M766.169 701.495L470.952 871.924" stroke="#D0F4DA"/>
<path d="M773.24 705.578L478.023 876.006" stroke="#D0F4DA"/>
<path d="M773.24 705.578L478.023 876.006" stroke="#D0F4DA"/>
<path d="M780.312 709.66L485.094 880.088" stroke="#D0F4DA"/>
<path d="M780.312 709.66L485.094 880.088" stroke="#D0F4DA"/>
<path d="M787.383 713.742L492.165 884.171" stroke="#D0F4DA"/>
<path d="M787.383 713.742L492.165 884.171" stroke="#D0F4DA"/>
<path d="M794.454 717.824L499.236 888.253" stroke="#D0F4DA"/>
<path d="M794.454 717.824L499.236 888.253" stroke="#D0F4DA"/>
<path d="M801.525 721.906L506.308 892.335" stroke="#D0F4DA"/>
<path d="M801.525 721.906L506.308 892.335" stroke="#D0F4DA"/>
<path d="M808.596 725.988L513.379 896.417" stroke="#D0F4DA"/>
<path d="M808.596 725.988L513.379 896.417" stroke="#D0F4DA"/>
<path d="M815.667 730.07L520.45 900.499" stroke="#D0F4DA"/>
<path d="M815.667 730.07L520.45 900.499" stroke="#D0F4DA"/>
<path d="M822.738 734.153L527.521 904.581" stroke="#D0F4DA"/>
<path d="M822.738 734.153L527.521 904.581" stroke="#D0F4DA"/>
<path d="M829.809 738.235L534.592 908.663" stroke="#D0F4DA"/>
<path d="M829.809 738.235L534.592 908.663" stroke="#D0F4DA"/>
<path d="M836.88 742.317L541.663 912.745" stroke="#D0F4DA"/>
<path d="M836.88 742.317L541.663 912.745" stroke="#D0F4DA"/>
<path d="M843.951 746.399L548.734 916.828" stroke="#D0F4DA"/>
<path d="M843.951 746.399L548.734 916.828" stroke="#D0F4DA"/>
<path d="M851.022 750.481L555.805 920.91" stroke="#D0F4DA"/>
<path d="M851.022 750.481L555.805 920.91" stroke="#D0F4DA"/>
<path d="M858.093 754.563L562.876 924.992" stroke="#D0F4DA"/>
<path d="M858.093 754.563L562.876 924.992" stroke="#D0F4DA"/>
<path d="M865.164 758.645L569.947 929.074" stroke="#D0F4DA"/>
<path d="M865.164 758.645L569.947 929.074" stroke="#D0F4DA"/>
<path d="M872.235 762.727L577.018 933.156" stroke="#D0F4DA"/>
<path d="M872.235 762.727L577.018 933.156" stroke="#D0F4DA"/>
<path d="M879.306 766.809L584.089 937.238" stroke="#D0F4DA"/>
<path d="M879.306 766.809L584.089 937.238" stroke="#D0F4DA"/>
<path d="M886.378 770.892L591.161 941.32" stroke="#D0F4DA"/>
<path d="M886.378 770.892L591.161 941.32" stroke="#D0F4DA"/>
<path d="M893.449 774.974L598.232 945.402" stroke="#D0F4DA"/>
<path d="M893.449 774.974L598.232 945.402" stroke="#D0F4DA"/>
<path d="M900.52 779.056L605.303 949.485" stroke="#D0F4DA"/>
<path d="M900.52 779.056L605.303 949.485" stroke="#D0F4DA"/>
<path d="M907.591 783.138L612.374 953.567" stroke="#D0F4DA"/>
<path d="M907.591 783.138L612.374 953.567" stroke="#D0F4DA"/>
<path d="M914.662 787.22L619.445 957.649" stroke="#D0F4DA"/>
<path d="M914.662 787.22L619.445 957.649" stroke="#D0F4DA"/>
<rect width="242.494" height="342.921" transform="matrix(0.866044 0.499967 -0.866044 0.499967 711.985 667.031)" fill="#FBFBFB"/>
<line y1="-0.5" x2="243.311" y2="-0.5" transform="matrix(0.866044 0.499967 -0.866044 0.499967 704.944 669.696)" stroke="#D0F4DA"/>
<line y1="-0.5" x2="243.311" y2="-0.5" transform="matrix(0.866044 0.499967 -0.866044 0.499967 697.873 673.778)" stroke="#D0F4DA"/>
<line y1="-0.5" x2="243.311" y2="-0.5" transform="matrix(0.866044 0.499967 -0.866044 0.499967 690.802 677.86)" stroke="#D0F4DA"/>
<line y1="-0.5" x2="243.311" y2="-0.5" transform="matrix(0.866044 0.499967 -0.866044 0.499967 683.731 681.942)" stroke="#D0F4DA"/>
<line y1="-0.5" x2="243.311" y2="-0.5" transform="matrix(0.866044 0.499967 -0.866044 0.499967 676.66 686.024)" stroke="#D0F4DA"/>
<line y1="-0.5" x2="243.311" y2="-0.5" transform="matrix(0.866044 0.499967 -0.866044 0.499967 669.589 690.106)" stroke="#D0F4DA"/>
<line y1="-0.5" x2="243.311" y2="-0.5" transform="matrix(0.866044 0.499967 -0.866044 0.499967 662.518 694.189)" stroke="#D0F4DA"/>
<line y1="-0.5" x2="243.311" y2="-0.5" transform="matrix(0.866044 0.499967 -0.866044 0.499967 655.447 698.271)" stroke="#D0F4DA"/>
<line y1="-0.5" x2="243.311" y2="-0.5" transform="matrix(0.866044 0.499967 -0.866044 0.499967 648.375 702.353)" stroke="#D0F4DA"/>
<line y1="-0.5" x2="243.311" y2="-0.5" transform="matrix(0.866044 0.499967 -0.866044 0.499967 641.304 706.435)" stroke="#D0F4DA"/>
<line y1="-0.5" x2="243.311" y2="-0.5" transform="matrix(0.866044 0.499967 -0.866044 0.499967 634.233 710.517)" stroke="#D0F4DA"/>
<line y1="-0.5" x2="243.311" y2="-0.5" transform="matrix(0.866044 0.499967 -0.866044 0.499967 627.162 714.599)" stroke="#D0F4DA"/>
<line y1="-0.5" x2="243.311" y2="-0.5" transform="matrix(0.866044 0.499967 -0.866044 0.499967 620.091 718.681)" stroke="#D0F4DA"/>
<line y1="-0.5" x2="243.311" y2="-0.5" transform="matrix(0.866044 0.499967 -0.866044 0.499967 613.02 722.764)" stroke="#D0F4DA"/>
<line y1="-0.5" x2="243.311" y2="-0.5" transform="matrix(0.866044 0.499967 -0.866044 0.499967 605.949 726.846)" stroke="#D0F4DA"/>
<line y1="-0.5" x2="243.311" y2="-0.5" transform="matrix(0.866044 0.499967 -0.866044 0.499967 598.878 730.928)" stroke="#D0F4DA"/>
<line y1="-0.5" x2="243.311" y2="-0.5" transform="matrix(0.866044 0.499967 -0.866044 0.499967 591.807 735.01)" stroke="#D0F4DA"/>
<line y1="-0.5" x2="243.311" y2="-0.5" transform="matrix(0.866044 0.499967 -0.866044 0.499967 584.736 739.092)" stroke="#D0F4DA"/>
<line y1="-0.5" x2="243.311" y2="-0.5" transform="matrix(0.866044 0.499967 -0.866044 0.499967 577.665 743.174)" stroke="#D0F4DA"/>
<line y1="-0.5" x2="243.311" y2="-0.5" transform="matrix(0.866044 0.499967 -0.866044 0.499967 570.594 747.256)" stroke="#D0F4DA"/>
<line y1="-0.5" x2="243.311" y2="-0.5" transform="matrix(0.866044 0.499967 -0.866044 0.499967 563.523 751.338)" stroke="#D0F4DA"/>
<line y1="-0.5" x2="243.311" y2="-0.5" transform="matrix(0.866044 0.499967 -0.866044 0.499967 556.451 755.42)" stroke="#D0F4DA"/>
<line y1="-0.5" x2="243.311" y2="-0.5" transform="matrix(0.866044 0.499967 -0.866044 0.499967 549.381 759.503)" stroke="#D0F4DA"/>
<line y1="-0.5" x2="243.311" y2="-0.5" transform="matrix(0.866044 0.499967 -0.866044 0.499967 542.31 763.585)" stroke="#D0F4DA"/>
<line y1="-0.5" x2="243.311" y2="-0.5" transform="matrix(0.866044 0.499967 -0.866044 0.499967 535.239 767.667)" stroke="#D0F4DA"/>
<line y1="-0.5" x2="243.311" y2="-0.5" transform="matrix(0.866044 0.499967 -0.866044 0.499967 528.167 771.749)" stroke="#D0F4DA"/>
<line y1="-0.5" x2="243.311" y2="-0.5" transform="matrix(0.866044 0.499967 -0.866044 0.499967 521.096 775.831)" stroke="#D0F4DA"/>
<line y1="-0.5" x2="243.311" y2="-0.5" transform="matrix(0.866044 0.499967 -0.866044 0.499967 514.025 779.913)" stroke="#D0F4DA"/>
<line y1="-0.5" x2="243.311" y2="-0.5" transform="matrix(0.866044 0.499967 -0.866044 0.499967 506.954 783.995)" stroke="#D0F4DA"/>
<line y1="-0.5" x2="243.311" y2="-0.5" transform="matrix(0.866044 0.499967 -0.866044 0.499967 499.883 788.078)" stroke="#D0F4DA"/>
<line y1="-0.5" x2="243.311" y2="-0.5" transform="matrix(0.866044 0.499967 -0.866044 0.499967 492.812 792.16)" stroke="#D0F4DA"/>
<line y1="-0.5" x2="243.311" y2="-0.5" transform="matrix(0.866044 0.499967 -0.866044 0.499967 485.741 796.242)" stroke="#D0F4DA"/>
<line y1="-0.5" x2="243.311" y2="-0.5" transform="matrix(0.866044 0.499967 -0.866044 0.499967 478.67 800.324)" stroke="#D0F4DA"/>
<line y1="-0.5" x2="243.311" y2="-0.5" transform="matrix(0.866044 0.499967 -0.866044 0.499967 471.599 804.406)" stroke="#D0F4DA"/>
<line y1="-0.5" x2="243.311" y2="-0.5" transform="matrix(0.866044 0.499967 -0.866044 0.499967 464.528 808.488)" stroke="#D0F4DA"/>
<line y1="-0.5" x2="243.311" y2="-0.5" transform="matrix(0.866044 0.499967 -0.866044 0.499967 457.457 812.57)" stroke="#D0F4DA"/>
<line y1="-0.5" x2="243.311" y2="-0.5" transform="matrix(0.866044 0.499967 -0.866044 0.499967 450.385 816.653)" stroke="#D0F4DA"/>
<line y1="-0.5" x2="243.311" y2="-0.5" transform="matrix(0.866044 0.499967 -0.866044 0.499967 443.314 820.735)" stroke="#D0F4DA"/>
<line y1="-0.5" x2="243.311" y2="-0.5" transform="matrix(0.866044 0.499967 -0.866044 0.499967 436.243 824.817)" stroke="#D0F4DA"/>
<line y1="-0.5" x2="243.311" y2="-0.5" transform="matrix(0.866044 0.499967 -0.866044 0.499967 429.172 828.899)" stroke="#D0F4DA"/>
<line y1="-0.5" x2="243.311" y2="-0.5" transform="matrix(0.866044 0.499967 -0.866044 0.499967 422.101 832.981)" stroke="#D0F4DA"/>
<line y1="-0.5" x2="243.311" y2="-0.5" transform="matrix(0.866044 0.499967 -0.866044 0.499967 415.03 837.063)" stroke="#D0F4DA"/>
<path d="M717.672 670.92L422.455 841.349" stroke="#D0F4DA"/>
<path d="M717.672 670.92L422.455 841.349" stroke="#D0F4DA"/>
<path d="M724.743 675.003L429.526 845.432" stroke="#D0F4DA"/>
<path d="M724.743 675.003L429.526 845.432" stroke="#D0F4DA"/>
<path d="M731.814 679.085L436.597 849.514" stroke="#D0F4DA"/>
<path d="M731.814 679.085L436.597 849.514" stroke="#D0F4DA"/>
<path d="M738.885 683.167L443.668 853.596" stroke="#D0F4DA"/>
<path d="M738.885 683.167L443.668 853.596" stroke="#D0F4DA"/>
<path d="M745.956 687.249L450.739 857.678" stroke="#D0F4DA"/>
<path d="M745.956 687.249L450.739 857.678" stroke="#D0F4DA"/>
<path d="M753.027 691.331L457.81 861.76" stroke="#D0F4DA"/>
<path d="M753.027 691.331L457.81 861.76" stroke="#D0F4DA"/>
<path d="M760.098 695.413L464.881 865.842" stroke="#D0F4DA"/>
<path d="M760.098 695.413L464.881 865.842" stroke="#D0F4DA"/>
<path d="M767.169 699.495L471.952 869.924" stroke="#D0F4DA"/>
<path d="M767.169 699.495L471.952 869.924" stroke="#D0F4DA"/>
<path d="M774.24 703.578L479.023 874.006" stroke="#D0F4DA"/>
<path d="M774.24 703.578L479.023 874.006" stroke="#D0F4DA"/>
<path d="M781.312 707.66L486.094 878.088" stroke="#D0F4DA"/>
<path d="M781.312 707.66L486.094 878.088" stroke="#D0F4DA"/>
<path d="M788.383 711.742L493.165 882.171" stroke="#D0F4DA"/>
<path d="M788.383 711.742L493.165 882.171" stroke="#D0F4DA"/>
<path d="M795.454 715.824L500.236 886.253" stroke="#D0F4DA"/>
<path d="M795.454 715.824L500.236 886.253" stroke="#D0F4DA"/>
<path d="M802.525 719.906L507.308 890.335" stroke="#D0F4DA"/>
<path d="M802.525 719.906L507.308 890.335" stroke="#D0F4DA"/>
<path d="M809.596 723.988L514.379 894.417" stroke="#D0F4DA"/>
<path d="M809.596 723.988L514.379 894.417" stroke="#D0F4DA"/>
<path d="M816.667 728.07L521.45 898.499" stroke="#D0F4DA"/>
<path d="M816.667 728.07L521.45 898.499" stroke="#D0F4DA"/>
<path d="M823.738 732.153L528.521 902.581" stroke="#D0F4DA"/>
<path d="M823.738 732.153L528.521 902.581" stroke="#D0F4DA"/>
<path d="M830.809 736.235L535.592 906.663" stroke="#D0F4DA"/>
<path d="M830.809 736.235L535.592 906.663" stroke="#D0F4DA"/>
<path d="M837.88 740.317L542.663 910.745" stroke="#D0F4DA"/>
<path d="M837.88 740.317L542.663 910.745" stroke="#D0F4DA"/>
<path d="M844.951 744.399L549.734 914.828" stroke="#D0F4DA"/>
<path d="M844.951 744.399L549.734 914.828" stroke="#D0F4DA"/>
<path d="M852.022 748.481L556.805 918.91" stroke="#D0F4DA"/>
<path d="M852.022 748.481L556.805 918.91" stroke="#D0F4DA"/>
<path d="M859.093 752.563L563.876 922.992" stroke="#D0F4DA"/>
<path d="M859.093 752.563L563.876 922.992" stroke="#D0F4DA"/>
<path d="M866.164 756.645L570.947 927.074" stroke="#D0F4DA"/>
<path d="M866.164 756.645L570.947 927.074" stroke="#D0F4DA"/>
<path d="M873.235 760.727L578.018 931.156" stroke="#D0F4DA"/>
<path d="M873.235 760.727L578.018 931.156" stroke="#D0F4DA"/>
<path d="M880.306 764.809L585.089 935.238" stroke="#D0F4DA"/>
<path d="M880.306 764.809L585.089 935.238" stroke="#D0F4DA"/>
<path d="M887.378 768.892L592.161 939.32" stroke="#D0F4DA"/>
<path d="M887.378 768.892L592.161 939.32" stroke="#D0F4DA"/>
<path d="M894.449 772.974L599.232 943.402" stroke="#D0F4DA"/>
<path d="M894.449 772.974L599.232 943.402" stroke="#D0F4DA"/>
<path d="M901.52 777.056L606.303 947.485" stroke="#D0F4DA"/>
<path d="M901.52 777.056L606.303 947.485" stroke="#D0F4DA"/>
<path d="M908.591 781.138L613.374 951.567" stroke="#D0F4DA"/>
<path d="M908.591 781.138L613.374 951.567" stroke="#D0F4DA"/>
<path d="M915.662 785.22L620.445 955.649" stroke="#D0F4DA"/>
<path d="M915.662 785.22L620.445 955.649" stroke="#D0F4DA"/>
<path d="M920.498 788L918.998 786.539L711.985 667.031L415 838.48L416.232 839.191L414 840.48L416.598 841.98L414 843.48L415.232 844.191L413 845.48L413.866 845.98L413 846.48L623.011 967.719L919.996 796.27L919.129 795.77L919.996 795.27L918.763 794.559L920.996 793.27L918.397 791.77L920.996 790.27L919.763 789.559L920.498 788Z" fill="url(#paint0_linear_346_1836)" fill-opacity="0.19"/>
<rect width="242.494" height="342.921" transform="matrix(0.866044 0.499967 -0.866044 0.499967 708.985 666.031)" fill="#FBFBFB"/>
<line y1="-0.5" x2="243.311" y2="-0.5" transform="matrix(0.866044 0.499967 -0.866044 0.499967 701.944 668.696)" stroke="#D0F4DA"/>
<line y1="-0.5" x2="243.311" y2="-0.5" transform="matrix(0.866044 0.499967 -0.866044 0.499967 694.873 672.778)" stroke="#D0F4DA"/>
<line y1="-0.5" x2="243.311" y2="-0.5" transform="matrix(0.866044 0.499967 -0.866044 0.499967 687.802 676.86)" stroke="#D0F4DA"/>
<line y1="-0.5" x2="243.311" y2="-0.5" transform="matrix(0.866044 0.499967 -0.866044 0.499967 680.731 680.942)" stroke="#D0F4DA"/>
<line y1="-0.5" x2="243.311" y2="-0.5" transform="matrix(0.866044 0.499967 -0.866044 0.499967 673.66 685.024)" stroke="#D0F4DA"/>
<line y1="-0.5" x2="243.311" y2="-0.5" transform="matrix(0.866044 0.499967 -0.866044 0.499967 666.589 689.106)" stroke="#D0F4DA"/>
<line y1="-0.5" x2="243.311" y2="-0.5" transform="matrix(0.866044 0.499967 -0.866044 0.499967 659.518 693.189)" stroke="#D0F4DA"/>
<line y1="-0.5" x2="243.311" y2="-0.5" transform="matrix(0.866044 0.499967 -0.866044 0.499967 652.447 697.271)" stroke="#D0F4DA"/>
<line y1="-0.5" x2="243.311" y2="-0.5" transform="matrix(0.866044 0.499967 -0.866044 0.499967 645.375 701.353)" stroke="#D0F4DA"/>
<line y1="-0.5" x2="243.311" y2="-0.5" transform="matrix(0.866044 0.499967 -0.866044 0.499967 638.304 705.435)" stroke="#D0F4DA"/>
<line y1="-0.5" x2="243.311" y2="-0.5" transform="matrix(0.866044 0.499967 -0.866044 0.499967 631.233 709.517)" stroke="#D0F4DA"/>
<line y1="-0.5" x2="243.311" y2="-0.5" transform="matrix(0.866044 0.499967 -0.866044 0.499967 624.162 713.599)" stroke="#D0F4DA"/>
<line y1="-0.5" x2="243.311" y2="-0.5" transform="matrix(0.866044 0.499967 -0.866044 0.499967 617.091 717.681)" stroke="#D0F4DA"/>
<line y1="-0.5" x2="243.311" y2="-0.5" transform="matrix(0.866044 0.499967 -0.866044 0.499967 610.02 721.764)" stroke="#D0F4DA"/>
<line y1="-0.5" x2="243.311" y2="-0.5" transform="matrix(0.866044 0.499967 -0.866044 0.499967 602.949 725.846)" stroke="#D0F4DA"/>
<line y1="-0.5" x2="243.311" y2="-0.5" transform="matrix(0.866044 0.499967 -0.866044 0.499967 595.878 729.928)" stroke="#D0F4DA"/>
<line y1="-0.5" x2="243.311" y2="-0.5" transform="matrix(0.866044 0.499967 -0.866044 0.499967 588.807 734.01)" stroke="#D0F4DA"/>
<line y1="-0.5" x2="243.311" y2="-0.5" transform="matrix(0.866044 0.499967 -0.866044 0.499967 581.736 738.092)" stroke="#D0F4DA"/>
<line y1="-0.5" x2="243.311" y2="-0.5" transform="matrix(0.866044 0.499967 -0.866044 0.499967 574.665 742.174)" stroke="#D0F4DA"/>
<line y1="-0.5" x2="243.311" y2="-0.5" transform="matrix(0.866044 0.499967 -0.866044 0.499967 567.594 746.256)" stroke="#D0F4DA"/>
<line y1="-0.5" x2="243.311" y2="-0.5" transform="matrix(0.866044 0.499967 -0.866044 0.499967 560.523 750.338)" stroke="#D0F4DA"/>
<line y1="-0.5" x2="243.311" y2="-0.5" transform="matrix(0.866044 0.499967 -0.866044 0.499967 553.451 754.42)" stroke="#D0F4DA"/>
<line y1="-0.5" x2="243.311" y2="-0.5" transform="matrix(0.866044 0.499967 -0.866044 0.499967 546.381 758.503)" stroke="#D0F4DA"/>
<line y1="-0.5" x2="243.311" y2="-0.5" transform="matrix(0.866044 0.499967 -0.866044 0.499967 539.31 762.585)" stroke="#D0F4DA"/>
<line y1="-0.5" x2="243.311" y2="-0.5" transform="matrix(0.866044 0.499967 -0.866044 0.499967 532.239 766.667)" stroke="#D0F4DA"/>
<line y1="-0.5" x2="243.311" y2="-0.5" transform="matrix(0.866044 0.499967 -0.866044 0.499967 525.167 770.749)" stroke="#D0F4DA"/>
<line y1="-0.5" x2="243.311" y2="-0.5" transform="matrix(0.866044 0.499967 -0.866044 0.499967 518.096 774.831)" stroke="#D0F4DA"/>
<line y1="-0.5" x2="243.311" y2="-0.5" transform="matrix(0.866044 0.499967 -0.866044 0.499967 511.025 778.913)" stroke="#D0F4DA"/>
<line y1="-0.5" x2="243.311" y2="-0.5" transform="matrix(0.866044 0.499967 -0.866044 0.499967 503.954 782.995)" stroke="#D0F4DA"/>
<line y1="-0.5" x2="243.311" y2="-0.5" transform="matrix(0.866044 0.499967 -0.866044 0.499967 496.883 787.078)" stroke="#D0F4DA"/>
<line y1="-0.5" x2="243.311" y2="-0.5" transform="matrix(0.866044 0.499967 -0.866044 0.499967 489.812 791.16)" stroke="#D0F4DA"/>
<line y1="-0.5" x2="243.311" y2="-0.5" transform="matrix(0.866044 0.499967 -0.866044 0.499967 482.741 795.242)" stroke="#D0F4DA"/>
<line y1="-0.5" x2="243.311" y2="-0.5" transform="matrix(0.866044 0.499967 -0.866044 0.499967 475.67 799.324)" stroke="#D0F4DA"/>
<line y1="-0.5" x2="243.311" y2="-0.5" transform="matrix(0.866044 0.499967 -0.866044 0.499967 468.599 803.406)" stroke="#D0F4DA"/>
<line y1="-0.5" x2="243.311" y2="-0.5" transform="matrix(0.866044 0.499967 -0.866044 0.499967 461.528 807.488)" stroke="#D0F4DA"/>
<line y1="-0.5" x2="243.311" y2="-0.5" transform="matrix(0.866044 0.499967 -0.866044 0.499967 454.457 811.57)" stroke="#D0F4DA"/>
<line y1="-0.5" x2="243.311" y2="-0.5" transform="matrix(0.866044 0.499967 -0.866044 0.499967 447.385 815.653)" stroke="#D0F4DA"/>
<line y1="-0.5" x2="243.311" y2="-0.5" transform="matrix(0.866044 0.499967 -0.866044 0.499967 440.314 819.735)" stroke="#D0F4DA"/>
<line y1="-0.5" x2="243.311" y2="-0.5" transform="matrix(0.866044 0.499967 -0.866044 0.499967 433.243 823.817)" stroke="#D0F4DA"/>
<line y1="-0.5" x2="243.311" y2="-0.5" transform="matrix(0.866044 0.499967 -0.866044 0.499967 426.172 827.899)" stroke="#D0F4DA"/>
<line y1="-0.5" x2="243.311" y2="-0.5" transform="matrix(0.866044 0.499967 -0.866044 0.499967 419.101 831.981)" stroke="#D0F4DA"/>
<line y1="-0.5" x2="243.311" y2="-0.5" transform="matrix(0.866044 0.499967 -0.866044 0.499967 412.03 836.063)" stroke="#D0F4DA"/>
<path d="M714.672 669.92L419.455 840.349" stroke="#D0F4DA"/>
<path d="M714.672 669.92L419.455 840.349" stroke="#D0F4DA"/>
<path d="M721.743 674.003L426.526 844.432" stroke="#D0F4DA"/>
<path d="M721.743 674.003L426.526 844.432" stroke="#D0F4DA"/>
<path d="M728.814 678.085L433.597 848.514" stroke="#D0F4DA"/>
<path d="M728.814 678.085L433.597 848.514" stroke="#D0F4DA"/>
<path d="M735.885 682.167L440.668 852.596" stroke="#D0F4DA"/>
<path d="M735.885 682.167L440.668 852.596" stroke="#D0F4DA"/>
<path d="M742.956 686.249L447.739 856.678" stroke="#D0F4DA"/>
<path d="M742.956 686.249L447.739 856.678" stroke="#D0F4DA"/>
<path d="M750.027 690.331L454.81 860.76" stroke="#D0F4DA"/>
<path d="M750.027 690.331L454.81 860.76" stroke="#D0F4DA"/>
<path d="M757.098 694.413L461.881 864.842" stroke="#D0F4DA"/>
<path d="M757.098 694.413L461.881 864.842" stroke="#D0F4DA"/>
<path d="M764.169 698.495L468.952 868.924" stroke="#D0F4DA"/>
<path d="M764.169 698.495L468.952 868.924" stroke="#D0F4DA"/>
<path d="M771.24 702.578L476.023 873.006" stroke="#D0F4DA"/>
<path d="M771.24 702.578L476.023 873.006" stroke="#D0F4DA"/>
<path d="M778.312 706.66L483.094 877.088" stroke="#D0F4DA"/>
<path d="M778.312 706.66L483.094 877.088" stroke="#D0F4DA"/>
<path d="M785.383 710.742L490.165 881.171" stroke="#D0F4DA"/>
<path d="M785.383 710.742L490.165 881.171" stroke="#D0F4DA"/>
<path d="M792.454 714.824L497.236 885.253" stroke="#D0F4DA"/>
<path d="M792.454 714.824L497.236 885.253" stroke="#D0F4DA"/>
<path d="M799.525 718.906L504.308 889.335" stroke="#D0F4DA"/>
<path d="M799.525 718.906L504.308 889.335" stroke="#D0F4DA"/>
<path d="M806.596 722.988L511.379 893.417" stroke="#D0F4DA"/>
<path d="M806.596 722.988L511.379 893.417" stroke="#D0F4DA"/>
<path d="M813.667 727.07L518.45 897.499" stroke="#D0F4DA"/>
<path d="M813.667 727.07L518.45 897.499" stroke="#D0F4DA"/>
<path d="M820.738 731.153L525.521 901.581" stroke="#D0F4DA"/>
<path d="M820.738 731.153L525.521 901.581" stroke="#D0F4DA"/>
<path d="M827.809 735.235L532.592 905.663" stroke="#D0F4DA"/>
<path d="M827.809 735.235L532.592 905.663" stroke="#D0F4DA"/>
<path d="M834.88 739.317L539.663 909.745" stroke="#D0F4DA"/>
<path d="M834.88 739.317L539.663 909.745" stroke="#D0F4DA"/>
<path d="M841.951 743.399L546.734 913.828" stroke="#D0F4DA"/>
<path d="M841.951 743.399L546.734 913.828" stroke="#D0F4DA"/>
<path d="M849.022 747.481L553.805 917.91" stroke="#D0F4DA"/>
<path d="M849.022 747.481L553.805 917.91" stroke="#D0F4DA"/>
<path d="M856.093 751.563L560.876 921.992" stroke="#D0F4DA"/>
<path d="M856.093 751.563L560.876 921.992" stroke="#D0F4DA"/>
<path d="M863.164 755.645L567.947 926.074" stroke="#D0F4DA"/>
<path d="M863.164 755.645L567.947 926.074" stroke="#D0F4DA"/>
<path d="M870.235 759.727L575.018 930.156" stroke="#D0F4DA"/>
<path d="M870.235 759.727L575.018 930.156" stroke="#D0F4DA"/>
<path d="M877.306 763.809L582.089 934.238" stroke="#D0F4DA"/>
<path d="M877.306 763.809L582.089 934.238" stroke="#D0F4DA"/>
<path d="M884.378 767.892L589.161 938.32" stroke="#D0F4DA"/>
<path d="M884.378 767.892L589.161 938.32" stroke="#D0F4DA"/>
<path d="M891.449 771.974L596.232 942.402" stroke="#D0F4DA"/>
<path d="M891.449 771.974L596.232 942.402" stroke="#D0F4DA"/>
<path d="M898.52 776.056L603.303 946.485" stroke="#D0F4DA"/>
<path d="M898.52 776.056L603.303 946.485" stroke="#D0F4DA"/>
<path d="M905.591 780.138L610.374 950.567" stroke="#D0F4DA"/>
<path d="M905.591 780.138L610.374 950.567" stroke="#D0F4DA"/>
<path d="M912.662 784.22L617.445 954.649" stroke="#D0F4DA"/>
<path d="M912.662 784.22L617.445 954.649" stroke="#D0F4DA"/>
<path d="M901.498 797.5L708.998 665L920.998 786V798H917.998V788L901.498 797.5Z" fill="url(#paint1_linear_346_1836)"/>
<path d="M901.498 797.5L708.998 665L689.498 675.5L901.498 797.5Z" fill="url(#paint2_linear_346_1836)"/>
<path fill-rule="evenodd" clip-rule="evenodd" d="M701.959 670.067L913.037 791.933L913.537 791.067L702.459 669.201L701.959 670.067ZM696.959 673.067L908.037 794.933L908.537 794.067L697.459 672.201L696.959 673.067Z" fill="white" fill-opacity="0.1"/>
<path fill-rule="evenodd" clip-rule="evenodd" d="M701.959 669.067L913.037 790.933L913.537 790.067L702.459 668.201L701.959 669.067ZM696.959 672.067L908.037 793.933L908.537 793.067L697.459 671.201L696.959 672.067Z" fill="black" fill-opacity="0.1"/>
<path d="M704.5 838L715.5 828.5L664.5 895.5L654 903L704.5 838Z" fill="black" fill-opacity="0.09"/>
<path d="M647.154 898.464L647.832 895.511L651.683 896.093L654.925 899.466L654.247 902.418L650.396 901.837L647.154 898.464Z" fill="#CCBA7C"/>
<circle r="1.6349" transform="matrix(-0.0989332 -0.995094 0.95348 0.301458 651.006 898.949)" fill="#1B1B1B"/>
<path d="M709.299 824L698.19 831.114L704.639 837.94L709.299 824Z" fill="#E3D7A9"/>
<path d="M709.299 824L705.106 826.704C705.106 826.704 706.255 826.854 706.814 827.284C707.345 827.692 707.788 828.697 707.788 828.697L709.299 824Z" fill="#343434"/>
<path d="M705.259 835.011L654.925 899.466L654.247 902.418L704.581 837.963L705.259 835.011Z" fill="#2B7C05"/>
<path d="M698.166 831.056C698.166 831.056 699.552 830.477 700.423 830.677C701.132 830.84 702.018 831.638 702.018 831.638L651.683 896.093L647.832 895.511L698.166 831.056Z" fill="#44B50F"/>
<path d="M651.683 896.093L702.017 831.638C702.017 831.638 703.67 832.017 704.327 832.71C704.966 833.384 705.259 835.011 705.259 835.011L654.925 899.466L651.683 896.093Z" fill="#329503"/>
<path fill-rule="evenodd" clip-rule="evenodd" d="M309.573 577.562C304.79 574.801 297.036 574.801 292.252 577.562L128.608 672.035L122 671.5V678.5L122.037 678.503C121.918 680.397 123.111 682.314 125.617 683.761L348.515 812.44C353.298 815.201 361.053 815.201 365.836 812.44L532.472 716.241C535.17 714.683 536.346 712.58 536 710.546V705L529.395 704.466L309.573 577.562Z" fill="url(#paint3_linear_346_1836)"/>
<g filter="url(#filter0_d_346_1836)">
<rect width="278.267" height="211.413" rx="10" transform="matrix(0.866044 0.499967 -0.866044 0.499967 300.069 566.06)" fill="url(#paint4_radial_346_1836)"/>
<rect y="0.499967" width="277.267" height="210.413" rx="9.5" transform="matrix(0.866044 0.499967 -0.866044 0.499967 300.502 566.31)" stroke="white" stroke-opacity="0.01"/>
</g>
<g filter="url(#filter1_i_346_1836)">
<path d="M437 768.5L431 772.5C431 772.5 434.263 775.106 438.5 777.5C440.877 778.843 442.015 780.699 445.399 782C448 783 451.5 781 451.5 781C472.756 767.966 453.042 783.95 437 768.5Z" fill="#006A0B"/>
</g>
<g filter="url(#filter2_i_346_1836)">
<path d="M488.244 759.842C488.244 759.842 489.194 758.583 487.577 757C485.87 755.327 483.531 753.293 481.134 752C476.93 749.732 468.545 747.583 468.545 747.583L430.945 769.29C430.945 769.29 439.557 771.025 443.794 773.419C446.171 774.762 448.666 777.156 450.399 779C451.755 780.443 450.644 781.548 450.644 781.548L488.244 759.842Z" fill="url(#paint5_linear_346_1836)"/>
</g>
<g filter="url(#filter3_i_346_1836)">
<rect width="271.874" height="204.769" rx="10" transform="matrix(0.866044 0.499967 -0.866044 0.499967 299.96 569.319)" fill="url(#paint6_radial_346_1836)"/>
</g>
<path fill-rule="evenodd" clip-rule="evenodd" d="M195 703.757L189.804 700.757L189 701.123L194.196 704.123L195 703.757ZM189.848 707.6L195.044 704.6L194.196 704.167L189 707.167L189.848 707.6Z" fill="#686868"/>
<path fill-rule="evenodd" clip-rule="evenodd" d="M354.018 796.114L354.043 796.1L353.195 795.667L347.999 798.667L348.847 799.1L354.002 796.124L359.196 799.123L360 798.757L354.804 795.757L354.018 796.114Z" fill="#686868"/>
<path fill-rule="evenodd" clip-rule="evenodd" d="M354 612L348.804 609L348 609.366L353.196 612.366L354 612ZM354.848 612.436L360.044 609.436L359.196 609.002L354 612.002L354.848 612.436Z" fill="#686868"/>
<path fill-rule="evenodd" clip-rule="evenodd" d="M513.848 703.9L519.044 700.9L518.196 700.467L513 703.467L513.848 703.9ZM519 707L513.804 704L513 704.366L518.196 707.366L519 707Z" fill="#686868"/>
<g filter="url(#filter4_i_346_1836)">
<path d="M291.3 574.319C296.083 571.558 303.837 571.558 308.62 574.319L325.941 584.318L148.602 686.696L131.281 676.697C126.498 673.936 126.498 669.459 131.281 666.698L291.3 574.319Z" fill="url(#paint7_linear_346_1836)"/>
</g>
<g filter="url(#filter5_d_346_1836)">
<path d="M351.814 599.255L325.808 584.242L148.469 686.619L174.474 701.633L351.814 599.255Z" fill="#363636" fill-opacity="0.6" shape-rendering="crispEdges"/>
</g>
<g filter="url(#filter6_d_346_1836)">
<path d="M261.426 649.158C261.666 649.02 261.666 648.796 261.426 648.658L239.542 636.024C239.302 635.886 238.915 635.886 238.676 636.024C238.436 636.162 238.436 636.385 238.676 636.524L260.56 649.158C260.8 649.296 261.187 649.296 261.426 649.158Z" fill="#33A000"/>
</g>
<path fill-rule="evenodd" clip-rule="evenodd" d="M295.184 628.884C295.423 629.022 295.423 629.246 295.184 629.384C294.945 629.522 294.557 629.522 294.318 629.384L272.433 616.75C272.194 616.612 272.194 616.388 272.433 616.25C272.672 616.112 273.06 616.112 273.299 616.25L295.184 628.884ZM227.184 668.884C227.423 669.022 227.423 669.246 227.184 669.384C226.945 669.522 226.557 669.522 226.318 669.384L204.433 656.75C204.194 656.612 204.194 656.388 204.433 656.25C204.672 656.112 205.06 656.112 205.299 656.25L227.184 668.884Z" fill="#2F2F2F"/>
<path fill-rule="evenodd" clip-rule="evenodd" d="M295.184 628.884C295.423 629.022 295.423 629.246 295.184 629.384C294.945 629.522 294.557 629.522 294.318 629.384L272.433 616.75C272.194 616.612 272.194 616.388 272.433 616.25C272.672 616.112 273.06 616.112 273.299 616.25L295.184 628.884ZM227.184 668.884C227.423 669.022 227.423 669.246 227.184 669.384C226.945 669.522 226.557 669.522 226.318 669.384L204.433 656.75C204.194 656.612 204.194 656.388 204.433 656.25C204.672 656.112 205.06 656.112 205.299 656.25L227.184 668.884Z" fill="#2F2F2F"/>
<path d="M374 681L380.5 670L381.5 681L356 784.5L349 790L374 681Z" fill="black" fill-opacity="0.1"/>
<rect x="371.615" y="667.999" width="0.738636" height="1.47727" transform="rotate(13.0243 371.615 667.999)" fill="black"/>
<path d="M372.528 668.968L374.542 681.564L364.467 679.234L371.089 668.635L372.528 668.968Z" fill="url(#paint8_linear_346_1836)"/>
<ellipse cx="344.536" cy="788.344" rx="5.17045" ry="2.95455" transform="rotate(13.0243 344.536 788.344)" fill="black"/>
<path fill-rule="evenodd" clip-rule="evenodd" d="M364.465 679.244C364.466 679.241 364.467 679.237 364.467 679.234C364.835 677.644 367.389 676.877 370.171 677.52C372.953 678.164 374.91 679.974 374.542 681.564L374.542 681.564L349.573 789.509L339.498 787.179L364.465 679.244Z" fill="url(#paint9_linear_346_1836)"/>
<path fill-rule="evenodd" clip-rule="evenodd" d="M356.398 760.004C356.766 758.415 354.809 756.604 352.026 755.961C349.244 755.317 346.691 756.084 346.323 757.674L339.498 787.179L349.573 789.509L356.398 760.004Z" fill="url(#paint10_linear_346_1836)"/>
<path fill-rule="evenodd" clip-rule="evenodd" d="M364.465 679.244C364.466 679.241 364.467 679.237 364.467 679.234C364.835 677.644 367.389 676.877 370.171 677.52C372.953 678.164 374.91 679.974 374.542 681.564L374.542 681.564L349.573 789.509L339.498 787.179L364.465 679.244Z" fill="url(#paint11_linear_346_1836)"/>
<path fill-rule="evenodd" clip-rule="evenodd" d="M347.414 789.01C347.598 788.215 346.458 787.273 344.868 786.905C343.279 786.537 341.841 786.883 341.657 787.678L340.825 791.276C340.492 792.716 341.448 794.453 343.037 794.821C344.627 795.189 346.249 794.047 346.582 792.608L347.414 789.01Z" fill="url(#paint12_linear_346_1836)"/>
<path fill-rule="evenodd" clip-rule="evenodd" d="M347.414 789.01C347.598 788.215 346.458 787.273 344.868 786.905C343.279 786.537 341.841 786.883 341.657 787.678L340.825 791.276C340.492 792.716 341.448 794.453 343.037 794.821C344.627 795.189 346.249 794.047 346.582 792.608L347.414 789.01Z" fill="url(#paint13_radial_346_1836)" fill-opacity="0.5"/>
<path d="M538.541 582.191C538.384 578.347 543.144 575.02 549.713 574.383L664.23 563.284C668.09 562.909 671.474 561.579 673.491 559.642L730.491 504.909C737.108 498.555 753.662 500.691 754.712 508.08C758.686 536.049 763.256 580.839 753.547 590.548C734.964 609.131 699.962 644.157 683.704 660.427C679.306 664.828 668.881 665.622 662.649 662.034L542.697 592.98C540.255 591.573 538.846 589.678 538.765 587.687L538.541 582.191Z" fill="url(#paint14_linear_346_1836)"/>
<path d="M663.494 475.276C663.363 469.75 674.378 466.408 682.062 469.687L746.68 497.258C749.364 498.403 751.033 500.146 751.235 502.067C752.003 509.373 753.874 528.399 754.575 546.567C754.926 555.651 754.984 564.517 754.466 571.595C754.207 575.134 753.805 578.222 753.224 580.664C752.641 583.118 751.885 584.887 750.95 585.814C728.073 608.492 696.266 640.96 681.872 655.695C678.174 659.481 669.232 660.175 663.931 657.088L542.139 586.178C536.655 582.985 538.208 577.611 545.171 575.591C567.243 569.189 610.194 556.342 646.232 543.237C648.342 542.47 650.179 541.162 651.787 539.444C653.396 537.723 654.789 535.574 655.995 533.104C658.408 528.165 660.086 521.915 661.239 515.175C663.545 501.693 663.752 486.218 663.494 475.276Z" fill="url(#paint15_linear_346_1836)" stroke="url(#paint16_linear_346_1836)" stroke-width="0.624328"/>
<path fill-rule="evenodd" clip-rule="evenodd" d="M940.151 641.081C941.394 640.125 942.145 638.384 942.145 636.006L942.133 303.07C942.133 297.785 938.423 291.359 933.846 288.717L473.441 22.8785C470.842 21.378 468.522 21.4202 467.003 22.7047L457.592 27.105L465.155 37.0252L465.167 360.598C465.167 365.883 468.877 372.309 473.454 374.951L918.896 632.15L929.173 645.629L938.582 641.811C939.03 641.711 939.445 641.542 939.823 641.308L940.205 641.153L940.151 641.081Z" fill="url(#paint17_linear_346_1836)"/>
<rect x="-0.591899" y="-1.0252" width="549.412" height="350.706" rx="8.88486" transform="matrix(-0.866007 -0.500033 -3.77426e-05 -1 931.473 647.328)" fill="url(#paint18_radial_346_1836)" stroke="url(#paint19_linear_346_1836)" stroke-width="1.3669"/>
<rect width="528.722" height="330.451" rx="1.24866" transform="matrix(-0.866007 -0.500033 -3.77426e-05 -1 923.027 633.35)" fill="url(#paint20_radial_346_1836)"/>
</g>
<defs>
<filter id="filter0_d_346_1836" x="118.048" y="568.989" width="421.939" height="246.967" filterUnits="userSpaceOnUse" color-interpolation-filters="sRGB">
<feFlood flood-opacity="0" result="BackgroundImageFix"/>
<feColorMatrix in="SourceAlpha" type="matrix" values="0 0 0 0 0 0 0 0 0 0 0 0 0 0 0 0 0 0 127 0" result="hardAlpha"/>
<feOffset dy="4"/>
<feGaussianBlur stdDeviation="2"/>
<feComposite in2="hardAlpha" operator="out"/>
<feColorMatrix type="matrix" values="0 0 0 0 0 0 0 0 0 0 0 0 0 0 0 0 0 0 0.25 0"/>
<feBlend mode="normal" in2="BackgroundImageFix" result="effect1_dropShadow_346_1836"/>
<feBlend mode="normal" in="SourceGraphic" in2="effect1_dropShadow_346_1836" result="shape"/>
</filter>
<filter id="filter1_i_346_1836" x="431" y="768.5" width="29.7869" height="14.7798" filterUnits="userSpaceOnUse" color-interpolation-filters="sRGB">
<feFlood flood-opacity="0" result="BackgroundImageFix"/>
<feBlend mode="normal" in="SourceGraphic" in2="BackgroundImageFix" result="shape"/>
<feColorMatrix in="SourceAlpha" type="matrix" values="0 0 0 0 0 0 0 0 0 0 0 0 0 0 0 0 0 0 127 0" result="hardAlpha"/>
<feOffset dy="1"/>
<feGaussianBlur stdDeviation="1"/>
<feComposite in2="hardAlpha" operator="arithmetic" k2="-1" k3="1"/>
<feColorMatrix type="matrix" values="0 0 0 0 0 0 0 0 0 0 0 0 0 0 0 0 0 0 0.11 0"/>
<feBlend mode="normal" in2="shape" result="effect1_innerShadow_346_1836"/>
</filter>
<filter id="filter2_i_346_1836" x="430.945" y="747.583" width="57.5764" height="34.9653" filterUnits="userSpaceOnUse" color-interpolation-filters="sRGB">
<feFlood flood-opacity="0" result="BackgroundImageFix"/>
<feBlend mode="normal" in="SourceGraphic" in2="BackgroundImageFix" result="shape"/>
<feColorMatrix in="SourceAlpha" type="matrix" values="0 0 0 0 0 0 0 0 0 0 0 0 0 0 0 0 0 0 127 0" result="hardAlpha"/>
<feOffset dy="1"/>
<feGaussianBlur stdDeviation="1"/>
<feComposite in2="hardAlpha" operator="arithmetic" k2="-1" k3="1"/>
<feColorMatrix type="matrix" values="0 0 0 0 0 0 0 0 0 0 0 0 0 0 0 0 0 0 0.11 0"/>
<feBlend mode="normal" in2="shape" result="effect1_innerShadow_346_1836"/>
</filter>
<filter id="filter3_i_346_1836" x="127.694" y="572.248" width="402.648" height="233.448" filterUnits="userSpaceOnUse" color-interpolation-filters="sRGB">
<feFlood flood-opacity="0" result="BackgroundImageFix"/>
<feBlend mode="normal" in="SourceGraphic" in2="BackgroundImageFix" result="shape"/>
<feColorMatrix in="SourceAlpha" type="matrix" values="0 0 0 0 0 0 0 0 0 0 0 0 0 0 0 0 0 0 127 0" result="hardAlpha"/>
<feOffset dy="1"/>
<feGaussianBlur stdDeviation="1"/>
<feComposite in2="hardAlpha" operator="arithmetic" k2="-1" k3="1"/>
<feColorMatrix type="matrix" values="0 0 0 0 0 0 0 0 0 0 0 0 0 0 0 0 0 0 0.11 0"/>
<feBlend mode="normal" in2="shape" result="effect1_innerShadow_346_1836"/>
</filter>
<filter id="filter4_i_346_1836" x="127.694" y="572.248" width="198.247" height="115.448" filterUnits="userSpaceOnUse" color-interpolation-filters="sRGB">
<feFlood flood-opacity="0" result="BackgroundImageFix"/>
<feBlend mode="normal" in="SourceGraphic" in2="BackgroundImageFix" result="shape"/>
<feColorMatrix in="SourceAlpha" type="matrix" values="0 0 0 0 0 0 0 0 0 0 0 0 0 0 0 0 0 0 127 0" result="hardAlpha"/>
<feOffset dy="1"/>
<feGaussianBlur stdDeviation="1"/>
<feComposite in2="hardAlpha" operator="arithmetic" k2="-1" k3="1"/>
<feColorMatrix type="matrix" values="0 0 0 0 0 0 0 0 0 0 0 0 0 0 0 0 0 0 0.11 0"/>
<feBlend mode="normal" in2="shape" result="effect1_innerShadow_346_1836"/>
</filter>
<filter id="filter5_d_346_1836" x="146.469" y="583.241" width="207.345" height="121.391" filterUnits="userSpaceOnUse" color-interpolation-filters="sRGB">
<feFlood flood-opacity="0" result="BackgroundImageFix"/>
<feColorMatrix in="SourceAlpha" type="matrix" values="0 0 0 0 0 0 0 0 0 0 0 0 0 0 0 0 0 0 127 0" result="hardAlpha"/>
<feOffset dy="1"/>
<feGaussianBlur stdDeviation="1"/>
<feComposite in2="hardAlpha" operator="out"/>
<feColorMatrix type="matrix" values="0 0 0 0 0 0 0 0 0 0 0 0 0 0 0 0 0 0 0.11 0"/>
<feBlend mode="normal" in2="BackgroundImageFix" result="effect1_dropShadow_346_1836"/>
<feBlend mode="normal" in="SourceGraphic" in2="effect1_dropShadow_346_1836" result="shape"/>
</filter>
<filter id="filter6_d_346_1836" x="236.496" y="633.92" width="27.1097" height="17.3413" filterUnits="userSpaceOnUse" color-interpolation-filters="sRGB">
<feFlood flood-opacity="0" result="BackgroundImageFix"/>
<feColorMatrix in="SourceAlpha" type="matrix" values="0 0 0 0 0 0 0 0 0 0 0 0 0 0 0 0 0 0 127 0" result="hardAlpha"/>
<feOffset/>
<feGaussianBlur stdDeviation="1"/>
<feComposite in2="hardAlpha" operator="out"/>
<feColorMatrix type="matrix" values="0 0 0 0 0.319527 0 0 0 0 1 0 0 0 0 0 0 0 0 0.42 0"/>
<feBlend mode="normal" in2="BackgroundImageFix" result="effect1_dropShadow_346_1836"/>
<feBlend mode="normal" in="SourceGraphic" in2="effect1_dropShadow_346_1836" result="shape"/>
</filter>
<linearGradient id="paint0_linear_346_1836" x1="416.998" y1="968" x2="927.998" y2="971" gradientUnits="userSpaceOnUse">
<stop stop-opacity="0.29"/>
<stop offset="0.403658" stop-opacity="0.45"/>
<stop offset="0.992565"/>
</linearGradient>
<linearGradient id="paint1_linear_346_1836" x1="737.998" y1="688" x2="910.498" y2="788.5" gradientUnits="userSpaceOnUse">
<stop stop-color="#46C10C"/>
<stop offset="1" stop-color="#2B8600"/>
</linearGradient>
<linearGradient id="paint2_linear_346_1836" x1="737.998" y1="688" x2="910.498" y2="788.5" gradientUnits="userSpaceOnUse">
<stop stop-color="#46C10C"/>
<stop offset="1" stop-color="#2B8600"/>
</linearGradient>
<linearGradient id="paint3_linear_346_1836" x1="281.777" y1="773.534" x2="345.054" y2="853.182" gradientUnits="userSpaceOnUse">
<stop stop-color="#474747"/>
<stop offset="0.2882" stop-color="#393939"/>
<stop offset="0.783352" stop-color="#545454"/>
<stop offset="1" stop-color="#1B1B1B"/>
</linearGradient>
<radialGradient id="paint4_radial_346_1836" cx="0" cy="0" r="1" gradientUnits="userSpaceOnUse" gradientTransform="translate(54.1244 191.701) rotate(-35.6919) scale(378.282 580.423)">
<stop stop-color="#595959"/>
<stop offset="1" stop-color="#333333"/>
</radialGradient>
<linearGradient id="paint5_linear_346_1836" x1="467" y1="772.5" x2="456.5" y2="754" gradientUnits="userSpaceOnUse">
<stop offset="0.0574321" stop-color="#29950D"/>
<stop offset="0.236417" stop-color="#218208"/>
<stop offset="1" stop-color="#35C012"/>
</linearGradient>
<radialGradient id="paint6_radial_346_1836" cx="0" cy="0" r="1" gradientUnits="userSpaceOnUse" gradientTransform="translate(52.8809 185.676) rotate(-35.4563) scale(368.506 563.837)">
<stop stop-color="#414141"/>
<stop offset="1" stop-color="#1A1A1A"/>
</radialGradient>
<linearGradient id="paint7_linear_346_1836" x1="238" y1="628" x2="236.886" y2="619.143" gradientUnits="userSpaceOnUse">
<stop stop-color="#242424"/>
<stop offset="1" stop-color="#242424" stop-opacity="0"/>
</linearGradient>
<linearGradient id="paint8_linear_346_1836" x1="375.154" y1="675.641" x2="366.519" y2="673.643" gradientUnits="userSpaceOnUse">
<stop offset="0.09168" stop-color="#141414"/>
<stop offset="0.414583" stop-color="#090909"/>
<stop offset="0.683975" stop-color="#292929"/>
<stop offset="1" stop-color="#191919"/>
</linearGradient>
<linearGradient id="paint9_linear_346_1836" x1="355.978" y1="715.935" x2="366.053" y2="718.266" gradientUnits="userSpaceOnUse">
<stop stop-color="#202020"/>
<stop offset="0.201042" stop-color="#2C2C2C"/>
<stop offset="0.430208" stop-color="#202020"/>
</linearGradient>
<linearGradient id="paint10_linear_346_1836" x1="343.993" y1="767.749" x2="354.068" y2="770.079" gradientUnits="userSpaceOnUse">
<stop stop-color="#121212"/>
<stop offset="0.117708" stop-color="#1E1E1E"/>
<stop offset="0.232292" stop-color="#464646"/>
<stop offset="0.310417" stop-color="#121212"/>
<stop offset="1" stop-color="#121212"/>
</linearGradient>
<linearGradient id="paint11_linear_346_1836" x1="359.477" y1="746.691" x2="349.403" y2="744.361" gradientUnits="userSpaceOnUse">
<stop stop-opacity="0.32"/>
<stop offset="0.273958" stop-opacity="0.73"/>
<stop offset="0.659375" stop-color="#202020" stop-opacity="0"/>
<stop offset="1" stop-opacity="0.29"/>
</linearGradient>
<linearGradient id="paint12_linear_346_1836" x1="340.991" y1="790.557" x2="346.748" y2="791.889" gradientUnits="userSpaceOnUse">
<stop stop-color="#1D9200"/>
<stop offset="0.293679" stop-color="#24B500"/>
<stop offset="0.469594" stop-color="#209B02"/>
<stop offset="1" stop-color="#156C00"/>
</linearGradient>
<radialGradient id="paint13_radial_346_1836" cx="0" cy="0" r="1" gradientUnits="userSpaceOnUse" gradientTransform="translate(345.666 796.566) rotate(-119.249) scale(5.49031 3.99295)">
<stop/>
<stop offset="1" stop-opacity="0"/>
</radialGradient>
<linearGradient id="paint14_linear_346_1836" x1="612.562" y1="650.412" x2="720.72" y2="655.59" gradientUnits="userSpaceOnUse">
<stop stop-color="#E9E9E9"/>
<stop offset="0.419827" stop-color="#DBDBDB"/>
<stop offset="0.489583" stop-color="#EFEFEF"/>
<stop offset="0.624219" stop-color="#D1D1D1"/>
<stop offset="1" stop-color="#BABABA"/>
</linearGradient>
<linearGradient id="paint15_linear_346_1836" x1="626.208" y1="637.261" x2="734.156" y2="453.949" gradientUnits="userSpaceOnUse">
<stop stop-color="#E9E9E9"/>
<stop offset="0.409375" stop-color="#C7C7C7"/>
<stop offset="0.497917" stop-color="#B8B8B8"/>
<stop offset="0.583781" stop-color="#C5C5C5"/>
<stop offset="0.742708" stop-color="#9D9D9D"/>
<stop offset="1" stop-color="#E7E7E7"/>
</linearGradient>
<linearGradient id="paint16_linear_346_1836" x1="577.16" y1="584.255" x2="806.64" y2="726.543" gradientUnits="userSpaceOnUse">
<stop stop-color="white"/>
<stop offset="1" stop-color="white" stop-opacity="0"/>
</linearGradient>
<linearGradient id="paint17_linear_346_1836" x1="467.181" y1="240.459" x2="958.39" y2="300.793" gradientUnits="userSpaceOnUse">
<stop stop-color="#F2F2F2"/>
<stop offset="0.861933" stop-color="#F5F5F5"/>
<stop offset="0.896166" stop-color="#FAFAFA"/>
<stop offset="0.9589" stop-color="#EDEDED"/>
<stop offset="1" stop-color="#D2D2D2"/>
</linearGradient>
<radialGradient id="paint18_radial_346_1836" cx="0" cy="0" r="1" gradientUnits="userSpaceOnUse" gradientTransform="translate(182.255 333.343) rotate(-52.5485) scale(355.031 419.147)">
<stop stop-color="#FCFCFC"/>
<stop offset="1" stop-color="#F5F5F5"/>
</radialGradient>
<linearGradient id="paint19_linear_346_1836" x1="152.089" y1="332.303" x2="685.818" y2="-55.6528" gradientUnits="userSpaceOnUse">
<stop stop-color="white"/>
<stop offset="1" stop-color="white" stop-opacity="0"/>
</linearGradient>
<radialGradient id="paint20_radial_346_1836" cx="0" cy="0" r="1" gradientUnits="userSpaceOnUse" gradientTransform="translate(430.22 360.811) rotate(-143.984) scale(557.509 502.184)">
<stop stop-color="#505050"/>
<stop offset="1" stop-color="#313131"/>
</radialGradient>
<clipPath id="clip0_346_1836">
<rect width="1024" height="1024" fill="white"/>
</clipPath>
</defs>
</svg>
