<svg width="197" height="76" viewBox="0 0 197 76" fill="none" xmlns="http://www.w3.org/2000/svg">
<g clip-path="url(#clip0_1091_5030)">
<path fill-rule="evenodd" clip-rule="evenodd" d="M33.8819 9.86857C34.9543 9.86857 35.8238 10.738 35.8238 11.8105C35.8238 12.883 34.9543 13.7524 33.8819 13.7524H18.9864C17.9139 13.7524 17.0445 12.883 17.0445 11.8105C17.0445 10.738 17.9139 9.86857 18.9864 9.86857H33.8819ZM22.2076 14.5747C23.2927 14.5747 24.1724 15.4544 24.1724 16.5395C24.1724 17.6246 23.2927 18.5042 22.2076 18.5042H14.2116C13.1265 18.5042 12.2468 17.6246 12.2468 16.5395C12.2468 15.4544 13.1265 14.5747 14.2116 14.5747H22.2076ZM40.6214 16.5395C40.6214 15.4544 39.7418 14.5747 38.6567 14.5747H27.051C25.9659 14.5747 25.0862 15.4544 25.0862 16.5395C25.0862 17.6246 25.9659 18.5042 27.051 18.5042H38.6567C39.7418 18.5042 40.6214 17.6246 40.6214 16.5395ZM42.0149 43.0407C43.0874 43.0407 43.9568 43.9101 43.9568 44.9826C43.9568 46.0551 43.0874 46.9245 42.0149 46.9245H37.9484C36.8759 46.9245 36.0065 46.0551 36.0065 44.9826C36.0065 43.9101 36.8759 43.0407 37.9484 43.0407H42.0149ZM26.6397 54.4636C26.6397 53.3785 25.7601 52.4989 24.675 52.4989H13.2978C12.2127 52.4989 11.333 53.3785 11.333 54.4636C11.333 55.5487 12.2127 56.4284 13.2978 56.4284H24.675C25.7601 56.4284 26.6397 55.5487 26.6397 54.4636ZM41.2153 52.4989C42.3004 52.4989 43.18 53.3785 43.18 54.4636C43.18 55.5487 42.3004 56.4284 41.2153 56.4284H29.8381C28.753 56.4284 27.8733 55.5487 27.8733 54.4636C27.8733 53.3785 28.753 52.4989 29.8381 52.4989H41.2153ZM39.0679 59.1699C39.0679 58.11 38.2087 57.2508 37.1488 57.2508H19.1006C18.0407 57.2508 17.1815 58.11 17.1815 59.1699C17.1815 60.2298 18.0407 61.0889 19.1006 61.0889H37.1488C38.2087 61.0889 39.0679 60.2298 39.0679 59.1699ZM11.4701 19.3267C10.385 19.3267 9.50532 20.2063 9.50532 21.2914C9.50532 22.3765 10.385 23.2562 11.4701 23.2562H17.0444C18.1295 23.2562 19.0092 22.3765 19.0092 21.2914C19.0092 20.2063 18.1295 19.3267 17.0444 19.3267H11.4701ZM34.8186 21.2914C34.8186 20.2063 35.6982 19.3267 36.7833 19.3267H41.9008C42.9859 19.3267 43.8655 20.2063 43.8655 21.2914C43.8655 22.3765 42.9859 23.2562 41.9008 23.2562H36.7833C35.6982 23.2562 34.8186 22.3765 34.8186 21.2914ZM12.955 24.0787C11.8826 24.0787 11.0131 24.9481 11.0131 26.0206C11.0131 27.093 11.8826 27.9625 12.955 27.9625H17.2501C18.3225 27.9625 19.192 27.093 19.192 26.0206C19.192 24.9481 18.3225 24.0787 17.2501 24.0787H12.955ZM11.0131 30.7496C11.0131 29.6898 11.8723 28.8306 12.9322 28.8306H24.9491C26.009 28.8306 26.8682 29.6898 26.8682 30.7496C26.8682 31.8095 26.009 32.6687 24.9491 32.6687H12.9322C11.8723 32.6687 11.0131 31.8095 11.0131 30.7496ZM15.9021 33.5825C14.8423 33.5825 13.9831 34.4417 13.9831 35.5016C13.9831 36.5614 14.8423 37.4206 15.9021 37.4206H36.7832C37.8431 37.4206 38.7023 36.5614 38.7023 35.5016C38.7023 34.4417 37.8431 33.5825 36.7832 33.5825H15.9021ZM22.1619 40.2306C22.1619 39.1582 23.0314 38.2887 24.1038 38.2887H27.2566C28.329 38.2887 29.1985 39.1582 29.1985 40.2306C29.1985 41.3031 28.329 42.1725 27.2566 42.1725H24.1038C23.0314 42.1725 22.1619 41.3031 22.1619 40.2306ZM32.0541 38.2887C30.9816 38.2887 30.1122 39.1582 30.1122 40.2306C30.1122 41.3031 30.9816 42.1725 32.0541 42.1725H40.6899C41.7623 42.1725 42.6318 41.3031 42.6318 40.2306C42.6318 39.1582 41.7623 38.2887 40.6899 38.2887H32.0541ZM10.0993 49.7117C10.0993 48.6266 10.9789 47.7469 12.064 47.7469H16.9987C18.0838 47.7469 18.9635 48.6266 18.9635 49.7117C18.9635 50.7968 18.0838 51.6764 16.9987 51.6764H12.064C10.9789 51.6764 10.0993 50.7968 10.0993 49.7117ZM38.7023 47.7469C37.6172 47.7469 36.7375 48.6266 36.7375 49.7117C36.7375 50.7968 37.6172 51.6764 38.7023 51.6764H41.9921C43.0772 51.6764 43.9568 50.7968 43.9568 49.7117C43.9568 48.6266 43.0772 47.7469 41.9921 47.7469H38.7023Z" fill="#DADADA"/>
<path fill-rule="evenodd" clip-rule="evenodd" d="M29.724 71.461C28.6515 71.461 27.7821 72.3304 27.7821 73.4029C27.7821 74.4754 28.6515 75.3448 29.724 75.3448H44.2996C45.3721 75.3448 46.2415 74.4754 46.2415 73.4029C46.2415 72.3304 45.3721 71.461 44.2996 71.461H29.724ZM2.44593 71.461C1.37345 71.461 0.504028 72.3304 0.504028 73.4029C0.504028 74.4754 1.37345 75.3448 2.44593 75.3448H25.3375C26.41 75.3448 27.2794 74.4754 27.2794 73.4029C27.2794 72.3304 26.41 71.461 25.3375 71.461H2.44593Z" fill="#005E75"/>
<path fill-rule="evenodd" clip-rule="evenodd" d="M40.1188 68.6738C40.1188 67.6139 39.2596 66.7547 38.1997 66.7547H23.1671C22.1073 66.7547 21.2481 67.6139 21.2481 68.6738C21.2481 69.7337 22.1073 70.5929 23.1671 70.5929H38.1997C39.2596 70.5929 40.1188 69.7337 40.1188 68.6738ZM0.504028 68.6738C0.504028 67.6139 1.36322 66.7548 2.42308 66.7548H18.004C19.0638 66.7548 19.923 67.6139 19.923 68.6738C19.923 69.7337 19.0638 70.5929 18.004 70.5929H2.42308C1.36321 70.5929 0.504028 69.7337 0.504028 68.6738ZM52.0443 66.7547C53.1042 66.7547 53.9634 67.6139 53.9634 68.6738C53.9634 69.7337 53.1042 70.5929 52.0443 70.5929H42.5404C41.4806 70.5929 40.6214 69.7337 40.6214 68.6738C40.6214 67.6139 41.4806 66.7547 42.5404 66.7547H52.0443Z" fill="#00677E"/>
<path fill-rule="evenodd" clip-rule="evenodd" d="M24.7207 62.0028C25.7806 62.0028 26.6397 62.862 26.6397 63.9219C26.6397 64.9817 25.7806 65.8409 24.7207 65.8409H2.42313C1.36327 65.8409 0.504078 64.9817 0.504078 63.9219C0.504078 62.862 1.36327 62.0028 2.42313 62.0028H24.7207ZM27.7821 63.9219C27.7821 62.862 28.6413 62.0028 29.7011 62.0028H41.3525C42.4124 62.0028 43.2716 62.862 43.2716 63.9219C43.2716 64.9817 42.4124 65.8409 41.3525 65.8409H29.7011C28.6413 65.8409 27.7821 64.9817 27.7821 63.9219ZM43.9568 63.9219C43.9568 62.862 44.816 62.0028 45.8759 62.0028H55.4254C56.4853 62.0028 57.3445 62.862 57.3445 63.9219C57.3445 64.9817 56.4853 65.8409 55.4254 65.8409H45.8759C44.816 65.8409 43.9568 64.9817 43.9568 63.9219Z" fill="#007186"/>
<path fill-rule="evenodd" clip-rule="evenodd" d="M14.3944 57.2509C15.4542 57.2509 16.3134 58.1101 16.3134 59.1699C16.3134 60.2298 15.4542 61.089 14.3944 61.089H2.42312C1.36326 61.089 0.504072 60.2298 0.504072 59.1699C0.504072 58.1101 1.36326 57.2509 2.42313 57.2509H14.3944ZM42.5405 57.2509C41.4806 57.2509 40.6214 58.1101 40.6214 59.1699C40.6214 60.2298 41.4806 61.089 42.5405 61.089H57.2532C58.3131 61.089 59.1723 60.2298 59.1723 59.1699C59.1723 58.1101 58.3131 57.2509 57.2532 57.2509H42.5405Z" fill="#007989"/>
<path fill-rule="evenodd" clip-rule="evenodd" d="M8.13452 52.499C9.21962 52.499 10.0993 53.3786 10.0993 54.4637C10.0993 55.5488 9.21962 56.4285 8.13453 56.4285H2.46875C1.38365 56.4285 0.504007 55.5488 0.504007 54.4637C0.504007 53.3786 1.38365 52.499 2.46875 52.499H8.13452ZM45.9216 52.499C44.8365 52.499 43.9568 53.3786 43.9568 54.4637C43.9568 55.5488 44.8365 56.4285 45.9216 56.4285H58.2583C59.3434 56.4285 60.2231 55.5488 60.2231 54.4637C60.2231 53.3786 59.3434 52.499 58.2583 52.499H45.9216Z" fill="#00828D"/>
<path fill-rule="evenodd" clip-rule="evenodd" d="M36.0065 49.7117C36.0065 48.6266 35.1269 47.747 34.0418 47.747H21.8878C20.8027 47.747 19.923 48.6266 19.923 49.7117C19.923 50.7968 20.8027 51.6765 21.8878 51.6765H34.0418C35.1269 51.6765 36.0065 50.7968 36.0065 49.7117ZM0.504028 49.7118C0.504028 48.6267 1.38367 47.747 2.46877 47.747H6.62672C7.71182 47.747 8.59146 48.6267 8.59146 49.7118C8.59146 50.7969 7.71182 51.6765 6.62672 51.6765H2.46877C1.38367 51.6765 0.504028 50.7969 0.504028 49.7118ZM58.2584 47.747C59.3435 47.747 60.2231 48.6266 60.2231 49.7117C60.2231 50.7968 59.3435 51.6765 58.2584 51.6765H47.5665C46.4814 51.6765 45.6018 50.7968 45.6018 49.7117C45.6018 48.6266 46.4814 47.747 47.5665 47.747H58.2584Z" fill="#008B8C"/>
<path fill-rule="evenodd" clip-rule="evenodd" d="M35.3211 44.9827C35.3211 43.9102 34.4517 43.0408 33.3792 43.0408H20.9054C19.8329 43.0408 18.9635 43.9102 18.9635 44.9827C18.9635 46.0551 19.8329 46.9246 20.9054 46.9246H33.3792C34.4517 46.9246 35.3211 46.0551 35.3211 44.9827ZM44.7793 44.9827C44.7793 43.9102 45.6488 43.0408 46.7212 43.0408H57.2303C58.3028 43.0408 59.1722 43.9102 59.1722 44.9827C59.1722 46.0551 58.3028 46.9246 57.2303 46.9246H46.7212C45.6488 46.9246 44.7793 46.0551 44.7793 44.9827ZM2.3089 43.0408C1.23642 43.0408 0.367004 43.9102 0.367004 44.9827C0.367004 46.0552 1.23642 46.9246 2.3089 46.9246H16.2449C17.3174 46.9246 18.1868 46.0552 18.1868 44.9827C18.1868 43.9102 17.3174 43.0408 16.2449 43.0408H2.3089Z" fill="#00938B"/>
<path fill-rule="evenodd" clip-rule="evenodd" d="M9.39115 38.2888C10.4636 38.2888 11.333 39.1582 11.333 40.2307C11.333 41.3031 10.4636 42.1726 9.39115 42.1726H2.30893C1.23645 42.1726 0.367034 41.3031 0.367034 40.2307C0.367034 39.1582 1.23645 38.2888 2.30893 38.2888H9.39115ZM11.927 40.2307C11.927 39.1582 12.7964 38.2888 13.8689 38.2888H18.9864C20.0589 38.2888 20.9283 39.1582 20.9283 40.2307C20.9283 41.3031 20.0589 42.1726 18.9864 42.1726H13.8689C12.7964 42.1726 11.927 41.3031 11.927 40.2307ZM43.5456 40.2307C43.5456 39.1582 44.415 38.2888 45.4875 38.2888H55.4026C56.4751 38.2888 57.3445 39.1582 57.3445 40.2307C57.3445 41.3031 56.4751 42.1726 55.4026 42.1726H45.4875C44.415 42.1726 43.5456 41.3031 43.5456 40.2307Z" fill="#009D85"/>
<path fill-rule="evenodd" clip-rule="evenodd" d="M2.28606 33.5825C1.22619 33.5825 0.367004 34.4417 0.367004 35.5016C0.367004 36.5614 1.22619 37.4206 2.28606 37.4206H11.1503C12.2101 37.4206 13.0693 36.5614 13.0693 35.5016C13.0693 34.4417 12.2101 33.5825 11.1503 33.5825H2.28606ZM41.5352 33.5825C40.4753 33.5825 39.6161 34.4417 39.6161 35.5016C39.6161 36.5614 40.4753 37.4206 41.5352 37.4206H52.0443C53.1041 37.4206 53.9633 36.5614 53.9633 35.5016C53.9633 34.4417 53.1041 33.5825 52.0443 33.5825H41.5352Z" fill="#00A67E"/>
<path fill-rule="evenodd" clip-rule="evenodd" d="M29.7011 28.8306C28.6413 28.8306 27.7821 29.6898 27.7821 30.7496C27.7821 31.8095 28.6413 32.6687 29.7011 32.6687H52.4556C53.5155 32.6687 54.3746 31.8095 54.3746 30.7496C54.3746 29.6898 53.5155 28.8306 52.4556 28.8306H29.7011ZM2.42308 28.8306C1.36322 28.8306 0.504028 29.6898 0.504028 30.7496C0.504028 31.8095 1.36322 32.6687 2.42308 32.6687H8.18024C9.2401 32.6687 10.0993 31.8095 10.0993 30.7496C10.0993 29.6898 9.2401 28.8306 8.18024 28.8306H2.42308Z" fill="#00AE75"/>
<path fill-rule="evenodd" clip-rule="evenodd" d="M36.7375 26.0206C36.7375 24.9481 35.8681 24.0787 34.7956 24.0787H22.0476C20.9751 24.0787 20.1057 24.9481 20.1057 26.0206C20.1057 27.093 20.9751 27.9625 22.0476 27.9625H34.7956C35.8681 27.9625 36.7375 27.093 36.7375 26.0206ZM56.979 26.0206C56.979 24.9481 56.1096 24.0787 55.0371 24.0787H39.5933C38.5209 24.0787 37.6514 24.9481 37.6514 26.0206C37.6514 27.093 38.5209 27.9625 39.5933 27.9625H55.0371C56.1096 27.9625 56.979 27.093 56.979 26.0206ZM2.44593 24.0787C1.37345 24.0787 0.504028 24.9481 0.504028 26.0206C0.504028 27.0931 1.37344 27.9625 2.44592 27.9625H8.15739C9.22987 27.9625 10.0993 27.0931 10.0993 26.0206C10.0993 24.9481 9.22987 24.0787 8.15739 24.0787H2.44593Z" fill="#00B66A"/>
<path fill-rule="evenodd" clip-rule="evenodd" d="M2.46877 19.3267C1.38367 19.3267 0.504028 20.2064 0.504028 21.2915C0.504028 22.3766 1.38367 23.2562 2.46877 23.2562H6.62672C7.71182 23.2562 8.59146 22.3766 8.59146 21.2915C8.59146 20.2064 7.71182 19.3267 6.62672 19.3267H2.46877ZM19.9231 21.2915C19.9231 20.2064 20.8027 19.3267 21.8878 19.3267H31.94C33.0251 19.3267 33.9047 20.2064 33.9047 21.2915C33.9047 22.3766 33.0251 23.2562 31.94 23.2562H21.8878C20.8027 23.2562 19.9231 22.3766 19.9231 21.2915ZM44.7793 21.2915C44.7793 20.2064 45.659 19.3267 46.7441 19.3267H54.8772C55.9623 19.3267 56.8419 20.2064 56.8419 21.2915C56.8419 22.3766 55.9623 23.2562 54.8772 23.2562H46.7441C45.659 23.2562 44.7793 22.3766 44.7793 21.2915Z" fill="#00BE5C"/>
<path fill-rule="evenodd" clip-rule="evenodd" d="M9.3683 14.5747C10.4534 14.5747 11.333 15.4544 11.333 16.5395C11.333 17.6246 10.4534 18.5042 9.36831 18.5042H2.46885C1.38375 18.5042 0.504108 17.6246 0.504108 16.5395C0.504108 15.4544 1.38375 14.5747 2.46885 14.5747H9.3683ZM43.5 14.5747C42.4149 14.5747 41.5352 15.4544 41.5352 16.5395C41.5352 17.6246 42.4149 18.5042 43.5 18.5042H54.8772C55.9623 18.5042 56.842 17.6246 56.842 16.5395C56.842 15.4544 55.9623 14.5747 54.8772 14.5747H43.5Z" fill="#00C549"/>
<path fill-rule="evenodd" clip-rule="evenodd" d="M14.1887 9.86857C15.2612 9.86857 16.1306 10.738 16.1306 11.8105C16.1306 12.883 15.2612 13.7524 14.1887 13.7524H2.44593C1.37345 13.7524 0.50403 12.883 0.50403 11.8105C0.50403 10.738 1.37345 9.86857 2.44593 9.86857H14.1887ZM38.6794 9.86857C37.6069 9.86857 36.7375 10.738 36.7375 11.8105C36.7375 12.883 37.6069 13.7524 38.6794 13.7524H53.0266C54.0991 13.7524 54.9685 12.883 54.9685 11.8105C54.9685 10.738 54.0991 9.86857 53.0266 9.86857H38.6794Z" fill="#00CC35"/>
<path fill-rule="evenodd" clip-rule="evenodd" d="M13.4348 5.16231C14.4947 5.16231 15.3538 6.0215 15.3538 7.08136C15.3538 8.14123 14.4947 9.00041 13.4348 9.00041H2.42308C1.36322 9.00041 0.504031 8.14123 0.504031 7.08136C0.504031 6.0215 1.36322 5.16231 2.42308 5.16231H13.4348ZM30.0666 7.08136C30.0666 6.0215 29.2074 5.16231 28.1475 5.16231H18.1867C17.1269 5.16231 16.2677 6.0215 16.2677 7.08136C16.2677 8.14123 17.1269 9.00041 18.1867 9.00041H28.1475C29.2074 9.00041 30.0666 8.14123 30.0666 7.08136ZM30.9805 7.08136C30.9805 6.0215 31.8396 5.16231 32.8995 5.16231H48.8916C49.9515 5.16231 50.8107 6.0215 50.8107 7.08136C50.8107 8.14123 49.9515 9.00041 48.8916 9.00041H32.8995C31.8396 9.00041 30.9805 8.14123 30.9805 7.08136Z" fill="#1CD124"/>
<path fill-rule="evenodd" clip-rule="evenodd" d="M2.42308 0.410339C1.36322 0.410339 0.504028 1.26953 0.504028 2.32939C0.504028 3.38926 1.36322 4.24844 2.42308 4.24844H10.0079C11.0678 4.24844 11.927 3.38926 11.927 2.32939C11.927 1.26953 11.0678 0.410339 10.0079 0.410339H2.42308ZM40.667 0.410343C41.7269 0.410343 42.5861 1.26953 42.5861 2.3294C42.5861 3.38926 41.7269 4.24845 40.667 4.24845H14.7598C13.7 4.24845 12.8408 3.38926 12.8408 2.3294C12.8408 1.26953 13.7 0.410343 14.7598 0.410343H40.667Z" fill="#3BD512"/>
</g>
<path d="M83.1638 67.6107C84.7963 67.6107 86.2395 67.3149 87.4934 66.7235C88.7473 66.1083 89.7292 65.2684 90.4389 64.2038C91.1487 63.1391 91.5036 61.9207 91.5036 60.5485C91.5036 58.8451 90.9831 57.4137 89.9421 56.2544C88.9247 55.0715 87.4697 54.1961 85.577 53.6283L81.2474 52.3507C79.6386 51.8539 78.4912 51.1796 77.8051 50.3279C77.119 49.4525 76.7759 48.4233 76.7759 47.2404C76.7759 45.7499 77.2846 44.5669 78.3019 43.6916C79.3429 42.7925 80.656 42.343 82.2411 42.343C83.8499 42.343 85.2576 42.7689 86.4642 43.6206C87.6945 44.4723 88.6054 45.7026 89.1968 47.3114L91.2197 46.5661C90.8648 45.4305 90.2615 44.3895 89.4098 43.4431C88.5817 42.4968 87.5525 41.7397 86.3223 41.1719C85.092 40.6041 83.7198 40.3202 82.2056 40.3202C80.7388 40.3202 79.4257 40.6159 78.2664 41.2074C77.1071 41.7988 76.1844 42.6269 75.4983 43.6916C74.8359 44.7325 74.5047 45.951 74.5047 47.3469C74.5047 48.932 74.9778 50.3634 75.9242 51.6409C76.8706 52.9185 78.3137 53.8412 80.2538 54.409L85.0802 55.8286C86.2868 56.1834 87.2805 56.7394 88.0612 57.4965C88.8419 58.2299 89.2323 59.2828 89.2323 60.655C89.2323 62.1691 88.6645 63.3639 87.5289 64.2393C86.3933 65.1147 84.9264 65.5524 83.1283 65.5524C81.3066 65.5524 79.7333 65.0792 78.4084 64.1328C77.1071 63.1865 76.1253 61.8143 75.4629 60.0162L73.4045 60.7614C73.7831 61.968 74.41 63.0918 75.2854 64.1328C76.1844 65.1738 77.2964 66.0137 78.6213 66.6525C79.9699 67.2913 81.484 67.6107 83.1638 67.6107ZM109.268 67.6107C111.043 67.6107 112.64 67.2913 114.059 66.6525C115.479 66.0137 116.673 65.1975 117.643 64.2038C118.613 63.1865 119.311 62.1573 119.737 61.1163L117.572 60.1581C116.839 61.7433 115.763 63.0209 114.343 63.9909C112.924 64.9372 111.232 65.4104 109.268 65.4104C107.257 65.4104 105.471 64.9372 103.909 63.9909C102.348 63.0209 101.118 61.6723 100.219 59.9452C99.3433 58.2181 98.9056 56.2189 98.9056 53.9477C98.9056 51.6764 99.3433 49.6773 100.219 47.9502C101.118 46.2231 102.348 44.8863 103.909 43.94C105.471 42.97 107.257 42.485 109.268 42.485C111.232 42.485 112.924 42.97 114.343 43.94C115.763 44.8863 116.839 46.1639 117.572 47.7727L119.737 46.8145C119.311 45.7499 118.613 44.7207 117.643 43.727C116.673 42.7334 115.479 41.9171 114.059 41.2784C112.64 40.6396 111.043 40.3202 109.268 40.3202C107.446 40.3202 105.755 40.6632 104.193 41.3493C102.656 42.0118 101.319 42.9581 100.183 44.1884C99.0476 45.395 98.1604 46.8382 97.5216 48.518C96.9065 50.1741 96.5989 51.984 96.5989 53.9477C96.5989 55.935 96.9065 57.7568 97.5216 59.4129C98.1604 61.069 99.0476 62.5122 100.183 63.7424C101.319 64.9727 102.656 65.9309 104.193 66.617C105.755 67.2794 107.446 67.6107 109.268 67.6107ZM122.511 67.1848H124.96L127.408 60.442H139.439L141.852 67.1848H144.336L134.612 40.746H132.235L122.511 67.1848ZM128.154 58.3127L133.406 43.6916L138.658 58.3127H128.154ZM148.255 67.1848H150.562V45.253L165.822 67.1848H167.774V40.746H165.467V62.6423L150.207 40.746H148.255V67.1848ZM183.435 67.6107C185.257 67.6107 186.854 67.2203 188.226 66.4396C189.598 65.6588 190.663 64.5823 191.42 63.2101C192.177 61.8143 192.556 60.2173 192.556 58.4192V40.746H190.249V58.4902C190.249 59.8624 189.965 61.0808 189.397 62.1455C188.829 63.1865 188.025 64.0027 186.984 64.5942C185.967 65.1856 184.784 65.4814 183.435 65.4814C182.087 65.4814 180.892 65.1856 179.851 64.5942C178.834 64.0027 178.029 63.1865 177.438 62.1455C176.87 61.0808 176.586 59.8624 176.586 58.4902V40.746H174.279V58.4192C174.279 60.2173 174.658 61.8143 175.415 63.2101C176.196 64.5823 177.272 65.6588 178.644 66.4396C180.016 67.2203 181.613 67.6107 183.435 67.6107Z" fill="black"/>
<path d="M73.5012 30.8152H82.7526C85.0826 30.8152 86.9133 30.2376 88.2448 29.0824C89.5958 27.9076 90.2713 26.2825 90.2713 24.207C90.2713 23.1693 90.0461 22.2001 89.5958 21.2994C89.1454 20.3988 88.4112 19.6351 87.393 19.0086C88.0588 18.4995 88.5482 17.8925 88.8615 17.1877C89.1944 16.4632 89.3608 15.6898 89.3608 14.8675C89.3608 13.0466 88.7636 11.6074 87.5693 10.5501C86.3945 9.47325 84.7791 8.93481 82.7233 8.93481H73.5012V30.8152ZM76.9668 17.6576V11.9305H82.8114C83.7512 11.9305 84.505 12.1851 85.0728 12.6941C85.6407 13.1836 85.9246 13.8591 85.9246 14.7206C85.9246 15.5821 85.6407 16.287 85.0728 16.8352C84.505 17.3835 83.7512 17.6576 82.8114 17.6576H76.9668ZM76.9668 27.7314V20.712H83.017C84.1722 20.712 85.0924 21.0351 85.7777 21.6812C86.463 22.3078 86.8056 23.1595 86.8056 24.2364C86.8056 25.3133 86.463 26.165 85.7777 26.7915C85.0924 27.4181 84.1722 27.7314 83.017 27.7314H76.9668ZM91.8978 30.8152H95.5984L97.3018 25.9105H106.201L107.875 30.8152H111.575L103.881 8.93481H99.5927L91.8978 30.8152ZM98.3004 22.8266L101.737 12.7822L105.144 22.8266H98.3004ZM121.55 31.1676C123.018 31.1676 124.311 30.9033 125.427 30.3746C126.562 29.846 127.443 29.1117 128.07 28.1719C128.697 27.2125 129.01 26.1258 129.01 24.9119C129.01 22.0337 127.257 20.0463 123.753 18.9499L119.935 17.7457C119.014 17.4716 118.329 17.0604 117.879 16.5122C117.428 15.9639 117.203 15.3374 117.203 14.6325C117.203 13.7123 117.536 12.978 118.202 12.4298C118.887 11.8816 119.768 11.6074 120.845 11.6074C122.059 11.6074 123.116 11.9207 124.017 12.5473C124.918 13.1738 125.583 14.0647 126.014 15.2199L128.892 13.957C128.54 12.8997 127.972 11.9697 127.189 11.1669C126.425 10.3641 125.505 9.73758 124.428 9.28725C123.351 8.81733 122.157 8.58238 120.845 8.58238C119.474 8.58238 118.251 8.8467 117.174 9.37536C116.117 9.90401 115.284 10.6383 114.677 11.5781C114.07 12.4983 113.767 13.5752 113.767 14.8087C113.767 16.2185 114.198 17.452 115.059 18.5093C115.921 19.547 117.174 20.3204 118.819 20.8295L122.93 22.1218C123.792 22.3959 124.448 22.7679 124.898 23.2378C125.368 23.7077 125.603 24.3441 125.603 25.1468C125.603 26.0475 125.241 26.772 124.516 27.3202C123.811 27.8489 122.872 28.1132 121.697 28.1132C120.365 28.1132 119.181 27.751 118.143 27.0265C117.125 26.3021 116.361 25.2643 115.852 23.9133L112.915 25.1468C113.307 26.3216 113.914 27.3594 114.736 28.26C115.559 29.1607 116.547 29.8754 117.702 30.404C118.877 30.9131 120.16 31.1676 121.55 31.1676ZM136.777 30.8152H140.213V12.0186H145.94V8.93481H130.962V12.0186H136.777V30.8152ZM148.531 30.8152H151.997V8.93481H148.531V30.8152ZM156.534 30.8152H170.954V27.7314H159.999V21.3875H170.367V18.3037H159.999V12.0186H170.954V8.93481H156.534V30.8152ZM174.172 30.8152H177.638V15.5136L188.564 30.8152H191.354V8.93481H187.917V24.0602L176.963 8.93481H174.172V30.8152Z" fill="black"/>
<defs>
<clipPath id="clip0_1091_5030">
<rect width="60.6188" height="75.3321" fill="white" transform="translate(0 0.333923)"/>
</clipPath>
</defs>
</svg>
