<svg width="126" height="76" viewBox="0 0 126 76" fill="none" xmlns="http://www.w3.org/2000/svg">
<path d="M12.1638 67.6107C13.7963 67.6107 15.2395 67.3149 16.4934 66.7235C17.7473 66.1083 18.7292 65.2684 19.4389 64.2038C20.1487 63.1391 20.5036 61.9207 20.5036 60.5485C20.5036 58.8451 19.9831 57.4137 18.9421 56.2544C17.9247 55.0715 16.4697 54.1961 14.577 53.6283L10.2474 52.3507C8.63864 51.8539 7.49119 51.1796 6.80508 50.3279C6.11897 49.4525 5.77592 48.4233 5.77592 47.2404C5.77592 45.7499 6.28459 44.5669 7.30192 43.6916C8.34291 42.7925 9.65598 42.343 11.2411 42.343C12.8499 42.343 14.2576 42.7689 15.4642 43.6206C16.6945 44.4723 17.6054 45.7026 18.1968 47.3114L20.2197 46.5661C19.8648 45.4305 19.2615 44.3895 18.4098 43.4431C17.5817 42.4968 16.5525 41.7397 15.3223 41.1719C14.092 40.6041 12.7198 40.3202 11.2056 40.3202C9.73878 40.3202 8.42571 40.6159 7.26643 41.2074C6.10715 41.7988 5.18445 42.6269 4.49834 43.6916C3.83589 44.7325 3.50467 45.951 3.50467 47.3469C3.50467 48.932 3.97785 50.3634 4.9242 51.6409C5.87056 52.9185 7.31375 53.8412 9.25377 54.409L14.0802 55.8286C15.2868 56.1834 16.2805 56.7394 17.0612 57.4965C17.8419 58.2299 18.2323 59.2828 18.2323 60.655C18.2323 62.1691 17.6645 63.3639 16.5289 64.2393C15.3933 65.1147 13.9264 65.5524 12.1283 65.5524C10.3066 65.5524 8.73328 65.0792 7.40838 64.1328C6.10715 63.1865 5.1253 61.8143 4.46285 60.0162L2.40453 60.7614C2.78307 61.968 3.41003 63.0918 4.28541 64.1328C5.18445 65.1738 6.29642 66.0137 7.62131 66.6525C8.96987 67.2913 10.484 67.6107 12.1638 67.6107ZM38.2682 67.6107C40.0426 67.6107 41.6396 67.2913 43.0592 66.6525C44.4787 66.0137 45.6735 65.1975 46.6435 64.2038C47.6135 63.1865 48.3114 62.1573 48.7373 61.1163L46.5725 60.1581C45.8391 61.7433 44.7626 63.0209 43.3431 63.9909C41.9235 64.9372 40.2319 65.4104 38.2682 65.4104C36.2572 65.4104 34.471 64.9372 32.9095 63.9909C31.348 63.0209 30.1178 61.6723 29.2187 59.9452C28.3433 58.2181 27.9056 56.2189 27.9056 53.9477C27.9056 51.6764 28.3433 49.6773 29.2187 47.9502C30.1178 46.2231 31.348 44.8863 32.9095 43.94C34.471 42.97 36.2572 42.485 38.2682 42.485C40.2319 42.485 41.9235 42.97 43.3431 43.94C44.7626 44.8863 45.8391 46.1639 46.5725 47.7727L48.7373 46.8145C48.3114 45.7499 47.6135 44.7207 46.6435 43.727C45.6735 42.7334 44.4787 41.9171 43.0592 41.2784C41.6396 40.6396 40.0426 40.3202 38.2682 40.3202C36.4465 40.3202 34.7549 40.6632 33.1934 41.3493C31.6556 42.0118 30.3189 42.9581 29.1832 44.1884C28.0476 45.395 27.1604 46.8382 26.5216 48.518C25.9065 50.1741 25.5989 51.984 25.5989 53.9477C25.5989 55.935 25.9065 57.7568 26.5216 59.4129C27.1604 61.069 28.0476 62.5122 29.1832 63.7424C30.3189 64.9727 31.6556 65.9309 33.1934 66.617C34.7549 67.2794 36.4465 67.6107 38.2682 67.6107ZM51.5109 67.1848H53.9596L56.4083 60.442H68.4388L70.852 67.1848H73.3362L63.6124 40.746H61.2347L51.5109 67.1848ZM57.1536 58.3127L62.4058 43.6916L67.6581 58.3127H57.1536ZM77.2555 67.1848H79.5622V45.253L94.8222 67.1848H96.774V40.746H94.4673V62.6423L79.2073 40.746H77.2555V67.1848ZM112.435 67.6107C114.257 67.6107 115.854 67.2203 117.226 66.4396C118.598 65.6588 119.663 64.5823 120.42 63.2101C121.177 61.8143 121.556 60.2173 121.556 58.4192V40.746H119.249V58.4902C119.249 59.8624 118.965 61.0808 118.397 62.1455C117.829 63.1865 117.025 64.0027 115.984 64.5942C114.967 65.1856 113.784 65.4814 112.435 65.4814C111.087 65.4814 109.892 65.1856 108.851 64.5942C107.834 64.0027 107.029 63.1865 106.438 62.1455C105.87 61.0808 105.586 59.8624 105.586 58.4902V40.746H103.279V58.4192C103.279 60.2173 103.658 61.8143 104.415 63.2101C105.196 64.5823 106.272 65.6588 107.644 66.4396C109.016 67.2203 110.613 67.6107 112.435 67.6107Z" fill="black"/>
<path d="M2.50121 30.8152H11.7526C14.0826 30.8152 15.9133 30.2376 17.2448 29.0824C18.5958 27.9076 19.2713 26.2825 19.2713 24.207C19.2713 23.1693 19.0461 22.2001 18.5958 21.2994C18.1454 20.3988 17.4112 19.6351 16.393 19.0086C17.0588 18.4995 17.5482 17.8925 17.8615 17.1877C18.1944 16.4632 18.3608 15.6898 18.3608 14.8675C18.3608 13.0466 17.7636 11.6074 16.5693 10.5501C15.3945 9.47325 13.7791 8.93481 11.7233 8.93481H2.50121V30.8152ZM5.96682 17.6576V11.9305H11.8114C12.7512 11.9305 13.505 12.1851 14.0728 12.6941C14.6407 13.1836 14.9246 13.8591 14.9246 14.7206C14.9246 15.5821 14.6407 16.287 14.0728 16.8352C13.505 17.3835 12.7512 17.6576 11.8114 17.6576H5.96682ZM5.96682 27.7314V20.712H12.017C13.1722 20.712 14.0924 21.0351 14.7777 21.6812C15.463 22.3078 15.8056 23.1595 15.8056 24.2364C15.8056 25.3133 15.463 26.165 14.7777 26.7915C14.0924 27.4181 13.1722 27.7314 12.017 27.7314H5.96682ZM20.8978 30.8152H24.5984L26.3018 25.9105H35.2008L36.8749 30.8152H40.5755L32.8806 8.93481H28.5927L20.8978 30.8152ZM27.3004 22.8266L30.7367 12.7822L34.1435 22.8266H27.3004ZM50.5499 31.1676C52.0184 31.1676 53.3107 30.9033 54.4267 30.3746C55.5623 29.846 56.4434 29.1117 57.07 28.1719C57.6965 27.2125 58.0098 26.1258 58.0098 24.9119C58.0098 22.0337 56.2574 20.0463 52.7526 18.9499L48.9346 17.7457C48.0143 17.4716 47.3291 17.0604 46.8787 16.5122C46.4284 15.9639 46.2032 15.3374 46.2032 14.6325C46.2032 13.7123 46.5361 12.978 47.2018 12.4298C47.8871 11.8816 48.7682 11.6074 49.845 11.6074C51.059 11.6074 52.1163 11.9207 53.017 12.5473C53.9176 13.1738 54.5833 14.0647 55.0141 15.2199L57.8923 13.957C57.5399 12.8997 56.9721 11.9697 56.1889 11.1669C55.4253 10.3641 54.505 9.73758 53.4281 9.28725C52.3513 8.81733 51.1569 8.58238 49.845 8.58238C48.4745 8.58238 47.2507 8.8467 46.1738 9.37536C45.1165 9.90401 44.2844 10.6383 43.6774 11.5781C43.0705 12.4983 42.767 13.5752 42.767 14.8087C42.767 16.2185 43.1977 17.452 44.0592 18.5093C44.9207 19.547 46.1738 20.3204 47.8185 20.8295L51.9303 22.1218C52.7918 22.3959 53.4477 22.7679 53.8981 23.2378C54.368 23.7077 54.6029 24.3441 54.6029 25.1468C54.6029 26.0475 54.2407 26.772 53.5163 27.3202C52.8114 27.8489 51.8716 28.1132 50.6968 28.1132C49.3653 28.1132 48.1808 27.751 47.143 27.0265C46.1249 26.3021 45.3613 25.2643 44.8522 23.9133L41.9152 25.1468C42.3068 26.3216 42.9138 27.3594 43.7362 28.26C44.5585 29.1607 45.5473 29.8754 46.7025 30.404C47.8773 30.9131 49.1598 31.1676 50.5499 31.1676ZM65.7769 30.8152H69.2132V12.0186H74.9402V8.93481H59.9617V12.0186H65.7769V30.8152ZM77.5314 30.8152H80.997V8.93481H77.5314V30.8152ZM85.5335 30.8152H99.954V27.7314H88.9991V21.3875H99.3666V18.3037H88.9991V12.0186H99.954V8.93481H85.5335V30.8152ZM103.172 30.8152H106.638V15.5136L117.564 30.8152H120.354V8.93481H116.917V24.0602L105.963 8.93481H103.172V30.8152Z" fill="black"/>
</svg>
