<svg width="186" height="121" viewBox="0 0 186 121" fill="none" xmlns="http://www.w3.org/2000/svg">
<path d="M82.9998 103C99.3617 97.7734 106.001 82.9542 113.5 77.5002C119.895 72.849 173.142 57.6238 174.293 51.8689C174.485 50.9112 175.309 49.9876 175.884 48.6874C176.401 47.5194 176.662 45.9598 177.02 45.2787L175.884 43.4607C175.884 42.2487 175.748 39.6883 175.202 39.1429C174.521 38.4612 162.5 28.3637 160 27.0002C158 25.9094 149.075 22.6062 146.5 22.0002C143.318 20.7882 136.363 19.2727 132 18.0001C126.546 16.4094 109.464 17.0998 88.9997 17.0997C68.5474 17.0997 49.2196 29.0879 30.4998 41.0007C2.99987 58.5009 2.05694 78.9923 23.4997 91.5002C41.5 102 66.6378 108.227 82.9998 103Z" fill="url(#paint0_radial_355_34573)"/>
<path d="M82.9998 103C99.3617 97.7734 106.001 82.9542 113.5 77.5002C119.895 72.849 173.142 57.6238 174.293 51.8689C174.485 50.9112 175.309 49.9876 175.884 48.6874C176.401 47.5194 176.662 45.9598 177.02 45.2787L175.884 43.4607C175.884 42.2487 175.748 39.6883 175.202 39.1429C174.521 38.4612 162.5 28.3637 160 27.0002C158 25.9094 149.075 22.6062 146.5 22.0002C143.318 20.7882 136.363 19.2727 132 18.0001C126.546 16.4094 109.464 17.0998 88.9997 17.0997C68.5474 17.0997 49.2196 29.0879 30.4998 41.0007C2.99987 58.5009 2.05694 78.9923 23.4997 91.5002C41.5 102 66.6378 108.227 82.9998 103Z" fill="url(#paint1_radial_355_34573)" fill-opacity="0.4"/>
<path d="M82.9998 103C99.3617 97.7734 106.001 82.9542 113.5 77.5002C119.895 72.849 173.142 57.6238 174.293 51.8689C174.485 50.9112 175.309 49.9876 175.884 48.6874C176.401 47.5194 176.662 45.9598 177.02 45.2787L175.884 43.4607C175.884 42.2487 175.748 39.6883 175.202 39.1429C174.521 38.4612 162.5 28.3637 160 27.0002C158 25.9094 149.075 22.6062 146.5 22.0002C143.318 20.7882 136.363 19.2727 132 18.0001C126.546 16.4094 109.464 17.0998 88.9997 17.0997C68.5474 17.0997 49.2196 29.0879 30.4998 41.0007C2.99987 58.5009 2.05694 78.9923 23.4997 91.5002C41.5 102 66.6378 108.227 82.9998 103Z" fill="url(#paint2_linear_355_34573)" fill-opacity="0.12"/>
<path d="M82.9998 103C99.3617 97.7734 106.001 82.9542 113.5 77.5002C119.895 72.849 173.142 57.6238 174.293 51.8689C174.485 50.9112 175.309 49.9876 175.884 48.6874C176.401 47.5194 176.662 45.9598 177.02 45.2787L175.884 43.4607C175.884 42.2487 175.748 39.6883 175.202 39.1429C174.521 38.4612 162.5 28.3637 160 27.0002C158 25.9094 149.075 22.6062 146.5 22.0002C143.318 20.7882 136.363 19.2727 132 18.0001C126.546 16.4094 109.464 17.0998 88.9997 17.0997C68.5474 17.0997 49.2196 29.0879 30.4998 41.0007C2.99987 58.5009 2.05694 78.9923 23.4997 91.5002C41.5 102 66.6378 108.227 82.9998 103Z" fill="url(#paint3_radial_355_34573)" fill-opacity="0.4"/>
<path d="M172.5 55.9595C170.909 58.232 148.359 66.1957 128.5 76.5C117.182 82.3723 112.544 84.4103 95.4999 96C99.4999 91 100.724 83.0724 101.5 79C103.5 68.5 106.8 58.232 111.118 55.9595C115.436 53.687 122.57 50.6346 137.5 46.5C145.022 44.4166 157.177 42.1945 163.386 41.1883C171.24 39.9154 174.999 38.9401 175.202 39.143C175.748 39.6884 175.884 42.2488 175.884 43.4608L177.02 45.2788C176.662 45.9598 176.401 47.5195 175.884 48.6875C175.309 49.9877 174.485 50.9113 174.293 51.869C173.93 53.687 173.636 51.7175 172.5 55.9595Z" fill="url(#paint4_linear_355_34573)"/>
<path d="M172.5 55.9595C170.909 58.232 148.359 66.1957 128.5 76.5C117.182 82.3723 112.544 84.4103 95.4999 96C99.4999 91 100.724 83.0724 101.5 79C103.5 68.5 106.8 58.232 111.118 55.9595C115.436 53.687 122.57 50.6346 137.5 46.5C145.022 44.4166 157.177 42.1945 163.386 41.1883C171.24 39.9154 174.999 38.9401 175.202 39.143C175.748 39.6884 175.884 42.2488 175.884 43.4608L177.02 45.2788C176.662 45.9598 176.401 47.5195 175.884 48.6875C175.309 49.9877 174.485 50.9113 174.293 51.869C173.93 53.687 173.636 51.7175 172.5 55.9595Z" fill="url(#paint5_linear_355_34573)" fill-opacity="0.1"/>
<path d="M142.024 51.4148C148.248 49.8588 163.84 49.3695 168.84 47.5515L176.339 45.279C176.793 45.279 176.112 43.9155 176.112 43.9155C176.112 43.9155 170.545 45.9481 167.703 46.8698C161.113 49.0074 149.247 48.7213 140.888 50.9603C133.246 53.0073 124.53 55.9297 117.709 59.3685C113.171 61.6559 108.391 65.0497 105.892 67.5495C104.074 69.3674 102.64 71.2973 103.846 70.0492C106.678 67.1201 115.959 60.8906 120.89 58.6867C127.435 55.7612 138.388 52.3238 142.024 51.4148Z" fill="#D9D9D9"/>
<path d="M129.792 49.0167L128.486 49.2789C128.486 49.2789 119.708 39.8931 109.193 32.7712C102.093 27.9624 93.1748 22.7141 86.4524 21.1918C80.7521 19.7405 76.102 19.3044 73.7559 19.1736C73.2159 19.1528 72.6649 19.1341 72.1026 19.1177C72.1026 19.1177 72.6926 19.1143 73.7559 19.1736C97.574 20.0911 99.9792 25.1696 104 27.5C108.112 29.8832 106.871 29.6487 115.404 35.6403C121.167 39.687 125.357 46.1158 129.792 49.0167Z" fill="white"/>
<path d="M133.417 47.8608L129.285 49.2399C129.285 49.2399 120.268 39.5812 109.803 32.5405C102.737 27.7866 91.9984 22.1014 85.3072 20.5979C77.9988 19.1251 72.993 19.4129 72.2239 19.4697C72.1895 19.4725 72.1551 19.4752 72.1206 19.478C72.1206 19.478 72.1555 19.4748 72.2239 19.4697C80.5197 18.8042 84.0741 18.5023 102 24.5C105.591 25.7017 110.894 23.6151 120 24.5C123.324 24.8229 132.488 21.6676 133.417 24.5C143.073 25.6032 156.675 25.8464 159.5 26.9999C153.196 26.6482 142.008 27.2233 133 27C117.923 26.6262 106.048 26.9487 105 27C103.952 27.0513 109.026 28.5934 117.518 34.5166C123.253 38.5173 129.004 44.993 133.417 47.8608Z" fill="#D8D8D8" fill-opacity="0.9"/>
<path d="M120.535 26.6496L112.501 24.1495C113.535 21.4581 118.456 15.1898 123.467 15.9635C127.041 16.5152 129.742 17.1559 131.93 18.8391C133.111 19.7484 133.442 20.3544 133.962 22.1365C128.451 15.0312 122.375 22.8965 120.535 26.6496Z" fill="url(#paint6_linear_355_34573)"/>
<mask id="mask0_355_34573" style="mask-type:alpha" maskUnits="userSpaceOnUse" x="112" y="15" width="22" height="12">
<path d="M120.535 26.6496L112.501 24.1495C113.536 21.4581 118.456 15.1898 123.467 15.9635C127.041 16.5152 129.742 17.1559 131.93 18.8391C133.111 19.7484 133.442 20.3544 133.962 22.1365C128.451 15.0312 122.375 22.8965 120.535 26.6496Z" fill="url(#paint7_linear_355_34573)"/>
</mask>
<g mask="url(#mask0_355_34573)">
<path fill-rule="evenodd" clip-rule="evenodd" d="M119.593 16.3739L127.199 18.4983L127.307 18.1104L119.701 15.986L119.593 16.3739ZM124.84 19.4602L117.234 17.3357L117.343 16.9478L124.949 19.0723L124.84 19.4602ZM115.33 19.0751L122.936 21.1995L123.045 20.8116L115.439 18.6872L115.33 19.0751ZM121.059 23.3404L113.453 21.216L113.561 20.8281L121.167 22.9525L121.059 23.3404ZM119.987 25.4631L112.381 23.3387L112.49 22.9508L120.096 25.0752L119.987 25.4631Z" fill="black" fill-opacity="0.3"/>
<path fill-rule="evenodd" clip-rule="evenodd" d="M119.566 15.9721L127.173 18.0965L127.281 17.7086L119.675 15.5842L119.566 15.9721ZM124.814 19.0588L117.208 16.9343L117.316 16.5464L124.922 18.6709L124.814 19.0588ZM115.304 18.6737L122.91 20.7982L123.018 20.4103L115.412 18.2858L115.304 18.6737ZM121.032 22.9391L113.426 20.8146L113.535 20.4267L121.141 22.5512L121.032 22.9391ZM119.961 25.0618L112.355 22.9373L112.463 22.5494L120.069 24.6739L119.961 25.0618Z" fill="white" fill-opacity="0.31"/>
</g>
<path d="M128.22 17.6701C133.619 16.9123 134.898 24.0935 135.27 26.6924L119.116 26.5412C120.369 24.1047 122.821 18.4278 128.22 17.6701Z" fill="#BDBDBD"/>
<g filter="url(#filter0_d_355_34573)">
<path d="M134.5 26.4355C134.467 23.8815 133.04 18.5584 129 18.5005C124.96 18.4426 121.753 23.9989 120.5 26.4354" stroke="#33E806" stroke-width="0.604112" stroke-linecap="round"/>
</g>
<defs>
<filter id="filter0_d_355_34573" x="118.989" y="16.9895" width="17.0206" height="10.9565" filterUnits="userSpaceOnUse" color-interpolation-filters="sRGB">
<feFlood flood-opacity="0" result="BackgroundImageFix"/>
<feColorMatrix in="SourceAlpha" type="matrix" values="0 0 0 0 0 0 0 0 0 0 0 0 0 0 0 0 0 0 127 0" result="hardAlpha"/>
<feOffset/>
<feGaussianBlur stdDeviation="0.604112"/>
<feComposite in2="hardAlpha" operator="out"/>
<feColorMatrix type="matrix" values="0 0 0 0 0.26 0 0 0 0 1 0 0 0 0 0 0 0 0 0.35 0"/>
<feBlend mode="normal" in2="BackgroundImageFix" result="effect1_dropShadow_355_34573"/>
<feBlend mode="normal" in="SourceGraphic" in2="effect1_dropShadow_355_34573" result="shape"/>
</filter>
<radialGradient id="paint0_radial_355_34573" cx="0" cy="0" r="1" gradientUnits="userSpaceOnUse" gradientTransform="translate(51.4996 69) rotate(-29.8989) scale(69.2116 36.3919)">
<stop stop-color="white"/>
<stop offset="1" stop-color="#F3F3F3"/>
</radialGradient>
<radialGradient id="paint1_radial_355_34573" cx="0" cy="0" r="1" gradientUnits="userSpaceOnUse" gradientTransform="translate(55.9996 56.5) rotate(-38.1572) scale(26.7067 12.7418)">
<stop stop-color="white"/>
<stop offset="0.640625" stop-color="white" stop-opacity="0.67"/>
<stop offset="1" stop-color="white" stop-opacity="0"/>
</radialGradient>
<linearGradient id="paint2_linear_355_34573" x1="85.4996" y1="109.5" x2="70.9996" y2="62.5" gradientUnits="userSpaceOnUse">
<stop/>
<stop offset="1" stop-opacity="0"/>
</linearGradient>
<radialGradient id="paint3_radial_355_34573" cx="0" cy="0" r="1" gradientUnits="userSpaceOnUse" gradientTransform="translate(53.3969 73.003) rotate(-117.004) scale(26.5259 72.7774)">
<stop stop-color="white"/>
<stop offset="1" stop-color="white" stop-opacity="0"/>
</radialGradient>
<linearGradient id="paint4_linear_355_34573" x1="172.5" y1="57.5" x2="96.4997" y2="102" gradientUnits="userSpaceOnUse">
<stop offset="0.0144337" stop-color="#CFCFCF"/>
<stop offset="0.401042" stop-color="#DBDBDB"/>
<stop offset="0.64567" stop-color="#DBDBDB"/>
<stop offset="1" stop-color="#9C9C9C"/>
</linearGradient>
<linearGradient id="paint5_linear_355_34573" x1="139" y1="48" x2="147" y2="68" gradientUnits="userSpaceOnUse">
<stop/>
<stop offset="1" stop-opacity="0"/>
</linearGradient>
<linearGradient id="paint6_linear_355_34573" x1="125.651" y1="15.4167" x2="116.224" y2="25.5198" gradientUnits="userSpaceOnUse">
<stop stop-color="#D8D8D8"/>
<stop offset="1" stop-color="#EEEEEE"/>
</linearGradient>
<linearGradient id="paint7_linear_355_34573" x1="125.651" y1="15.4167" x2="116.224" y2="25.5198" gradientUnits="userSpaceOnUse">
<stop stop-color="#555A67"/>
<stop offset="1" stop-color="#959697"/>
</linearGradient>
</defs>
</svg>
