<svg width="468" height="277" viewBox="0 0 468 277" fill="none" xmlns="http://www.w3.org/2000/svg">
<path fill-rule="evenodd" clip-rule="evenodd" d="M185.758 34.6873C183.367 33.3067 179.489 33.3067 177.098 34.6873L14.7496 128.411L-6.10352e-05 131.5V138.5L0.010775 138.498C0.0580529 139.365 0.654915 140.224 1.80136 140.886L79.2377 185.59C81.6292 186.97 85.5066 186.97 87.8981 185.59L263.195 84.391C264.111 83.8621 264.676 83.2074 264.89 82.5232L265 82.5V76L259.364 77.1802L185.758 34.6873Z" fill="url(#paint0_linear_334_536)"/>
<g filter="url(#filter0_di_334_536)">
<path fill-rule="evenodd" clip-rule="evenodd" d="M231.296 98.5001C230.818 98.7763 230.654 99.3878 230.93 99.8661C231.206 100.344 231.818 100.508 232.296 100.232L247.884 91.2322C248.363 90.956 248.526 90.3444 248.25 89.8661C247.974 89.3878 247.363 89.224 246.884 89.5001L231.296 98.5001ZM218.866 105.676C218.388 105.953 218.224 106.564 218.5 107.042C218.776 107.521 219.388 107.685 219.866 107.408L226.794 103.408C227.273 103.132 227.436 102.521 227.16 102.042C226.884 101.564 226.273 101.4 225.794 101.676L218.866 105.676Z" fill="#1A1A1A"/>
</g>
<rect width="100.366" height="211.413" rx="5" transform="matrix(0.866044 0.499967 -0.866044 0.499967 180.613 25.7017)" fill="url(#paint1_radial_334_536)"/>
<rect y="0.499967" width="99.3659" height="210.413" rx="4.5" transform="matrix(0.866044 0.499967 -0.866044 0.499967 181.046 25.9517)" stroke="white" stroke-opacity="0.15"/>
<path d="M31.5258 155.998C31.0001 154.349 32.7788 152.917 34.2776 153.782L41.8237 158.139C42.2322 158.375 42.538 158.755 42.6813 159.204C43.207 160.853 41.4283 162.285 39.9295 161.42L32.3834 157.063C31.9749 156.827 31.6691 156.448 31.5258 155.998Z" fill="#121212"/>
<path d="M13.2054 144.464C14.1513 143.6 13.9844 142.066 12.8749 141.425L12.7327 141.343C12.0176 140.93 11.1175 141.028 10.5079 141.585C9.56208 142.449 9.72895 143.984 10.8385 144.624L10.9806 144.706C11.6957 145.119 12.5958 145.021 13.2054 144.464Z" fill="#121212"/>
<defs>
<filter id="filter0_di_334_536" x="218.366" y="89.366" width="31.0186" height="19.1765" filterUnits="userSpaceOnUse" color-interpolation-filters="sRGB">
<feFlood flood-opacity="0" result="BackgroundImageFix"/>
<feColorMatrix in="SourceAlpha" type="matrix" values="0 0 0 0 0 0 0 0 0 0 0 0 0 0 0 0 0 0 127 0" result="hardAlpha"/>
<feOffset dx="1" dy="1"/>
<feComposite in2="hardAlpha" operator="out"/>
<feColorMatrix type="matrix" values="0 0 0 0 0 0 0 0 0 0 0 0 0 0 0 0 0 0 1 0"/>
<feBlend mode="normal" in2="BackgroundImageFix" result="effect1_dropShadow_334_536"/>
<feBlend mode="normal" in="SourceGraphic" in2="effect1_dropShadow_334_536" result="shape"/>
<feColorMatrix in="SourceAlpha" type="matrix" values="0 0 0 0 0 0 0 0 0 0 0 0 0 0 0 0 0 0 127 0" result="hardAlpha"/>
<feOffset dx="0.5"/>
<feComposite in2="hardAlpha" operator="arithmetic" k2="-1" k3="1"/>
<feColorMatrix type="matrix" values="0 0 0 0 1 0 0 0 0 1 0 0 0 0 1 0 0 0 0.25 0"/>
<feBlend mode="normal" in2="shape" result="effect2_innerShadow_334_536"/>
</filter>
<linearGradient id="paint0_linear_334_536" x1="7.99235" y1="145.5" x2="72.0641" y2="226.044" gradientUnits="userSpaceOnUse">
<stop stop-color="#474747"/>
<stop offset="0.2882" stop-color="#393939"/>
<stop offset="0.783352" stop-color="#545454"/>
<stop offset="1" stop-color="#1B1B1B"/>
</linearGradient>
<radialGradient id="paint1_radial_334_536" cx="0" cy="0" r="1" gradientUnits="userSpaceOnUse" gradientTransform="translate(19.5217 191.701) rotate(-63.3391) scale(246.956 320.674)">
<stop stop-color="#414141"/>
<stop offset="1" stop-color="#1A1A1A"/>
</radialGradient>
</defs>
</svg>
