<svg width="1024" height="1024" viewBox="0 0 1024 1024" fill="none" xmlns="http://www.w3.org/2000/svg">
<path fill-rule="evenodd" clip-rule="evenodd" d="M180.912 331.543C183.447 332.262 185.908 333.021 188.284 333.824C213.017 342.182 229 355.273 229 368.811C229 382.928 211.919 396.731 185.667 405.269C184.28 405.721 182.857 406.155 181.408 406.575C181.925 408.616 182.386 410.621 182.782 412.583C187.964 438.281 183.972 459.402 171.689 466.382C159.797 473.14 140.575 466.502 121.113 450.062C119.058 448.325 116.992 446.474 114.922 444.518C113.326 446.033 111.732 447.478 110.144 448.841C90.0511 466.081 69.4168 473.235 57.1218 466.275C45.2186 459.536 41.4783 439.874 46.2678 415.113C46.7728 412.5 47.3745 409.822 48.0662 407.089C45.9352 406.488 43.8673 405.856 41.8745 405.188C16.6218 396.715 0 382.742 0 368.811C0 355.322 15.4837 342.318 39.7284 334.021C42.4382 333.094 45.2703 332.222 48.204 331.405C47.5628 328.877 46.9958 326.392 46.5107 323.958C41.4877 298.759 45.0221 278.621 56.9571 271.839C69.4037 264.766 90.1318 272.362 110.811 290.386C112.073 291.486 113.339 292.636 114.606 293.826C116.508 292.027 118.411 290.311 120.308 288.69C140.04 271.834 159.578 264.783 171.524 271.545C183.983 278.598 187.631 300.018 182.051 326.608C181.711 328.227 181.329 329.875 180.912 331.543ZM178.455 397.153C179.758 396.774 181.037 396.383 182.284 395.979C204.849 388.654 218.746 377.447 218.746 368.813C218.746 360.708 205.878 350.189 184.782 343.075C182.601 342.339 180.338 341.642 178.006 340.98C175.201 349.87 171.458 359.263 166.911 368.86C171.676 378.69 175.57 388.205 178.455 397.153ZM174.017 443.63C175.528 435.651 175.202 425.444 172.921 414.155C172.565 412.393 172.152 410.59 171.687 408.752C162.245 410.891 151.833 412.457 140.812 413.415C134.546 422.301 128.126 430.302 121.703 437.184C123.622 438.994 125.535 440.704 127.435 442.305C144.004 456.273 159.368 461.569 166.552 457.495C169.929 455.58 172.659 450.8 174.017 443.63ZM62.2463 457.38C65.6257 459.289 71.2161 459.219 78.2354 456.791C86.0467 454.088 94.9102 448.714 103.755 441.14C105.196 439.906 106.644 438.597 108.099 437.221C101.442 430.223 94.8368 422.231 88.5289 413.536C77.4818 412.658 67.1461 411.203 57.8074 409.18C57.1667 411.71 56.6108 414.185 56.1437 416.594C52.066 437.633 55.0554 453.317 62.2463 457.38ZM18.7626 382.088C25.0551 387.367 34.2351 392.204 45.3511 395.926C47.1593 396.531 49.0385 397.106 50.9781 397.652C53.8588 388.455 57.654 378.799 62.2284 369.045C57.7125 359.434 53.9704 349.93 51.1177 340.839C48.3969 341.597 45.7752 342.403 43.2707 343.258C22.6297 350.308 10.2537 360.681 10.2537 368.813C10.2537 372.635 13.1084 377.344 18.7626 382.088ZM62.0953 280.728C54.9353 284.789 52.09 300.97 56.3742 322.419C56.8226 324.665 57.3481 326.962 57.9413 329.3C67.3774 327.206 77.6405 325.642 88.3621 324.668C94.614 316.024 101.159 308.092 107.782 301.125C106.639 300.055 105.498 299.02 104.362 298.032C86.5868 282.57 69.722 276.403 62.0953 280.728ZM147.778 335.038C150.138 338.663 152.454 342.39 154.71 346.207C157.013 350.105 159.2 353.983 161.268 357.829C164.151 351.217 166.6 344.767 168.565 338.598C162.02 337.135 155.051 335.939 147.778 335.038ZM128.024 323.809C123.599 318.034 119.101 312.711 114.609 307.943C110.047 312.766 105.509 318.081 101.08 323.803C105.511 323.6 109.992 323.495 114.5 323.495C119.051 323.495 123.565 323.603 128.024 323.809ZM67.8157 357.822C69.8511 353.958 71.9977 350.101 74.251 346.273C76.5104 342.435 78.8453 338.68 81.2394 335.021C74.012 335.905 67.0759 337.071 60.5716 338.497C62.5535 344.753 64.9797 351.233 67.8157 357.822ZM60.4373 399.977C66.94 401.364 73.9803 402.469 81.4475 403.286C78.9917 399.552 76.5992 395.724 74.2899 391.816C72.0228 387.98 69.8673 384.122 67.8266 380.26C64.9306 386.991 62.4508 393.609 60.4373 399.977ZM101.162 414.275C105.659 420.08 110.263 425.477 114.878 430.356C119.34 425.544 123.822 420.139 128.262 414.229C123.74 414.426 119.147 414.529 114.5 414.529C109.977 414.529 105.527 414.443 101.162 414.275ZM169.016 399.564C166.977 393.304 164.408 386.721 161.361 379.917C159.276 383.854 157.071 387.806 154.749 391.751C152.453 395.65 150.117 399.441 147.751 403.115C155.27 402.231 162.407 401.041 169.016 399.564ZM135.377 404.27C139.091 398.816 142.75 393.037 146.313 386.984C149.872 380.938 153.148 374.885 156.109 368.907C153.139 363.029 149.856 357.037 146.281 350.988C142.747 345.006 139.067 339.258 135.297 333.806C128.519 333.3 121.558 333.036 114.5 333.036C107.474 333.036 100.521 333.298 93.7416 333.8C89.9134 339.291 86.2082 345.059 82.6876 351.039C79.1764 357.004 75.9354 363.036 72.991 369.042C75.9362 375.035 79.1865 381.061 82.718 387.036C86.2589 393.028 89.9962 398.824 93.86 404.35C100.505 404.772 107.406 404.988 114.5 404.988C121.623 404.988 128.612 404.744 135.377 404.27ZM172.209 324.959C177.006 302.151 174.037 284.757 166.403 280.445C159.236 276.396 143.506 282.061 126.676 296.41C124.934 297.895 123.184 299.469 121.433 301.12C127.948 307.998 134.44 315.943 140.704 324.682C151.456 325.67 161.727 327.261 171.185 329.399C171.559 327.897 171.903 326.414 172.209 324.959Z" fill="#E2E2E2"/>
<path d="M114.5 346.966C124.882 346.966 133.299 356.072 133.299 367.305C133.299 378.538 124.882 387.644 114.5 387.644C104.118 387.644 95.7015 378.538 95.7015 367.305C95.7015 356.072 104.118 346.966 114.5 346.966Z" fill="#E2E2E2"/>
<path d="M870.615 317C870.407 317.003 870.197 317.053 870.012 317.162C869.641 317.38 869.408 317.781 869.408 318.212V349.1C869.408 349.404 869.267 349.675 869.005 349.827C868.743 349.98 868.423 349.98 868.16 349.827L863.127 346.92C862.377 346.486 861.462 346.486 860.712 346.92L840.622 358.548C839.871 358.983 839.415 359.819 839.415 360.688V383.946C839.415 384.815 839.872 385.61 840.622 386.045L860.712 397.674C861.463 398.109 862.376 398.109 863.127 397.674L883.217 386.045C883.967 385.61 884.424 384.815 884.424 383.946V325.964C884.424 325.082 883.944 324.254 883.176 323.824L871.219 317.121C871.032 317.016 870.823 316.998 870.615 317ZM741.384 346.031C741.001 346.047 740.641 346.114 740.297 346.314L720.208 357.943C719.459 358.377 719 359.167 719 360.042L719.04 391.254C719.04 391.688 719.263 392.091 719.644 392.304C720.017 392.528 720.48 392.528 720.852 392.304L732.768 385.44C733.523 384.99 734.017 384.208 734.017 383.34V368.764C734.017 367.894 734.473 367.096 735.224 366.664L740.297 363.717C740.676 363.497 741.082 363.394 741.505 363.394C741.919 363.394 742.344 363.497 742.712 363.717L747.785 366.664C748.537 367.096 748.993 367.894 748.993 368.764V383.34C748.993 384.208 749.491 384.995 750.241 385.44L762.158 392.304C762.532 392.528 762.994 392.528 763.365 392.304C763.735 392.091 763.969 391.688 763.969 391.254L764.009 360.042C764.009 359.167 763.555 358.377 762.802 357.943L742.712 346.314C742.373 346.114 742.011 346.047 741.625 346.031H741.384ZM921.905 346.314C921.486 346.314 921.074 346.42 920.698 346.637L900.608 358.266C899.858 358.7 899.401 359.496 899.401 360.365V383.623C899.401 384.497 899.892 385.29 900.649 385.722L920.577 397.109C921.313 397.53 922.211 397.562 922.952 397.149L935.03 390.406C935.413 390.192 935.672 389.794 935.674 389.356C935.677 388.917 935.449 388.524 935.07 388.306L914.86 376.677C914.482 376.461 914.216 376.022 914.216 375.587V368.319C914.216 367.885 914.485 367.487 914.86 367.27L921.141 363.635C921.514 363.419 921.973 363.419 922.348 363.635L928.629 367.27C929.004 367.487 929.233 367.885 929.233 368.319V374.053C929.233 374.488 929.461 374.886 929.836 375.103C930.213 375.32 930.669 375.321 931.044 375.103L943.082 368.077C943.829 367.642 944.289 366.844 944.289 365.977V360.365C944.289 359.498 943.83 358.701 943.082 358.265L923.113 346.637C922.737 346.418 922.325 346.315 921.905 346.314ZM861.839 363.676C861.944 363.676 862.067 363.702 862.161 363.756L869.045 367.754C869.232 367.862 869.367 368.062 869.367 368.279V376.273C869.367 376.49 869.233 376.69 869.045 376.798L862.161 380.796C861.974 380.903 861.745 380.903 861.557 380.796L854.673 376.798C854.485 376.69 854.351 376.49 854.351 376.273V368.279C854.351 368.062 854.486 367.863 854.673 367.754L861.557 363.757C861.651 363.703 861.734 363.676 861.839 363.676Z" fill="#E2E2E2"/>
<path d="M980.12 346.233C980.719 345.893 981.396 345.749 982.093 345.749C982.789 345.749 983.471 345.893 984.065 346.233L1003.03 357.216C1004.25 357.927 1005 359.264 1005 360.688V382.613C1005 384.037 1004.25 385.37 1003.03 386.086L984.065 397.028C983.46 397.379 982.795 397.553 982.093 397.553C981.4 397.553 980.725 397.379 980.12 397.028L973.759 393.273C972.815 392.743 973.287 392.574 973.598 392.465C974.859 392.027 975.112 391.938 976.456 391.173C976.596 391.094 976.795 391.088 976.939 391.173L981.811 394.08C981.988 394.177 982.212 394.177 982.374 394.08L1001.34 383.138C1001.51 383.037 1001.62 382.823 1001.62 382.613V360.688C1001.62 360.474 1001.48 360.272 1001.3 360.164L982.374 349.221C982.199 349.119 981.988 349.119 981.811 349.221L962.889 360.164C962.706 360.269 962.567 360.48 962.567 360.688V382.613C962.567 382.823 962.707 382.998 962.889 383.098L968.042 386.126C970.857 387.537 972.591 385.858 972.591 384.188V362.546C972.591 362.24 972.851 362.021 973.155 362.021H975.53C975.83 362.021 976.094 362.24 976.094 362.546V384.188C976.094 387.956 974.06 390.123 970.498 390.123L970.449 390.123C969.376 390.124 968.48 390.124 966.11 388.952L961.158 386.086C959.931 385.375 959.185 384.037 959.185 382.613V360.688C959.185 359.264 959.931 357.925 961.158 357.216L980.12 346.233Z" fill="#E2E2E2"/>
<path d="M978.55 367.553C978.55 363.72 981.766 361.415 987.165 361.415C993.233 361.415 996.246 363.547 996.626 368.078C996.641 368.234 996.568 368.365 996.465 368.481C996.36 368.59 996.214 368.683 996.062 368.683H993.607C993.352 368.683 993.135 368.487 993.083 368.239C992.494 365.608 991.056 364.767 987.165 364.767C982.809 364.767 982.334 366.291 982.334 367.432C982.334 368.813 982.895 369.195 988.776 369.975C994.595 370.747 997.391 371.848 997.391 375.951C997.391 380.09 993.93 382.452 987.93 382.452C979.642 382.452 977.906 378.667 977.906 375.467C977.906 375.163 978.167 374.901 978.469 374.901H980.925C981.199 374.901 981.405 375.118 981.448 375.386C981.817 377.886 982.919 379.141 987.93 379.141C991.919 379.141 993.607 378.236 993.607 376.113C993.607 374.889 993.124 373.976 986.924 373.367C981.742 372.853 978.55 371.711 978.55 367.553Z" fill="#E2E2E2"/>
<path d="M801.732 346.193C801.314 346.193 800.899 346.299 800.524 346.516L780.435 358.104C779.684 358.538 779.227 359.376 779.227 360.244V383.502C779.227 384.371 779.685 385.166 780.435 385.601L800.524 397.23C801.276 397.665 802.189 397.665 802.94 397.23L823.029 385.601C823.779 385.166 824.237 384.371 824.237 383.502V360.244C824.237 359.374 823.78 358.538 823.029 358.104L802.94 346.516C802.565 346.299 802.151 346.193 801.732 346.193Z" fill="#E2E2E2"/>
<path d="M921.624 366.987C921.696 366.947 921.785 366.947 921.865 366.947L921.878 366.947C921.951 366.947 921.999 366.947 922.066 366.987L925.931 369.248C926.075 369.332 926.173 369.485 926.173 369.652V374.094C926.173 374.261 926.075 374.415 925.931 374.497L922.066 376.718C921.923 376.802 921.769 376.802 921.624 376.718L917.759 374.497C917.614 374.414 917.517 374.261 917.517 374.094V369.652C917.517 369.485 917.614 369.331 917.759 369.248L921.624 366.987Z" fill="#E2E2E2"/>
<path fill-rule="evenodd" clip-rule="evenodd" d="M840.25 610C885.141 610 921.5 646.706 921.5 692.024C921.5 728.319 898.242 758.975 865.945 769.843C861.883 770.561 860.359 768.1 860.359 765.947C860.359 763.999 860.461 757.54 860.461 750.67C880.875 754.464 886.156 745.646 887.781 741.033C888.695 738.674 892.656 731.395 896.109 729.447C898.953 727.909 903.016 724.115 896.211 724.013C889.812 723.91 885.242 729.959 883.719 732.42C876.406 744.826 864.727 741.34 860.055 739.187C859.344 733.855 857.211 730.267 854.875 728.216C872.953 726.166 891.844 719.091 891.844 687.717C891.844 678.797 888.695 671.415 883.516 665.673C884.328 663.623 887.172 655.215 882.703 643.937C882.703 643.937 875.898 641.784 860.359 652.345C853.859 650.499 846.953 649.576 840.047 649.576C833.141 649.576 826.234 650.499 819.734 652.345C804.195 641.682 797.391 643.937 797.391 643.937C792.922 655.215 795.766 663.623 796.578 665.673C791.398 671.415 788.25 678.695 788.25 687.717C788.25 719.194 807.242 726.166 825.32 728.216C822.375 730.78 819.836 735.701 819.836 743.391C819.836 754.361 819.938 763.179 819.938 765.947C819.938 768.1 818.414 770.664 814.352 769.843C782.258 758.975 759 728.216 759 692.024C759 646.706 795.359 610 840.25 610Z" fill="#E2E2E2"/>
<path d="M467.256 1017C482.854 1017 495.513 1004.38 495.513 988.828V960.655H467.256C451.659 960.655 439 973.276 439 988.828C439 1004.38 451.659 1017 467.256 1017Z" fill="#E2E2E2"/>
<path d="M439 931C439 914.63 451.659 901.345 467.256 901.345H495.513V960.655H467.256C451.659 960.655 439 947.37 439 931Z" fill="#E2E2E2"/>
<path d="M439 873.172C439 857.621 451.659 845 467.256 845H495.513V901.345H467.256C451.659 901.345 439 888.724 439 873.172Z" fill="#E2E2E2"/>
<path d="M498.487 845H526.744C542.341 845 555 857.621 555 873.172C555 888.724 542.341 901.345 526.744 901.345H498.487V845Z" fill="#E2E2E2"/>
<path d="M555 931C555 947.37 542.341 960.655 526.744 960.655C511.146 960.655 498.487 947.37 498.487 931C498.487 914.63 511.146 901.345 526.744 901.345C542.341 901.345 555 914.63 555 931Z" fill="#E2E2E2"/>
<path d="M422.473 74.5534H489.995V79.8461H428.662V119.681H486.337V124.974H428.662V168.709H490.698V174.002H422.473V74.5534Z" fill="#E2E2E2"/>
<path d="M496.044 74.5534H503.218L535.01 118.288L567.505 74.5534L611.703 19L539.089 122.885L576.507 174.002H569.052L535.01 127.481L500.826 174.002H493.512L531.211 122.885L496.044 74.5534Z" fill="#E2E2E2"/>
<path d="M579.18 79.8461V74.5534H656.127V79.8461H620.678V174.002H614.489V79.8461H579.18Z" fill="#E2E2E2"/>
<path d="M338 74.5535H345.737L452.424 232L408.336 174.002L344.471 82.0748L344.19 174.002H338V74.5535Z" fill="#E2E2E2"/>
<path d="M657.717 164.896C657.717 166.145 656.783 167.111 655.504 167.111C654.239 167.111 653.291 166.145 653.291 164.896C653.291 163.648 654.239 162.681 655.504 162.681C656.783 162.681 657.717 163.648 657.717 164.896Z" fill="#E2E2E2"/>
<path d="M668.21 167.379C664.281 167.379 661.586 164.971 661.586 161.284H664.898C664.943 163.053 666.253 164.242 668.18 164.242C670.332 164.242 671.552 162.964 671.552 160.57V145.407H674.924V160.585C674.924 164.896 672.395 167.379 668.21 167.379Z" fill="#E2E2E2"/>
<path d="M687.63 167.379C682.812 167.379 679.576 164.926 679.335 161.091H682.677C682.963 163.127 684.98 164.421 687.886 164.421C690.595 164.421 692.583 163.038 692.583 161.135C692.583 159.5 691.318 158.519 688.443 157.85L685.643 157.181C681.713 156.274 679.922 154.401 679.922 151.249C679.922 147.429 683.083 144.887 687.825 144.887C692.236 144.887 695.458 147.429 695.654 151.041H692.372C692.056 149.064 690.309 147.83 687.78 147.83C685.116 147.83 683.339 149.094 683.339 151.026C683.339 152.557 684.483 153.435 687.314 154.089L689.707 154.668C694.163 155.694 696 157.478 696 160.704C696 164.807 692.778 167.379 687.63 167.379Z" fill="#E2E2E2"/>
<path d="M234.856 710.49C226.779 710.536 219.785 712.496 213.92 715.415C211.754 711.083 209.588 707.298 209.228 704.471C208.821 701.187 208.325 699.18 208.821 695.259C209.317 691.337 211.573 685.773 211.573 685.317C211.528 684.907 211.077 682.9 206.43 682.855C201.783 682.809 197.766 683.767 197.315 684.998C196.864 686.229 195.961 689.057 195.375 691.975C194.563 696.262 186.08 711.448 181.252 719.428C179.673 716.327 178.319 713.591 178.048 711.402C177.642 708.119 177.145 706.112 177.642 702.19C178.139 698.268 180.395 692.705 180.395 692.249C180.35 691.838 179.898 689.832 175.251 689.786C170.603 689.741 166.588 690.698 166.137 691.93C165.686 693.161 165.189 696.079 164.197 698.907C163.249 701.734 151.968 727.089 149.035 733.702C147.546 737.076 146.238 739.767 145.29 741.591C144.343 743.415 145.245 741.728 145.155 741.91C144.343 743.461 143.892 744.327 143.892 744.327V744.373C143.26 745.513 142.583 746.607 142.267 746.607C142.041 746.607 141.59 743.552 142.357 739.357C144.027 730.555 148.087 716.829 148.043 716.328C148.043 716.1 148.809 713.682 145.425 712.451C142.132 711.22 140.959 713.272 140.688 713.272C140.417 713.272 140.191 714.002 140.191 714.002C140.191 714.002 143.846 698.543 133.198 698.543C126.52 698.543 117.315 705.885 112.758 712.589C109.87 714.185 103.733 717.559 97.236 721.162C94.7543 722.53 92.1824 723.989 89.7459 725.312L89.25 724.764C76.3454 710.855 52.4763 701.005 53.4689 682.307C53.8299 675.513 56.1762 657.591 99.3125 635.884C134.642 618.099 162.933 622.978 167.851 633.832C174.845 649.337 152.735 678.158 116.007 682.307C102.02 683.904 94.6645 678.431 92.815 676.379C90.8748 674.236 90.6041 674.145 89.8821 674.555C88.709 675.193 89.4309 677.109 89.8821 678.249C90.9651 681.122 95.4772 686.229 103.148 688.783C109.87 691.018 126.295 692.249 146.148 684.496C168.393 675.786 185.765 651.617 180.666 631.415C175.477 610.848 141.726 604.099 109.826 615.545C90.8292 622.385 70.254 633.056 55.4543 647.057C37.857 663.656 35.0595 678.158 36.2327 684.177C40.3391 705.656 69.6223 719.656 81.3538 730.008C80.7672 730.327 80.2258 730.646 79.7294 730.92C73.8637 733.838 51.5287 745.65 45.9337 758.144C39.6168 772.281 46.9264 782.451 51.7995 783.819C66.8699 788.06 82.3013 780.445 90.6488 767.904C98.9506 755.363 97.9584 739.083 94.1231 731.65L93.9873 731.376L98.5896 728.64C101.568 726.861 104.501 725.22 107.072 723.805C105.629 727.773 104.591 732.47 104.05 739.31C103.418 747.337 106.667 757.734 110.953 761.838C112.848 763.616 115.104 763.662 116.503 763.662C121.466 763.662 123.723 759.512 126.204 754.542C129.272 748.477 131.98 741.454 131.98 741.454C131.98 741.454 128.596 760.47 137.845 760.47C141.23 760.47 144.614 756.047 146.148 753.766V753.812C146.148 753.812 146.238 753.675 146.418 753.356C146.608 753.073 146.788 752.784 146.96 752.49V752.399C148.314 750.027 151.337 744.601 155.849 735.617C161.669 724.034 167.264 709.532 167.264 709.532C167.264 709.532 167.806 713.089 169.475 718.926C170.468 722.393 172.633 726.177 174.303 729.871C172.949 731.786 172.137 732.881 172.137 732.881L172.182 732.927C171.1 734.386 169.881 735.937 168.618 737.487C164.016 743.051 158.511 749.39 157.789 751.214C156.932 753.357 157.112 754.953 158.782 756.23C160 757.142 162.166 757.324 164.467 757.142C168.618 756.868 171.506 755.82 172.95 755.181C175.206 754.36 177.778 753.129 180.259 751.305C184.771 747.931 187.524 743.142 187.253 736.758C187.118 733.247 185.99 729.781 184.591 726.497C184.997 725.905 185.404 725.311 185.809 724.673C192.938 714.139 198.443 702.556 198.443 702.556C198.443 702.556 198.985 706.113 200.654 711.95C201.511 714.914 203.226 718.153 204.76 721.345C198.082 726.863 193.886 733.247 192.442 737.443C189.78 745.195 191.855 748.706 195.781 749.527C197.54 749.892 200.067 749.071 201.962 748.25C204.308 747.475 207.151 746.152 209.769 744.192C214.281 740.817 218.612 736.12 218.387 729.781C218.251 726.863 217.484 723.99 216.446 721.254C222.132 718.882 229.486 717.514 238.827 718.654C258.905 721.026 262.876 733.703 262.109 738.993C261.342 744.283 257.146 747.201 255.747 748.114C254.348 748.98 253.897 749.3 254.032 749.938C254.213 750.896 254.845 750.85 256.063 750.668C257.732 750.394 266.621 746.335 266.982 736.577C267.524 724.034 255.747 710.354 234.856 710.49V710.49ZM80.0002 763.252C73.3674 770.594 64.0273 773.376 60.0566 771.005C55.7701 768.497 57.4392 757.689 65.6065 749.891C70.5699 745.148 77.0222 740.77 81.2636 738.08C82.2111 737.487 83.655 736.621 85.3696 735.571C85.6403 735.389 85.8208 735.298 85.8208 735.298C86.1366 735.115 86.4976 734.887 86.8586 734.659C89.8817 745.786 86.9939 755.545 80.0002 763.252V763.252ZM128.505 729.917C126.204 735.617 121.331 750.256 118.398 749.435C115.871 748.751 114.337 737.669 117.901 726.724C119.706 721.206 123.542 714.64 125.798 712.086C129.453 707.981 133.423 706.613 134.416 708.301C135.589 710.49 129.949 726.36 128.505 729.917ZM168.528 749.252C167.535 749.754 166.633 750.119 166.227 749.846C165.911 749.663 166.632 748.979 166.632 748.979C166.632 748.979 171.641 743.552 173.626 741.044C174.754 739.585 176.108 737.898 177.552 735.982V736.53C177.552 743.096 171.325 747.474 168.528 749.252ZM199.39 742.138C198.668 741.591 198.759 739.904 201.195 734.614C202.143 732.516 204.308 729.005 208.053 725.676C208.505 727.044 208.776 728.366 208.73 729.597C208.686 737.806 202.91 740.861 199.39 742.138Z" fill="#E2E2E2"/>
<path d="M391 369.684C391 365.44 394.441 362 398.685 362H429.424C433.669 362 437.109 365.44 437.109 369.684C437.109 373.928 433.669 377.368 429.424 377.368H398.685C394.441 377.368 391 373.928 391 369.684Z" fill="#3BD512"/>
<path d="M559.299 369.684C559.299 365.44 555.858 362 551.614 362H448.637C444.392 362 440.952 365.44 440.952 369.684C440.952 373.928 444.392 377.368 448.637 377.368H551.614C555.858 377.368 559.299 373.928 559.299 369.684Z" fill="#3BD512"/>
<path d="M450.942 388.126C450.942 383.882 447.501 380.442 443.257 380.442H398.685C394.441 380.442 391 383.882 391 388.126C391 392.37 394.441 395.811 398.685 395.811H443.257C447.501 395.811 450.942 392.37 450.942 388.126Z" fill="#1CD124"/>
<path d="M510.116 388.126C510.116 383.882 506.675 380.442 502.431 380.442H462.469C458.225 380.442 454.785 383.882 454.785 388.126C454.785 392.37 458.225 395.811 462.469 395.811H502.431C506.675 395.811 510.116 392.37 510.116 388.126Z" fill="#1CD124"/>
<path d="M513.958 388.126C513.958 383.882 517.399 380.442 521.643 380.442H584.659C588.903 380.442 592.344 383.882 592.344 388.126C592.344 392.37 588.903 395.811 584.659 395.811H521.643C517.399 395.811 513.958 392.37 513.958 388.126Z" fill="#1CD124"/>
<path d="M454.016 406.568C454.016 402.325 450.575 398.884 446.331 398.884H398.685C394.441 398.884 391 402.325 391 406.568C391 410.812 394.441 414.253 398.685 414.253H446.331C450.575 414.253 454.016 410.812 454.016 406.568Z" fill="#00CC35"/>
<path d="M533.17 406.568C533.17 402.325 529.73 398.884 525.486 398.884H465.543C461.299 398.884 457.859 402.325 457.859 406.568C457.859 410.812 461.299 414.253 465.543 414.253H525.486C529.73 414.253 533.17 410.812 533.17 406.568Z" fill="#DADADA"/>
<path d="M537.013 406.568C537.013 402.325 540.454 398.884 544.698 398.884H601.566C605.81 398.884 609.251 402.325 609.251 406.568C609.251 410.812 605.81 414.253 601.566 414.253H544.698C540.454 414.253 537.013 410.812 537.013 406.568Z" fill="#00CC35"/>
<path d="M434.035 425.011C434.035 420.767 430.595 417.326 426.35 417.326H398.685C394.441 417.326 391 420.767 391 425.011C391 429.254 394.441 432.695 398.685 432.695H426.35C430.595 432.695 434.035 429.254 434.035 425.011Z" fill="#00C549"/>
<path d="M485.524 425.011C485.524 420.767 482.083 417.326 477.839 417.326H445.563C441.318 417.326 437.878 420.767 437.878 425.011C437.878 429.254 441.318 432.695 445.563 432.695H477.839C482.083 432.695 485.524 429.254 485.524 425.011Z" fill="#DADADA"/>
<path d="M550.846 425.011C550.846 420.767 547.405 417.326 543.161 417.326H497.051C492.807 417.326 489.367 420.767 489.367 425.011C489.367 429.254 492.807 432.695 497.051 432.695H543.161C547.405 432.695 550.846 429.254 550.846 425.011Z" fill="#DADADA"/>
<path d="M554.688 425.011C554.688 420.767 558.129 417.326 562.373 417.326H610.019C614.264 417.326 617.704 420.767 617.704 425.011C617.704 429.254 614.264 432.695 610.019 432.695H562.373C558.129 432.695 554.688 429.254 554.688 425.011Z" fill="#00C549"/>
<path d="M391 443.453C391 439.209 394.441 435.768 398.685 435.768H415.592C419.836 435.768 423.277 439.209 423.277 443.453C423.277 447.697 419.836 451.137 415.592 451.137H398.685C394.441 451.137 391 447.697 391 443.453Z" fill="#00BE5C"/>
<path d="M427.119 443.453C427.119 439.209 430.56 435.768 434.804 435.768H457.859C462.103 435.768 465.543 439.209 465.543 443.453C465.543 447.697 462.103 451.137 457.859 451.137H434.804C430.56 451.137 427.119 447.697 427.119 443.453Z" fill="#DADADA"/>
<path d="M469.386 443.453C469.386 439.209 472.826 435.768 477.071 435.768H517.032C521.276 435.768 524.717 439.209 524.717 443.453C524.717 447.697 521.276 451.137 517.032 451.137H477.071C472.826 451.137 469.386 447.697 469.386 443.453Z" fill="#00BE5C"/>
<path d="M528.559 443.453C528.559 439.209 532 435.768 536.244 435.768H556.225C560.469 435.768 563.91 439.209 563.91 443.453C563.91 447.697 560.469 451.137 556.225 451.137H536.244C532 451.137 528.559 447.697 528.559 443.453Z" fill="#DADADA"/>
<path d="M567.752 443.453C567.752 439.209 571.193 435.768 575.437 435.768H607.714C611.958 435.768 615.399 439.209 615.399 443.453C615.399 447.697 611.958 451.137 607.714 451.137H575.437C571.193 451.137 567.752 447.697 567.752 443.453Z" fill="#00BE5C"/>
<path d="M391 461.895C391 457.651 394.441 454.211 398.685 454.211H421.74C425.984 454.211 429.424 457.651 429.424 461.895C429.424 466.139 425.984 469.579 421.74 469.579H398.685C394.441 469.579 391 466.139 391 461.895Z" fill="#00B66A"/>
<path d="M433.267 461.895C433.267 457.651 436.708 454.211 440.952 454.211H459.396C463.64 454.211 467.08 457.651 467.08 461.895C467.08 466.139 463.64 469.579 459.396 469.579H440.952C436.708 469.579 433.267 466.139 433.267 461.895Z" fill="#DADADA"/>
<path d="M537.013 461.895C537.013 457.651 533.572 454.211 529.328 454.211H478.608C474.363 454.211 470.923 457.651 470.923 461.895C470.923 466.139 474.363 469.579 478.608 469.579H529.328C533.572 469.579 537.013 466.139 537.013 461.895Z" fill="#00B66A"/>
<path d="M613.093 461.895C613.093 457.651 609.653 454.211 605.408 454.211H548.54C544.296 454.211 540.855 457.651 540.855 461.895C540.855 466.139 544.296 469.579 548.54 469.579H605.408C609.653 469.579 613.093 466.139 613.093 461.895Z" fill="#00B66A"/>
<path d="M391 480.337C391 476.093 394.441 472.653 398.685 472.653H421.74C425.984 472.653 429.424 476.093 429.424 480.337C429.424 484.581 425.984 488.021 421.74 488.021H398.685C394.441 488.021 391 484.581 391 480.337Z" fill="#00AE75"/>
<path d="M433.267 480.337C433.267 476.093 436.708 472.653 440.952 472.653H488.598C492.842 472.653 496.283 476.093 496.283 480.337C496.283 484.581 492.842 488.021 488.598 488.021H440.952C436.708 488.021 433.267 484.581 433.267 480.337Z" fill="#DADADA"/>
<path d="M500.125 480.337C500.125 476.093 503.566 472.653 507.81 472.653H598.492C602.736 472.653 606.177 476.093 606.177 480.337C606.177 484.581 602.736 488.021 598.492 488.021H507.81C503.566 488.021 500.125 484.581 500.125 480.337Z" fill="#00AE75"/>
<path d="M391 498.779C391 494.535 394.441 491.095 398.685 491.095H434.035C438.28 491.095 441.72 494.535 441.72 498.779C441.72 503.023 438.28 506.463 434.035 506.463H398.685C394.441 506.463 391 503.023 391 498.779Z" fill="#00A67E"/>
<path d="M445.563 498.779C445.563 494.535 449.003 491.095 453.248 491.095H536.244C540.489 491.095 543.929 494.535 543.929 498.779C543.929 503.023 540.489 506.463 536.244 506.463H453.248C449.003 506.463 445.563 503.023 445.563 498.779Z" fill="#DADADA"/>
<path d="M547.772 498.779C547.772 494.535 551.212 491.095 555.457 491.095H598.492C602.736 491.095 606.177 494.535 606.177 498.779C606.177 503.023 602.736 506.463 598.492 506.463H555.457C551.212 506.463 547.772 503.023 547.772 498.779Z" fill="#00A67E"/>
<path d="M434.035 517.221C434.035 512.977 430.595 509.537 426.35 509.537H398.685C394.441 509.537 391 512.977 391 517.221C391 521.465 394.441 524.905 398.685 524.905H426.35C430.595 524.905 434.035 521.465 434.035 517.221Z" fill="#009D85"/>
<path d="M437.878 517.221C437.878 512.977 441.318 509.537 445.563 509.537H467.08C471.325 509.537 474.765 512.977 474.765 517.221C474.765 521.465 471.325 524.905 467.08 524.905H445.563C441.318 524.905 437.878 521.465 437.878 517.221Z" fill="#009D85"/>
<path d="M478.608 517.221C478.608 512.977 482.048 509.537 486.293 509.537H498.588C502.833 509.537 506.273 512.977 506.273 517.221C506.273 521.465 502.833 524.905 498.588 524.905H486.293C482.048 524.905 478.608 521.465 478.608 517.221Z" fill="#DADADA"/>
<path d="M510.116 517.221C510.116 512.977 513.556 509.537 517.801 509.537H553.151C557.395 509.537 560.836 512.977 560.836 517.221C560.836 521.465 557.395 524.905 553.151 524.905H517.801C513.556 524.905 510.116 521.465 510.116 517.221Z" fill="#DADADA"/>
<path d="M564.678 517.221C564.678 512.977 568.119 509.537 572.363 509.537H612.325C616.569 509.537 620.01 512.977 620.01 517.221C620.01 521.465 616.569 524.905 612.325 524.905H572.363C568.119 524.905 564.678 521.465 564.678 517.221Z" fill="#009D85"/>
<path d="M391 535.663C391 531.419 394.441 527.979 398.685 527.979H454.016C458.26 527.979 461.701 531.419 461.701 535.663C461.701 539.907 458.26 543.347 454.016 543.347H398.685C394.441 543.347 391 539.907 391 535.663Z" fill="#00938B"/>
<path d="M531.633 535.663C531.633 531.419 528.193 527.979 523.949 527.979H473.228C468.984 527.979 465.543 531.419 465.543 535.663C465.543 539.907 468.984 543.347 473.228 543.347H523.949C528.193 543.347 531.633 539.907 531.633 535.663Z" fill="#00938B"/>
<path d="M567.752 535.663C567.752 531.419 564.312 527.979 560.068 527.979H543.161C538.917 527.979 535.476 531.419 535.476 535.663C535.476 539.907 538.917 543.347 543.161 543.347H560.068C564.312 543.347 567.752 539.907 567.752 535.663Z" fill="#DADADA"/>
<path d="M571.595 535.663C571.595 531.419 575.036 527.979 579.28 527.979H620.778C625.022 527.979 628.463 531.419 628.463 535.663C628.463 539.907 625.022 543.347 620.778 543.347H579.28C575.036 543.347 571.595 539.907 571.595 535.663Z" fill="#00938B"/>
<path d="M391 554.105C391 549.861 394.441 546.421 398.685 546.421H415.592C419.836 546.421 423.277 549.861 423.277 554.105C423.277 558.349 419.836 561.789 415.592 561.789H398.685C394.441 561.789 391 558.349 391 554.105Z" fill="#008B8C"/>
<path d="M427.119 554.105C427.119 549.861 430.56 546.421 434.804 546.421H457.859C462.103 546.421 465.543 549.861 465.543 554.105C465.543 558.349 462.103 561.789 457.859 561.789H434.804C430.56 561.789 427.119 558.349 427.119 554.105Z" fill="#DADADA"/>
<path d="M533.939 554.105C533.939 549.861 530.498 546.421 526.254 546.421H477.071C472.826 546.421 469.386 549.861 469.386 554.105C469.386 558.349 472.826 561.789 477.071 561.789H526.254C530.498 561.789 533.939 558.349 533.939 554.105Z" fill="#008B8C"/>
<path d="M537.781 554.105C537.781 549.861 541.222 546.421 545.466 546.421H559.299C563.543 546.421 566.984 549.861 566.984 554.105C566.984 558.349 563.543 561.789 559.299 561.789H545.466C541.222 561.789 537.781 558.349 537.781 554.105Z" fill="#DADADA"/>
<path d="M629.232 554.105C629.232 549.861 625.791 546.421 621.547 546.421H578.511C574.267 546.421 570.826 549.861 570.826 554.105C570.826 558.349 574.267 561.789 578.511 561.789H621.547C625.791 561.789 629.232 558.349 629.232 554.105Z" fill="#008B8C"/>
<path d="M429.424 572.547C429.424 568.303 425.984 564.863 421.74 564.863H398.685C394.441 564.863 391 568.303 391 572.547C391 576.791 394.441 580.232 398.685 580.232H421.74C425.984 580.232 429.424 576.791 429.424 572.547Z" fill="#00828D"/>
<path d="M494.746 572.547C494.746 568.303 491.305 564.863 487.061 564.863H440.952C436.708 564.863 433.267 568.303 433.267 572.547C433.267 576.791 436.708 580.232 440.952 580.232H487.061C491.305 580.232 494.746 576.791 494.746 572.547Z" fill="#DADADA"/>
<path d="M561.605 572.547C561.605 568.303 558.164 564.863 553.92 564.863H506.273C502.029 564.863 498.588 568.303 498.588 572.547C498.588 576.791 502.029 580.232 506.273 580.232H553.92C558.164 580.232 561.605 576.791 561.605 572.547Z" fill="#DADADA"/>
<path d="M565.447 572.547C565.447 568.303 568.888 564.863 573.132 564.863H622.315C626.559 564.863 630 568.303 630 572.547C630 576.791 626.559 580.232 622.315 580.232H573.132C568.888 580.232 565.447 576.791 565.447 572.547Z" fill="#00828D"/>
<path d="M454.016 590.989C454.016 586.746 450.575 583.305 446.331 583.305H398.685C394.441 583.305 391 586.746 391 590.989C391 595.233 394.441 598.674 398.685 598.674H446.331C450.575 598.674 454.016 595.233 454.016 590.989Z" fill="#007989"/>
<path d="M545.466 590.989C545.466 586.746 542.026 583.305 537.781 583.305H465.543C461.299 583.305 457.859 586.746 457.859 590.989C457.859 595.233 461.299 598.674 465.543 598.674H537.781C542.026 598.674 545.466 595.233 545.466 590.989Z" fill="#DADADA"/>
<path d="M549.309 590.989C549.309 586.746 552.749 583.305 556.994 583.305H615.399C619.643 583.305 623.084 586.746 623.084 590.989C623.084 595.233 619.643 598.674 615.399 598.674H556.994C552.749 598.674 549.309 595.233 549.309 590.989Z" fill="#007989"/>
<path d="M495.514 609.432C495.514 605.188 492.074 601.747 487.83 601.747H398.685C394.441 601.747 391 605.188 391 609.432C391 613.675 394.441 617.116 398.685 617.116H487.83C492.074 617.116 495.514 613.675 495.514 609.432Z" fill="#007186"/>
<path d="M499.357 609.432C499.357 605.188 502.798 601.747 507.042 601.747H553.151C557.395 601.747 560.836 605.188 560.836 609.432C560.836 613.675 557.395 617.116 553.151 617.116H507.042C502.798 617.116 499.357 613.675 499.357 609.432Z" fill="#007186"/>
<path d="M564.678 609.432C564.678 605.188 568.119 601.747 572.363 601.747H610.788C615.032 601.747 618.473 605.188 618.473 609.432C618.473 613.675 615.032 617.116 610.788 617.116H572.363C568.119 617.116 564.678 613.675 564.678 609.432Z" fill="#007186"/>
<path d="M391 627.874C391 623.63 394.441 620.189 398.685 620.189H461.701C465.945 620.189 469.386 623.63 469.386 627.874C469.386 632.118 465.945 635.558 461.701 635.558H398.685C394.441 635.558 391 632.118 391 627.874Z" fill="#00677E"/>
<path d="M548.54 627.874C548.54 623.63 545.1 620.189 540.855 620.189H480.913C476.669 620.189 473.228 623.63 473.228 627.874C473.228 632.118 476.669 635.558 480.913 635.558H540.855C545.1 635.558 548.54 632.118 548.54 627.874Z" fill="#00677E"/>
<path d="M606.177 627.874C606.177 623.63 602.736 620.189 598.492 620.189H560.068C555.823 620.189 552.383 623.63 552.383 627.874C552.383 632.118 555.823 635.558 560.068 635.558H598.492C602.736 635.558 606.177 632.118 606.177 627.874Z" fill="#00677E"/>
<path d="M391 646.316C391 642.072 394.441 638.632 398.685 638.632H490.904C495.148 638.632 498.588 642.072 498.588 646.316C498.588 650.56 495.148 654 490.904 654H398.685C394.441 654 391 650.56 391 646.316Z" fill="#005E75"/>
<path d="M502.431 646.316C502.431 642.072 505.872 638.632 510.116 638.632H568.521C572.765 638.632 576.206 642.072 576.206 646.316C576.206 650.56 572.765 654 568.521 654H510.116C505.872 654 502.431 650.56 502.431 646.316Z" fill="#005E75"/>
</svg>
