<svg width="196" height="77" viewBox="0 0 196 77" fill="none" xmlns="http://www.w3.org/2000/svg">
<g clip-path="url(#clip0_789_4901)">
<path d="M75.8687 38.4985C75.8687 59.7619 58.8865 77 37.9346 77C16.9839 77 0 59.7619 0 38.4985C0 17.2375 16.9839 -0.000602722 37.9346 -0.000602722C58.8865 -0.000602722 75.8687 17.2375 75.8687 38.4985Z" fill="#8EB7D6"/>
<path d="M10.2111 32.088C10.5215 25.4502 14.4765 21.3474 19.4082 21.3474C25.3164 21.3474 28.4711 26.2795 28.4269 32.088H10.2111ZM22.74 11.9905L16.8758 18.6283H17.5419L24.0283 11.9905H22.74ZM29.3157 33.0098C29.5821 26.5105 26.4274 20.4256 19.3192 20.4256C14.165 20.4256 9.32227 24.943 9.32227 32.8252C9.32227 39.8774 12.2547 45.3167 19.3192 45.2239C24.5172 45.2239 28.4269 41.9056 29.0493 36.4663H28.1605C27.4052 41.5828 23.9392 44.3024 19.2299 44.3024C12.7434 44.3024 10.3001 39.3703 10.2111 33.0098H29.3157Z" fill="#044F7C"/>
<path d="M32.8699 20.9791H33.7585V26.8331H33.8476C34.691 23.1913 37.5791 20.4256 42.066 20.4256C46.8205 20.4256 50.1976 23.4681 50.1976 28.9531V44.6714H49.309V29.0914C49.309 23.6066 45.9319 21.3474 42.066 21.3474C36.6014 21.3474 33.7585 26.0031 33.7585 31.2581V44.6714H32.8699V20.9791Z" fill="#044F7C"/>
<path d="M54.64 32.088C54.9507 25.4502 58.9046 21.3474 63.8362 21.3474C69.7459 21.3474 72.9 26.2795 72.8551 32.088H54.64ZM73.7437 33.0098C74.0098 26.5105 70.8568 20.4256 63.7467 20.4256C58.5939 20.4256 53.7515 24.943 53.7515 32.8252C53.7515 39.8774 56.6836 45.3167 63.7467 45.2239C68.9453 45.2239 72.8551 41.9056 73.4771 36.4663H72.5888C71.8334 41.5828 68.368 44.3024 63.659 44.3024C57.1726 44.3024 54.728 39.3703 54.64 33.0098H73.7437Z" fill="#044F7C"/>
<path d="M78.1867 44.6714H77.2981V20.9791H78.1867V26.8331H78.2756C79.1202 23.3296 81.7856 20.241 87.2505 20.4256V21.3474C80.9856 21.0249 78.1867 26.0953 78.1867 31.2581V44.6714Z" fill="#044F7C"/>
<path d="M106.133 32.0414C106.133 37.7571 102.933 42.4583 97.0686 42.4583C91.5148 42.4583 88.4938 37.8953 88.4938 32.0414C88.4938 26.2793 91.5148 21.3471 97.4245 21.3471C103.155 21.3471 106.176 26.6021 106.133 32.0414ZM106.176 43.8872C106.176 49.7412 103.023 52.4605 97.5131 52.4605C93.3814 52.4605 89.9154 50.6169 89.7379 45.9157H88.8491C88.9825 51.2164 92.9367 53.3833 97.5577 53.3833C103.511 53.3833 107.065 50.3403 107.065 43.8872V20.9788H106.176V27.2938H106.087C105.199 23.4217 101.778 20.4253 97.4245 20.4253C90.9821 20.4253 87.6052 25.6803 87.6052 32.0414C87.6052 38.1254 90.76 43.3801 97.1129 43.3801C101.023 43.3801 105.155 40.9372 106.087 36.7425H106.176V43.8872Z" fill="#044F7C"/>
<path d="M112.752 44.6714H111.864V20.9791H112.752V44.6714ZM112.752 16.4156H111.864V11.7599H112.752V16.4156Z" fill="#044F7C"/>
<path d="M117.194 32.088C117.506 25.4502 121.46 21.3474 126.391 21.3474C132.3 21.3474 135.454 26.2795 135.41 32.088H117.194ZM136.299 33.0098C136.565 26.5105 133.411 20.4256 126.302 20.4256C121.148 20.4256 116.305 24.943 116.305 32.8252C116.305 39.8774 119.238 45.3167 126.302 45.2239C131.5 45.2239 135.41 41.9056 136.032 36.4663H135.144C134.388 41.5828 130.923 44.3024 126.213 44.3024C119.727 44.3024 117.283 39.3703 117.194 33.0098H136.299Z" fill="#044F7C"/>
<path d="M154.737 27.9848C154.737 23.2373 151.716 21.3473 147.361 21.3473C140.964 21.3473 140.519 25.5423 140.519 26.3722C140.519 28.7224 141.497 29.8751 143.051 30.5205C144.652 31.1658 146.472 31.5805 148.917 32.2719C152.426 33.1934 156.247 34.1152 156.247 38.6327C156.247 43.3803 151.937 45.2239 147.983 45.2239C141.986 45.2239 138.742 42.5048 138.742 36.5587H139.631C139.631 41.8134 142.697 44.3024 147.983 44.3024C151.271 44.3024 155.359 42.781 155.359 38.7252C155.359 34.5305 151.404 33.8852 147.494 32.8715C145.318 32.3177 143.674 31.857 142.385 31.258C140.519 30.428 139.631 28.907 139.631 26.3722C139.631 23.7447 141.674 20.4255 147.361 20.4255C152.426 20.4255 155.626 22.7302 155.626 27.9848H154.737Z" fill="#044F7C"/>
<path d="M106.933 52.6468C106.933 49.7871 108.448 47.1455 112.13 47.1455C115.792 47.1455 117.306 49.7871 117.306 52.6468C117.306 55.506 115.792 58.1479 112.13 58.1479C108.448 58.1479 106.933 55.506 106.933 52.6468ZM117.306 58.2351H117.727V42.6488H117.306V50.0925H117.264C116.381 47.5821 114.277 46.7086 112.13 46.7086C108.237 46.7086 106.513 49.5029 106.513 52.6468C106.513 55.7905 108.237 58.5844 112.13 58.5844C114.593 58.5844 116.465 57.4276 117.264 55.2231H117.306V58.2351Z" fill="#231F20"/>
<path d="M119.811 52.2103C120 49.459 121.851 47.1455 125.324 47.1455C128.627 47.1455 130.479 49.5687 130.647 52.2103H119.811ZM131.068 52.6468C131.068 48.8916 128.459 46.7086 125.324 46.7086C121.662 46.7086 119.39 49.2409 119.39 52.6468C119.39 56.0525 121.662 58.5844 125.324 58.5844C129.385 58.5844 130.562 55.9216 130.899 54.3488H130.479C130.1 55.7678 129.069 58.1479 125.324 58.1479C121.704 58.1479 119.811 55.5932 119.811 52.6468H131.068Z" fill="#231F20"/>
<path d="M132.519 47.0581H132.94V49.1974H132.982C133.656 47.6261 135.045 46.7089 137.358 46.7089C139.148 46.7089 140.768 47.4733 141.272 49.3285H141.315C142.072 47.4733 143.63 46.7089 145.229 46.7089C149.353 46.7089 150.068 49.0665 150.068 51.206V58.2354H149.647V51.206C149.647 49.3285 149.101 47.1457 145.229 47.1457C143.23 47.1457 141.504 48.4557 141.504 51.0314V58.2354H141.083V51.0314C141.083 48.1934 139.442 47.1457 137.358 47.1457C134.603 47.1457 132.94 48.63 132.94 51.3369V58.2354H132.519V47.0581Z" fill="#231F20"/>
<path d="M161.43 53.7598C161.43 56.1397 159.705 58.1479 156.022 58.1479C153.835 58.1479 152.151 57.2309 152.151 55.2231C152.151 53.6724 153.055 52.5812 155.286 52.494L158.569 52.3632C160.147 52.2975 161.157 52.1012 161.388 51.6855H161.43V53.7598ZM163.556 57.6458C163.26 57.7331 162.84 57.7986 162.566 57.7986C161.977 57.7986 161.851 57.515 161.851 56.859V49.6125C161.851 47.6476 160.378 46.7086 156.969 46.7086C154.234 46.7086 152.361 47.4512 152.214 50.4417H152.634C152.803 48.0624 153.877 47.1455 156.969 47.1455C159.894 47.1455 161.43 47.8223 161.43 49.6342V50.2454C161.43 51.5985 161.072 51.8393 158.8 51.9266L155.244 52.0574C152.971 52.1448 151.73 53.3015 151.73 55.2002C151.73 57.4494 153.434 58.5844 156.001 58.5844C159.137 58.5844 160.694 57.2748 161.388 55.7905H161.43V57.1219C161.43 57.9298 161.851 58.2351 162.566 58.2351C162.903 58.2351 163.345 58.1696 163.556 58.0823V57.6458Z" fill="#231F20"/>
<path d="M164.25 47.0581H164.671V58.2354H164.25V47.0581ZM164.25 42.649H164.671V45.0284H164.25V42.649Z" fill="#231F20"/>
<path d="M166.985 47.0581H167.405V49.5689H167.447C168.289 47.5823 169.952 46.7089 172.308 46.7089C176.432 46.7089 177.147 49.0665 177.147 51.206V58.2354H176.727V51.206C176.727 49.3285 176.18 47.1457 172.308 47.1457C167.826 47.1457 167.405 50.5296 167.405 51.9704V58.2354H166.985V47.0581Z" fill="#231F20"/>
<path d="M196 58.2578H181.001V42.6973H196V58.2578Z" fill="#70C72D"/>
</g>
<defs>
<clipPath id="clip0_789_4901">
<rect width="196" height="77" fill="white"/>
</clipPath>
</defs>
</svg>
