<svg width="248" height="79" viewBox="0 0 248 79" fill="none" xmlns="http://www.w3.org/2000/svg">
<g clip-path="url(#clip0_782_4705)">
<path fill-rule="evenodd" clip-rule="evenodd" d="M5.22654 3.72606C6.62231 2.13395 8.70388 1.35606 10.7824 1.23499C10.8114 3.3562 10.8063 5.47742 10.8013 7.59864C10.7989 8.57083 10.7966 9.54302 10.7975 10.5152C9.5317 10.5213 8.26586 10.5205 7.00002 10.5198C5.73414 10.519 4.46826 10.5182 3.20237 10.5243C2.97579 8.11495 3.45917 5.49372 5.22654 3.72606ZM49.4108 15.3006C49.8835 15.2983 50.3563 15.2952 50.829 15.2921C52.897 15.2786 54.9651 15.2651 57.0332 15.3218C57.0211 27.2686 57.0181 39.2125 57.0332 51.1593C57.1238 52.6394 56.9033 54.2315 55.861 55.3666C54.2477 57.44 51.006 57.9091 48.87 56.3806C45.7551 54.1383 42.6462 51.8867 39.5373 49.6351C36.0156 47.0845 32.4939 44.534 28.9637 41.9971C28.9003 38.6858 28.9214 35.3714 28.9486 32.0631C32.5089 34.6112 36.0521 37.1831 39.5951 39.7548C42.8617 42.1259 46.1281 44.4969 49.4078 46.8491C49.3897 36.3339 49.3836 25.8158 49.4108 15.3006ZM39.4381 75.2214C38.7414 74.0788 38.0446 72.9361 37.2507 71.8597C37.1339 72.0456 37.017 72.2314 36.9001 72.4171C35.9835 73.8745 35.0671 75.3314 34.1721 76.8025C35.3616 76.8095 36.5511 76.8085 37.7412 76.8075C38.6337 76.8067 39.5265 76.806 40.4198 76.8086C40.0861 76.284 39.7621 75.7527 39.4381 75.2214Z" fill="#23B14D"/>
<path fill-rule="evenodd" clip-rule="evenodd" d="M19.1389 2.84519C20.9547 0.475189 24.864 0.332929 26.9879 2.3609C26.435 2.97232 25.8912 3.58373 25.3504 4.20423C24.5105 3.52017 23.3172 2.95415 22.284 3.58373C20.6374 4.35255 20.4864 6.96469 21.9607 7.97868C22.716 8.51442 23.6797 8.37519 24.5317 8.22385C24.5302 8.01802 24.5279 7.81144 24.5257 7.60486C24.5234 7.39828 24.5211 7.1917 24.5196 6.98588C24.3238 6.97978 24.1277 6.97402 23.9315 6.96826L23.9315 6.96826L23.9314 6.96826L23.9313 6.96826L23.9313 6.96826L23.9312 6.96826L23.9312 6.96826L23.9311 6.96825L23.931 6.96825L23.9308 6.96825L23.9306 6.96824L23.9305 6.96824L23.9303 6.96823L23.9302 6.96823L23.93 6.96822C23.5423 6.95684 23.1542 6.94545 22.7673 6.9314C22.7764 6.23825 22.7794 5.54814 22.7764 4.85802C23.9346 4.83753 25.095 4.84089 26.2539 4.84424H26.2539L26.8852 4.84592C26.8857 5.13068 26.8863 5.41535 26.887 5.69997C26.8904 7.12164 26.8937 8.5419 26.8761 9.96427C24.713 10.8753 21.9335 11.1811 19.9667 9.66461C17.9244 8.09672 17.6495 4.87619 19.1389 2.84519ZM64.1632 1.07451C66.2508 0.62957 68.7251 1.37417 69.7976 3.32949C70.7221 5.06992 70.6133 7.39754 69.3686 8.95635C67.3233 11.5201 62.7251 11.3233 61.0242 8.46903C60.0272 6.71953 60.0574 4.31926 61.3444 2.72413C62.0393 1.84635 63.0725 1.28034 64.1632 1.07451ZM65.0514 3.35068C64.0604 3.58375 63.1632 4.40099 63.1027 5.4634C62.9033 6.61359 63.6042 7.82735 64.6979 8.22386C65.9154 8.61129 67.3384 7.7547 67.565 6.49857C68.0816 4.94582 66.6949 3.14486 65.0514 3.35068ZM31.6167 1.2085C31.0469 1.21989 30.4771 1.23129 29.9093 1.21371C29.9104 2.32401 29.9096 3.4343 29.9087 4.54446V4.54758V4.54776V4.54794V4.54812V4.5483V4.54849V4.54867V4.54885V4.54903V4.54921V4.54939V4.54958V4.54976C29.9072 6.54902 29.9057 8.54783 29.9154 10.5454H29.9158C30.7797 10.5424 31.6436 10.5393 32.5075 10.5303C32.5082 10.2291 32.5055 9.92781 32.5027 9.62649V9.62647V9.62646V9.62644V9.62642V9.6264V9.62639V9.62637V9.62635V9.62634V9.62632V9.6263V9.62628V9.62625C32.4939 8.67682 32.4852 7.72732 32.5861 6.78306C33.1037 7.49154 33.5124 8.26501 33.9211 9.03836L33.9212 9.03846C34.1899 9.547 34.4587 10.0555 34.7583 10.5454C35.0694 10.5435 35.3803 10.5428 35.691 10.5421H35.6914C36.3911 10.5405 37.0898 10.5389 37.7885 10.5242C37.3614 9.76829 36.9071 9.02707 36.4527 8.28572C36.1356 7.76842 35.8185 7.25105 35.5105 6.72857C36.3081 6.12321 37.1994 5.34532 37.1208 4.23145C37.3111 2.84819 36.2205 1.58903 34.8942 1.34991C33.8123 1.1646 32.7146 1.18655 31.6167 1.2085ZM32.5 3.93982C32.4937 3.76077 32.4873 3.5816 32.4803 3.4021C33.145 3.41118 33.8036 3.47474 34.4531 3.61398C34.4622 3.73581 34.4749 3.91745 34.4877 4.09946L34.4877 4.09958L34.4877 4.10041L34.4877 4.10059L34.4879 4.10281L34.488 4.10503L34.4881 4.1052L34.4881 4.10604L34.4881 4.10616C34.5009 4.28816 34.5136 4.4698 34.5226 4.59164C33.9033 4.88827 33.2235 4.98815 32.5438 5.02447C32.5256 4.66217 32.5128 4.30123 32.5 3.93982ZM41.7694 1.21034H41.7695C43.3567 1.20977 44.9427 1.2092 46.5287 1.21374C46.5257 1.98256 46.5226 2.74834 46.5136 3.51715C45.4536 3.50706 44.3937 3.50749 43.3355 3.50791H43.3354L42.7009 3.50807V4.66432H42.701C43.8973 4.66432 45.0937 4.66432 46.293 4.65524C46.3111 5.3847 46.3111 6.11417 46.293 6.84666C45.0936 6.83758 43.8942 6.83455 42.6979 6.8406L42.6979 6.84425V6.84435V6.84446V6.84457V6.84467V6.84477V6.84487V6.84498V6.84508V6.84517V6.84527V6.84537C42.7009 7.30686 42.7039 7.76537 42.7009 8.22689C44.0574 8.22386 45.4139 8.22386 46.7734 8.22991V10.5364C45.602 10.5428 44.4315 10.5424 43.2609 10.5419C42.2366 10.5416 41.2123 10.5412 40.1873 10.5454C40.1796 8.56534 40.1805 6.58525 40.1813 4.60516C40.1818 3.47368 40.1823 2.3422 40.1812 1.21072C40.7106 1.21072 41.2397 1.21053 41.7687 1.21034H41.7688H41.7689H41.769H41.769H41.7691H41.7692H41.7692H41.7693H41.7694H41.7694ZM50.5053 1.20623C50.1847 1.21549 49.8643 1.22473 49.5469 1.2137C49.548 2.32328 49.5471 3.43324 49.5463 4.54332V4.54347V4.54361V4.54376V4.5439V4.54405V4.5442V4.54434V4.54449V4.54463V4.54478C49.5448 6.54415 49.5432 8.54388 49.553 10.5424C50.411 10.5393 51.269 10.5424 52.127 10.5454C52.0454 8.82312 52.0514 7.09481 52.0605 5.36952C52.6302 6.23026 53.1673 7.11277 53.7044 7.99538L53.7044 7.99542C54.2269 8.85399 54.7495 9.71265 55.3022 10.5514C56.2019 10.5363 57.0986 10.5393 57.9983 10.5423L58.0001 10.5424C58.0104 7.87827 58.0075 5.21195 58.0045 2.54532V2.54511V2.54489V2.54468V2.54447V2.54426V2.54405V2.54384V2.54362V2.54341V2.5432L58.0031 1.21067C57.1693 1.21067 56.3354 1.21067 55.4986 1.2137C55.4684 2.9178 55.4955 4.6219 55.5922 6.326C54.9249 5.4179 54.3486 4.45095 53.7726 3.48434C53.3367 2.75303 52.901 2.0219 52.4261 1.31661C51.7999 1.16888 51.1521 1.18757 50.5053 1.20623ZM72.719 1.21376C73.3436 1.25554 73.9816 1.23225 74.6209 1.20892C75.9265 1.16126 77.2373 1.1134 78.4501 1.61935C79.9788 2.31249 80.0241 4.48272 78.8519 5.53908C78.9211 5.61679 78.9931 5.69481 79.0659 5.7737C79.5434 6.29095 80.0552 6.8454 80.0211 7.59127C80.148 8.77475 79.3504 9.92495 78.2084 10.2337C76.9606 10.5924 75.6638 10.5671 74.371 10.5419C73.8203 10.5311 73.2702 10.5204 72.725 10.5394C72.7058 7.71286 72.7116 4.88632 72.7173 2.05979L72.719 1.21376ZM75.2175 3.27502C75.2296 3.78353 75.2447 4.29203 75.2598 4.80054C75.7975 4.74303 76.3353 4.68552 76.8761 4.62498C76.9426 4.27993 77.0272 3.94092 77.1329 3.60495C76.5015 3.4536 75.864 3.34161 75.2175 3.27502ZM75.2598 6.69533C75.2417 7.2341 75.2266 7.77288 75.2145 8.31468C75.9698 8.32678 76.7402 8.28441 77.4199 7.91514C77.3972 7.7986 77.3625 7.62456 77.3278 7.45052C77.293 7.27648 77.2583 7.10244 77.2356 6.9859C76.5891 6.81337 75.9244 6.7377 75.2598 6.69533ZM85.1933 1.21069C84.3051 1.21069 83.4169 1.21069 82.5287 1.21675C82.533 2.67816 82.5319 4.14024 82.5308 5.60236C82.5295 7.24727 82.5283 8.89222 82.5347 10.5363C83.9805 10.5428 85.4263 10.5416 86.8721 10.5403C87.4505 10.5398 88.0289 10.5394 88.6072 10.5394C88.608 10.3428 88.6089 10.1463 88.6099 9.94978C88.6127 9.35918 88.6155 8.76814 88.6133 8.17541C87.9624 8.17195 87.3115 8.17244 86.6611 8.17294C86.1735 8.17331 85.6862 8.17368 85.1994 8.17238C85.1964 7.01159 85.1964 5.85081 85.1964 4.6904V4.68164C85.1964 3.52415 85.1963 2.36705 85.1933 1.21069ZM90.846 1.2137C91.2332 1.21315 91.6205 1.2124 92.0077 1.21165C93.7504 1.20827 95.493 1.20489 97.2357 1.21975L97.2176 3.51105L97.2151 3.51105C95.9259 3.50802 94.6397 3.50501 93.3535 3.51408V4.65822C94.5589 4.6673 95.7644 4.6673 96.9698 4.65822C96.9759 5.38768 96.9759 6.11715 96.9698 6.84661C95.7644 6.83753 94.5559 6.8345 93.3505 6.84661C93.3535 7.30366 93.3535 7.76374 93.3535 8.22381C93.7639 8.22472 94.1742 8.22481 94.5847 8.2249H94.5854C95.5435 8.22511 96.5022 8.22533 97.4623 8.23592C97.4592 9.0017 97.4592 9.76446 97.4623 10.5302C95.9942 10.5444 94.5247 10.5424 93.0557 10.5403H93.0556H93.0555H93.0554H93.0553H93.0552H93.0552H93.0551H93.0549H93.0547H93.0546H93.0544H93.0543H93.0541H93.0539C92.3198 10.5393 91.5857 10.5383 90.852 10.5393C90.8328 7.71396 90.8385 4.8886 90.8443 2.06323L90.846 1.2137ZM7.32871 15.2571H7.32869H7.32867H7.32865H7.32863H7.32861H7.32859C5.93534 15.2567 4.54217 15.2562 3.1481 15.2612C3.14256 21.6788 3.14401 28.0964 3.14545 34.514C3.14715 42.0985 3.14886 49.6829 3.13904 57.2674C5.084 57.3226 7.03245 57.3114 8.97909 57.3001H8.97917H8.97926H8.97934H8.97943H8.97951H8.9796H8.98052H8.98144H8.98236H8.98328H8.9842H8.98512C9.59759 57.2966 10.2099 57.2931 10.8218 57.2916C10.8196 52.0378 10.8211 46.7841 10.8227 41.5302V41.53V41.5298V41.5296V41.5294V41.5292V41.529C10.8253 32.7717 10.8279 24.014 10.8128 15.2551C9.65097 15.2579 8.48981 15.2575 7.32871 15.2571ZM20.5982 16.1057C22.3988 14.9222 24.9003 15.01 26.6133 16.3146C29.1411 18.1487 31.6723 19.9783 34.2036 21.808L34.2042 21.8084L34.2048 21.8088L34.2054 21.8093L34.206 21.8097L34.2066 21.8102C38.2787 24.7535 42.3508 27.6969 46.4079 30.6587C46.4 32.3916 46.4012 34.1254 46.4024 35.8591V35.8617C46.4035 37.4369 46.4046 39.0121 46.3988 40.5866C43.0521 38.2003 39.7263 35.785 36.4007 33.3698L36.4004 33.3696C32.9263 30.8466 29.4524 28.3237 25.9547 25.8339C25.9175 32.2991 25.9227 38.7642 25.928 45.2301V45.2303V45.2306V45.2309V45.2311V45.2314C25.9312 49.2511 25.9345 53.2712 25.9275 57.2917C23.3444 57.3098 20.7644 57.3098 18.1813 57.2917C18.1825 52.5825 18.1814 47.8734 18.1803 43.1642C18.1786 35.6299 18.1769 28.0955 18.1843 20.5612C18.1722 18.7905 19.1118 17.0592 20.5982 16.1057ZM70.9759 15.4368C67.6556 15.4126 64.8067 18.503 64.8641 21.7871C64.8634 24.4171 64.8621 27.0472 64.8609 29.6772V29.6774V29.6776V29.6778V29.678C64.8564 38.8824 64.852 48.0864 64.8731 57.2886C67.25 57.3122 69.629 57.3063 72.0084 57.3004H72.0086H72.0088H72.009H72.0101L73.1088 57.2977C73.1153 52.4111 73.1134 47.5244 73.1116 42.638V42.6379V42.6377V42.6376V42.6374C73.1091 36.1225 73.1066 29.6081 73.1239 23.0947C75.2382 23.1031 77.354 23.1012 79.4702 23.0993H79.4705H79.4707H79.471H79.4712L79.4773 23.0993C80.3826 23.0985 81.288 23.0977 82.1934 23.0977C83.8883 23.1098 85.6828 23.4004 87.0695 24.4446C88.3203 25.3799 89.0212 26.9024 89.1662 28.437C89.3777 30.3863 89.136 32.5595 87.8127 34.0971C86.5771 35.547 84.6103 36.0676 82.7765 36.1312C81.3001 36.1521 79.8224 36.147 78.3452 36.1418H78.3448H78.3445H78.3442H78.3439H78.3436H78.3432H78.3429H78.3426C77.6864 36.1395 77.0304 36.1372 76.3747 36.1372C76.3196 38.0853 76.3308 40.0352 76.342 41.9854V41.9857V41.9859V41.9861V41.9863C76.3455 42.6023 76.349 43.2184 76.3505 43.8344C77.2141 43.8208 78.081 43.8274 78.9489 43.8341H78.9493C81.7369 43.8555 84.5338 43.8769 87.2568 43.226C89.9487 42.6025 92.565 41.307 94.3898 39.1883C96.7765 36.5398 97.707 32.8562 97.5922 29.3541C97.6375 25.7583 96.4985 21.9989 93.8731 19.4534C91.142 16.702 87.1722 15.5912 83.3928 15.4398C80.9094 15.4344 78.426 15.4355 75.9426 15.4366C74.287 15.4373 72.6315 15.438 70.9759 15.4368ZM16.9064 67.4889C16.9366 64.3562 19.9306 61.8439 22.9517 61.7924C24.3475 61.6744 25.707 62.0951 26.9396 62.7156C26.6992 63.0833 26.4537 63.4476 26.2081 63.8121L26.208 63.8123C25.9906 64.1348 25.7731 64.4576 25.559 64.783C23.9366 64.0838 21.8581 64.0111 20.568 65.4065C18.9396 66.8412 19.4079 69.7318 21.3173 70.6883C23.0484 71.7749 25.3354 71.1665 26.6013 69.6531C27.3384 70.0859 28.0756 70.5218 28.8007 70.9789C27.2176 73.2641 24.13 74.2478 21.4925 73.4851C18.855 72.8403 16.6677 70.2766 16.9064 67.4889ZM5.82479 61.962C4.92751 61.9499 4.03325 61.9529 3.13899 61.9862C3.15335 62.9501 3.14797 63.9146 3.14258 64.8791C3.13551 66.1468 3.12843 67.4147 3.16618 68.6816C3.29307 71.3058 5.61633 73.4185 8.15712 73.6879C11.1088 74.1571 14.4018 72.0867 14.7523 69.0024C14.8301 67.529 14.8173 66.0533 14.8045 64.5774C14.797 63.7035 14.7894 62.8295 14.8006 61.956C13.9124 61.9529 13.0242 61.956 12.139 61.965C12.1291 62.8416 12.1339 63.7181 12.1386 64.5947C12.1455 65.8641 12.1524 67.1336 12.1148 68.4031C12.0846 69.8711 10.7885 71.0849 9.36558 71.218C7.68582 71.4935 5.87313 70.1344 5.84896 68.388C5.82414 67.2891 5.82959 66.1895 5.83504 65.0895C5.8402 64.0472 5.84537 63.0046 5.82479 61.962ZM37.2659 61.9772C38.9883 64.5739 40.6269 67.2289 42.2655 69.8837C43.0183 71.1033 43.7709 72.3228 44.5317 73.5366C43.4985 73.5578 42.4653 73.5548 41.432 73.5487C40.9417 72.7587 40.447 71.9719 39.9524 71.1851L39.9523 71.1848C39.0635 69.7709 38.1749 68.3572 37.3112 66.926C36.4556 68.2354 35.6327 69.5644 34.8097 70.8934L34.8095 70.8938C34.2609 71.7797 33.7123 72.6656 33.1541 73.5457C32.1178 73.5548 31.0816 73.5578 30.0483 73.5396C32.0639 70.2512 34.1164 66.9867 36.169 63.7222L36.1695 63.7213C36.535 63.14 36.9006 62.5586 37.2659 61.9772ZM29 66.4992C27.0876 66.4902 25.1782 66.4902 23.2658 66.4992C23.2628 67.3346 23.2628 68.1731 23.2628 69.0085C25.1752 69.0145 27.0906 69.0145 29.003 69.0085C29.003 68.1731 29.003 67.3346 29 66.4992Z" fill="#2A2D46"/>
<path d="M128.834 58H115.668V17.4H128.834V22.272H121.004V35.206H128.08V40.078H121.004V53.128H128.834V58Z" fill="#23B14D"/>
<path d="M132.655 34.162C132.655 31.8807 133.37 30.0633 134.801 28.71C136.27 27.3567 138.126 26.68 140.369 26.68C142.611 26.68 144.467 27.3567 145.937 28.71C147.406 30.0633 148.141 31.8807 148.141 34.162V58H142.805V34.162C142.805 33.3887 142.573 32.77 142.109 32.306C141.683 31.8033 141.103 31.552 140.369 31.552C139.634 31.552 139.054 31.784 138.629 32.248C138.203 32.712 137.991 33.35 137.991 34.162V58H132.655V34.162Z" fill="#23B14D"/>
<path d="M152.641 34.162C152.641 31.8807 153.375 30.0633 154.845 28.71C156.314 27.3567 158.17 26.68 160.413 26.68C162.655 26.68 164.492 27.3567 165.923 28.71C167.392 30.0633 168.127 31.8807 168.127 34.162V37.526H162.791V34.162C162.791 33.3887 162.578 32.77 162.153 32.306C161.727 31.8033 161.147 31.552 160.413 31.552C159.678 31.552 159.079 31.8033 158.615 32.306C158.189 32.77 157.977 33.3887 157.977 34.162V36.424C157.977 37.3133 158.499 38.164 159.543 38.976C160.625 39.788 161.785 40.5227 163.023 41.18C164.299 41.7987 165.459 42.7653 166.503 44.08C167.585 45.3947 168.127 46.922 168.127 48.662V51.04C168.127 53.3213 167.392 55.1387 165.923 56.492C164.453 57.8453 162.597 58.522 160.355 58.522C158.112 58.522 156.256 57.8453 154.787 56.492C153.356 55.1387 152.641 53.3213 152.641 51.04V47.676H157.977V51.04C157.977 51.852 158.189 52.49 158.615 52.954C159.04 53.418 159.62 53.65 160.355 53.65C161.089 53.65 161.669 53.418 162.095 52.954C162.559 52.4513 162.791 51.8133 162.791 51.04V48.662C162.791 47.8887 162.443 47.1733 161.747 46.516C161.051 45.82 160.2 45.2013 159.195 44.66C158.228 44.08 157.242 43.4613 156.237 42.804C155.231 42.108 154.381 41.2187 153.685 40.136C152.989 39.0533 152.641 37.816 152.641 36.424V34.162Z" fill="#23B14D"/>
<path d="M172.759 27.26H178.095V58H172.759V27.26ZM173.165 21.982C172.585 21.402 172.295 20.648 172.295 19.72C172.295 18.792 172.585 18.0573 173.165 17.516C173.745 16.936 174.499 16.646 175.427 16.646C176.355 16.646 177.109 16.936 177.689 17.516C178.269 18.0573 178.559 18.792 178.559 19.72C178.559 20.648 178.269 21.402 177.689 21.982C177.109 22.5233 176.355 22.794 175.427 22.794C174.499 22.794 173.745 22.5233 173.165 21.982Z" fill="#23B14D"/>
<path d="M182.949 58V34.046C182.949 31.7647 183.606 29.9667 184.921 28.652C186.274 27.3373 188.053 26.68 190.257 26.68C191.378 26.68 192.422 26.9507 193.389 27.492C194.394 27.9947 195.11 28.652 195.535 29.464C195.922 28.6133 196.579 27.9367 197.507 27.434C198.435 26.9313 199.46 26.68 200.581 26.68C202.785 26.68 204.564 27.3373 205.917 28.652C207.309 29.9667 208.005 31.7647 208.005 34.046V58H202.669V34.046C202.669 33.2727 202.456 32.6733 202.031 32.248C201.644 31.784 201.103 31.552 200.407 31.552C199.711 31.552 199.15 31.784 198.725 32.248C198.338 32.6733 198.145 33.2727 198.145 34.046V58H192.809V34.046C192.809 33.2727 192.596 32.6733 192.171 32.248C191.746 31.784 191.166 31.552 190.431 31.552C189 31.552 188.285 32.3833 188.285 34.046V58H182.949Z" fill="#23B14D"/>
<path d="M217.849 37.526H212.513V34.162C212.513 31.8807 213.247 30.0633 214.717 28.71C216.186 27.3567 218.042 26.68 220.285 26.68C222.527 26.68 224.364 27.3567 225.795 28.71C227.264 30.0633 227.999 31.8807 227.999 34.162V51.098C227.999 53.3793 227.264 55.1967 225.795 56.55C224.364 57.9033 222.527 58.58 220.285 58.58C218.003 58.58 216.128 57.9227 214.659 56.608C213.228 55.2547 212.513 53.418 212.513 51.098V48.256C212.513 44.9693 214.079 42.7073 217.211 41.47L222.663 39.208V34.162C222.663 33.3887 222.45 32.77 222.025 32.306C221.599 31.8033 221.019 31.552 220.285 31.552C219.55 31.552 218.951 31.8033 218.487 32.306C218.061 32.77 217.849 33.3887 217.849 34.162V37.526ZM217.849 51.098C217.849 51.8713 218.061 52.5093 218.487 53.012C218.951 53.476 219.55 53.708 220.285 53.708C221.019 53.708 221.599 53.476 222.025 53.012C222.45 52.5093 222.663 51.8713 222.663 51.098V44.254L219.589 45.588C218.429 46.052 217.849 46.9413 217.849 48.256V51.098Z" fill="#23B14D"/>
<path d="M232.852 62.118C232.852 61.0353 233.142 60.088 233.722 59.276L238.594 60.378C238.323 60.8033 238.188 61.2673 238.188 61.77C238.188 62.5047 238.401 63.0847 238.826 63.51C239.29 63.9353 239.889 64.148 240.624 64.148C241.32 64.148 241.881 63.9353 242.306 63.51C242.77 63.0847 243.002 62.4853 243.002 61.712V56.55C242.306 57.9033 241.049 58.58 239.232 58.58C237.453 58.58 235.945 57.9033 234.708 56.55C233.471 55.1967 232.852 53.3793 232.852 51.098V34.162C232.852 31.8807 233.587 30.0633 235.056 28.71C236.525 27.3567 238.381 26.68 240.624 26.68C242.867 26.68 244.703 27.3567 246.134 28.71C247.603 30.0633 248.338 31.8807 248.338 34.162V61.712C248.338 63.9933 247.623 65.772 246.192 67.048C244.761 68.3627 242.905 69.02 240.624 69.02C238.343 69.02 236.467 68.4013 234.998 67.164C233.567 65.9267 232.852 64.2447 232.852 62.118ZM242.364 32.306C241.939 31.8033 241.359 31.552 240.624 31.552C239.889 31.552 239.29 31.8033 238.826 32.306C238.401 32.77 238.188 33.3887 238.188 34.162V51.098C238.188 51.8713 238.401 52.5093 238.826 53.012C239.29 53.476 239.889 53.708 240.624 53.708C241.359 53.708 241.939 53.476 242.364 53.012C242.789 52.5093 243.002 51.8713 243.002 51.098V34.162C243.002 33.3887 242.789 32.77 242.364 32.306Z" fill="#23B14D"/>
</g>
<defs>
<clipPath id="clip0_782_4705">
<rect width="248" height="79" fill="white"/>
</clipPath>
</defs>
</svg>
