<svg width="78" height="80" viewBox="0 0 78 80" fill="none" xmlns="http://www.w3.org/2000/svg">
<g clip-path="url(#clip0_784_4807)">
<path d="M74.62 26.83C72.936 22.778 69.52 18.403 66.845 17.02C68.7526 20.7139 70.0766 24.6809 70.77 28.78L70.777 28.845C66.395 17.925 58.967 13.515 52.897 3.92501C52.59 3.44001 52.283 2.95401 51.984 2.44101C51.813 2.14801 51.676 1.88401 51.557 1.64101C51.3053 1.15357 51.1113 0.638418 50.979 0.106013C50.9792 0.0814453 50.9703 0.0576719 50.9541 0.0392281C50.9379 0.0207842 50.9154 0.00896071 50.891 0.00601313C50.8671 -0.000539534 50.8419 -0.000539534 50.818 0.00601313C50.813 0.00601313 50.805 0.0150131 50.799 0.0170131C50.793 0.0190131 50.78 0.0280131 50.771 0.0320131L50.786 0.00601313C41.051 5.70601 37.746 16.256 37.446 21.536C33.557 21.8026 29.8386 23.2353 26.776 25.647C26.4566 25.3765 26.1228 25.1234 25.776 24.889C24.893 21.7979 24.8554 18.5266 25.667 15.416C22.0919 17.1478 18.9152 19.6029 16.338 22.626H16.32C14.784 20.679 14.892 14.259 14.98 12.918C14.5256 13.1006 14.0919 13.3309 13.686 13.605C12.3301 14.5728 11.0624 15.6587 9.89803 16.85C8.57111 18.1953 7.35921 19.6494 6.27503 21.197V21.203V21.196C3.78356 24.7276 2.01623 28.7177 1.07503 32.936L1.02303 33.192C0.950028 33.533 0.687028 35.241 0.642028 35.612C0.642028 35.641 0.636028 35.668 0.633028 35.697C0.293777 37.4604 0.0835526 39.2461 0.00402832 41.04V41.24C0.0211567 50.9386 3.67361 60.2783 10.2404 67.4155C16.8072 74.5527 25.811 78.9687 35.4746 79.7917C45.1382 80.6148 54.7592 77.7851 62.4384 71.8613C70.1176 65.9375 75.297 57.35 76.954 47.794C77.019 47.294 77.072 46.799 77.13 46.294C77.9283 39.6959 77.0641 33.0029 74.616 26.824L74.62 26.83ZM29.95 57.17C30.131 57.257 30.301 57.351 30.487 57.434L30.514 57.451C30.326 57.361 30.138 57.2673 29.95 57.17ZM70.778 28.856V28.819L70.785 28.86L70.778 28.856Z" fill="url(#paint0_linear_784_4807)"/>
<path d="M74.62 26.83C72.936 22.778 69.52 18.403 66.845 17.02C68.7525 20.7139 70.0765 24.6809 70.77 28.78V28.817L70.777 28.858C73.7648 37.4071 73.3327 46.7801 69.571 55.018C65.129 64.549 54.381 74.318 37.551 73.838C19.371 73.323 3.35096 59.828 0.360963 42.158C-0.184037 39.371 0.360963 37.958 0.634963 35.693C0.261213 37.4524 0.0526406 39.2428 0.0119629 41.041V41.241C0.0290912 50.9396 3.68155 60.2793 10.2483 67.4165C16.8151 74.5537 25.819 78.9697 35.4825 79.7927C45.1461 80.6158 54.7671 77.7861 62.4463 71.8623C70.1255 65.9385 75.3049 57.351 76.962 47.795C77.027 47.295 77.08 46.8 77.138 46.295C77.9363 39.6969 77.0721 33.0039 74.624 26.825L74.62 26.83Z" fill="url(#paint1_radial_784_4807)"/>
<path d="M74.62 26.83C72.936 22.778 69.52 18.403 66.845 17.02C68.7525 20.7139 70.0765 24.6809 70.77 28.78V28.817L70.777 28.858C73.7648 37.4071 73.3327 46.7801 69.571 55.018C65.129 64.549 54.381 74.318 37.551 73.838C19.371 73.323 3.35096 59.828 0.360963 42.158C-0.184037 39.371 0.360963 37.958 0.634963 35.693C0.261213 37.4524 0.0526406 39.2428 0.0119629 41.041V41.241C0.0290912 50.9396 3.68155 60.2793 10.2483 67.4165C16.8151 74.5537 25.819 78.9697 35.4825 79.7927C45.1461 80.6158 54.7671 77.7861 62.4463 71.8623C70.1255 65.9385 75.3049 57.351 76.962 47.795C77.027 47.295 77.08 46.8 77.138 46.295C77.9363 39.6969 77.0721 33.0039 74.624 26.825L74.62 26.83Z" fill="url(#paint2_radial_784_4807)"/>
<path d="M55.78 31.38C55.864 31.439 55.942 31.498 56.021 31.557C55.0474 29.8307 53.8355 28.2502 52.421 26.862C40.371 14.812 49.264 0.742 50.763 0.022L50.778 0C41.043 5.7 37.738 16.25 37.438 21.53C37.89 21.499 38.338 21.461 38.8 21.461C42.2538 21.4677 45.6443 22.3888 48.6268 24.1306C51.6092 25.8725 54.0773 28.373 55.78 31.378V31.38Z" fill="url(#paint3_radial_784_4807)"/>
<path d="M38.82 33.79C38.756 34.754 35.35 38.079 34.159 38.079C23.139 38.079 21.349 44.746 21.349 44.746C21.837 50.36 25.749 54.986 30.478 57.426C30.694 57.538 30.913 57.639 31.132 57.738C31.5113 57.906 31.8907 58.0613 32.27 58.204C33.893 58.7783 35.5928 59.1063 37.313 59.177C56.633 60.083 60.373 36.077 46.432 29.107C49.7205 28.6791 53.0508 29.4877 55.777 31.376C54.0743 28.371 51.6062 25.8705 48.6238 24.1286C45.6413 22.3868 42.2508 21.4657 38.797 21.459C38.337 21.459 37.887 21.497 37.435 21.528C33.546 21.7946 29.8276 23.2273 26.765 25.639C27.356 26.139 28.023 26.807 29.428 28.192C32.058 30.783 38.803 33.467 38.818 33.782L38.82 33.79Z" fill="url(#paint4_radial_784_4807)"/>
<path d="M38.82 33.79C38.756 34.754 35.35 38.079 34.159 38.079C23.139 38.079 21.349 44.746 21.349 44.746C21.837 50.36 25.749 54.986 30.478 57.426C30.694 57.538 30.913 57.639 31.132 57.738C31.5113 57.906 31.8907 58.0613 32.27 58.204C33.893 58.7783 35.5928 59.1063 37.313 59.177C56.633 60.083 60.373 36.077 46.432 29.107C49.7205 28.6791 53.0508 29.4877 55.777 31.376C54.0743 28.371 51.6062 25.8705 48.6238 24.1286C45.6413 22.3868 42.2508 21.4657 38.797 21.459C38.337 21.459 37.887 21.497 37.435 21.528C33.546 21.7946 29.8276 23.2273 26.765 25.639C27.356 26.139 28.023 26.807 29.428 28.192C32.058 30.783 38.803 33.467 38.818 33.782L38.82 33.79Z" fill="url(#paint5_radial_784_4807)"/>
<path d="M24.96 24.36C25.274 24.56 25.533 24.734 25.76 24.891C24.877 21.7999 24.8394 18.5285 25.651 15.418C22.0759 17.1498 18.8992 19.6049 16.322 22.628C16.511 22.623 22.133 22.522 24.96 24.36Z" fill="url(#paint6_radial_784_4807)"/>
<path d="M0.353953 42.16C3.34495 59.83 19.364 73.33 37.544 73.84C54.374 74.316 65.124 64.546 69.564 55.02C73.3257 46.7821 73.7578 37.409 70.77 28.86V28.823C70.77 28.794 70.764 28.777 70.77 28.786L70.777 28.851C72.152 37.828 67.586 46.521 60.447 52.411L60.425 52.461C46.515 63.791 33.205 59.295 30.515 57.461C30.327 57.371 30.139 57.2773 29.951 57.18C21.842 53.304 18.491 45.92 19.211 39.58C17.2861 39.6084 15.3942 39.078 13.7647 38.053C12.1352 37.0279 10.8378 35.5524 10.03 33.805C12.1588 32.5009 14.586 31.7637 17.0805 31.6636C19.5749 31.5635 22.0535 32.1038 24.28 33.233C28.8692 35.3161 34.0913 35.5214 38.83 33.805C38.815 33.49 32.07 30.805 29.44 28.215C28.035 26.83 27.368 26.163 26.777 25.662C26.4576 25.3914 26.1237 25.1384 25.777 24.904C25.547 24.747 25.288 24.577 24.977 24.373C22.15 22.535 16.528 22.636 16.342 22.641H16.324C14.788 20.694 14.896 14.274 14.984 12.933C14.5296 13.1156 14.0958 13.3459 13.69 13.62C12.334 14.5877 11.0664 15.6736 9.90195 16.865C8.57029 18.2065 7.35336 19.6572 6.26395 21.202V21.208V21.201C3.77249 24.7326 2.00515 28.7227 1.06395 32.941C1.04495 33.02 -0.332047 39.04 0.346953 42.162L0.353953 42.16Z" fill="url(#paint7_radial_784_4807)"/>
<path d="M52.42 26.86C53.8349 28.2497 55.0469 29.8319 56.02 31.56C56.233 31.721 56.432 31.881 56.601 32.036C65.388 40.136 60.784 51.586 60.441 52.396C67.579 46.515 72.141 37.816 70.771 28.836C66.387 17.906 58.951 13.496 52.891 3.90597C52.584 3.42097 52.277 2.93497 51.978 2.42197C51.807 2.12897 51.67 1.86497 51.551 1.62197C51.2993 1.13452 51.1053 0.619375 50.973 0.0869702C50.9732 0.0624024 50.9643 0.038629 50.9481 0.0201851C50.9319 0.00174121 50.9094 -0.0100823 50.885 -0.0130298C50.8611 -0.0195825 50.8359 -0.0195825 50.812 -0.0130298C50.807 -0.0130298 50.799 -0.00402983 50.793 -0.00202983C50.787 -2.9834e-05 50.774 0.00897017 50.765 0.0129702C49.266 0.72397 40.375 14.803 52.425 26.843L52.42 26.86Z" fill="url(#paint8_radial_784_4807)"/>
<path d="M56.6 32.04C56.431 31.885 56.232 31.725 56.019 31.564C55.94 31.505 55.862 31.446 55.778 31.387C53.0518 29.4987 49.7216 28.6901 46.433 29.118C60.373 36.088 56.633 60.088 37.314 59.188C35.5939 59.1173 33.894 58.7893 32.271 58.215C31.8917 58.073 31.5123 57.9177 31.133 57.749C30.914 57.649 30.695 57.549 30.479 57.437L30.506 57.454C33.2 59.293 46.506 63.786 60.416 52.454L60.438 52.404C60.785 51.594 65.389 40.144 56.598 32.044L56.6 32.04Z" fill="url(#paint9_radial_784_4807)"/>
<path d="M21.35 44.74C21.35 44.74 23.139 38.073 34.16 38.073C35.351 38.073 38.76 34.748 38.821 33.784C34.0823 35.5004 28.8603 35.2951 24.271 33.212C22.0445 32.0828 19.566 31.5425 17.0715 31.6426C14.5771 31.7428 12.1498 32.48 10.021 33.784C10.8289 35.5314 12.1262 37.007 13.7557 38.032C15.3853 39.057 17.2771 39.5874 19.202 39.559C18.484 45.896 21.834 53.279 29.942 57.159C30.123 57.246 30.293 57.34 30.479 57.423C25.746 54.978 21.838 50.354 21.35 44.743V44.74Z" fill="url(#paint10_radial_784_4807)"/>
<path d="M74.62 26.83C72.936 22.778 69.52 18.403 66.845 17.02C68.7525 20.7139 70.0765 24.6809 70.77 28.78L70.777 28.845C66.395 17.925 58.967 13.515 52.897 3.92501C52.59 3.44001 52.283 2.95401 51.984 2.44101C51.813 2.14801 51.676 1.88401 51.557 1.64101C51.3053 1.15357 51.1113 0.638418 50.979 0.106013C50.9792 0.0814453 50.9703 0.0576719 50.9541 0.0392281C50.9378 0.0207842 50.9154 0.00896071 50.891 0.00601313C50.8671 -0.000539534 50.8419 -0.000539534 50.818 0.00601313C50.813 0.00601313 50.805 0.0150131 50.799 0.0170131C50.793 0.0190131 50.78 0.0280131 50.771 0.0320131L50.786 0.00601313C41.051 5.70601 37.746 16.256 37.446 21.536C37.898 21.505 38.346 21.467 38.808 21.467C42.2618 21.4737 45.6523 22.3948 48.6348 24.1367C51.6172 25.8785 54.0853 28.3791 55.788 31.384C53.0618 29.4957 49.7315 28.6871 46.443 29.115C60.383 36.085 56.643 60.085 37.324 59.185C35.6038 59.1143 33.904 58.7863 32.281 58.212C31.9016 58.07 31.5223 57.9147 31.143 57.746C30.924 57.646 30.705 57.546 30.489 57.434L30.516 57.451C30.328 57.361 30.14 57.2673 29.952 57.17C30.133 57.257 30.303 57.351 30.489 57.434C25.756 54.988 21.848 50.364 21.36 44.754C21.36 44.754 23.149 38.087 34.17 38.087C35.361 38.087 38.77 34.762 38.831 33.798C38.816 33.483 32.071 30.798 29.441 28.208C28.036 26.823 27.369 26.156 26.778 25.655C26.4586 25.3845 26.1248 25.1314 25.778 24.897C24.895 21.8059 24.8573 18.5346 25.669 15.424C22.0938 17.1558 18.9172 19.6109 16.34 22.634H16.322C14.786 20.687 14.894 14.267 14.982 12.926C14.5276 13.1086 14.0938 13.3389 13.688 13.613C12.332 14.5808 11.0644 15.6667 9.89998 16.858C8.57307 18.2033 7.36116 19.6574 6.27698 21.205V21.211V21.204C3.78551 24.7356 2.01818 28.7257 1.07698 32.944L1.02498 33.2C0.951981 33.541 0.624981 35.273 0.577981 35.645C0.278882 37.4329 0.0878689 39.2372 0.00598145 41.048V41.248C0.0231098 50.9466 3.67557 60.2863 10.2423 67.4235C16.8091 74.5607 25.813 78.9767 35.4766 79.7997C45.1401 80.6228 54.7611 77.7931 62.4403 71.8693C70.1196 65.9455 75.2989 57.358 76.956 47.802C77.021 47.302 77.074 46.807 77.132 46.302C77.9303 39.7039 77.0661 33.0109 74.618 26.832L74.62 26.83ZM70.775 28.821L70.782 28.862L70.775 28.821Z" fill="url(#paint11_linear_784_4807)"/>
</g>
<defs>
<linearGradient id="paint0_linear_784_4807" x1="69.49" y1="12.3859" x2="5.14703" y2="74.4659" gradientUnits="userSpaceOnUse">
<stop offset="0.048" stop-color="#FFF44F"/>
<stop offset="0.111" stop-color="#FFE847"/>
<stop offset="0.225" stop-color="#FFC830"/>
<stop offset="0.368" stop-color="#FF980E"/>
<stop offset="0.401" stop-color="#FF8B16"/>
<stop offset="0.462" stop-color="#FF672A"/>
<stop offset="0.534" stop-color="#FF3647"/>
<stop offset="0.705" stop-color="#E31587"/>
</linearGradient>
<radialGradient id="paint1_radial_784_4807" cx="0" cy="0" r="1" gradientUnits="userSpaceOnUse" gradientTransform="translate(67 9.00002) scale(80.8)">
<stop offset="0.129" stop-color="#FFBD4F"/>
<stop offset="0.186" stop-color="#FFAC31"/>
<stop offset="0.247" stop-color="#FF9D17"/>
<stop offset="0.283" stop-color="#FF980E"/>
<stop offset="0.403" stop-color="#FF563B"/>
<stop offset="0.467" stop-color="#FF3750"/>
<stop offset="0.71" stop-color="#F5156C"/>
<stop offset="0.782" stop-color="#EB0878"/>
<stop offset="0.86" stop-color="#E50080"/>
</radialGradient>
<radialGradient id="paint2_radial_784_4807" cx="0" cy="0" r="1" gradientUnits="userSpaceOnUse" gradientTransform="translate(37 42) scale(80.8)">
<stop offset="0.3" stop-color="#960E18"/>
<stop offset="0.351" stop-color="#B11927" stop-opacity="0.74"/>
<stop offset="0.435" stop-color="#DB293D" stop-opacity="0.343"/>
<stop offset="0.497" stop-color="#F5334B" stop-opacity="0.094"/>
<stop offset="0.53" stop-color="#FF3750" stop-opacity="0"/>
</radialGradient>
<radialGradient id="paint3_radial_784_4807" cx="0" cy="0" r="1" gradientUnits="userSpaceOnUse" gradientTransform="translate(47 -9) scale(58.53)">
<stop offset="0.132" stop-color="#FFF44F"/>
<stop offset="0.252" stop-color="#FFDC3E"/>
<stop offset="0.506" stop-color="#FF9D12"/>
<stop offset="0.526" stop-color="#FF980E"/>
</radialGradient>
<radialGradient id="paint4_radial_784_4807" cx="0" cy="0" r="1" gradientUnits="userSpaceOnUse" gradientTransform="translate(28 63) scale(38.47)">
<stop offset="0.353" stop-color="#3A8EE6"/>
<stop offset="0.472" stop-color="#5C79F0"/>
<stop offset="0.669" stop-color="#9059FF"/>
<stop offset="1" stop-color="#C139E6"/>
</radialGradient>
<radialGradient id="paint5_radial_784_4807" cx="0" cy="0" r="1" gradientUnits="userSpaceOnUse" gradientTransform="translate(40.908 35.064) rotate(-13.5916) scale(20.4001 23.8834)">
<stop offset="0.206" stop-color="#9059FF" stop-opacity="0"/>
<stop offset="0.278" stop-color="#8C4FF3" stop-opacity="0.064"/>
<stop offset="0.747" stop-color="#7716A8" stop-opacity="0.45"/>
<stop offset="0.975" stop-color="#6E008B" stop-opacity="0.6"/>
</radialGradient>
<radialGradient id="paint6_radial_784_4807" cx="0" cy="0" r="1" gradientUnits="userSpaceOnUse" gradientTransform="translate(36 5.99997) scale(27.68)">
<stop stop-color="#FFE226"/>
<stop offset="0.121" stop-color="#FFDB27"/>
<stop offset="0.295" stop-color="#FFC82A"/>
<stop offset="0.502" stop-color="#FFA930"/>
<stop offset="0.732" stop-color="#FF7E37"/>
<stop offset="0.792" stop-color="#FF7139"/>
</radialGradient>
<radialGradient id="paint7_radial_784_4807" cx="0" cy="0" r="1" gradientUnits="userSpaceOnUse" gradientTransform="translate(58 -12) scale(118.1)">
<stop offset="0.113" stop-color="#FFF44F"/>
<stop offset="0.456" stop-color="#FF980E"/>
<stop offset="0.622" stop-color="#FF5634"/>
<stop offset="0.716" stop-color="#FF3647"/>
<stop offset="0.904" stop-color="#E31587"/>
</radialGradient>
<radialGradient id="paint8_radial_784_4807" cx="0" cy="0" r="1" gradientUnits="userSpaceOnUse" gradientTransform="translate(48.184 -5.45203) rotate(83.976) scale(86.5454 56.799)">
<stop stop-color="#FFF44F"/>
<stop offset="0.06" stop-color="#FFE847"/>
<stop offset="0.168" stop-color="#FFC830"/>
<stop offset="0.304" stop-color="#FF980E"/>
<stop offset="0.356" stop-color="#FF8B16"/>
<stop offset="0.455" stop-color="#FF672A"/>
<stop offset="0.57" stop-color="#FF3647"/>
<stop offset="0.737" stop-color="#E31587"/>
</radialGradient>
<radialGradient id="paint9_radial_784_4807" cx="0" cy="0" r="1" gradientUnits="userSpaceOnUse" gradientTransform="translate(36 16) scale(73.72)">
<stop offset="0.137" stop-color="#FFF44F"/>
<stop offset="0.48" stop-color="#FF980E"/>
<stop offset="0.592" stop-color="#FF5634"/>
<stop offset="0.655" stop-color="#FF3647"/>
<stop offset="0.904" stop-color="#E31587"/>
</radialGradient>
<radialGradient id="paint10_radial_784_4807" cx="0" cy="0" r="1" gradientUnits="userSpaceOnUse" gradientTransform="translate(55 20) scale(80.69)">
<stop offset="0.094" stop-color="#FFF44F"/>
<stop offset="0.231" stop-color="#FFE141"/>
<stop offset="0.509" stop-color="#FFAF1E"/>
<stop offset="0.626" stop-color="#FF980E"/>
</radialGradient>
<linearGradient id="paint11_linear_784_4807" x1="68.71" y1="12.0559" x2="13.97" y2="66.8059" gradientUnits="userSpaceOnUse">
<stop offset="0.167" stop-color="#FFF44F" stop-opacity="0.8"/>
<stop offset="0.266" stop-color="#FFF44F" stop-opacity="0.634"/>
<stop offset="0.489" stop-color="#FFF44F" stop-opacity="0.217"/>
<stop offset="0.6" stop-color="#FFF44F" stop-opacity="0"/>
</linearGradient>
<clipPath id="clip0_784_4807">
<rect width="77.42" height="79.97" fill="white"/>
</clipPath>
</defs>
</svg>
