<svg width="232" height="79" viewBox="0 0 232 79" fill="none" xmlns="http://www.w3.org/2000/svg">
<path fill-rule="evenodd" clip-rule="evenodd" d="M5.22666 3.72606C6.62243 2.13395 8.704 1.35606 10.7826 1.23499C10.8116 3.3562 10.8065 5.47742 10.8014 7.59864C10.799 8.57083 10.7967 9.54302 10.7977 10.5152C9.53182 10.5213 8.26598 10.5205 7.00014 10.5198C5.73426 10.519 4.46838 10.5182 3.20249 10.5243C2.97591 8.11495 3.45929 5.49372 5.22666 3.72606ZM49.4109 15.3006C49.8837 15.2983 50.3564 15.2952 50.8291 15.2921C52.8972 15.2786 54.9652 15.2651 57.0333 15.3218C57.0212 27.2686 57.0182 39.2125 57.0333 51.1593C57.1239 52.6394 56.9034 54.2315 55.8611 55.3666C54.2478 57.44 51.0061 57.9091 48.8702 56.3806C45.7553 54.1383 42.6463 51.8867 39.5375 49.6351C36.0157 47.0845 32.494 44.534 28.9638 41.9971C28.9004 38.6858 28.9215 35.3714 28.9487 32.0631C32.5091 34.6112 36.0522 37.1831 39.5952 39.7548C42.8618 42.1259 46.1283 44.4969 49.4079 46.8491C49.3898 36.3339 49.3838 25.8158 49.4109 15.3006ZM39.4383 75.2214C38.7415 74.0788 38.0447 72.9361 37.2508 71.8597C37.134 72.0456 37.0171 72.2314 36.9003 72.4171C35.9836 73.8745 35.0672 75.3314 34.1722 76.8025C35.3617 76.8095 36.5513 76.8085 37.7413 76.8075C38.6338 76.8067 39.5266 76.806 40.42 76.8086C40.0862 76.284 39.7623 75.7527 39.4383 75.2214Z" fill="#BD1C1C"/>
<path fill-rule="evenodd" clip-rule="evenodd" d="M19.1389 2.84519C20.9547 0.475189 24.864 0.332929 26.9879 2.3609C26.435 2.97232 25.8912 3.58373 25.3504 4.20423C24.5105 3.52017 23.3172 2.95415 22.284 3.58373C20.6374 4.35255 20.4864 6.96469 21.9607 7.97868C22.716 8.51442 23.6797 8.37519 24.5317 8.22385C24.5302 8.01802 24.5279 7.81144 24.5257 7.60486C24.5234 7.39828 24.5211 7.1917 24.5196 6.98588C24.3238 6.97978 24.1277 6.97402 23.9315 6.96826L23.9315 6.96826L23.9314 6.96826L23.9313 6.96826L23.9313 6.96826L23.9312 6.96826L23.9312 6.96826L23.9311 6.96825L23.931 6.96825L23.9308 6.96825L23.9306 6.96824L23.9305 6.96824L23.9303 6.96823L23.9302 6.96823L23.93 6.96822C23.5423 6.95684 23.1542 6.94545 22.7673 6.9314C22.7764 6.23825 22.7794 5.54814 22.7764 4.85802C23.9346 4.83753 25.095 4.84089 26.2539 4.84424H26.2539L26.8852 4.84592C26.8857 5.13068 26.8863 5.41535 26.887 5.69997C26.8904 7.12164 26.8937 8.5419 26.8761 9.96427C24.713 10.8753 21.9335 11.1811 19.9667 9.66461C17.9244 8.09672 17.6495 4.87619 19.1389 2.84519ZM64.1632 1.07451C66.2508 0.62957 68.7251 1.37417 69.7976 3.32949C70.7221 5.06992 70.6133 7.39754 69.3686 8.95635C67.3233 11.5201 62.7251 11.3233 61.0242 8.46903C60.0272 6.71953 60.0574 4.31926 61.3444 2.72413C62.0393 1.84635 63.0725 1.28034 64.1632 1.07451ZM65.0514 3.35068C64.0604 3.58375 63.1632 4.40099 63.1027 5.4634C62.9033 6.61359 63.6042 7.82735 64.6979 8.22386C65.9154 8.61129 67.3384 7.7547 67.565 6.49857C68.0816 4.94582 66.6949 3.14486 65.0514 3.35068ZM31.6167 1.2085C31.0469 1.21989 30.4771 1.23129 29.9093 1.21371C29.9104 2.32401 29.9096 3.4343 29.9087 4.54446V4.54758V4.54776V4.54794V4.54812V4.5483V4.54849V4.54867V4.54885V4.54903V4.54921V4.54939V4.54958V4.54976C29.9072 6.54902 29.9057 8.54783 29.9154 10.5454H29.9158C30.7797 10.5424 31.6436 10.5393 32.5075 10.5303C32.5082 10.2291 32.5055 9.92781 32.5027 9.62649V9.62647V9.62646V9.62644V9.62642V9.6264V9.62639V9.62637V9.62635V9.62634V9.62632V9.6263V9.62628V9.62625C32.4939 8.67682 32.4852 7.72732 32.5861 6.78306C33.1037 7.49154 33.5124 8.26501 33.9211 9.03836L33.9212 9.03846C34.1899 9.547 34.4587 10.0555 34.7583 10.5454C35.0694 10.5435 35.3803 10.5428 35.691 10.5421H35.6914C36.3911 10.5405 37.0898 10.5389 37.7885 10.5242C37.3614 9.76829 36.9071 9.02707 36.4527 8.28572C36.1356 7.76842 35.8185 7.25105 35.5105 6.72857C36.3081 6.12321 37.1994 5.34532 37.1208 4.23145C37.3111 2.84819 36.2205 1.58903 34.8942 1.34991C33.8123 1.1646 32.7146 1.18655 31.6167 1.2085ZM32.5 3.93982C32.4937 3.76077 32.4873 3.5816 32.4803 3.4021C33.145 3.41118 33.8036 3.47474 34.4531 3.61398C34.4622 3.73581 34.4749 3.91745 34.4877 4.09946L34.4877 4.09958L34.4877 4.10041L34.4877 4.10059L34.4879 4.10281L34.488 4.10503L34.4881 4.1052L34.4881 4.10604L34.4881 4.10616C34.5009 4.28816 34.5136 4.4698 34.5226 4.59164C33.9033 4.88827 33.2235 4.98815 32.5438 5.02447C32.5256 4.66217 32.5128 4.30123 32.5 3.93982ZM41.7694 1.21034H41.7695C43.3567 1.20977 44.9427 1.2092 46.5287 1.21374C46.5257 1.98256 46.5226 2.74834 46.5136 3.51715C45.4536 3.50706 44.3937 3.50749 43.3355 3.50791H43.3354L42.7009 3.50807V4.66432H42.701C43.8973 4.66432 45.0937 4.66432 46.293 4.65524C46.3111 5.3847 46.3111 6.11417 46.293 6.84666C45.0936 6.83758 43.8942 6.83455 42.6979 6.8406L42.6979 6.84425V6.84435V6.84446V6.84457V6.84467V6.84477V6.84487V6.84498V6.84508V6.84517V6.84527V6.84537C42.7009 7.30686 42.7039 7.76537 42.7009 8.22689C44.0574 8.22386 45.4139 8.22386 46.7734 8.22991V10.5364C45.602 10.5428 44.4315 10.5424 43.2609 10.5419C42.2366 10.5416 41.2123 10.5412 40.1873 10.5454C40.1796 8.56534 40.1805 6.58525 40.1813 4.60516C40.1818 3.47368 40.1823 2.3422 40.1812 1.21072C40.7106 1.21072 41.2397 1.21053 41.7687 1.21034H41.7688H41.7689H41.769H41.769H41.7691H41.7692H41.7692H41.7693H41.7694H41.7694ZM50.5053 1.20623C50.1847 1.21549 49.8643 1.22473 49.5469 1.2137C49.548 2.32328 49.5471 3.43324 49.5463 4.54332V4.54347V4.54361V4.54376V4.5439V4.54405V4.5442V4.54434V4.54449V4.54463V4.54478C49.5448 6.54415 49.5432 8.54388 49.553 10.5424C50.411 10.5393 51.269 10.5424 52.127 10.5454C52.0454 8.82312 52.0514 7.09481 52.0605 5.36952C52.6302 6.23026 53.1673 7.11277 53.7044 7.99538L53.7044 7.99542C54.2269 8.85399 54.7495 9.71265 55.3022 10.5514C56.2019 10.5363 57.0986 10.5393 57.9983 10.5423L58.0001 10.5424C58.0104 7.87827 58.0075 5.21195 58.0045 2.54532V2.54511V2.54489V2.54468V2.54447V2.54426V2.54405V2.54384V2.54362V2.54341V2.5432L58.0031 1.21067C57.1693 1.21067 56.3354 1.21067 55.4986 1.2137C55.4684 2.9178 55.4955 4.6219 55.5922 6.326C54.9249 5.4179 54.3486 4.45095 53.7726 3.48434C53.3367 2.75303 52.901 2.0219 52.4261 1.31661C51.7999 1.16888 51.1521 1.18757 50.5053 1.20623ZM72.719 1.21376C73.3436 1.25554 73.9816 1.23225 74.6209 1.20892C75.9265 1.16126 77.2373 1.1134 78.4501 1.61935C79.9788 2.31249 80.0241 4.48272 78.8519 5.53908C78.9211 5.61679 78.9931 5.69481 79.0659 5.7737C79.5434 6.29095 80.0552 6.8454 80.0211 7.59127C80.148 8.77475 79.3504 9.92495 78.2084 10.2337C76.9606 10.5924 75.6638 10.5671 74.371 10.5419C73.8203 10.5311 73.2702 10.5204 72.725 10.5394C72.7058 7.71286 72.7116 4.88632 72.7173 2.05979L72.719 1.21376ZM75.2175 3.27502C75.2296 3.78353 75.2447 4.29203 75.2598 4.80054C75.7975 4.74303 76.3353 4.68552 76.8761 4.62498C76.9426 4.27993 77.0272 3.94092 77.1329 3.60495C76.5015 3.4536 75.864 3.34161 75.2175 3.27502ZM75.2598 6.69533C75.2417 7.2341 75.2266 7.77288 75.2145 8.31468C75.9698 8.32678 76.7402 8.28441 77.4199 7.91514C77.3972 7.7986 77.3625 7.62456 77.3278 7.45052C77.293 7.27648 77.2583 7.10244 77.2356 6.9859C76.5891 6.81337 75.9244 6.7377 75.2598 6.69533ZM85.1933 1.21069C84.3051 1.21069 83.4169 1.21069 82.5287 1.21675C82.533 2.67816 82.5319 4.14024 82.5308 5.60236C82.5295 7.24727 82.5283 8.89222 82.5347 10.5363C83.9805 10.5428 85.4263 10.5416 86.8721 10.5403C87.4505 10.5398 88.0289 10.5394 88.6072 10.5394C88.608 10.3428 88.6089 10.1463 88.6099 9.94978C88.6127 9.35918 88.6155 8.76814 88.6133 8.17541C87.9624 8.17195 87.3115 8.17244 86.6611 8.17294C86.1735 8.17331 85.6862 8.17368 85.1994 8.17238C85.1964 7.01159 85.1964 5.85081 85.1964 4.6904V4.68164C85.1964 3.52415 85.1963 2.36705 85.1933 1.21069ZM90.846 1.2137C91.2332 1.21315 91.6205 1.2124 92.0077 1.21165C93.7504 1.20827 95.493 1.20489 97.2357 1.21975L97.2176 3.51105L97.2151 3.51105C95.9259 3.50802 94.6397 3.50501 93.3535 3.51408V4.65822C94.5589 4.6673 95.7644 4.6673 96.9698 4.65822C96.9759 5.38768 96.9759 6.11715 96.9698 6.84661C95.7644 6.83753 94.5559 6.8345 93.3505 6.84661C93.3535 7.30366 93.3535 7.76374 93.3535 8.22381C93.7639 8.22472 94.1742 8.22481 94.5847 8.2249H94.5854C95.5435 8.22511 96.5022 8.22533 97.4623 8.23592C97.4592 9.0017 97.4592 9.76446 97.4623 10.5302C95.9942 10.5444 94.5247 10.5424 93.0557 10.5403H93.0556H93.0555H93.0554H93.0553H93.0552H93.0552H93.0551H93.0549H93.0547H93.0546H93.0544H93.0543H93.0541H93.0539C92.3198 10.5393 91.5857 10.5383 90.852 10.5393C90.8328 7.71396 90.8385 4.8886 90.8443 2.06323L90.846 1.2137ZM7.32871 15.2571H7.32869H7.32867H7.32865H7.32863H7.32861H7.32859C5.93534 15.2567 4.54217 15.2562 3.1481 15.2612C3.14256 21.6788 3.14401 28.0964 3.14545 34.514C3.14715 42.0985 3.14886 49.6829 3.13904 57.2674C5.084 57.3226 7.03245 57.3114 8.97909 57.3001H8.97917H8.97926H8.97934H8.97943H8.97951H8.9796H8.98052H8.98144H8.98236H8.98328H8.9842H8.98512C9.59759 57.2966 10.2099 57.2931 10.8218 57.2916C10.8196 52.0378 10.8211 46.7841 10.8227 41.5302V41.53V41.5298V41.5296V41.5294V41.5292V41.529C10.8253 32.7717 10.8279 24.014 10.8128 15.2551C9.65097 15.2579 8.48981 15.2575 7.32871 15.2571ZM20.5982 16.1057C22.3988 14.9222 24.9003 15.01 26.6133 16.3146C29.1411 18.1487 31.6723 19.9783 34.2036 21.808L34.2042 21.8084L34.2048 21.8088L34.2054 21.8093L34.206 21.8097L34.2066 21.8102C38.2787 24.7535 42.3508 27.6969 46.4079 30.6587C46.4 32.3916 46.4012 34.1254 46.4024 35.8591V35.8617C46.4035 37.4369 46.4046 39.0121 46.3988 40.5866C43.0521 38.2003 39.7263 35.785 36.4007 33.3698L36.4004 33.3696C32.9263 30.8466 29.4524 28.3237 25.9547 25.8339C25.9175 32.2991 25.9227 38.7642 25.928 45.2301V45.2303V45.2306V45.2309V45.2311V45.2314C25.9312 49.2511 25.9345 53.2712 25.9275 57.2917C23.3444 57.3098 20.7644 57.3098 18.1813 57.2917C18.1825 52.5825 18.1814 47.8734 18.1803 43.1642C18.1786 35.6299 18.1769 28.0955 18.1843 20.5612C18.1722 18.7905 19.1118 17.0592 20.5982 16.1057ZM70.9759 15.4368C67.6556 15.4126 64.8067 18.503 64.8641 21.7871C64.8634 24.4171 64.8621 27.0472 64.8609 29.6772V29.6774V29.6776V29.6778V29.678C64.8564 38.8824 64.852 48.0864 64.8731 57.2886C67.25 57.3122 69.629 57.3063 72.0084 57.3004H72.0086H72.0088H72.009H72.0101L73.1088 57.2977C73.1153 52.4111 73.1134 47.5244 73.1116 42.638V42.6379V42.6377V42.6376V42.6374C73.1091 36.1225 73.1066 29.6081 73.1239 23.0947C75.2382 23.1031 77.354 23.1012 79.4702 23.0993H79.4705H79.4707H79.471H79.4712L79.4773 23.0993C80.3826 23.0985 81.288 23.0977 82.1934 23.0977C83.8883 23.1098 85.6828 23.4004 87.0695 24.4446C88.3203 25.3799 89.0212 26.9024 89.1662 28.437C89.3777 30.3863 89.136 32.5595 87.8127 34.0971C86.5771 35.547 84.6103 36.0676 82.7765 36.1312C81.3001 36.1521 79.8224 36.147 78.3452 36.1418H78.3448H78.3445H78.3442H78.3439H78.3436H78.3432H78.3429H78.3426C77.6864 36.1395 77.0304 36.1372 76.3747 36.1372C76.3196 38.0853 76.3308 40.0352 76.342 41.9854V41.9857V41.9859V41.9861V41.9863C76.3455 42.6023 76.349 43.2184 76.3505 43.8344C77.2141 43.8208 78.081 43.8274 78.9489 43.8341H78.9493C81.7369 43.8555 84.5338 43.8769 87.2568 43.226C89.9487 42.6025 92.565 41.307 94.3898 39.1883C96.7765 36.5398 97.707 32.8562 97.5922 29.3541C97.6375 25.7583 96.4985 21.9989 93.8731 19.4534C91.142 16.702 87.1722 15.5912 83.3928 15.4398C80.9094 15.4344 78.426 15.4355 75.9426 15.4366C74.287 15.4373 72.6315 15.438 70.9759 15.4368ZM16.9064 67.4889C16.9366 64.3562 19.9306 61.8439 22.9517 61.7924C24.3475 61.6744 25.707 62.0951 26.9396 62.7156C26.6992 63.0833 26.4537 63.4476 26.2081 63.8121L26.208 63.8123C25.9906 64.1348 25.7731 64.4576 25.559 64.783C23.9366 64.0838 21.8581 64.0111 20.568 65.4065C18.9396 66.8412 19.4079 69.7318 21.3173 70.6883C23.0484 71.7749 25.3354 71.1665 26.6013 69.6531C27.3384 70.0859 28.0756 70.5218 28.8007 70.9789C27.2176 73.2641 24.13 74.2478 21.4925 73.4851C18.855 72.8403 16.6677 70.2766 16.9064 67.4889ZM5.82479 61.962C4.92751 61.9499 4.03325 61.9529 3.13899 61.9862C3.15335 62.9501 3.14797 63.9146 3.14258 64.8791C3.13551 66.1468 3.12843 67.4147 3.16618 68.6816C3.29307 71.3058 5.61633 73.4185 8.15712 73.6879C11.1088 74.1571 14.4018 72.0867 14.7523 69.0024C14.8301 67.529 14.8173 66.0533 14.8045 64.5774C14.797 63.7035 14.7894 62.8295 14.8006 61.956C13.9124 61.9529 13.0242 61.956 12.139 61.965C12.1291 62.8416 12.1339 63.7181 12.1386 64.5947C12.1455 65.8641 12.1524 67.1336 12.1148 68.4031C12.0846 69.8711 10.7885 71.0849 9.36558 71.218C7.68582 71.4935 5.87313 70.1344 5.84896 68.388C5.82414 67.2891 5.82959 66.1895 5.83504 65.0895C5.8402 64.0472 5.84537 63.0046 5.82479 61.962ZM37.2659 61.9772C38.9883 64.5739 40.6269 67.2289 42.2655 69.8837C43.0183 71.1033 43.7709 72.3228 44.5317 73.5366C43.4985 73.5578 42.4653 73.5548 41.432 73.5487C40.9417 72.7587 40.447 71.9719 39.9524 71.1851L39.9523 71.1848C39.0635 69.7709 38.1749 68.3572 37.3112 66.926C36.4556 68.2354 35.6327 69.5644 34.8097 70.8934L34.8095 70.8938C34.2609 71.7797 33.7123 72.6656 33.1541 73.5457C32.1178 73.5548 31.0816 73.5578 30.0483 73.5396C32.0639 70.2512 34.1164 66.9867 36.169 63.7222L36.1695 63.7213C36.535 63.14 36.9006 62.5586 37.2659 61.9772ZM29 66.4992C27.0876 66.4902 25.1782 66.4902 23.2658 66.4992C23.2628 67.3346 23.2628 68.1731 23.2628 69.0085C25.1752 69.0145 27.0906 69.0145 29.003 69.0085C29.003 68.1731 29.003 67.3346 29 66.4992Z" fill="#2A2D46"/>
<path d="M121.004 58H115.668V17.4H123.73C126.089 17.4 128.003 18.1154 129.472 19.546C130.941 20.938 131.676 22.8134 131.676 25.172V35.032C131.676 37.3907 130.941 39.2854 129.472 40.716C128.003 42.108 126.089 42.804 123.73 42.804H121.004V58ZM121.004 22.272V37.932H123.73C124.503 37.932 125.122 37.6807 125.586 37.178C126.089 36.6367 126.34 35.9214 126.34 35.032V25.172C126.34 24.2827 126.108 23.5867 125.644 23.084C125.18 22.5427 124.542 22.272 123.73 22.272H121.004Z" fill="#BD1C1C"/>
<path d="M135.94 58V15.66H141.276V28.768C141.895 27.376 143.132 26.68 144.988 26.68C146.805 26.68 148.333 27.3567 149.57 28.71C150.807 30.0247 151.426 31.842 151.426 34.162V58H146.09V34.162C146.09 33.3887 145.858 32.77 145.394 32.306C144.969 31.8034 144.389 31.552 143.654 31.552C142.919 31.552 142.339 31.784 141.914 32.248C141.489 32.712 141.276 33.35 141.276 34.162V58H135.94Z" fill="#BD1C1C"/>
<path d="M156.274 34.162C156.274 31.8807 157.009 30.0634 158.478 28.71C159.947 27.3567 161.803 26.68 164.046 26.68C166.289 26.68 168.125 27.3567 169.556 28.71C171.025 30.0634 171.76 31.8807 171.76 34.162V37.584C171.76 38.9374 171.489 40.0007 170.948 40.774C170.445 41.5474 169.575 42.2047 168.338 42.746L161.61 45.762V51.098C161.61 51.8714 161.823 52.5094 162.248 53.012C162.712 53.476 163.311 53.708 164.046 53.708C164.781 53.708 165.361 53.476 165.786 53.012C166.211 52.5094 166.424 51.8714 166.424 51.098V47.676H171.76V51.098C171.76 53.3794 171.025 55.1967 169.556 56.55C168.125 57.9034 166.289 58.58 164.046 58.58C161.803 58.58 159.947 57.9034 158.478 56.55C157.009 55.1967 156.274 53.3794 156.274 51.098V34.162ZM161.61 34.162V40.658L165.438 38.918C166.095 38.6087 166.424 38.164 166.424 37.584V34.162C166.424 33.3887 166.211 32.77 165.786 32.306C165.361 31.8034 164.781 31.552 164.046 31.552C163.311 31.552 162.712 31.8034 162.248 32.306C161.823 32.77 161.61 33.3887 161.61 34.162Z" fill="#BD1C1C"/>
<path d="M176.384 15.66H181.72V58H176.384V15.66Z" fill="#BD1C1C"/>
<path d="M186.574 58V34.046C186.574 31.7647 187.231 29.9667 188.546 28.652C189.899 27.3374 191.678 26.68 193.882 26.68C195.003 26.68 196.047 26.9507 197.014 27.492C198.019 27.9947 198.735 28.652 199.16 29.464C199.547 28.6134 200.204 27.9367 201.132 27.434C202.06 26.9314 203.085 26.68 204.206 26.68C206.41 26.68 208.189 27.3374 209.542 28.652C210.934 29.9667 211.63 31.7647 211.63 34.046V58H206.294V34.046C206.294 33.2727 206.081 32.6734 205.656 32.248C205.269 31.784 204.728 31.552 204.032 31.552C203.336 31.552 202.775 31.784 202.35 32.248C201.963 32.6734 201.77 33.2727 201.77 34.046V58H196.434V34.046C196.434 33.2727 196.221 32.6734 195.796 32.248C195.371 31.784 194.791 31.552 194.056 31.552C192.625 31.552 191.91 32.3834 191.91 34.046V58H186.574Z" fill="#BD1C1C"/>
<path d="M221.474 37.526H216.138V34.162C216.138 31.8807 216.872 30.0634 218.342 28.71C219.811 27.3567 221.667 26.68 223.91 26.68C226.152 26.68 227.989 27.3567 229.42 28.71C230.889 30.0634 231.624 31.8807 231.624 34.162V51.098C231.624 53.3794 230.889 55.1967 229.42 56.55C227.989 57.9034 226.152 58.58 223.91 58.58C221.628 58.58 219.753 57.9227 218.284 56.608C216.853 55.2547 216.138 53.418 216.138 51.098V48.256C216.138 44.9694 217.704 42.7074 220.836 41.47L226.288 39.208V34.162C226.288 33.3887 226.075 32.77 225.65 32.306C225.224 31.8034 224.644 31.552 223.91 31.552C223.175 31.552 222.576 31.8034 222.112 32.306C221.686 32.77 221.474 33.3887 221.474 34.162V37.526ZM221.474 51.098C221.474 51.8714 221.686 52.5094 222.112 53.012C222.576 53.476 223.175 53.708 223.91 53.708C224.644 53.708 225.224 53.476 225.65 53.012C226.075 52.5094 226.288 51.8714 226.288 51.098V44.254L223.214 45.588C222.054 46.052 221.474 46.9414 221.474 48.256V51.098Z" fill="#BD1C1C"/>
</svg>
