<svg width="130" height="67" viewBox="0 0 130 67" fill="none" xmlns="http://www.w3.org/2000/svg">
<path d="M40.3955 2.49248C40.3988 2.49248 40.4021 2.49577 40.4021 2.49577C33.8534 2.49577 28.2326 6.40099 25.7855 11.9578L8.74817 52.8394C8.70524 52.9479 8.67883 53.0598 8.67883 53.1848C8.67883 53.6717 9.08176 54.0698 9.58043 54.0698L48.546 54.0665C51.3167 54.0665 52.5221 51.4115 50.3623 49.2895L36.0528 35.9518C28.5331 28.6052 31.7563 11.5729 47.3769 11.5729H123.657C124.053 11.5729 124.39 11.3228 124.512 10.9741L127.53 3.7065C127.573 3.6078 127.596 3.49266 127.596 3.37421C127.596 2.88071 127.194 2.4859 126.695 2.4859L40.3955 2.49248Z" fill="url(#paint0_linear_784_4763)"/>
<path d="M42.4694 3.66046L42.4727 3.66375H40.4715C34.547 3.66375 29.2564 7.11166 26.9215 12.4546L10.1418 52.7209H48.546C49.3155 52.7209 49.9 52.4281 50.1114 51.9346C50.3293 51.405 50.0883 50.714 49.4839 50.1186L35.148 36.7546C30.8978 32.6059 29.6725 25.5554 32.1725 19.6137C34.6824 13.6555 40.2206 10.2339 47.3769 10.2339H123.399L126.137 3.65717L126.133 3.65388L42.4694 3.66046Z" fill="url(#paint1_radial_784_4763)"/>
<path d="M103.449 23.3083C102.458 23.3083 101.613 23.9005 101.256 24.7526L84.8429 64.2622C84.7769 64.3872 84.7373 64.5287 84.7373 64.6768C84.7373 65.1604 85.1468 65.5585 85.6421 65.5585L91.111 65.5618L91.1078 65.5552C97.749 65.5552 103.479 61.548 105.87 55.8629C108.261 50.1777 105.879 55.8694 105.889 55.876L118.934 24.5058C118.974 24.4039 118.997 24.292 118.997 24.1801C118.997 23.6866 118.591 23.2918 118.095 23.2918L103.449 23.3083Z" fill="url(#paint2_linear_784_4763)"/>
<path d="M103.449 24.4795C103.003 24.4795 102.61 24.7394 102.442 25.1441L86.1276 64.4037H89.047L89.0438 64.3905H91.0383C96.9166 64.3905 102.168 60.9985 104.529 55.7247L117.531 24.4664H117.527L103.449 24.4795Z" fill="url(#paint3_radial_784_4763)"/>
<path d="M46.865 23.2918C44.6128 23.2918 42.6413 26.0522 45.029 28.24L58.7505 40.9591C58.7505 40.9591 64.3052 46.0619 63.113 53.3624C62.0628 59.7878 57.6607 63.7227 54.4771 65.1374L54.4673 65.1407C54.3913 65.1801 54.3417 65.2558 54.3417 65.338C54.3417 65.4598 54.4409 65.5618 54.5697 65.5618H70.5733C71.5641 65.5618 72.4128 64.9696 72.7661 64.1175L89.2421 24.496C89.2817 24.394 89.3013 24.2887 89.3013 24.1801C89.3013 23.6866 88.8985 23.2918 88.3965 23.2918H46.865Z" fill="url(#paint4_linear_784_4763)"/>
<path d="M46.8651 24.4664C46.2178 24.4664 45.5508 24.9138 45.313 25.5126C45.029 26.2298 45.4748 26.8418 45.9074 27.2366L59.6223 39.9557C59.87 40.1827 65.6625 45.6046 64.3778 53.4776C63.5985 58.2481 60.9797 62.0382 58.0802 64.4037H70.4907C70.9365 64.4037 71.3329 64.1405 71.5014 63.7424L87.8352 24.4664H46.8651Z" fill="url(#paint5_radial_784_4763)"/>
<path opacity="0.100006" d="M89.3057 24.1785C89.3057 24.2871 89.2859 24.3924 89.2397 24.5009L81.5351 43.0335C75.8054 43.6323 69.8412 43.9547 63.7151 43.9547C62.8367 43.9547 61.9615 43.9416 61.0897 43.9317C59.9305 42.0366 58.7516 40.9575 58.7516 40.9575L45.0266 28.2351C42.6389 26.0505 44.6171 23.2902 46.8661 23.2902H88.3976C88.8962 23.2902 89.3057 23.685 89.3057 24.1785Z" fill="white"/>
<path opacity="0.100006" d="M118.994 24.1785C118.994 24.297 118.971 24.4023 118.928 24.5108L114.348 35.5323C108.393 37.8123 101.703 39.7073 94.4604 41.1089L101.26 24.7576C101.617 23.9022 102.459 23.3133 103.453 23.3133L118.096 23.2902C118.595 23.2902 118.994 23.685 118.994 24.1785Z" fill="white"/>
<path opacity="0.100006" d="M127.596 3.37621C127.596 3.49465 127.572 3.6098 127.53 3.7085L124.518 10.9728C124.389 11.3281 124.052 11.5716 123.652 11.5716H47.3727C31.7554 11.5716 28.5355 28.6072 36.0486 35.9505L43.3305 42.7345C33.1292 41.4909 23.7272 39.3326 15.5801 36.4539L25.7813 11.9598C28.2317 6.39314 33.8525 2.49778 40.4012 2.49778V2.48791H126.701C127.196 2.48791 127.596 2.88271 127.596 3.37621Z" fill="white"/>
<defs>
<linearGradient id="paint0_linear_784_4763" x1="68.9334" y1="1.24992" x2="66.8485" y2="72.4548" gradientUnits="userSpaceOnUse">
<stop stop-color="#5DA1C2"/>
<stop offset="0.136459" stop-color="#1E4965"/>
<stop offset="0.361282" stop-color="#3882B9"/>
<stop offset="0.445206" stop-color="#5DA1C2"/>
<stop offset="0.540161" stop-color="#3882B9"/>
<stop offset="0.64389" stop-color="#1E4965"/>
<stop offset="0.710846" stop-color="#306187"/>
<stop offset="1" stop-color="#306187"/>
</linearGradient>
<radialGradient id="paint1_radial_784_4763" cx="0" cy="0" r="1" gradientUnits="userSpaceOnUse" gradientTransform="translate(82.5282 6.9129) rotate(144.658) scale(77.7418 76.5279)">
<stop stop-color="#5DA1C2"/>
<stop offset="0.386505" stop-color="#3882B9"/>
<stop offset="0.993866" stop-color="#234964"/>
<stop offset="1" stop-color="#234964"/>
</radialGradient>
<linearGradient id="paint2_linear_784_4763" x1="113.769" y1="21.7181" x2="85.3548" y2="74.0625" gradientUnits="userSpaceOnUse">
<stop stop-color="#5DA1C2"/>
<stop offset="0.230087" stop-color="#1E4965"/>
<stop offset="0.361282" stop-color="#3882B9"/>
<stop offset="0.445206" stop-color="#5DA1C2"/>
<stop offset="0.540161" stop-color="#3882B9"/>
<stop offset="0.64389" stop-color="#1E4965"/>
<stop offset="0.710846" stop-color="#306187"/>
<stop offset="1" stop-color="#306187"/>
</linearGradient>
<radialGradient id="paint3_radial_784_4763" cx="0" cy="0" r="1" gradientUnits="userSpaceOnUse" gradientTransform="translate(88.5114 6.91686) rotate(144.658) scale(72.9581 71.8188)">
<stop stop-color="#5DA1C2"/>
<stop offset="0.386505" stop-color="#3882B9"/>
<stop offset="0.993866" stop-color="#234964"/>
<stop offset="1" stop-color="#234964"/>
</radialGradient>
<linearGradient id="paint4_linear_784_4763" x1="66.7054" y1="23.1791" x2="64.8019" y2="67.4461" gradientUnits="userSpaceOnUse">
<stop stop-color="#5DA1C2"/>
<stop offset="0.136459" stop-color="#1E4965"/>
<stop offset="0.361282" stop-color="#3882B9"/>
<stop offset="0.445206" stop-color="#5DA1C2"/>
<stop offset="0.540161" stop-color="#3882B9"/>
<stop offset="0.64389" stop-color="#1E4965"/>
<stop offset="0.710846" stop-color="#306187"/>
<stop offset="1" stop-color="#306187"/>
</linearGradient>
<radialGradient id="paint5_radial_784_4763" cx="0" cy="0" r="1" gradientUnits="userSpaceOnUse" gradientTransform="translate(88.6987 6.91713) rotate(144.658) scale(72.9607 71.8216)">
<stop stop-color="#5DA1C2"/>
<stop offset="0.386505" stop-color="#3882B9"/>
<stop offset="0.993866" stop-color="#234964"/>
<stop offset="1" stop-color="#234964"/>
</radialGradient>
</defs>
</svg>
