<svg width="158" height="80" viewBox="0 0 158 80" fill="none" xmlns="http://www.w3.org/2000/svg">
<path fill-rule="evenodd" clip-rule="evenodd" d="M21.4844 73.1183C13.5741 73.1183 7.16147 66.9562 7.16147 59.3548V38.7097H0V59.3548C0 70.7568 9.6189 80 21.4844 80C33.3499 80 42.9688 70.7568 42.9688 59.3548V38.7097H35.8074V59.3548C35.8074 66.9562 29.3948 73.1183 21.4844 73.1183ZM147.705 38.7097H140.544V80H147.705V38.7097ZM122.64 80V59.3548C122.64 51.7535 116.228 45.5914 108.317 45.5914C100.407 45.5914 93.9943 51.7535 93.9943 59.3548V80H86.8329V59.3548C86.8329 51.7535 80.4203 45.5914 72.5099 45.5914C64.5996 45.5914 58.187 51.7535 58.187 59.3548V80H51.0255V59.3548C51.0255 47.9528 60.6444 38.7097 72.5099 38.7097C79.9828 38.7097 86.5646 42.3759 90.4136 47.9388C94.2626 42.3759 100.844 38.7097 108.317 38.7097C120.183 38.7097 129.802 47.9528 129.802 59.3548V80H122.64ZM136.516 9.03226L130.249 31.3979L152.181 22.3656L136.516 9.03226Z" fill="#2D6087"/>
<path d="M158 0L136.516 9.03226L152.181 22.3656L158 0Z" fill="#FEB200"/>
</svg>
