<svg width="80" height="80" viewBox="0 0 80 80" fill="none" xmlns="http://www.w3.org/2000/svg">
<path d="M40.9422 57.857H39.4539V60.9517H40.9842C41.9714 60.9517 42.3791 60.1738 42.3538 59.3533C42.3313 58.553 42.0148 57.857 40.9422 57.857ZM40.0029 0C17.9084 0 0 17.9084 0 39.9993C0 62.0923 17.9084 80 40.0029 80C62.0916 80 80 62.0916 80 39.9993C80 17.9084 62.0916 0 40.0029 0ZM40.1615 11.2895C43.3178 11.2895 45.87 13.8512 45.87 17.0031C45.87 20.155 43.3185 22.7137 40.1615 22.7137C37.0096 22.7137 34.4523 20.155 34.4523 17.0031C34.4523 13.8512 37.0103 11.2895 40.1615 11.2895ZM40.1615 24.8278C43.3178 24.8278 45.87 27.3757 45.87 30.5327C45.87 33.6846 43.3185 36.2419 40.1615 36.2419C37.0096 36.2419 34.4523 33.6846 34.4523 30.5327C34.4523 27.3757 37.0103 24.8278 40.1615 24.8278ZM26.285 11.2895C29.4391 11.2895 31.9971 13.8512 31.9971 17.0031C31.9971 20.155 29.4398 22.7137 26.285 22.7137C23.128 22.7137 20.5729 20.155 20.5729 17.0031C20.5729 13.8512 23.128 11.2895 26.285 11.2895ZM26.285 24.8278C29.4391 24.8278 31.9971 27.3757 31.9971 30.5327C31.9971 33.6846 29.4398 36.2419 26.285 36.2419C23.128 36.2419 20.5729 33.6846 20.5729 30.5327C20.5729 27.3757 23.128 24.8278 26.285 24.8278ZM26.285 38.713C29.4391 38.713 31.9971 41.2703 31.9971 44.4237C31.9971 47.5756 29.4398 50.1329 26.285 50.1329C23.128 50.1329 20.5729 47.5756 20.5729 44.4237C20.5729 41.2703 23.128 38.713 26.285 38.713ZM33.0096 62.9969C33.0096 64.4027 32.9698 66.1343 31.1251 67.4358C29.92 68.2817 28.4939 68.457 27.2127 68.457C25.9258 68.457 24.5055 68.2817 23.2946 67.4358C21.4528 66.1343 21.4021 64.4027 21.4021 62.9969V54.9752H25.2471V62.9832C25.2616 63.7443 25.3319 64.344 25.9236 64.8278C26.3313 65.1675 26.6819 65.2776 27.2193 65.2834C27.74 65.2776 28.0905 65.1675 28.4954 64.8278C29.0842 64.344 29.1631 63.7443 29.1769 62.9832V54.9752H33.0103V62.9969H33.0096ZM40.1615 38.713C43.3178 38.713 45.87 41.2703 45.87 44.4237C45.87 47.5756 43.3185 50.1329 40.1615 50.1329C37.0096 50.1329 34.4523 47.5756 34.4523 44.4237C34.4523 41.2703 37.0103 38.713 40.1615 38.713ZM44.2318 63.1584C43.4988 63.6821 42.6681 63.8769 40.5294 63.8769L39.4177 63.8544V68.1774H36.0681V54.9752H41.5962C44.2919 54.9752 45.9576 56.5989 45.9576 59.5169C45.9576 61.082 45.3464 62.3893 44.2318 63.1584ZM58.0322 58.9658C56.717 57.8678 56.1992 57.9475 55.1722 57.9475C53.1689 57.9475 51.7769 59.4699 51.7769 61.6368C51.7769 63.8153 53.1885 65.3232 55.1888 65.3232C56.2752 65.3232 56.8126 65.1762 58.0322 64.2796V67.7002C56.7677 68.3172 56.0521 68.4925 54.8354 68.4925C50.8463 68.4925 48.0369 65.6578 48.0369 61.6375C48.0369 57.6527 50.9086 54.6993 54.7956 54.6993C55.987 54.6993 56.759 54.8919 58.0322 55.5097V58.9658ZM53.7179 50.1329C50.5609 50.1329 48.0058 47.5756 48.0058 44.4237C48.0058 41.2703 50.5602 38.713 53.7179 38.713C56.8669 38.713 59.43 41.2703 59.43 44.4237C59.43 47.5749 56.8669 50.1329 53.7179 50.1329ZM53.7179 36.2419C50.5609 36.2419 48.0058 33.6846 48.0058 30.5327C48.0058 27.3757 50.5602 24.8278 53.7179 24.8278C56.8669 24.8278 59.43 27.3757 59.43 30.5327C59.43 33.6846 56.8669 36.2419 53.7179 36.2419ZM53.7179 22.713C50.5609 22.713 48.0058 20.1543 48.0058 17.0024C48.0058 13.8504 50.5602 11.2888 53.7179 11.2888C56.8669 11.2888 59.43 13.8504 59.43 17.0024C59.43 20.1543 56.8669 22.713 53.7179 22.713Z" fill="#007BC0"/>
</svg>
