<?xml version="1.0" standalone="no"?>
<!DOCTYPE svg PUBLIC "-//W3C//DTD SVG 20010904//EN"
 "http://www.w3.org/TR/2001/REC-SVG-20010904/DTD/svg10.dtd">
<svg version="1.0" xmlns="http://www.w3.org/2000/svg"
 width="652.000000pt" height="652.000000pt" viewBox="0 0 652.000000 652.000000"
 preserveAspectRatio="xMidYMid meet">
<metadata>
Created by potrace 1.14, written by Peter Selinger 2001-2017
</metadata>
<g transform="translate(0.000000,652.000000) scale(0.100000,-0.100000)"
fill="#000000" stroke="none">
<path d="M652 6023 c-47 -23 -75 -67 -80 -127 -4 -57 18 -101 71 -140 28 -21
37 -21 535 -21 490 0 508 1 542 20 49 29 84 101 75 155 -4 22 -18 54 -32 71
-51 61 -35 59 -580 59 -438 0 -502 -2 -531 -17z"/>
<path d="M1972 6023 c-47 -23 -75 -67 -80 -127 -4 -57 18 -101 71 -140 28 -20
40 -21 480 -24 l452 -3 45 23 c33 17 51 35 68 68 39 75 18 146 -58 198 l-33
22 -456 0 c-400 0 -460 -2 -489 -17z"/>
<path d="M3202 6023 c-47 -23 -75 -67 -80 -127 -4 -57 18 -101 71 -140 28 -21
36 -21 723 -24 444 -2 708 1 732 8 21 5 53 25 72 45 29 30 34 43 38 92 3 48 0
64 -20 93 -49 73 -11 70 -798 70 -629 0 -709 -2 -738 -17z"/>
<path d="M670 5639 c-123 -49 -135 -216 -20 -283 34 -20 48 -21 565 -21 517 0
531 1 565 21 108 63 108 214 0 271 l-43 23 -521 -1 c-321 0 -531 -4 -546 -10z"/>
<path d="M3695 5636 c-37 -16 -82 -68 -91 -102 -10 -38 2 -104 24 -133 10 -14
34 -35 53 -46 33 -19 52 -20 674 -20 628 0 641 0 675 21 58 34 82 79 78 144
-5 67 -27 102 -84 130 -39 19 -59 20 -670 20 -500 -1 -635 -3 -659 -14z"/>
<path d="M677 5246 c-70 -26 -107 -76 -107 -146 0 -56 25 -106 69 -136 l36
-24 341 0 c338 0 341 0 375 23 97 65 91 211 -11 271 -33 20 -53 21 -350 23
-248 2 -323 0 -353 -11z"/>
<path d="M4107 5246 c-47 -17 -71 -38 -91 -81 -23 -48 -20 -102 9 -150 45 -77
27 -75 612 -75 486 0 520 1 553 19 42 22 80 90 80 140 0 48 -37 110 -80 135
-34 20 -51 21 -540 23 -408 2 -512 0 -543 -11z"/>
<path d="M670 4849 c-60 -24 -100 -85 -100 -151 0 -58 28 -108 76 -135 37 -22
50 -23 252 -23 243 0 265 5 309 71 22 33 25 47 21 99 -4 49 -10 66 -34 91 -51
55 -73 59 -296 58 -112 0 -214 -5 -228 -10z"/>
<path d="M2280 4838 c-111 -56 -119 -195 -16 -272 27 -20 41 -21 500 -24 l472
-3 34 23 c105 71 108 197 7 272 -28 20 -40 21 -490 24 l-462 2 -45 -22z"/>
<path d="M4364 4841 c-61 -28 -89 -73 -89 -143 0 -63 19 -97 75 -135 33 -23
35 -23 420 -23 385 0 387 0 420 23 57 38 75 71 75 137 0 63 -16 95 -69 134
-26 20 -41 21 -409 23 -356 3 -385 2 -423 -16z"/>
<path d="M652 4443 c-109 -54 -110 -214 -2 -277 33 -20 51 -21 315 -21 247 0
284 2 312 17 75 42 105 142 63 216 -12 22 -39 49 -60 61 -36 20 -51 21 -316
21 -238 0 -284 -3 -312 -17z"/>
<path d="M2290 4441 c-109 -57 -108 -212 0 -275 34 -21 48 -21 611 -21 l575 0
41 27 c29 19 46 40 58 72 30 78 7 144 -65 194 l-33 22 -576 0 c-542 0 -578 -1
-611 -19z"/>
<path d="M3764 4446 c-38 -17 -71 -57 -85 -105 -26 -89 43 -184 143 -196 29
-3 343 -5 698 -3 630 3 646 3 680 24 58 34 82 79 78 145 -5 65 -32 109 -82
133 -30 14 -107 16 -718 16 -549 -1 -689 -3 -714 -14z"/>
<path d="M693 4061 c-78 -20 -123 -77 -123 -155 0 -62 29 -110 81 -137 38 -19
56 -20 324 -17 270 3 285 4 312 24 54 40 75 83 71 142 -5 60 -28 97 -79 127
-31 18 -54 20 -294 22 -143 1 -275 -2 -292 -6z"/>
<path d="M2973 4060 c-83 -19 -126 -77 -121 -160 5 -67 27 -102 84 -130 40
-20 58 -20 1025 -20 939 0 986 1 1019 19 114 61 111 215 -5 279 -27 15 -118
17 -1000 19 -533 0 -985 -2 -1002 -7z"/>
<path d="M643 3649 c-117 -57 -116 -227 1 -280 38 -17 73 -19 436 -19 391 0
396 0 440 23 64 32 85 66 85 137 0 71 -21 105 -85 138 -44 22 -49 22 -440 22
-381 0 -397 -1 -437 -21z"/>
<path d="M3946 3660 c-16 -5 -40 -19 -53 -32 -79 -73 -70 -186 20 -252 28 -21
37 -21 522 -21 483 0 494 0 521 21 53 39 69 71 69 134 0 63 -16 95 -69 134
-27 20 -40 21 -504 23 -262 1 -490 -2 -506 -7z"/>
<path d="M634 3251 c-124 -75 -99 -252 41 -290 54 -15 617 -15 670 0 80 22
136 115 115 188 -13 47 -36 79 -73 101 -30 19 -53 20 -377 20 -320 0 -347 -1
-376 -19z"/>
<path d="M1600 3251 c-40 -21 -80 -89 -80 -135 1 -51 34 -111 76 -137 39 -24
42 -24 300 -24 l260 0 37 25 c50 34 81 98 74 152 -6 48 -30 84 -77 116 -32 21
-40 22 -294 22 -235 0 -265 -2 -296 -19z"/>
<path d="M4242 3250 c-101 -62 -97 -213 8 -274 34 -20 49 -21 490 -21 441 0
456 1 490 21 105 61 109 212 8 274 -32 19 -52 20 -498 20 -446 0 -466 -1 -498
-20z"/>
<path d="M663 2869 c-101 -30 -143 -170 -76 -250 52 -61 23 -59 711 -59 l629
0 33 23 c48 32 72 69 77 118 6 57 -28 126 -77 154 -34 19 -53 20 -650 22 -359
1 -628 -2 -647 -8z"/>
<path d="M2200 2858 c-59 -31 -82 -66 -87 -130 -5 -65 24 -122 77 -149 33 -18
69 -19 598 -19 500 0 568 2 598 16 50 24 77 68 82 133 5 70 -22 115 -88 149
l-44 22 -546 0 -546 0 -44 -22z"/>
<path d="M4361 2858 c-66 -34 -86 -67 -86 -141 0 -48 5 -69 22 -93 46 -65 40
-64 573 -64 526 0 512 -2 563 60 58 68 38 183 -41 232 l-37 23 -475 3 -475 3
-44 -23z"/>
<path d="M640 2457 c-76 -50 -97 -150 -48 -225 45 -67 67 -72 310 -72 188 0
217 2 248 19 44 23 76 69 85 122 9 51 -26 125 -74 156 -33 22 -42 23 -261 23
-219 0 -228 -1 -260 -23z"/>
<path d="M2285 2470 c-60 -25 -99 -94 -93 -162 5 -52 27 -89 72 -122 27 -21
37 -21 596 -21 559 0 569 0 596 21 53 39 69 71 69 134 0 66 -18 99 -75 138
l-33 22 -556 -1 c-306 0 -565 -4 -576 -9z"/>
<path d="M4422 2463 c-49 -24 -75 -68 -80 -132 -4 -65 19 -109 77 -148 l34
-23 489 0 c466 0 491 1 527 20 108 54 114 208 11 277 l-33 23 -496 0 c-436 0
-500 -2 -529 -17z"/>
<path d="M664 2071 c-75 -34 -115 -113 -95 -187 13 -50 62 -101 110 -115 23
-6 134 -9 308 -7 257 3 273 4 300 24 102 76 98 216 -7 278 -33 20 -53 21 -305
24 -247 2 -274 1 -311 -17z"/>
<path d="M4307 2076 c-47 -17 -71 -38 -91 -81 -34 -70 -13 -153 50 -201 l37
-29 551 -3 c367 -2 563 0 587 8 80 23 132 116 110 192 -16 53 -63 102 -109
116 -61 18 -1084 16 -1135 -2z"/>
<path d="M646 1667 c-52 -29 -80 -77 -80 -137 0 -63 29 -109 84 -138 l45 -22
542 2 c532 3 542 3 570 24 98 73 98 195 0 268 -28 21 -38 21 -575 23 l-547 3
-39 -23z"/>
<path d="M4015 1676 c-94 -41 -124 -168 -58 -247 51 -61 32 -59 739 -59 719 0
688 -3 742 68 38 50 38 134 0 184 -54 71 -23 68 -745 68 -516 -1 -654 -3 -678
-14z"/>
<path d="M654 1276 c-38 -17 -71 -57 -85 -105 -23 -77 30 -169 111 -191 26 -7
354 -10 997 -8 l958 3 37 23 c39 24 78 91 78 133 0 39 -42 112 -79 136 l-34
23 -976 0 c-794 -1 -982 -3 -1007 -14z"/>
<path d="M2930 1271 c-65 -35 -94 -100 -78 -176 11 -49 60 -102 108 -115 21
-6 240 -10 540 -10 505 0 506 0 550 23 59 29 93 92 87 156 -5 49 -29 86 -77
119 l-33 22 -531 0 c-498 0 -533 -1 -566 -19z"/>
<path d="M4279 1268 c-54 -30 -83 -87 -77 -150 6 -61 31 -96 88 -125 44 -23
49 -23 460 -23 242 0 429 4 449 10 47 13 99 66 112 112 12 46 -1 103 -33 143
-42 54 -50 55 -525 55 -427 0 -439 -1 -474 -22z"/>
<path d="M640 868 c-55 -38 -74 -72 -74 -133 0 -79 48 -136 130 -155 51 -12
1307 -12 1358 0 142 32 176 207 56 287 l-33 23 -702 0 -702 0 -33 -22z"/>
<path d="M2370 868 c-97 -67 -90 -219 13 -276 29 -15 86 -17 657 -20 344 -2
648 0 677 3 161 19 214 205 83 292 l-33 23 -682 0 -682 0 -33 -22z"/>
<path d="M3989 866 c-93 -64 -91 -201 4 -264 l41 -27 440 0 c427 0 442 1 476
21 105 61 109 212 8 274 -32 19 -52 20 -483 20 l-450 0 -36 -24z"/>
<path d="M655 484 c-46 -24 -63 -43 -81 -90 -27 -71 2 -153 68 -194 32 -20 53
-20 1039 -20 l1006 0 34 23 c106 71 106 203 0 274 l-34 23 -1001 0 c-888 0
-1004 -2 -1031 -16z"/>
<path d="M2928 480 c-101 -54 -110 -204 -16 -272 l33 -23 665 -3 c650 -2 666
-2 698 18 97 59 104 199 14 268 l-35 27 -661 2 c-637 2 -662 2 -698 -17z"/>
</g>
</svg>
