<svg width="159" height="168" viewBox="0 0 159 168" fill="none" xmlns="http://www.w3.org/2000/svg">
<path d="M79.2553 0.212402L0.527466 27.9687L12.9685 131.302L79.3391 167.847L146.052 130.807L158.488 27.4775L79.2553 0.212402Z" fill="#B3B3B3"/>
<path d="M150.635 33.4494L79.0715 9.00098V159.116L139.045 125.864L150.635 33.4494Z" fill="#A6120D"/>
<path d="M9.36194 33.89L20.0226 126.305L79.0706 159.116V8.99805L9.36194 33.89Z" fill="#DD1B16"/>
<path d="M98.7704 88.9143L79.0715 98.1426H58.3092L48.5492 122.599L30.3956 122.935L79.0715 14.452L98.7704 88.9143ZM96.8662 84.2683L79.202 49.2352L64.713 83.6654H79.0706L96.8662 84.2683Z" fill="#F2F2F2"/>
<path d="M79.0706 14.452L79.201 49.2352L95.6418 83.6921H79.1077L79.0706 98.1207L101.933 98.1426L112.619 122.939L129.989 123.262L79.0706 14.452Z" fill="#B3B3B3"/>
</svg>
