<svg width="61" height="64" viewBox="0 0 61 64" fill="none" xmlns="http://www.w3.org/2000/svg">
<path d="M30.409 2L2 11.9346L6.48935 48.9198L30.4392 62L54.5124 48.7426L59 11.7587L30.409 2Z" fill="#B3B3B3"/>
<path d="M56 13.7947L30 5V59L51.7892 47.0384L56 13.7947Z" fill="#A6120D"/>
<path d="M5 13.9541L8.82328 47.1974L30 59V5L5 13.9541Z" fill="#DD1B16"/>
<path d="M37 33.7694L30.0856 37.0869H22.7978L19.372 45.879L13 46L30.0856 7L37 33.7694ZM36.3316 32.0991L30.1314 19.5046L25.0456 31.8824H30.0852L36.3316 32.0991Z" fill="#F2F2F2"/>
<path d="M30 7L30.0487 19.4671L36.1835 31.8173H30.0139L30 36.9889L38.5312 36.9967L42.5184 45.8844L49 46L30 7Z" fill="#B3B3B3"/>
</svg>
