<svg width="352" height="176" viewBox="0 0 352 176" fill="none" xmlns="http://www.w3.org/2000/svg">
<path fill-rule="evenodd" clip-rule="evenodd" d="M128.151 50.6528L87.0203 26.2387C82.151 23.3523 76.0936 23.3523 71.2214 26.2387L30.0902 50.6528C27.6445 52.1112 25.6207 54.1813 24.2181 56.6594C22.8155 59.1375 22.0824 61.9381 22.091 64.7856V113.614C22.0751 116.455 22.7976 119.251 24.1875 121.728C25.5774 124.206 27.5871 126.28 30.0198 127.747L71.151 152.161C76.0203 155.047 82.0776 155.047 86.9499 152.161L128.081 127.747C130.514 126.28 132.523 124.206 133.913 121.728C135.303 119.251 136.026 116.455 136.01 113.614V64.7856C136.033 61.9519 135.322 59.1605 133.945 56.6836C132.569 54.2067 130.573 52.1289 128.154 50.6528H128.151ZM96.3014 126.896V130.401C96.2986 130.617 96.2418 130.828 96.1363 131.017C96.0307 131.205 95.8797 131.363 95.6971 131.478L93.6438 132.669C93.3123 132.845 93.0395 132.669 93.0395 132.208V128.762C91.5672 129.484 89.883 129.647 88.2992 129.222C88.047 129.052 87.9472 128.723 88.0704 128.448L88.8184 125.274C88.8821 125.006 89.0277 124.765 89.235 124.585C89.2936 124.526 89.3611 124.479 89.4403 124.438C89.5459 124.391 89.6662 124.391 89.7718 124.438C91.2242 124.826 92.7711 124.631 94.0808 123.892C95.011 123.437 95.801 122.739 96.3674 121.872C96.9338 121.006 97.2556 120.002 97.2987 118.967C97.2987 117.187 96.3219 116.439 93.9664 116.424C90.9803 116.424 88.223 115.849 88.1496 111.437C88.22 107.624 89.9888 104.045 92.975 101.669V98.1493C92.972 97.7093 93.2008 97.2928 93.5792 97.0581L95.5886 95.7792C95.92 95.6032 96.1928 95.7792 96.1928 96.2544V99.7744C97.4209 99.2009 98.8 99.0344 100.129 99.2992C100.417 99.4635 100.528 99.8184 100.387 100.121L99.6835 103.265C99.624 103.504 99.5002 103.722 99.3256 103.896C99.2657 103.959 99.1964 104.012 99.1203 104.054C99.0217 104.084 98.9167 104.084 98.8182 104.054C97.5215 103.77 96.1654 103.99 95.0254 104.67C93.3328 105.403 92.2094 107.017 92.1507 108.894C92.1507 110.502 93.0307 110.991 95.8408 111.047C99.6454 111.047 101.285 112.772 101.326 116.621C101.291 118.597 100.825 120.541 99.9618 122.319C99.0986 124.097 97.8585 125.666 96.3278 126.917L96.3014 126.896ZM117.844 120.994C117.868 121.142 117.851 121.294 117.795 121.433C117.74 121.572 117.647 121.693 117.527 121.783L107.125 128.099C107.026 128.187 106.882 128.195 106.773 128.128C106.665 128.061 106.609 127.923 106.638 127.799V125.113C106.653 124.819 106.838 124.526 107.114 124.453L117.38 118.293C117.48 118.205 117.624 118.196 117.732 118.263C117.841 118.331 117.897 118.469 117.867 118.592V120.962L117.844 120.994ZM125.025 60.9488L86.1051 84.9904C81.2504 87.8651 77.6747 91.0037 77.6747 96.8528V144.789C77.6747 148.295 79.1414 150.533 81.2651 151.222C80.555 151.356 79.8346 151.428 79.112 151.436C76.8263 151.431 74.584 150.811 72.6206 149.641L31.4894 125.253C29.4918 124.044 27.8414 122.339 26.6987 120.303C25.5559 118.267 24.9599 115.969 24.9686 113.634V64.7856C24.9574 62.4483 25.5522 60.1479 26.695 58.109C27.8379 56.0701 29.4897 54.3622 31.4894 53.152L72.6206 28.7379C74.5766 27.5782 76.8087 26.9663 79.0827 26.9663C81.3567 26.9663 83.5887 27.5782 85.5448 28.7379L126.676 53.152C128.351 54.165 129.784 55.5319 130.876 57.1568C131.967 58.7817 132.69 60.6255 132.994 62.5592C131.66 59.6259 128.586 58.8544 125.01 60.9517H125.025V60.9488ZM189.276 91.0947C188.233 89.8387 186.991 88.7617 185.601 87.9061L185.073 87.5893C186.184 86.849 187.189 85.9597 188.059 84.9464C189.977 82.7053 191.036 79.8541 191.045 76.9032C191.133 74.3595 190.533 71.8391 189.309 69.608C188.153 67.5953 186.545 65.8791 184.612 64.5949C182.631 63.2697 180.434 62.298 178.121 61.7232C175.771 61.1402 173.361 60.8321 170.94 60.8051H154.455C154.184 60.7972 153.914 60.8438 153.662 60.9419C153.41 61.0401 153.18 61.188 152.985 61.3767C152.791 61.5655 152.637 61.7912 152.532 62.0407C152.426 62.2902 152.372 62.5582 152.372 62.8291V115.512C152.377 115.779 152.436 116.043 152.543 116.287C152.651 116.532 152.806 116.753 153 116.937C153.194 117.122 153.422 117.266 153.672 117.362C153.921 117.457 154.187 117.502 154.455 117.495H172.187C174.717 117.473 177.232 117.091 179.655 116.359C181.997 115.654 184.206 114.564 186.19 113.133C188.112 111.705 189.696 109.871 190.828 107.762C192.019 105.478 192.608 102.927 192.538 100.352C192.548 98.6387 192.256 96.9367 191.676 95.3245C191.12 93.7999 190.309 92.3813 189.276 91.1299V91.0947ZM179.227 79.4933C178.763 80.2853 178.141 80.9717 177.387 81.5027C176.554 82.0952 175.627 82.5411 174.645 82.8227C173.586 83.1344 172.49 83.3031 171.386 83.3243H163.601V70.576H171.098C172.293 70.5954 173.482 70.7449 174.645 71.0219C175.635 71.2431 176.578 71.6373 177.431 72.1864C178.155 72.6606 178.755 73.3001 179.183 74.052C179.65 74.9346 179.873 75.9261 179.828 76.9237C179.841 77.8284 179.613 78.7203 179.168 79.508L179.227 79.5227V79.4933ZM163.659 92.8488H172.753C173.961 92.8843 175.158 93.0817 176.314 93.4355C177.303 93.7385 178.22 94.2373 179.013 94.9021C179.752 95.5217 180.345 96.297 180.749 97.1725C181.189 98.1709 181.395 99.2563 181.353 100.346C181.377 101.411 181.148 102.464 180.679 103.421C180.23 104.301 179.593 105.078 178.813 105.691C177.948 106.357 176.976 106.873 175.938 107.216C174.812 107.592 173.636 107.791 172.418 107.803H163.68V92.8517L163.659 92.8488ZM223.455 62.2746C223.317 61.8556 223.051 61.4897 222.696 61.2272C222.341 60.9646 221.914 60.8182 221.473 60.808H215.585C215.141 60.8047 214.707 60.9459 214.349 61.2104C213.992 61.4749 213.729 61.8484 213.602 62.2746L195.721 114.91C195.515 115.512 195.633 116.172 196.023 116.676C196.222 116.933 196.476 117.14 196.768 117.282C197.059 117.423 197.38 117.496 197.704 117.495H204.744C205.189 117.498 205.622 117.357 205.98 117.092C206.338 116.828 206.6 116.454 206.727 116.028L210.716 103.796H226.125L230.047 116.028C230.325 116.893 231.132 117.477 232.041 117.495H239.034C239.689 117.501 240.307 117.201 240.715 116.691C241.105 116.192 241.22 115.526 241.017 114.925L223.453 62.2717L223.455 62.2746ZM222.995 94.0867H213.902L218.483 79.9685L222.992 94.0867H222.995ZM283.287 93.1187C282.332 91.8971 281.221 90.8054 279.984 89.8715C278.752 88.9414 277.445 88.1152 276.077 87.4016C274.68 86.68 273.243 86.0523 271.765 85.5067L267.453 84.04L263.575 82.808C262.352 82.392 261.178 81.8483 260.069 81.1859C259.139 80.6403 258.324 79.9187 257.67 79.0592C257.109 78.2727 256.817 77.3263 256.837 76.3605C256.808 75.4009 257.031 74.4505 257.482 73.6032C257.94 72.7984 258.561 72.0988 259.307 71.5499C260.142 70.9549 261.075 70.512 262.064 70.2416C264.39 69.5757 266.863 69.6549 269.163 70.3883C270.202 70.7448 271.16 71.3064 271.979 72.0397C272.761 72.773 273.395 73.6505 273.844 74.624C274.364 75.7583 274.708 76.965 274.865 78.2027C274.944 78.6911 275.197 79.1345 275.577 79.4514C275.957 79.7683 276.438 79.9373 276.933 79.9275H284.114C284.65 79.9178 285.163 79.7074 285.551 79.3379C285.941 78.9624 286.155 78.4432 286.138 77.8712C286.112 75.2945 285.476 72.7605 284.284 70.4762C283.13 68.3044 281.541 66.3933 279.617 64.8618C277.667 63.3165 275.466 62.116 273.111 61.3125C268.324 59.7202 263.162 59.6485 258.333 61.1072C256.02 61.7579 253.835 62.7975 251.871 64.1813C249.972 65.5479 248.378 67.294 247.189 69.3088C245.951 71.4462 245.316 73.8791 245.35 76.3488C245.301 78.7868 245.948 81.1883 247.215 83.2715C248.437 85.208 250.016 86.8944 251.868 88.2405C253.712 89.597 255.713 90.7257 257.828 91.6021C259.837 92.4535 261.888 93.2015 263.974 93.8432L268.095 95.1925C269.351 95.6218 270.556 96.1905 271.685 96.888C272.63 97.4633 273.446 98.226 274.085 99.129C274.662 100.015 274.948 101.059 274.903 102.115C274.94 103.072 274.701 104.019 274.214 104.843C273.715 105.641 273.049 106.325 272.26 106.838C271.38 107.406 270.409 107.819 269.389 108.058C266.866 108.645 264.22 108.627 261.721 107.911C260.571 107.573 259.495 107.023 258.547 106.289C257.639 105.568 256.882 104.675 256.321 103.661C255.702 102.515 255.304 101.264 255.147 99.9709C255.068 99.4825 254.815 99.0391 254.435 98.7222C254.055 98.4053 253.574 98.2362 253.079 98.2461H245.901C245.363 98.2598 244.85 98.4755 244.464 98.8504C244.074 99.2259 243.86 99.7451 243.877 100.317C243.921 102.998 244.655 105.597 246.004 107.944C247.301 110.132 249.031 112.033 251.087 113.532C253.199 115.063 255.555 116.23 258.054 116.978C260.6 117.759 263.246 118.152 265.91 118.152C268.335 118.146 270.749 117.823 273.09 117.19C275.419 116.597 277.637 115.626 279.652 114.315C281.612 113.013 283.272 111.311 284.522 109.317C285.84 107.157 286.518 104.666 286.475 102.136C286.493 100.458 286.182 98.7917 285.654 97.2077C285.092 95.7056 284.292 94.3041 283.284 93.0571L283.287 93.1187ZM329.428 60.896H322.778C322.512 60.8842 322.246 60.925 321.996 61.0161C321.746 61.1073 321.516 61.2469 321.32 61.427C321.123 61.6072 320.965 61.8242 320.853 62.0658C320.74 62.3074 320.677 62.5688 320.666 62.8349V83.5296H302.139V62.832C302.134 62.5647 302.076 62.301 301.968 62.0563C301.86 61.8116 301.705 61.5907 301.511 61.4063C301.318 61.222 301.089 61.0778 300.84 60.9821C300.59 60.8865 300.324 60.8412 300.057 60.849H293.436C293.169 60.8412 292.903 60.8865 292.653 60.9821C292.403 61.0778 292.175 61.222 291.981 61.4063C291.788 61.5907 291.632 61.8116 291.525 62.0563C291.417 62.301 291.359 62.5647 291.353 62.832V115.515C291.359 115.782 291.417 116.046 291.525 116.29C291.632 116.535 291.788 116.756 291.981 116.94C292.175 117.125 292.403 117.269 292.653 117.365C292.903 117.46 293.169 117.505 293.436 117.498H300.057C300.324 117.505 300.59 117.46 300.84 117.365C301.089 117.269 301.318 117.125 301.511 116.94C301.705 116.756 301.86 116.535 301.968 116.29C302.076 116.046 302.134 115.782 302.139 115.515V93.1539H320.666V115.515C320.671 115.782 320.73 116.046 320.837 116.29C320.945 116.535 321.1 116.756 321.294 116.94C321.488 117.125 321.716 117.269 321.966 117.365C322.215 117.46 322.482 117.505 322.749 117.498H329.428C329.695 117.505 329.961 117.46 330.211 117.365C330.461 117.269 330.689 117.125 330.883 116.94C331.076 116.756 331.232 116.535 331.339 116.29C331.447 116.046 331.505 115.782 331.511 115.515V62.832C331.489 62.2998 331.257 61.7977 330.868 61.4348C330.478 61.0718 329.96 60.8772 329.428 60.8931V60.896Z" fill="#1B1B1F"/>
</svg>
