<svg width="129" height="65" viewBox="0 0 129 65" fill="none" xmlns="http://www.w3.org/2000/svg">
<path fill-rule="evenodd" clip-rule="evenodd" d="M46.9646 18.707L31.8909 9.69037C30.1064 8.62437 27.8865 8.62437 26.101 9.69037L11.0273 18.707C10.131 19.2456 9.38937 20.0101 8.87535 20.9253C8.36133 21.8405 8.09266 22.8748 8.0958 23.9265V41.9596C8.08999 43.0087 8.35475 44.0414 8.86413 44.9564C9.37351 45.8714 10.11 46.6373 11.0015 47.1791L26.0752 56.1957C27.8597 57.2617 30.0795 57.2617 31.8651 56.1957L46.9388 47.1791C47.8303 46.6373 48.5668 45.8714 49.0762 44.9564C49.5855 44.0414 49.8503 43.0087 49.8445 41.9596V23.9265C49.8531 22.8799 49.5924 21.849 49.0879 20.9342C48.5833 20.0195 47.8521 19.2521 46.9656 18.707H46.9646ZM35.2922 46.8649V48.1595C35.2912 48.2392 35.2704 48.3173 35.2317 48.3867C35.193 48.4562 35.1377 48.5148 35.0708 48.5571L34.3183 48.9969C34.1968 49.0619 34.0968 48.9969 34.0968 48.8269V47.5539C33.5573 47.8206 32.94 47.881 32.3596 47.724C32.2672 47.6612 32.2306 47.5399 32.2758 47.438L32.5499 46.2659C32.5732 46.1671 32.6266 46.078 32.7025 46.0113C32.724 45.9896 32.7488 45.9723 32.7778 45.9571C32.8165 45.9398 32.8606 45.9398 32.8993 45.9571C33.4316 46.1006 33.9985 46.0283 34.4785 45.7556C34.8193 45.5876 35.1089 45.3298 35.3164 45.0097C35.524 44.6895 35.6419 44.3188 35.6577 43.9367C35.6577 43.2791 35.2997 43.0029 34.4365 42.9974C33.3422 42.9974 32.3317 42.7851 32.3048 41.1558C32.3306 39.7475 32.9788 38.4258 34.0732 37.5483V36.2483C34.0721 36.0858 34.1559 35.932 34.2946 35.8453L35.031 35.373C35.1525 35.308 35.2524 35.373 35.2524 35.5485V36.8485C35.7025 36.6367 36.2079 36.5752 36.6951 36.673C36.8004 36.7336 36.8413 36.8647 36.7897 36.9763L36.5317 38.1376C36.5099 38.2259 36.4645 38.3064 36.4005 38.3705C36.3786 38.3938 36.3532 38.4135 36.3253 38.429C36.2892 38.4399 36.2507 38.4399 36.2146 38.429C35.7394 38.3241 35.2424 38.4054 34.8246 38.6565C34.2043 38.9274 33.7926 39.5232 33.7711 40.2165C33.7711 40.8102 34.0936 40.9911 35.1234 41.0117C36.5177 41.0117 37.1186 41.6487 37.1337 43.07C37.1206 43.7999 36.95 44.5181 36.6337 45.1747C36.3173 45.8314 35.8629 46.4108 35.3019 46.8725L35.2922 46.8649ZM43.187 44.6853C43.1959 44.7399 43.1898 44.7959 43.1693 44.8473C43.1488 44.8987 43.1148 44.9434 43.0709 44.9767L39.259 47.3091C39.2224 47.3416 39.1698 47.3449 39.13 47.3199C39.0902 47.295 39.0698 47.2441 39.0805 47.1986V46.2063C39.0859 46.0979 39.1536 45.9896 39.2547 45.9625L43.0172 43.6875C43.0537 43.655 43.1064 43.6518 43.1462 43.6767C43.1859 43.7016 43.2064 43.7525 43.1956 43.798V44.6734L43.187 44.6853ZM45.8186 22.5095L31.5555 31.3885C29.7764 32.4501 28.466 33.6093 28.466 35.7695V53.4733C28.466 54.7679 29.0035 55.5944 29.7818 55.849C29.5216 55.8986 29.2575 55.9251 28.9927 55.9281C28.155 55.9263 27.3333 55.6973 26.6137 55.2651L11.5401 46.2583C10.8081 45.8118 10.2032 45.1819 9.78442 44.4299C9.36564 43.6779 9.1472 42.8295 9.15037 41.9672V23.9265C9.14627 23.0632 9.36427 22.2137 9.78309 21.4607C10.2019 20.7077 10.8073 20.0769 11.5401 19.63L26.6137 10.6134C27.3306 10.1851 28.1486 9.95911 28.982 9.95911C29.8153 9.95911 30.6333 10.1851 31.3502 10.6134L46.4238 19.63C47.0377 20.0041 47.5629 20.5089 47.9629 21.109C48.3629 21.7091 48.6279 22.3901 48.7394 23.1042C48.2503 22.0209 47.1237 21.736 45.8132 22.5105H45.8186V22.5095ZM69.3654 33.6429C68.9831 33.179 68.5281 32.7813 68.0184 32.4653L67.8249 32.3483C68.2323 32.0749 68.6005 31.7464 68.9193 31.3722C69.6223 30.5445 70.0104 29.4915 70.0136 28.4017C70.046 27.4623 69.8262 26.5314 69.3773 25.7075C68.9538 24.9641 68.3646 24.3303 67.6562 23.856C66.93 23.3666 66.1251 23.0077 65.2772 22.7955C64.416 22.5801 63.5329 22.4663 62.6456 22.4564H56.6041C56.5049 22.4535 56.4061 22.4707 56.3136 22.5069C56.2211 22.5432 56.1368 22.5978 56.0656 22.6675C55.9945 22.7372 55.9379 22.8206 55.8993 22.9127C55.8607 23.0049 55.8408 23.1039 55.8408 23.2039V42.6605C55.8428 42.7593 55.8641 42.8566 55.9036 42.947C55.9431 43.0374 56 43.119 56.071 43.1871C56.1419 43.2551 56.2256 43.3084 56.3171 43.3437C56.4086 43.379 56.5061 43.3957 56.6041 43.3929H63.1025C64.0299 43.385 64.9515 43.2438 65.8394 42.9736C66.6979 42.7132 67.5074 42.3104 68.2345 41.782C68.9389 41.2547 69.5192 40.5775 69.9341 39.7984C70.3707 38.9548 70.5864 38.0129 70.5608 37.0619C70.5646 36.429 70.4576 35.8005 70.2448 35.205C70.0413 34.642 69.7439 34.1181 69.3654 33.6559V33.6429ZM65.6825 29.3583C65.5126 29.6508 65.2847 29.9043 65.0084 30.1004C64.7031 30.3192 64.3634 30.4839 64.0033 30.5879C63.6152 30.703 63.2135 30.7653 62.809 30.7731H59.9559V26.065H62.7036C63.1415 26.0721 63.5773 26.1273 64.0033 26.2296C64.3662 26.3113 64.7119 26.4569 65.0246 26.6597C65.2897 26.8349 65.5096 27.071 65.6663 27.3487C65.8376 27.6747 65.9192 28.0408 65.9028 28.4093C65.9076 28.7434 65.8241 29.0728 65.661 29.3637L65.6825 29.3691V29.3583ZM59.9774 34.2907H63.3099C63.7526 34.3038 64.1915 34.3767 64.615 34.5074C64.9774 34.6193 65.3137 34.8035 65.604 35.049C65.8749 35.2778 66.0922 35.5642 66.2404 35.8875C66.4015 36.2563 66.4773 36.6571 66.4618 37.0597C66.4704 37.453 66.3866 37.8419 66.2146 38.195C66.0501 38.52 65.8168 38.8071 65.5309 39.0335C65.2137 39.2797 64.8575 39.4702 64.4774 39.5969C64.0646 39.7355 63.6335 39.8092 63.1874 39.8135H59.985V34.2918L59.9774 34.2907ZM81.8913 22.9991C81.8404 22.8443 81.7432 22.7092 81.6131 22.6123C81.483 22.5153 81.3264 22.4612 81.1646 22.4575H79.0071C78.8441 22.4562 78.6851 22.5084 78.5541 22.6061C78.423 22.7038 78.327 22.8417 78.2804 22.9991L71.7272 42.4385C71.6519 42.6605 71.6949 42.9043 71.8379 43.0906C71.9107 43.1853 72.0041 43.2618 72.1109 43.3142C72.2177 43.3666 72.3351 43.3935 72.4539 43.3929H75.0339C75.1969 43.3941 75.3559 43.3419 75.4869 43.2442C75.618 43.1466 75.714 43.0086 75.7606 42.8512L77.2226 38.3337H82.8696L84.3069 42.8512C84.409 43.1708 84.7046 43.3864 85.0379 43.3929H87.6006C87.8404 43.395 88.0672 43.2845 88.2166 43.096C88.3596 42.9119 88.4015 42.666 88.3273 42.4439L81.8903 22.998L81.8913 22.9991ZM81.7226 34.7479H78.39L80.0692 29.5338L81.7215 34.7479H81.7226ZM103.818 34.3904C103.468 33.9392 103.061 33.5361 102.608 33.1911C102.156 32.8476 101.677 32.5425 101.176 32.279C100.664 32.0125 100.137 31.7806 99.5955 31.5791L98.0153 31.0375L96.5941 30.5825C96.1462 30.4288 95.7156 30.228 95.3095 29.9834C94.9687 29.7819 94.6699 29.5154 94.4301 29.198C94.2246 28.9075 94.1175 28.558 94.1248 28.2013C94.1144 27.8469 94.1959 27.4959 94.3613 27.183C94.529 26.8857 94.7568 26.6273 95.03 26.4246C95.336 26.2049 95.678 26.0413 96.0405 25.9415C96.8929 25.6955 97.7992 25.7248 98.642 25.9956C99.023 26.1273 99.3739 26.3347 99.674 26.6055C99.9607 26.8764 100.193 27.2004 100.358 27.56C100.548 27.9789 100.674 28.4245 100.732 28.8816C100.761 29.062 100.853 29.2258 100.993 29.3428C101.132 29.4598 101.308 29.5223 101.49 29.5186H104.121C104.318 29.515 104.506 29.4373 104.648 29.3009C104.791 29.1622 104.869 28.9705 104.863 28.7592C104.853 27.8076 104.621 26.8718 104.184 26.0281C103.761 25.226 103.179 24.5202 102.473 23.9546C101.758 23.3839 100.952 22.9405 100.089 22.6438C98.3347 22.0557 96.4428 22.0292 94.6731 22.568C93.8255 22.8083 93.0246 23.1922 92.3048 23.7033C91.609 24.208 91.0248 24.8528 90.5891 25.597C90.1355 26.3863 89.9026 27.2848 89.9151 28.197C89.8971 29.0974 90.1343 29.9843 90.5988 30.7536C91.0464 31.4688 91.625 32.0916 92.3038 32.5888C92.9796 33.0898 93.7131 33.5066 94.4882 33.8303C95.2244 34.1447 95.9761 34.421 96.7403 34.658L98.2507 35.1563C98.7111 35.3148 99.1525 35.5249 99.5665 35.7825C99.9126 35.9949 100.212 36.2766 100.446 36.6101C100.657 36.9373 100.762 37.3228 100.746 37.713C100.759 38.0663 100.672 38.416 100.493 38.7205C100.31 39.0151 100.066 39.2675 99.7772 39.4571C99.4546 39.6669 99.0986 39.8194 98.7247 39.9078C97.8002 40.1245 96.8306 40.1179 95.9147 39.8536C95.4933 39.7287 95.0989 39.5255 94.7515 39.2545C94.4188 38.9883 94.1415 38.6584 93.9356 38.2839C93.709 37.8607 93.5632 37.3984 93.5056 36.921C93.4767 36.7407 93.384 36.5769 93.2448 36.4599C93.1055 36.3428 92.929 36.2804 92.7477 36.284H90.1172C89.9201 36.2891 89.732 36.3687 89.5905 36.5072C89.4475 36.6459 89.369 36.8376 89.3755 37.0489C89.3916 38.039 89.6603 38.9989 90.1548 39.8655C90.63 40.6737 91.2642 41.3757 92.0178 41.9293C92.7918 42.4948 93.655 42.926 94.5709 43.2022C95.504 43.4904 96.4737 43.6355 97.4498 43.6355C98.3386 43.6335 99.2234 43.514 100.081 43.2802C100.935 43.0614 101.748 42.7028 102.486 42.2185C103.204 41.7375 103.813 41.1092 104.271 40.3725C104.754 39.5748 105.002 38.6551 104.987 37.7205C104.993 37.1009 104.879 36.4855 104.686 35.9005C104.48 35.3458 104.187 34.8282 103.817 34.3676L103.818 34.3904ZM120.728 22.49H118.291C118.193 22.4856 118.096 22.5007 118.004 22.5343C117.912 22.568 117.828 22.6196 117.756 22.6861C117.684 22.7526 117.626 22.8328 117.585 22.922C117.544 23.0112 117.521 23.1077 117.517 23.206V30.849H110.727V23.205C110.725 23.1062 110.704 23.0089 110.664 22.9185C110.625 22.8281 110.568 22.7465 110.497 22.6784C110.426 22.6103 110.342 22.5571 110.251 22.5218C110.159 22.4864 110.062 22.4697 109.964 22.4726H107.538C107.44 22.4697 107.342 22.4864 107.251 22.5218C107.159 22.5571 107.075 22.6103 107.004 22.6784C106.934 22.7465 106.877 22.8281 106.837 22.9185C106.798 23.0089 106.776 23.1062 106.774 23.205V42.6616C106.776 42.7603 106.798 42.8577 106.837 42.9481C106.877 43.0385 106.934 43.12 107.004 43.1881C107.075 43.2562 107.159 43.3095 107.251 43.3448C107.342 43.3801 107.44 43.3968 107.538 43.394H109.964C110.062 43.3968 110.159 43.3801 110.251 43.3448C110.342 43.3095 110.426 43.2562 110.497 43.1881C110.568 43.12 110.625 43.0385 110.664 42.9481C110.704 42.8577 110.725 42.7603 110.727 42.6616V34.4034H117.517V42.6616C117.519 42.7603 117.54 42.8577 117.58 42.9481C117.619 43.0385 117.676 43.12 117.747 43.1881C117.818 43.2562 117.902 43.3095 117.993 43.3448C118.085 43.3801 118.182 43.3968 118.28 43.394H120.728C120.826 43.3968 120.923 43.3801 121.015 43.3448C121.106 43.3095 121.19 43.2562 121.261 43.1881C121.332 43.12 121.389 43.0385 121.428 42.9481C121.468 42.8577 121.489 42.7603 121.491 42.6616V23.205C121.483 23.0084 121.398 22.823 121.255 22.6889C121.113 22.5549 120.923 22.483 120.728 22.4889V22.49Z" fill="#1B1B1F"/>
</svg>
