<svg width="46" height="64" viewBox="0 0 46 64" fill="none" xmlns="http://www.w3.org/2000/svg">
<path d="M41.6871 59.0024L22.9999 64L4.3123 59.0024L0 12.6011H46L41.6871 59.0024Z" fill="#2062AF"/>
<path d="M22.9998 16.3596V60.0141L23.042 60.0256L38.1648 55.981L41.6555 16.3596H22.9998V16.3596Z" fill="#3C9CD7"/>
<path d="M12.394 5.78387V3.02207H16.451V0H9.35132V8.54158H16.451V5.78387H12.394ZM23.7491 3.02207H26.5854V0H19.4851V3.02207C20.435 3.96556 20.9304 4.41714 22.3043 5.78169C21.5011 5.78169 19.4851 5.78455 19.4851 5.78441V8.54158H26.5854V5.78387L23.7491 3.02207ZM33.8126 3.02207H36.6488V0H29.5482V3.02207C30.4981 3.96556 30.9938 4.41714 32.3676 5.78169C31.5648 5.78169 29.5482 5.78455 29.5482 5.78441V8.54158H36.6489V5.78387L33.8126 3.02207Z" fill="black"/>
<path d="M22.9831 27.9618L9.60803 33.4944L10.0516 38.972L22.9831 33.4805L36.739 27.6391L37.3093 22.0356L22.9831 27.9618Z" fill="white"/>
<path d="M9.60791 33.4944L10.0515 38.9721L22.983 33.4805V27.9618L9.60791 33.4944Z" fill="url(#paint0_linear_425_3991)"/>
<path d="M37.3093 22.0359L22.9832 27.9619V33.4806L36.739 27.6392L37.3093 22.0359Z" fill="url(#paint1_linear_425_3991)"/>
<path d="M9.62854 33.4944L10.0722 38.9721L29.914 39.0349L29.4702 46.3384L22.9411 48.164L16.6647 46.59L16.2844 42.0568H10.4525L11.2133 50.8084L23.0045 54.2711L34.7317 50.8712L36.2532 33.4944H9.62854V33.4944Z" fill="url(#paint2_linear_425_3991)"/>
<g opacity="0.05">
<path opacity="0.05" d="M22.9831 33.4944H9.60803L10.0516 38.9721L22.9831 39.0131V33.4944ZM22.9831 48.1466L22.9198 48.1642L16.6442 46.5902L16.2639 42.057H10.4322L11.1928 50.8085L22.9831 54.2713V48.1466Z" fill="black"/>
</g>
<path d="M8.40344 22.0359H37.3093L36.7389 27.6393H9.10067L8.40344 22.0359Z" fill="url(#paint3_linear_425_3991)"/>
<path opacity="0.05" d="M22.9831 22.0359H8.40344L9.10067 27.6393H22.9831V22.0359Z" fill="black"/>
<defs>
<linearGradient id="paint0_linear_425_3991" x1="16.2955" y1="38.9721" x2="16.2955" y2="27.9619" gradientUnits="userSpaceOnUse">
<stop offset="0.387" stop-color="#D1D3D4" stop-opacity="0"/>
<stop offset="1" stop-color="#D1D3D4"/>
</linearGradient>
<linearGradient id="paint1_linear_425_3991" x1="30.1462" y1="33.4807" x2="30.1462" y2="22.036" gradientUnits="userSpaceOnUse">
<stop offset="0.387" stop-color="#D1D3D4" stop-opacity="0"/>
<stop offset="1" stop-color="#D1D3D4"/>
</linearGradient>
<linearGradient id="paint2_linear_425_3991" x1="9.62853" y1="43.8828" x2="36.2531" y2="43.8828" gradientUnits="userSpaceOnUse">
<stop stop-color="#E8E7E5"/>
<stop offset="1" stop-color="white"/>
</linearGradient>
<linearGradient id="paint3_linear_425_3991" x1="8.40347" y1="24.8376" x2="37.3092" y2="24.8376" gradientUnits="userSpaceOnUse">
<stop stop-color="#E8E7E5"/>
<stop offset="1" stop-color="white"/>
</linearGradient>
</defs>
</svg>
