<svg width="113" height="64" viewBox="0 0 113 64" fill="none" xmlns="http://www.w3.org/2000/svg">
<path fill-rule="evenodd" clip-rule="evenodd" d="M64.8195 20.9473H74.4233V30.6316H79.2794C81.5218 30.6316 83.8283 30.2375 85.952 29.5277C86.9955 29.1787 88.1668 28.693 89.1961 28.0821C87.8404 26.3361 87.1482 24.1314 86.9444 21.9582C86.6678 19.0024 87.2722 15.1551 89.3002 12.8417L90.3098 11.6899L91.5128 12.6438C94.5416 15.0442 97.0888 18.3982 97.5378 22.2218C101.185 21.1636 105.467 21.4139 108.681 23.2441L110 23.9947L109.306 25.3311C106.587 30.565 100.904 32.1864 95.3469 31.8995C87.0319 52.3283 68.9294 62 46.9801 62C35.6403 62 25.2364 57.8185 19.3119 47.8941L19.2147 47.7321L18.3516 45.9998C16.3489 41.6313 15.6838 36.8456 16.135 32.0639L16.2704 30.6316H24.4828V20.9473H34.0864V11.4735H53.2946V2H64.8195V20.9473Z" fill="#364548"/>
<path fill-rule="evenodd" clip-rule="evenodd" d="M95.0908 24.5303C95.7328 19.6516 91.9991 15.8194 89.6836 14C87.0154 17.0167 86.6007 24.923 90.7869 28.2517C88.4507 30.281 83.5277 32.1204 78.4872 32.1204H17.1287C16.6385 37.2659 17.5623 42.0042 19.672 46.0601L20.3701 47.3085C20.8121 48.042 21.2948 48.7498 21.8167 49.4314H21.8169C24.3394 49.5897 26.6652 49.6445 28.793 49.5984H28.7939C32.9756 49.5079 36.3874 49.0255 38.9734 48.1492C39.3584 48.0183 39.778 48.2181 39.9112 48.5941C40.0441 48.9702 39.8405 49.3807 39.456 49.5112C39.1122 49.6276 38.7536 49.7366 38.3834 49.8401C38.383 49.8403 38.3825 49.8403 38.3821 49.8405C36.3459 50.4089 34.1627 50.7916 31.3456 50.9615C31.5126 50.9642 31.1713 50.9861 31.1704 50.9863C31.0747 50.992 30.9541 51.0054 30.8579 51.0106C29.7492 51.0714 28.5524 51.0841 27.329 51.0841C25.9909 51.0841 24.673 51.0593 23.1998 50.9863L23.1621 51.0106C28.2746 56.6298 36.2684 60 46.2884 60C67.4949 60 85.4824 50.8071 93.4475 30.1687C99.0986 30.7358 104.53 29.3267 107 24.6107C103.065 22.3901 98.0045 23.0981 95.0908 24.5303Z" fill="#22A0C8"/>
<path fill-rule="evenodd" clip-rule="evenodd" d="M95.6145 24.6489C96.2588 19.7153 92.5116 15.8399 90.1876 14C87.5096 17.0507 87.0935 25.046 91.2949 28.4123C88.9502 30.4644 84.0093 32.3245 78.9504 32.3245H21.0146C20.7632 40.2934 23.7646 46.3424 29.0749 49.9994H29.0758C33.2727 49.9078 36.697 49.42 39.2924 48.5338C39.6788 48.4014 40.0999 48.6035 40.2336 48.9838C40.3671 49.3641 40.1627 49.7792 39.7767 49.9111C39.4317 50.0289 39.0718 50.1391 38.7003 50.2438C38.6998 50.244 38.6994 50.244 38.6989 50.2442C36.6554 50.819 34.2758 51.2556 31.4484 51.4275C31.4477 51.4275 31.38 51.363 31.3791 51.3632C38.6224 55.0241 49.1255 55.0111 61.1671 50.4533C74.6693 45.3426 87.2333 35.6053 96 24.4684C95.8677 24.5271 95.7389 24.5874 95.6145 24.6489Z" fill="#37B1D9"/>
<path fill-rule="evenodd" clip-rule="evenodd" d="M18 39C18.3806 41.6762 19.203 44.182 20.4231 46.4647L21.1196 47.6769C21.5606 48.3891 22.0423 49.0764 22.5631 49.7382C25.0804 49.8919 27.4012 49.9451 29.5245 49.9004C33.6967 49.8125 37.1009 49.344 39.681 48.4932C40.0652 48.3661 40.4838 48.5601 40.6167 48.9252C40.7494 49.2904 40.5462 49.689 40.1625 49.8157C39.8195 49.9287 39.4618 50.0345 39.0924 50.135C39.0919 50.1352 39.0915 50.1352 39.091 50.1355C37.0595 50.6873 34.7065 51.0827 31.8957 51.248C31.7992 51.2535 31.631 51.2546 31.5336 51.2597C30.4279 51.3189 29.2462 51.3548 28.0252 51.3548C26.6904 51.3548 25.3254 51.3306 23.8557 51.2597C28.9564 56.7157 36.9821 60 46.9796 60C65.0936 60 80.8532 53.457 90 39H18Z" fill="#1B81A5"/>
<path fill-rule="evenodd" clip-rule="evenodd" d="M22 39C23.086 43.7747 25.6957 47.5232 29.4841 50.0762C33.6682 49.9868 37.0821 49.5109 39.6696 48.6463C40.0549 48.5172 40.4747 48.7142 40.608 49.0853C40.741 49.4563 40.5373 49.8614 40.1525 49.9901C39.8085 50.105 39.4497 50.2125 39.0793 50.3146C39.0788 50.3148 39.0784 50.3148 39.0779 50.315C37.0406 50.8758 34.6308 51.2776 31.812 51.4455C39.0328 55.0166 49.4737 54.9653 61.4779 50.5191C68.74 47.8287 75.7294 43.8236 82 39H22Z" fill="#1D91B4"/>
<path fill-rule="evenodd" clip-rule="evenodd" d="M54.8205 3.2937H63.1118V11.5868H54.8205V3.2937ZM55.5115 3.98442H56.1656V10.8956H55.5115V3.98442ZM56.7417 3.98442H57.4222V10.8956H56.7417V3.98442ZM57.9976 3.98442H58.6781V10.8956H57.9976V3.98442ZM59.2542 3.98442H59.9347V10.8956H59.2542V3.98442ZM60.5106 3.98442H61.1911V10.8956H60.5106V3.98442ZM61.7667 3.98442H62.4212V10.8956H61.7667V3.98442ZM53.5452 12.8625H45.2537V21.1551H53.5452V12.8625ZM46.5986 13.5536H45.9447V20.4642H46.5986V13.5536ZM47.8552 13.5536H47.1746V20.4642H47.8552V13.5536ZM49.1115 13.5536H48.431V20.4642H49.1115V13.5536ZM50.3679 13.5536H49.6874V20.4642H50.3679V13.5536ZM51.6245 13.5536H50.9435V20.4642H51.6245V13.5536ZM52.8542 13.5536H52.1999V20.4642H52.8542V13.5536ZM63.1118 22.4309H54.8205V30.724H63.1118V22.4309ZM56.1656 23.1221H55.5115V30.0333H56.1656V23.1221ZM57.4222 23.1221H56.7417V30.0333H57.4222V23.1221ZM58.6781 23.1221H57.9976V30.0333H58.6781V23.1221ZM59.9347 23.1221H59.2542V30.0333H59.9347V23.1221ZM61.1911 23.1221H60.5106V30.0333H61.1911V23.1221ZM62.4212 23.1221H61.7667V30.0333H62.4212V23.1221ZM43.9784 22.4309H35.6864V30.724H43.9784V22.4309ZM37.0317 23.1221H36.3779V30.0333H37.0317V23.1221ZM38.2881 23.1221H37.608V30.0333H38.2881V23.1221ZM39.5442 23.1221H38.8637V30.0333H39.5442V23.1221ZM40.8006 23.1221H40.1201V30.0333H40.8006V23.1221ZM42.0572 23.1221H41.3767V30.0333H42.0572V23.1221ZM43.2878 23.1221H42.6326V30.0333H43.2878V23.1221Z" fill="#34BBDE"/>
<path fill-rule="evenodd" clip-rule="evenodd" d="M35.6866 12.8624H43.9786V21.1551H35.6866V12.8624ZM36.3781 13.5536H37.0319V20.4641H36.3781V13.5536ZM37.6082 13.5536H38.2883V20.4641H37.6082V13.5536ZM38.8639 13.5536H39.5444V20.4641H38.8639V13.5536ZM40.1203 13.5536H40.8008V20.4641H40.1203V13.5536ZM41.3769 13.5536H42.0574V20.4641H41.3769V13.5536ZM42.6328 13.5536H43.288V20.4641H42.6328V13.5536ZM26.1202 22.4311H34.4113V30.7242H26.1202V22.4311ZM26.8108 23.1223H27.4651V30.0335H26.8108V23.1223ZM28.041 23.1223H28.7215V30.0335H28.041V23.1223ZM29.2969 23.1223H29.9774V30.0335H29.2969V23.1223ZM30.5535 23.1223H31.234V30.0335H30.5535V23.1223ZM31.8099 23.1223H32.4904V30.0335H31.8099V23.1223ZM33.066 23.1223H33.7208V30.0335H33.066V23.1223ZM53.5454 22.4311H45.2539V30.7242H53.5454V22.4311ZM46.5987 23.1223H45.9449V30.0335H46.5987V23.1223ZM47.8553 23.1223H47.1748V30.0335H47.8553V23.1223ZM49.1117 23.1223H48.4312V30.0335H49.1117V23.1223ZM50.3681 23.1223H49.6876V30.0335H50.3681V23.1223ZM51.6247 23.1223H50.9437V30.0335H51.6247V23.1223ZM52.8544 23.1223H52.2001V30.0335H52.8544V23.1223ZM54.8207 12.8624H63.112V21.1551H54.8207V12.8624ZM55.5117 13.5536H56.1658V20.4641H55.5117V13.5536ZM56.7419 13.5536H57.4224V20.4641H56.7419V13.5536ZM57.9978 13.5536H58.6783V20.4641H57.9978V13.5536ZM59.2544 13.5536H59.9349V20.4641H59.2544V13.5536ZM60.5108 13.5536H61.1913V20.4641H60.5108V13.5536ZM61.7669 13.5536H62.4214V20.4641H61.7669V13.5536ZM72.6789 22.4311H64.3874V30.7242H72.6789V22.4311ZM65.7327 23.1223H65.078V30.0335H65.7327V23.1223ZM66.9886 23.1223H66.3081V30.0335H66.9886V23.1223ZM68.2452 23.1223H67.5647V30.0335H68.2452V23.1223ZM69.5012 23.1223H68.8206V30.0335H69.5012V23.1223ZM70.7577 23.1223H70.0775V30.0335H70.7577V23.1223ZM71.9879 23.1223H71.3336V30.0335H71.9879V23.1223Z" fill="#23A3C2"/>
<path fill-rule="evenodd" clip-rule="evenodd" d="M43.5002 44C44.8808 44 46 45.1197 46 46.5002C46 47.8808 44.8808 49 43.5002 49C42.1195 49 41 47.8808 41 46.5002C41 45.1197 42.1195 44 43.5002 44Z" fill="#D3ECEC"/>
<path fill-rule="evenodd" clip-rule="evenodd" d="M43.5001 45C43.6917 45 43.8745 45.0361 44.0432 45.1016C43.8604 45.2072 43.7366 45.4052 43.7366 45.6317C43.7366 45.9698 44.0107 46.2435 44.3488 46.2435C44.5805 46.2435 44.7817 46.1148 44.8857 45.9248C44.9592 46.1019 45 46.2964 45 46.5003C45 47.3285 44.3285 48 43.5001 48C42.6719 48 42 47.3285 42 46.5003C42 45.6717 42.6719 45 43.5001 45Z" fill="#364548"/>
<path fill-rule="evenodd" clip-rule="evenodd" d="M3 40H109C106.692 39.3348 101.697 38.4364 102.521 35C98.3245 40.5171 88.2034 38.8705 85.6492 36.15C82.8047 40.8368 66.2459 39.0554 65.091 35.4042C61.5251 40.1585 50.4755 40.1585 46.9094 35.4042C45.7541 39.0554 29.1955 40.8368 26.3508 36.15C23.7966 38.8705 13.6764 40.5171 9.47928 35C10.3029 38.4364 5.3085 39.3348 3 40Z" fill="#364548"/>
<path fill-rule="evenodd" clip-rule="evenodd" d="M49 59.9523C43.5579 57.3628 40.5707 53.8429 38.9087 50C36.8874 50.5787 34.4573 50.9484 31.6339 51.1073C30.5703 51.1671 29.4515 51.1977 28.2773 51.1977C26.9237 51.1977 25.4974 51.1576 24 51.0779C28.9907 56.079 35.1304 59.9296 46.4984 60C47.3377 60 48.171 59.9836 49 59.9523Z" fill="#BDD9D7"/>
<path fill-rule="evenodd" clip-rule="evenodd" d="M41 54C40.19 52.8441 39.4043 51.3914 38.8268 50C36.6521 50.653 34.0376 51.0702 31 51.2494C33.0863 52.4402 36.0704 53.5435 41 54Z" fill="#D3ECEC"/>
</svg>
