<svg width="256" height="215" viewBox="0 0 256 215" fill="none" xmlns="http://www.w3.org/2000/svg">
<path fill-rule="evenodd" clip-rule="evenodd" d="M38.6169 173.984V157.622C38.6169 155.473 39.9612 153.745 42.1864 153.745H42.8034C45.0281 153.745 46.366 155.474 46.366 157.622V192.069C46.366 200.469 42.2154 207.153 34.9842 211.411C31.631 213.384 27.926 214.396 24.0388 214.396H22.5023C14.1003 214.396 7.42453 210.243 3.15983 203.016C1.18091 199.66 0.175659 195.961 0.175659 192.069V190.534C0.175659 182.131 4.32843 175.451 11.5543 171.185C14.9101 169.204 18.6098 168.2 22.5023 168.2H24.0388C29.7249 168.2 34.5493 170.404 38.6169 173.984ZM7.92368 191.3C7.92368 197.368 10.865 201.93 16.1821 204.839C18.3318 206.016 20.6664 206.648 23.1193 206.648C29.0753 206.648 33.4926 203.838 36.54 198.791C37.9571 196.443 38.6169 193.875 38.6169 191.143C38.6169 185.883 36.1265 181.778 31.8881 178.729C29.3179 176.881 26.4248 175.954 23.2698 175.954C16.7782 175.954 12.1064 179.233 9.30222 185.06C8.35588 187.029 7.92368 189.121 7.92368 191.3ZM73.2481 168.2H74.3219C83.3001 168.2 90.1275 172.555 94.4549 180.392C96.1853 183.527 97.1108 186.949 97.1108 190.534V192.069C97.1108 200.469 92.9687 207.162 85.7257 211.412C82.3725 213.379 78.6686 214.396 74.7825 214.396H73.2481C64.8462 214.396 58.1693 210.243 53.9057 203.016C51.9268 199.66 50.9194 195.961 50.9194 192.069V190.534C50.9194 182.13 55.0877 175.472 62.2958 171.187C65.6474 169.196 69.3535 168.2 73.2481 168.2ZM58.6674 191.3C58.6674 197.19 61.5583 201.523 66.5332 204.569C68.8693 206 71.4417 206.648 74.1714 206.648C79.9914 206.648 84.2931 203.697 87.2874 198.785C88.7152 196.443 89.3611 193.87 89.3611 191.143C89.3611 185.666 86.7229 181.482 82.2135 178.45C79.7418 176.787 76.9907 175.954 74.0145 175.954C67.5229 175.954 62.8512 179.233 60.0481 185.06C59.0996 187.029 58.6674 189.121 58.6674 191.3ZM129.324 176.573C128.155 176.025 125.964 175.843 124.7 175.795C118.226 175.551 113.542 179.197 110.794 184.908C109.845 186.878 109.412 188.963 109.412 191.143C109.412 197.78 112.897 202.427 118.821 205.26C120.985 206.294 123.779 206.491 126.144 206.491C128.225 206.491 131.164 205.216 133.01 204.339L133.33 204.187H134.763L134.921 204.219C136.683 204.586 138.013 205.703 138.013 207.599V208.366C138.013 213.084 129.391 214.164 126.101 214.394C114.491 215.197 105.808 208.821 102.498 197.747C101.923 195.825 101.664 193.914 101.664 191.91V190.377C101.664 181.974 105.833 175.318 113.041 171.036C116.392 169.046 120.098 168.047 123.992 168.047H125.527C129.657 168.047 133.461 169.22 136.871 171.549L137.152 171.743L137.328 172.035C137.696 172.645 138.013 173.351 138.013 174.077V174.844C138.013 176.822 136.534 177.886 134.747 178.23L134.599 178.256H134.141C132.985 178.256 130.356 177.059 129.324 176.573ZM154.458 181.82C157.467 178.806 160.488 175.798 163.543 172.834C164.394 172.007 167.617 168.507 168.886 168.507H170.274L170.432 168.54C172.2 168.907 173.524 170.026 173.524 171.926V172.692C173.524 173.988 172.006 175.494 171.169 176.381C169.389 178.268 167.515 180.093 165.693 181.942L156.331 191.445C160.362 195.484 164.389 199.528 168.387 203.599C169.493 204.725 170.599 205.852 171.688 206.995C172.073 207.4 172.641 207.904 172.964 208.465C173.311 208.991 173.524 209.584 173.524 210.217V211.018L173.479 211.202C173.044 212.97 171.922 214.396 169.963 214.396H169.346C168.064 214.396 166.616 212.945 165.738 212.117C163.929 210.411 162.181 208.617 160.407 206.874L154.458 201.034V210.368C154.458 212.518 153.112 214.246 150.889 214.246H150.278C148.053 214.246 146.709 212.518 146.709 210.368V157.772C146.709 155.621 148.054 153.902 150.278 153.902H150.889C153.112 153.902 154.458 155.621 154.458 157.772V181.82ZM251.035 168.507H251.804C254.129 168.507 255.68 170.073 255.68 172.384C255.68 175.592 252.613 176.413 249.959 176.413C246.479 176.413 243.157 178.52 240.758 180.883C237.767 183.832 236.457 187.609 236.457 191.761V210.52C236.457 212.671 235.115 214.396 232.887 214.396H232.276C230.049 214.396 228.707 212.671 228.707 210.52V190.684C228.707 183.067 232.415 176.849 238.596 172.488C242.288 169.883 246.516 168.507 251.035 168.507ZM195.96 205.683C198.78 206.668 201.996 206.527 204.889 206.023C206.368 205.395 210.153 203.744 211.545 203.985L211.762 204.022L211.962 204.12C212.812 204.532 213.623 205.115 214.057 205.979C215.071 208.008 214.584 210.045 212.592 211.196L211.929 211.579C204.578 215.821 196.761 215.233 189.434 211.271C185.931 209.377 183.251 206.566 181.274 203.139L180.812 202.338C176.093 194.166 176.73 185.57 182.051 177.799C183.889 175.113 186.29 173.038 189.097 171.415L190.159 170.802C197.081 166.807 204.5 167.08 211.61 170.587C215.432 172.473 218.529 175.285 220.663 178.981L221.047 179.647C222.597 182.333 220.589 184.674 218.516 186.273C216.11 188.13 213.681 190.363 211.375 192.354C206.233 196.792 201.099 201.241 195.96 205.683ZM189.306 201.009C195.056 196.078 200.808 191.144 206.543 186.193C208.502 184.503 210.652 182.749 212.596 180.972C211.036 179.006 208.43 177.589 206.215 176.744C201.747 175.041 197.339 175.613 193.24 177.979C187.875 181.077 185.59 186.01 185.791 192.149C185.869 194.567 186.52 196.897 187.803 198.954C188.255 199.679 188.76 200.36 189.306 201.009Z" fill="#364548"/>
<path fill-rule="evenodd" clip-rule="evenodd" d="M147.488 45.7324H170.354V69.1071H181.915C187.254 69.1071 192.746 68.156 197.802 66.4427C200.287 65.6003 203.076 64.4279 205.526 62.9535C202.298 58.7391 200.65 53.4178 200.165 48.1725C199.507 41.0382 200.946 31.752 205.774 26.1682L208.178 23.3881L211.042 25.6905C218.253 31.4843 224.318 39.5799 225.387 48.8087C234.07 46.2546 244.265 46.8587 251.919 51.2761L255.059 53.0879L253.406 56.3136C246.933 68.9465 233.401 72.8599 220.171 72.1674C200.374 121.476 157.273 144.82 105.014 144.82C78.0147 144.82 53.2438 134.727 39.138 110.773L38.9067 110.382L36.8517 106.201C32.0836 95.6567 30.4999 84.1056 31.5743 72.5642L31.8967 69.1071H51.4496V45.7324H74.315V22.8659H120.048V0H147.488V45.7324Z" fill="#364548"/>
<path fill-rule="evenodd" clip-rule="evenodd" d="M221.57 54.3796C223.103 42.4644 214.186 33.1048 208.656 28.6613C202.283 36.029 201.293 55.3388 211.291 63.4687C205.712 68.4248 193.954 72.9171 181.915 72.9171H35.3703C34.1995 85.4841 36.4061 97.0566 41.4446 106.962L43.1119 110.011C44.1675 111.803 45.3205 113.532 46.5668 115.196H46.5673C52.5919 115.583 58.1468 115.717 63.2288 115.604H63.2309C73.2181 115.383 81.3667 114.205 87.5429 112.065C88.4624 111.745 89.4645 112.233 89.7826 113.151C90.1002 114.07 89.6139 115.072 88.6954 115.391C87.8744 115.676 87.018 115.942 86.1338 116.195C86.1327 116.195 86.1316 116.195 86.1306 116.196C81.2676 117.584 76.0534 118.518 69.3251 118.933C69.7241 118.94 68.9089 118.993 68.9068 118.994C68.6781 119.008 68.39 119.041 68.1602 119.053C65.5124 119.202 62.6541 119.233 59.732 119.233C56.5363 119.233 53.3888 119.172 49.8702 118.994L49.7802 119.053C61.9905 132.777 81.0823 141.008 105.014 141.008C155.662 141.008 198.622 118.556 217.645 68.1506C231.142 69.5356 244.113 66.094 250.013 54.5762C240.615 49.1525 228.529 50.8818 221.57 54.3796Z" fill="#22A0C8"/>
<path fill-rule="evenodd" clip-rule="evenodd" d="M221.57 54.3796C223.104 42.4644 214.186 33.1048 208.656 28.6613C202.283 36.029 201.293 55.3388 211.291 63.4687C205.712 68.4248 193.954 72.9171 181.915 72.9171H44.0481C43.4499 92.1632 50.5922 106.772 63.2288 115.604H63.231C73.2182 115.383 81.3668 114.205 87.5429 112.065C88.4625 111.745 89.4646 112.233 89.7827 113.151C90.1003 114.07 89.614 115.072 88.6955 115.391C87.8745 115.676 87.0181 115.942 86.1339 116.195C86.1328 116.195 86.1317 116.195 86.1307 116.196C81.2677 117.584 75.6052 118.638 68.8769 119.053C68.8753 119.053 68.7141 118.898 68.7119 118.898C85.9486 127.74 110.942 127.708 139.597 116.701C171.728 104.357 201.626 80.8408 222.488 53.9437C222.173 54.0856 221.866 54.2313 221.57 54.3796Z" fill="#37B1D9"/>
<path fill-rule="evenodd" clip-rule="evenodd" d="M35.6445 88.1862C36.5555 94.9177 38.5243 101.221 41.4447 106.963L43.1119 110.011C44.1675 111.803 45.3206 113.532 46.5674 115.196C52.593 115.583 58.1484 115.717 63.2309 115.604C73.2182 115.383 81.3668 114.205 87.5429 112.065C88.4625 111.745 89.4645 112.233 89.7826 113.152C90.1002 114.07 89.6139 115.073 88.6954 115.391C87.8744 115.676 87.0181 115.942 86.1338 116.195C86.1328 116.195 86.1317 116.195 86.1306 116.196C81.2677 117.584 75.6352 118.578 68.9069 118.994C68.676 119.008 68.2733 119.011 68.0403 119.023C65.3935 119.172 62.5647 119.263 59.6421 119.263C56.4469 119.263 53.1795 119.202 49.6613 119.023C61.8711 132.747 81.0824 141.008 105.014 141.008C148.373 141.008 186.098 124.55 207.993 88.1862H35.6445Z" fill="#1B81A5"/>
<path fill-rule="evenodd" clip-rule="evenodd" d="M45.3672 88.1862C47.9593 100.006 54.1885 109.285 63.231 115.604C73.2182 115.383 81.3668 114.205 87.5429 112.065C88.4625 111.745 89.4645 112.233 89.7827 113.152C90.1002 114.07 89.614 115.073 88.6955 115.391C87.8744 115.676 87.0181 115.942 86.1339 116.195C86.1328 116.195 86.1317 116.195 86.1306 116.196C81.2677 117.584 75.5157 118.578 68.7874 118.994C86.023 127.834 110.944 127.707 139.597 116.701C156.931 110.041 173.614 100.127 188.582 88.1862H45.3672Z" fill="#1D91B4"/>
<path fill-rule="evenodd" clip-rule="evenodd" d="M55.2606 49.543H75.0776V69.361H55.2606V49.543ZM56.9112 51.1947H58.4751V67.7104H56.9112V51.1947ZM59.8515 51.1947H61.478V67.7104H59.8515V51.1947ZM62.8533 51.1947H64.4798V67.7104H62.8533V51.1947ZM65.8568 51.1947H67.4833V67.7104H65.8568V51.1947ZM68.8597 51.1947H70.4862V67.7104H68.8597V51.1947ZM71.8621 51.1947H73.427V67.7104H71.8621V51.1947Z" fill="#23A3C2"/>
<path fill-rule="evenodd" clip-rule="evenodd" d="M78.1255 26.677H97.9446V46.494H78.1255V26.677ZM79.7782 28.3287H81.341V44.8428H79.7782V28.3287ZM82.7185 28.3287H84.3439V44.8428H82.7185V28.3287ZM85.7198 28.3287H87.3463V44.8428H85.7198V28.3287ZM88.7227 28.3287H90.3492V44.8428H88.7227V28.3287ZM91.7262 28.3287H93.3527V44.8428H91.7262V28.3287ZM94.728 28.3287H96.294V44.8428H94.728V28.3287Z" fill="#23A3C2"/>
<path fill-rule="evenodd" clip-rule="evenodd" d="M78.1255 49.543H97.9446V69.361H78.1255V49.543ZM79.7782 51.1947H81.341V67.7104H79.7782V51.1947ZM82.7185 51.1947H84.3439V67.7104H82.7185V51.1947ZM85.7198 51.1947H87.3463V67.7104H85.7198V51.1947ZM88.7227 51.1947H90.3492V67.7104H88.7227V51.1947ZM91.7262 51.1947H93.3527V67.7104H91.7262V51.1947ZM94.728 51.1947H96.294V67.7104H94.728V51.1947Z" fill="#34BBDE"/>
<path fill-rule="evenodd" clip-rule="evenodd" d="M100.993 49.543H120.811V69.361H100.993V49.543ZM102.644 51.1947H104.207V67.7104H102.644V51.1947ZM105.584 51.1947H107.21V67.7104H105.584V51.1947ZM108.587 51.1947H110.213V67.7104H108.587V51.1947ZM111.59 51.1947H113.216V67.7104H111.59V51.1947ZM114.592 51.1947H116.22V67.7104H114.592V51.1947ZM117.595 51.1947H119.159V67.7104H117.595V51.1947Z" fill="#23A3C2"/>
<path fill-rule="evenodd" clip-rule="evenodd" d="M100.993 26.677H120.811V46.494H100.993V26.677ZM102.644 28.3287H104.207V44.8428H102.644V28.3287ZM105.584 28.3287H107.21V44.8428H105.584V28.3287ZM108.587 28.3287H110.213V44.8428H108.587V28.3287ZM111.59 28.3287H113.216V44.8428H111.59V28.3287ZM114.592 28.3287H116.22V44.8428H114.592V28.3287ZM117.595 28.3287H119.159V44.8428H117.595V28.3287Z" fill="#34BBDE"/>
<path fill-rule="evenodd" clip-rule="evenodd" d="M123.859 49.543H143.677V69.361H123.859V49.543ZM125.511 51.1947H127.074V67.7104H125.511V51.1947ZM128.451 51.1947H130.077V67.7104H128.451V51.1947ZM131.453 51.1947H133.079V67.7104H131.453V51.1947ZM134.456 51.1947H136.083V67.7104H134.456V51.1947ZM137.459 51.1947H139.086V67.7104H137.459V51.1947ZM140.462 51.1947H142.026V67.7104H140.462V51.1947Z" fill="#34BBDE"/>
<path fill-rule="evenodd" clip-rule="evenodd" d="M123.859 26.677H143.677V46.494H123.859V26.677ZM125.511 28.3287H127.074V44.8428H125.511V28.3287ZM128.451 28.3287H130.077V44.8428H128.451V28.3287ZM131.453 28.3287H133.079V44.8428H131.453V28.3287ZM134.456 28.3287H136.083V44.8428H134.456V28.3287ZM137.459 28.3287H139.086V44.8428H137.459V28.3287ZM140.462 28.3287H142.026V44.8428H140.462V28.3287Z" fill="#23A3C2"/>
<path fill-rule="evenodd" clip-rule="evenodd" d="M123.859 3.81055H143.677V23.6286H123.859V3.81055ZM125.511 5.46116H127.074V21.9769H125.511V5.46116ZM128.451 5.46116H130.077V21.9769H128.451V5.46116ZM131.453 5.46116H133.079V21.9769H131.453V5.46116ZM134.456 5.46116H136.083V21.9769H134.456V5.46116ZM137.459 5.46116H139.086V21.9769H137.459V5.46116ZM140.462 5.46116H142.026V21.9769H140.462V5.46116Z" fill="#34BBDE"/>
<path fill-rule="evenodd" clip-rule="evenodd" d="M146.725 49.543H166.543V69.361H146.725V49.543ZM148.376 51.1947H149.941V67.7104H148.376V51.1947ZM151.316 51.1947H152.942V67.7104H151.316V51.1947ZM154.319 51.1947H155.946V67.7104H154.319V51.1947ZM157.321 51.1947H158.948V67.7104H157.321V51.1947ZM160.325 51.1947H161.951V67.7104H160.325V51.1947ZM163.327 51.1947H164.891V67.7104H163.327V51.1947Z" fill="#23A3C2"/>
<path fill-rule="evenodd" clip-rule="evenodd" d="M96.7038 101.492C99.7228 101.492 102.17 103.94 102.17 106.959C102.17 109.978 99.7228 112.426 96.7038 112.426C93.6843 112.426 91.2362 109.978 91.2362 106.959C91.2362 103.94 93.6843 101.492 96.7038 101.492Z" fill="#D3ECEC"/>
<path fill-rule="evenodd" clip-rule="evenodd" d="M96.7038 103.043C97.204 103.043 97.6812 103.137 98.1214 103.308C97.6442 103.584 97.3213 104.1 97.3213 104.692C97.3213 105.574 98.0368 106.289 98.9194 106.289C99.5241 106.289 100.049 105.953 100.321 105.457C100.513 105.919 100.619 106.427 100.619 106.959C100.619 109.121 98.8664 110.874 96.7038 110.874C94.5417 110.874 92.7877 109.121 92.7877 106.959C92.7877 104.796 94.5417 103.043 96.7038 103.043Z" fill="#364548"/>
<path fill-rule="evenodd" clip-rule="evenodd" d="M0 90.1624H254.327C248.79 88.7576 236.806 86.8601 238.783 79.6027C228.713 91.2544 204.43 87.777 198.301 82.0314C191.477 91.9298 151.747 88.1674 148.976 80.4564C140.42 90.4971 113.909 90.4971 105.353 80.4564C102.58 88.1674 62.8512 91.9298 56.026 82.0314C49.8975 87.777 25.6161 91.2544 15.5458 79.6027C17.5221 86.8601 5.53881 88.7576 0 90.1624Z" fill="#364548"/>
<path fill-rule="evenodd" clip-rule="evenodd" d="M111.237 140.89C97.6977 134.465 90.2657 125.731 86.1306 116.196C81.1016 117.631 75.0557 118.549 68.0312 118.943C65.385 119.091 62.6016 119.167 59.6801 119.167C56.3125 119.167 52.7638 119.068 49.0385 118.87C61.455 131.279 76.7304 140.834 105.014 141.008C107.102 141.008 109.175 140.968 111.237 140.89Z" fill="#BDD9D7"/>
<path fill-rule="evenodd" clip-rule="evenodd" d="M91.1602 124.994C89.2868 122.451 87.4696 119.255 86.1339 116.195C81.1039 117.631 75.0568 118.549 68.0312 118.943C72.8567 121.563 79.7585 123.99 91.1602 124.994Z" fill="#D3ECEC"/>
</svg>
