<svg width="316" height="158" viewBox="0 0 316 158" fill="none" xmlns="http://www.w3.org/2000/svg">
<path d="M105.364 109.95V49.2639H108.658V58.8106C109.047 58.3877 109.406 57.9385 109.733 57.466C111.08 54.6718 113.194 52.3191 115.83 50.6838C118.465 49.0485 121.512 48.1984 124.614 48.2331C132.121 48.009 138.217 50.7878 141.802 57.466C144.084 61.6146 145.339 66.249 145.464 70.9819C145.589 75.7148 144.579 80.4088 142.519 84.6719C139.18 92.1568 130.933 95.8769 122.104 94.5099C119.356 94.2758 116.711 93.3575 114.409 91.8387C112.107 90.3199 110.223 88.2489 108.927 85.8148V109.95H105.364ZM108.658 70.7328C108.949 73.6909 109.061 75.7975 109.397 77.8592C110.697 85.9716 115.493 90.7898 123.023 91.6638C126.558 92.245 130.186 91.5821 133.288 89.7882C136.389 87.9942 138.773 85.1802 140.032 81.8258C141.479 78.3754 142.175 74.6567 142.075 70.9166C141.974 67.1765 141.079 63.5005 139.449 60.1328C138.105 57.1263 135.819 54.6387 132.937 53.0459C130.054 51.453 126.732 50.8414 123.471 51.3033C120.409 51.5251 117.493 52.6953 115.127 54.6513C112.762 56.6072 111.064 59.2517 110.271 62.217C109.569 65.022 109.031 67.8654 108.658 70.7328V70.7328Z" fill="black"/>
<path d="M212.663 78.9797C212.164 83.2524 210.13 87.1985 206.939 90.084C203.749 92.9695 199.619 94.598 195.318 94.6667C181.513 95.3614 175.036 86.1957 174.006 75.6182C173.29 69.874 174.223 64.0448 176.695 58.8106C178.416 55.2203 181.236 52.2709 184.745 50.3894C188.254 48.508 192.271 47.792 196.214 48.3451C199.963 48.6628 203.516 50.1518 206.372 52.6012C209.228 55.0506 211.24 58.3362 212.125 61.9928C212.826 65.3232 213.343 68.6899 213.671 72.0774H177.389C176.717 81.6689 181.871 89.3779 189.177 91.238C198.276 93.479 206.052 89.5348 208.876 80.8845C209.503 78.6659 210.646 78.3522 212.663 78.9797ZM177.389 69.0072H209.817C209.615 58.7882 203.251 51.3929 194.623 51.2808C184.852 51.1239 177.815 58.2503 177.389 69.0072Z" fill="black"/>
<path d="M219.341 79.2037H222.523C222.641 81.5453 223.402 83.8091 224.722 85.7464C226.043 87.6836 227.872 89.2193 230.008 90.1847C232.691 91.392 235.612 91.9787 238.553 91.9011C241.494 91.8235 244.38 91.0836 246.995 89.7365C248.421 89.0939 249.615 88.0296 250.416 86.6871C251.217 85.3447 251.588 83.7887 251.477 82.2291C251.559 80.7249 251.148 79.2351 250.307 77.9855C249.466 76.7358 248.24 75.7945 246.816 75.3044C243.32 74.0046 239.6 73.2875 236.037 72.1446C232.329 71.0888 228.704 69.7631 225.19 68.178C219.453 65.3767 219.095 54.463 225.594 51.0119C228.921 49.134 232.666 48.1194 236.487 48.0607C240.308 48.002 244.082 48.901 247.466 50.6757C249.516 51.8086 251.172 53.5395 252.213 55.6375C253.254 57.7355 253.63 60.101 253.292 62.4186H250.558C250.558 62.2841 250.312 62.1721 250.312 62.0376C249.976 53.3201 242.67 50.6309 234.827 51.3928C232.485 51.6817 230.211 52.3715 228.104 53.4322C226.837 54.0111 225.782 54.9689 225.084 56.1731C224.385 57.3774 224.078 58.7688 224.204 60.1552C224.208 61.5422 224.641 62.8941 225.443 64.0256C226.246 65.157 227.378 66.0125 228.686 66.4748C232.137 67.7298 235.745 68.5366 239.286 69.5226C242.132 70.3069 245.09 70.8224 247.847 71.7636C249.792 72.4013 251.498 73.6149 252.739 75.2437C253.979 76.8724 254.696 78.8395 254.794 80.8845C255.127 83.1252 254.745 85.4137 253.703 87.4251C252.661 89.4365 251.012 91.0686 248.99 92.0895C241.505 96.325 229.179 95.2045 223.689 89.8485C222.297 88.4491 221.197 86.7879 220.45 84.9609C219.704 83.1339 219.327 81.1772 219.341 79.2037Z" fill="black"/>
<path d="M295.132 62.4186H292.151C292.151 62.0152 291.995 61.6567 291.95 61.3205C291.901 59.0864 291.087 56.9366 289.643 55.2313C288.199 53.526 286.212 52.3687 284.017 51.9531C279.874 50.7644 275.454 50.9771 271.445 52.5582C269.86 53.0126 268.464 53.9674 267.467 55.2801C266.469 56.5927 265.923 58.1928 265.909 59.8414C265.853 61.4606 266.358 63.0493 267.338 64.3395C268.318 65.6296 269.713 66.5422 271.288 66.923C275.77 68.3124 280.364 69.164 284.913 70.419C286.387 70.7728 287.839 71.2143 289.261 71.7412C291.383 72.5007 293.228 73.8829 294.552 75.7071C295.877 77.5314 296.621 79.7129 296.686 81.9665C296.752 84.2201 296.136 86.441 294.919 88.339C293.702 90.237 291.941 91.7237 289.866 92.605C286.703 94.041 283.275 94.8008 279.802 94.8355C276.329 94.8702 272.887 94.1792 269.697 92.8067C267.073 91.675 264.859 89.7668 263.352 87.3388C261.846 84.9108 261.119 82.0795 261.27 79.2262H262.525H264.184C264.723 81.8264 265.887 84.256 267.577 86.3047C269.266 88.3534 271.43 89.9593 273.88 90.9835C276.33 92.0077 278.993 92.4191 281.637 92.1823C284.282 91.9455 286.83 91.0675 289.059 89.6244C290.417 88.9189 291.544 87.8388 292.307 86.5122C293.069 85.1855 293.435 83.6679 293.362 82.1395C293.429 80.6344 293.004 79.1484 292.151 77.9069C291.297 76.6653 290.062 75.7359 288.633 75.2596C285.137 73.9598 281.417 73.2651 277.854 72.1222C274.125 71.0827 270.478 69.7719 266.94 68.2004C261.338 65.444 260.889 54.6199 267.276 51.1687C270.645 49.2122 274.463 48.1612 278.359 48.118C282.255 48.0748 286.095 49.0409 289.507 50.9222C291.458 52.087 293.029 53.7938 294.027 55.8348C295.026 57.8759 295.41 60.1633 295.132 62.4186V62.4186Z" fill="black"/>
<path d="M99.9178 93.5686C98.7445 94.0129 97.4491 94.012 96.2764 93.566C95.1037 93.1201 94.135 92.26 93.5534 91.1483C89.9005 85.6802 85.8667 80.4587 81.9898 75.1251L80.309 72.8841C75.6925 79.0693 71.0761 85.0079 66.863 91.1707C66.3141 92.2331 65.3977 93.0598 64.2845 93.4969C63.1714 93.9339 61.9374 93.9514 60.8123 93.5462L78.1352 70.3069L62.0224 49.3087C63.1823 48.8899 64.4511 48.8842 65.6147 49.2924C66.7783 49.7007 67.7654 50.498 68.4093 51.5497C72.1518 57.0178 76.2976 62.2393 80.4211 67.7746C84.5669 62.2841 88.668 57.0402 92.5001 51.6169C93.052 50.5718 93.9689 49.7659 95.0763 49.3527C96.1837 48.9395 97.4043 48.9478 98.506 49.3759L92.2536 57.6677C89.4523 61.3653 86.6959 65.0854 83.7826 68.6934C83.5478 68.9036 83.36 69.1609 83.2315 69.4486C83.1029 69.7363 83.0365 70.0479 83.0365 70.363C83.0365 70.6781 83.1029 70.9896 83.2315 71.2773C83.36 71.565 83.5478 71.8223 83.7826 72.0325C89.1386 79.1365 94.4498 86.2629 99.9178 93.5686V93.5686Z" fill="black"/>
<path d="M173.468 49.0846V52.222C171.201 52.0733 168.928 52.4016 166.797 53.1856C164.665 53.9695 162.721 55.1918 161.091 56.7735C159.46 58.3552 158.18 60.2611 157.332 62.3683C156.484 64.4755 156.087 66.7371 156.167 69.0071C156.167 76.3875 156.167 83.7679 156.167 91.1483C156.167 91.9326 156.167 92.717 156.167 93.6582H152.962V49.2639H156.1V58.3624C159.977 51.729 165.96 49.2639 173.468 49.0846V49.0846Z" fill="black"/>
<path d="M19.3088 70.0156C19.7794 67.7746 20.0708 65.3319 20.7207 63.0461C24.5976 49.2639 40.3967 43.5269 51.2656 52.0652C57.6301 57.0626 59.2212 64.1442 58.9074 72.1222H23.0513C22.4687 86.375 32.7549 94.9804 45.9096 90.5881C48.0435 89.8248 49.9537 88.5421 51.4678 86.8558C52.9819 85.1696 54.0523 83.1328 54.5823 80.9293C55.277 78.6883 56.3975 78.3074 58.5265 78.9572C58.1758 81.6855 57.2112 84.2987 55.7051 86.6004C54.1991 88.9022 52.1908 90.8325 49.8314 92.2464C45.9329 94.3783 41.4602 95.2228 37.0528 94.6593C32.6454 94.0958 28.529 92.1531 25.2923 89.109C22.0903 85.5087 20.1542 80.9596 19.7794 76.156C19.7794 75.394 19.4881 74.6321 19.3312 73.915C19.3163 72.5853 19.3088 71.2855 19.3088 70.0156ZM23.0961 69.052H55.5235C55.3218 58.721 48.8005 51.3929 40.1054 51.3256C30.4242 51.1912 23.4995 58.3624 23.0737 69.0072L23.0961 69.052Z" fill="black"/>
</svg>
