<svg width="125" height="63" viewBox="0 0 125 63" fill="none" xmlns="http://www.w3.org/2000/svg">
<path fill-rule="evenodd" clip-rule="evenodd" d="M7.82006 31.9354C7.76194 32.2687 7.70447 32.5983 7.63794 32.9177C7.63794 33.424 7.64089 33.9423 7.6468 34.4725C7.66516 34.5571 7.68817 34.6432 7.71148 34.7305C7.76696 34.9382 7.8241 35.1521 7.8241 35.366C7.97232 37.2814 8.73819 39.0953 10.0048 40.5309C11.2852 41.7446 12.9135 42.5193 14.6569 42.744C16.4003 42.9686 18.1696 42.6319 19.7117 41.7818C20.6451 41.2181 21.4395 40.4484 22.0352 39.5306C22.6309 38.6128 23.0125 37.5708 23.1512 36.483C22.3091 36.2239 21.8659 36.3758 21.591 37.2693C21.3814 38.1479 20.958 38.9601 20.3591 39.6324C19.7601 40.3048 19.0045 40.8163 18.1604 41.1206C12.9568 42.872 8.88787 39.4407 9.11835 33.7576H23.3019C23.426 30.5765 22.7967 27.7529 20.2791 25.7602C15.9797 22.3557 9.73002 24.6433 8.19642 30.1387C8.03121 30.7244 7.92458 31.3359 7.82006 31.9354ZM21.9634 32.5334H9.13608L9.12722 32.5156C9.29565 28.2711 12.0349 25.4117 15.8644 25.4653C19.3039 25.4921 21.8836 28.4141 21.9634 32.5334ZM88.0235 36.5813H86.7647C86.7592 37.3682 86.9083 38.1484 87.2035 38.8769C87.4986 39.6054 87.934 40.2677 88.4844 40.8257C90.6563 42.9614 95.5319 43.4081 98.4927 41.7193C99.2926 41.3122 99.9449 40.6615 100.357 39.8594C100.769 39.0574 100.92 38.1449 100.789 37.2515C100.75 36.436 100.466 35.6517 99.9758 35.0023C99.485 34.3528 98.8102 33.8689 98.0406 33.6147C97.3692 33.3836 96.6675 33.2168 95.9645 33.0498L95.9644 33.0498C95.5259 32.9456 95.0868 32.8412 94.6543 32.7211C94.2525 32.6083 93.8486 32.5014 93.4446 32.3945L93.4445 32.3945L93.4443 32.3944L93.4442 32.3944L93.4441 32.3944C92.4397 32.1286 91.4347 31.8627 90.4613 31.5058C89.944 31.3215 89.4959 30.9804 89.1785 30.5292C88.8611 30.0781 88.6899 29.5391 88.6883 28.986C88.6384 28.4332 88.76 27.8784 89.0363 27.3982C89.3126 26.918 89.73 26.5361 90.2308 26.3053C91.0644 25.8824 91.964 25.6073 92.8902 25.4921C95.9929 25.1883 98.8828 26.2606 99.0157 29.7366C99.0157 29.7634 99.0401 29.788 99.0645 29.8125C99.0889 29.8371 99.1133 29.8617 99.1133 29.8885H100.195C100.328 28.9644 100.179 28.0212 99.7676 27.1846C99.3558 26.3481 98.7008 25.6579 97.8899 25.2062C96.5514 24.4986 95.0583 24.1401 93.547 24.1635C92.0357 24.1869 90.5543 24.5915 89.2379 25.3402C86.6671 26.7163 86.809 31.068 89.0784 32.185C90.4683 32.817 91.9023 33.3456 93.3689 33.7666C93.9627 33.9585 94.5675 34.1204 95.172 34.2822L95.1721 34.2822C96.0025 34.5044 96.8325 34.7266 97.6328 35.0265C98.1963 35.2219 98.6812 35.5972 99.0139 36.0955C99.3467 36.5938 99.5091 37.1879 99.4767 37.7876C99.5205 38.4095 99.374 39.0299 99.0569 39.5652C98.7399 40.1005 98.2676 40.5248 97.7038 40.7811C96.6691 41.3182 95.5277 41.6132 94.3643 41.6442C93.2009 41.6751 92.0456 41.4412 90.9843 40.9598C90.1391 40.5749 89.4156 39.9625 88.8933 39.1901C88.3709 38.4176 88.07 37.515 88.0235 36.5813ZM84.123 36.4919C83.9255 38.1956 83.1209 39.7691 81.8588 40.9196C80.5968 42.0702 78.9631 42.7195 77.2616 42.7469C71.801 43.0239 69.239 39.3692 68.8313 35.1516C68.5482 32.8612 68.9172 30.5369 69.895 28.4499C70.576 27.0183 71.6913 25.8423 73.0794 25.092C74.4675 24.3418 76.0564 24.0563 77.6162 24.2769C79.0991 24.4036 80.5049 24.9973 81.6345 25.9739C82.764 26.9506 83.5602 28.2607 83.9102 29.7187C84.1876 31.0466 84.3918 32.389 84.5219 33.7398H70.1698C69.9039 37.5642 71.9428 40.6381 74.8327 41.3798C78.4318 42.2733 81.5079 40.7006 82.6248 37.2515C82.873 36.3668 83.3251 36.2417 84.123 36.4919ZM70.1698 32.5156H82.9971C82.9173 28.4409 80.3998 25.4921 76.9868 25.4475C73.1218 25.3849 70.3383 28.2265 70.1698 32.5156ZM41.6786 48.841V24.6433H42.9817V28.4499C43.1356 28.2812 43.2778 28.1021 43.4072 27.9137C43.9397 26.7996 44.7762 25.8615 45.8187 25.2094C46.8612 24.5574 48.0666 24.2184 49.2934 24.2322C52.2631 24.1429 54.6743 25.2509 56.0926 27.9137C56.9951 29.5679 57.4918 31.4158 57.5411 33.303C57.5905 35.1901 57.1911 37.0618 56.3763 38.7616C55.0555 41.7461 51.7932 43.2294 48.3005 42.6844C47.2136 42.591 46.1672 42.2249 45.2567 41.6193C44.3462 41.0137 43.6007 40.1879 43.0881 39.2173V48.841H41.6786ZM42.9817 33.2036C43.018 33.5754 43.0473 33.9134 43.0745 34.2277C43.1337 34.9108 43.1832 35.4822 43.2742 36.0452C43.7884 39.2799 45.6854 41.2011 48.664 41.5495C50.0626 41.7813 51.4976 41.517 52.7245 40.8017C53.9514 40.0864 54.8942 38.9643 55.3923 37.6268C55.9647 36.251 56.2402 34.7682 56.2004 33.2769C56.1607 31.7856 55.8067 30.3199 55.1618 28.9771C54.6301 27.7783 53.7259 26.7864 52.5857 26.1513C51.4454 25.5161 50.1311 25.2722 48.8413 25.4564C47.6302 25.5449 46.4766 26.0115 45.5409 26.7914C44.6051 27.5713 43.9337 28.6257 43.6199 29.8081C43.3423 30.9266 43.1292 32.0603 42.9817 33.2036ZM116.745 29.8885H115.566C115.566 29.7899 115.543 29.698 115.521 29.6108C115.507 29.5557 115.493 29.5025 115.486 29.4506C115.467 28.5598 115.145 27.7026 114.574 27.0227C114.003 26.3427 113.217 25.8812 112.348 25.7155C110.709 25.2416 108.961 25.3264 107.375 25.9568C106.748 26.138 106.196 26.5187 105.802 27.0421C105.407 27.5655 105.191 28.2035 105.186 28.8609C105.164 29.5065 105.363 30.14 105.751 30.6544C106.138 31.1688 106.69 31.5327 107.313 31.6846C108.336 32.0041 109.373 32.2524 110.414 32.5013C111.177 32.6838 111.941 32.8668 112.703 33.0785C113.286 33.2196 113.86 33.3957 114.423 33.6057C115.262 33.9086 115.992 34.4597 116.516 35.1871C117.04 35.9145 117.334 36.7843 117.36 37.6829C117.386 38.5815 117.142 39.4671 116.661 40.2238C116.179 40.9806 115.483 41.5735 114.662 41.9248C113.411 42.4974 112.055 42.8004 110.681 42.8142C109.307 42.8281 107.946 42.5525 106.684 42.0052C105.646 41.554 104.77 40.7931 104.174 39.825C103.578 38.8569 103.291 37.728 103.351 36.5902H103.847H104.503C104.716 37.627 105.177 38.5958 105.845 39.4127C106.514 40.2296 107.369 40.8699 108.338 41.2783C109.308 41.6867 110.361 41.8507 111.407 41.7563C112.453 41.6619 113.461 41.3118 114.343 40.7364C114.88 40.4551 115.326 40.0244 115.628 39.4954C115.929 38.9664 116.074 38.3613 116.045 37.7519C116.072 37.1518 115.903 36.5592 115.566 36.0642C115.228 35.5691 114.74 35.1985 114.174 35.0086C113.378 34.7103 112.553 34.4919 111.727 34.2733C111.118 34.1122 110.509 33.951 109.91 33.7576C108.436 33.3432 106.993 32.8205 105.593 32.1939C103.377 31.0948 103.2 26.7789 105.726 25.4028C107.059 24.6226 108.569 24.2036 110.11 24.1863C111.651 24.1691 113.171 24.5543 114.52 25.3045C115.292 25.7689 115.913 26.4495 116.308 27.2633C116.703 28.0772 116.855 28.9892 116.745 29.8885ZM38.084 42.308C38.5478 42.4858 39.0603 42.4862 39.5244 42.3091C38.9438 41.5272 38.3678 40.7505 37.7946 39.9777L37.7811 39.9595L37.7807 39.9589L37.78 39.958C36.2227 37.8583 34.687 35.7877 33.1418 33.7219C33.0489 33.6381 32.9747 33.5355 32.9238 33.4208C32.8729 33.306 32.8467 33.1818 32.8467 33.0562C32.8467 32.9305 32.8729 32.8063 32.9238 32.6916C32.9747 32.5769 33.0489 32.4743 33.1418 32.3905C34.0595 31.2448 34.9379 30.0707 35.8173 28.8954L35.8175 28.8952L35.8177 28.8949C36.0424 28.5945 36.2672 28.2941 36.4927 27.9941L38.9659 24.6879C38.5301 24.5172 38.0473 24.5139 37.6092 24.6787C37.1712 24.8434 36.8085 25.1647 36.5902 25.5815C35.4695 27.1802 34.2907 28.7397 33.0896 30.3289L33.0895 30.3289C32.666 30.8893 32.2396 31.4534 31.8121 32.0241C31.3126 31.3483 30.8123 30.6842 30.3161 30.0254L30.316 30.0254C29.1916 28.5327 28.0877 27.0674 27.0606 25.5547C26.8059 25.1353 26.4154 24.8174 25.9551 24.6546C25.4948 24.4918 24.9929 24.4941 24.5341 24.6611L30.9079 33.0338L24.0554 42.3001C24.5005 42.4617 24.9886 42.4547 25.429 42.2804C25.8693 42.1062 26.2318 41.7766 26.4489 41.3529C27.707 39.4979 29.0561 37.6937 30.4274 35.8598C30.8726 35.2644 31.3202 34.6659 31.7678 34.0614L32.4326 34.955C32.8905 35.5899 33.3539 36.2209 33.8171 36.8516L33.8171 36.8516C34.9056 38.3336 35.9933 39.8146 37.0068 41.344C37.2369 41.7873 37.6201 42.1302 38.084 42.308ZM68.6185 24.5718V25.8228C67.7219 25.7635 66.8229 25.8944 65.9796 26.207C65.1363 26.5196 64.3674 27.0069 63.7225 27.6376C63.0777 28.2683 62.5711 29.0282 62.2357 29.8684C61.9002 30.7086 61.7432 31.6104 61.7749 32.5156V41.344V42.3448H60.5072V24.6432H61.7483V28.2711C63.2819 25.6262 65.6488 24.6432 68.6185 24.5718Z" fill="black"/>
</svg>
