<svg width="43" height="64" viewBox="0 0 43 64" fill="none" xmlns="http://www.w3.org/2000/svg">
<path d="M11.5 61C16.744 61 21 56.744 21 51.5V42H11.5C6.256 42 2 46.256 2 51.5C2 56.744 6.256 61 11.5 61Z" fill="#0ACF83"/>
<path d="M2 32C2 26.48 6.256 22 11.5 22H21V42H11.5C6.256 42 2 37.52 2 32Z" fill="#A259FF"/>
<path d="M2 12.5C2 7.256 6.256 3 11.5 3H21V22H11.5C6.256 22 2 17.744 2 12.5Z" fill="#F24E1E"/>
<path d="M22 3H31.5C36.744 3 41 7.256 41 12.5C41 17.744 36.744 22 31.5 22H22V3Z" fill="#FF7262"/>
<path d="M41 32C41 37.52 36.744 42 31.5 42C26.256 42 22 37.52 22 32C22 26.48 26.256 22 31.5 22C36.744 22 41 26.48 41 32Z" fill="#1ABCFE"/>
</svg>
