<svg width="81" height="121" viewBox="0 0 81 121" fill="none" xmlns="http://www.w3.org/2000/svg">
<path d="M20.254 121C31.4298 121 40.5 111.965 40.5 100.833V80.6666H20.254C9.07824 80.6666 0.00805664 89.7013 0.00805664 100.833C0.00805664 111.965 9.07824 121 20.254 121Z" fill="#0ACF83"/>
<path d="M0.00805664 60.5C0.00805664 49.368 9.07824 40.3334 20.254 40.3334H40.5V80.6667H20.254C9.07824 80.6667 0.00805664 71.632 0.00805664 60.5Z" fill="#A259FF"/>
<path d="M0.00805664 20.1667C0.00805664 9.03467 9.07824 0 20.254 0H40.5V40.3333H20.254C9.07824 40.3333 0.00805664 31.2987 0.00805664 20.1667Z" fill="#F24E1E"/>
<path d="M40.5 0H60.746C71.9217 0 80.9919 9.03467 80.9919 20.1667C80.9919 31.2987 71.9217 40.3333 60.746 40.3333H40.5V0Z" fill="#FF7262"/>
<path d="M80.9919 60.5C80.9919 71.632 71.9217 80.6667 60.746 80.6667C49.5702 80.6667 40.5 71.632 40.5 60.5C40.5 49.368 49.5702 40.3334 60.746 40.3334C71.9217 40.3334 80.9919 49.368 80.9919 60.5Z" fill="#1ABCFE"/>
</svg>
