<svg width="134" height="188" viewBox="0 0 134 188" fill="none" xmlns="http://www.w3.org/2000/svg">
<path d="M133.767 36.853L121.602 172.442L66.9183 187.525L12.3854 172.463L0.233032 36.853H133.767Z" fill="#E44D26"/>
<path d="M67 175.996L111.187 163.808L121.583 47.9412H67V175.996Z" fill="#F16529"/>
<path d="M43.3512 81.2057H67V64.5735H25.0815L25.4817 69.0356L29.5904 114.869H67V98.2372H44.8789L43.3512 81.2057Z" fill="#EBEBEB"/>
<path d="M47.1187 123.185H30.3374L32.6795 149.3L66.9231 158.758L67 158.737V141.432L66.9268 141.452L48.3089 136.45L47.1187 123.185Z" fill="#EBEBEB"/>
<path d="M12.6571 0H21.1525V8.35072H28.9237V0H37.4195V25.288H28.9241V16.8201H21.1529V25.288H12.6575V0H12.6571Z" fill="black"/>
<path d="M48.5911 8.38588H41.1122V0H64.5695V8.38588H57.0873V25.288H48.5915V8.38588H48.5911Z" fill="black"/>
<path d="M68.2925 0H77.1508L82.5999 8.88546L88.0435 0H96.9052V25.288H88.4448V12.7539L82.5999 21.7452H82.4538L76.6049 12.7539V25.288H68.2925V0Z" fill="black"/>
<path d="M101.133 0H109.631V16.9293H121.578V25.288H101.133V0Z" fill="black"/>
<path d="M66.9423 114.869H87.5275L85.587 136.439L66.9423 141.446V158.75L101.213 149.3L101.465 146.49L105.393 102.703L105.801 98.2371H66.9423V114.869Z" fill="white"/>
<path d="M66.9423 81.1651V81.2057H107.322L107.657 77.4673L108.419 69.0356L108.819 64.5735H66.9423V81.1651Z" fill="white"/>
</svg>
