<svg width="46" height="64" viewBox="0 0 46 64" fill="none" xmlns="http://www.w3.org/2000/svg">
<path d="M45.92 12.5458L41.7438 58.7037L22.9719 63.8383L4.25168 58.711L0.0799561 12.5458H45.92Z" fill="#E44D26"/>
<path d="M23 59.9136L38.1686 55.7645L41.7374 16.3204H23V59.9136Z" fill="#F16529"/>
<path d="M14.8818 27.6445H23V21.9824H8.61011L8.74748 23.5014L10.1579 39.1043H23V33.4424H15.4062L14.8818 27.6445Z" fill="#EBEBEB"/>
<path d="M16.175 41.9354H10.4143L11.2183 50.8255L22.9736 54.0452L23 54.038V48.1472L22.9748 48.1538L16.5836 46.4511L16.175 41.9354Z" fill="#EBEBEB"/>
<path d="M4.34497 0H7.26129V2.8428H9.92904V0H12.8455V8.60869H9.92917V5.726H7.26142V8.60869H4.3451V0H4.34497Z" fill="black"/>
<path d="M16.6806 2.85477H14.1132V0H22.1657V2.85477H19.5971V8.60869H16.6807V2.85477H16.6806Z" fill="black"/>
<path d="M23.4436 0H26.4845L28.3551 3.02484L30.2238 0H33.2659V8.60869H30.3616V4.34175L28.3551 7.40262H28.3049L26.2971 4.34175V8.60869H23.4436V0Z" fill="black"/>
<path d="M34.7173 0H37.6345V5.76315H41.7357V8.60869H34.7173V0Z" fill="black"/>
<path d="M22.9801 39.1043H30.0467L29.3805 46.4474L22.9801 48.1519V54.0424L34.7447 50.8255L34.831 49.8689L36.1796 34.9628L36.3196 33.4424H22.9801V39.1043Z" fill="white"/>
<path d="M22.9801 27.6306V27.6445H36.8418L36.9569 26.3718L37.2184 23.5014L37.3556 21.9824H22.9801V27.6306Z" fill="white"/>
</svg>
