<svg width="39" height="63" viewBox="0 0 39 63" fill="none" xmlns="http://www.w3.org/2000/svg">
<g clip-path="url(#clip0_416_2692)">
<path d="M30.7342 34.8644C28.2709 34.8644 26.0624 35.9504 24.5501 37.6602L20.6748 34.9303C21.0862 33.8033 21.3224 32.5931 21.3224 31.3264C21.3224 30.0817 21.0944 28.8919 20.6966 27.7815L24.5632 25.0805C26.0753 26.7817 28.278 27.8617 30.7342 27.8617C35.2809 27.8617 38.9806 24.1809 38.9806 19.656C38.9806 15.1311 35.2809 11.4502 30.7342 11.4502C26.1875 11.4502 22.4879 15.1311 22.4879 19.656C22.4879 20.4659 22.6108 21.2469 22.8315 21.9865L18.9624 24.6889C17.3461 22.6936 15.0189 21.3005 12.3674 20.8753V16.2351C16.1028 15.4544 18.9173 12.1519 18.9173 8.20575C18.9173 3.6808 15.2177 0 10.671 0C6.12424 0 2.42461 3.6808 2.42461 8.20575C2.42461 12.099 5.16619 15.3608 8.82686 16.1972V20.8977C3.83102 21.7703 0.0195312 26.1088 0.0195312 31.3264C0.0195312 36.5695 3.86876 40.9239 8.90067 41.7669V46.7302C5.20257 47.5391 2.42461 50.8209 2.42461 54.7406C2.42461 59.2656 6.12424 62.9464 10.671 62.9464C15.2177 62.9464 18.9173 59.2656 18.9173 54.7406C18.9173 50.8209 16.1394 47.5391 12.4413 46.7302V41.7667C14.9882 41.3398 17.2923 40.0063 18.9246 38.0146L22.8257 40.7622C22.6092 41.4952 22.4879 42.2685 22.4879 43.0702C22.4879 47.5951 26.1875 51.2759 30.7342 51.2759C35.2809 51.2759 38.9806 47.5951 38.9806 43.0702C38.9806 38.5452 35.2809 34.8644 30.7342 34.8644V34.8644ZM30.7342 15.6775C32.939 15.6775 34.7323 17.4627 34.7323 19.656C34.7323 21.8493 32.939 23.6344 30.7342 23.6344C28.5294 23.6344 26.7362 21.8493 26.7362 19.656C26.7362 17.4627 28.5294 15.6775 30.7342 15.6775V15.6775ZM6.67274 8.20575C6.67274 6.01241 8.46616 4.22736 10.671 4.22736C12.8758 4.22736 14.669 6.01241 14.669 8.20575C14.669 10.3991 12.8758 12.1841 10.671 12.1841C8.46616 12.1841 6.67274 10.3991 6.67274 8.20575ZM14.669 54.7406C14.669 56.934 12.8758 58.719 10.671 58.719C8.46616 58.719 6.67274 56.934 6.67274 54.7406C6.67274 52.5473 8.46616 50.7622 10.671 50.7622C12.8758 50.7622 14.669 52.5473 14.669 54.7406ZM10.6707 36.875C7.59563 36.875 5.09405 34.3862 5.09405 31.3264C5.09405 28.2666 7.59563 25.7773 10.6707 25.7773C13.7455 25.7773 16.2471 28.2666 16.2471 31.3264C16.2471 34.3862 13.7455 36.875 10.6707 36.875ZM30.7342 47.0487C28.5294 47.0487 26.7362 45.2635 26.7362 43.0702C26.7362 40.8768 28.5294 39.0918 30.7342 39.0918C32.939 39.0918 34.7323 40.8768 34.7323 43.0702C34.7323 45.2635 32.939 47.0487 30.7342 47.0487Z" fill="#231F20"/>
</g>
<defs>
<clipPath id="clip0_416_2692">
<rect width="39" height="63" fill="white"/>
</clipPath>
</defs>
</svg>
