<svg width="172" height="63" viewBox="0 0 172 63" fill="none" xmlns="http://www.w3.org/2000/svg">
<path fill-rule="evenodd" clip-rule="evenodd" d="M160.213 27.6428C160.056 27.6727 159.899 28.0014 159.899 28.1806C159.868 29.3754 159.837 32.542 159.837 34.6927C159.837 34.7525 159.931 34.8718 160.025 34.8718C160.495 34.9017 161.624 34.9316 162.595 34.9316C163.943 34.9316 164.727 34.7525 165.166 34.5733C166.294 34.0356 166.827 32.8704 166.827 31.5859C166.827 28.6884 164.696 27.583 161.529 27.583C161.31 27.5534 160.683 27.5534 160.213 27.6428ZM168.301 40.9957C168.301 38.0385 166.012 36.3953 161.874 36.3953C161.686 36.3953 160.37 36.3654 160.056 36.4252C159.962 36.4551 159.837 36.515 159.837 36.6047C159.837 38.7254 159.805 42.1011 159.899 43.4153C159.962 43.9829 160.401 44.7895 160.934 45.0285C161.498 45.3273 162.784 45.3868 163.661 45.3868C166.138 45.3868 168.301 44.0726 168.301 40.9957ZM153.818 26C154.131 26 155.072 26.0894 157.486 26.0894C159.774 26.0894 161.592 26.0299 163.818 26.0299C166.545 26.0299 170.307 26.9559 170.307 30.8391C170.307 32.7511 168.896 34.2746 167.047 35.0214C166.953 35.0513 166.953 35.1108 167.047 35.1407C169.68 35.7682 172 37.3216 172 40.2489C172 43.1168 170.119 44.9388 167.392 46.0741C165.73 46.761 163.661 47 161.561 47C159.962 47 155.667 46.8208 153.285 46.8807C153.034 46.7909 153.504 45.7155 153.724 45.5363C154.288 45.5064 154.727 45.4765 155.323 45.2974C156.169 45.0883 156.263 44.8493 156.388 43.6246C156.451 42.579 156.451 38.8747 156.451 36.2461C156.451 32.6314 156.483 30.182 156.451 28.9872C156.42 28.0612 156.075 27.7625 155.385 27.583C154.852 27.4936 153.974 27.374 153.254 27.2845C153.097 27.135 153.63 26.1193 153.818 26ZM135.73 44.5805C136.482 45.1478 137.955 45.3868 139.272 45.3868C140.965 45.3868 142.658 45.0883 144.288 43.6841C145.949 42.2504 147.109 40.0399 147.109 36.515C147.109 33.1393 145.761 30.3911 143.003 28.7781C141.435 27.8519 139.429 27.4637 137.109 27.4637C136.419 27.4637 135.761 27.4936 135.354 27.6727C135.259 27.7326 135.04 28.0014 135.04 28.1507C134.977 28.7482 134.977 33.3483 134.977 36.037C134.977 38.8152 134.977 42.6984 135.04 43.1464C135.04 43.5947 135.259 44.2817 135.73 44.5805ZM128.613 26C129.209 26 131.498 26.0894 132.595 26.0894C134.57 26.0894 135.98 26 139.711 26C142.846 26 145.479 26.8066 147.36 28.3298C149.648 30.2119 150.84 32.8109 150.84 35.9772C150.84 40.4879 148.677 43.0869 146.513 44.5805C144.351 46.104 141.529 47 137.517 47C135.385 47 131.717 46.9402 128.676 46.9103H128.645C128.488 46.6417 128.896 45.5961 129.146 45.5662C129.961 45.4765 130.181 45.4466 130.589 45.2974C131.247 45.0584 131.372 44.7297 131.466 43.6246C131.56 41.5634 131.529 39.084 131.529 36.276C131.529 34.2746 131.56 30.3612 131.498 29.1065C131.404 28.0612 130.933 27.7924 129.993 27.6129C129.523 27.5235 128.896 27.4039 128.018 27.3144C127.893 27.1051 128.457 26.1792 128.613 26Z" fill="#8E714E"/>
<path fill-rule="evenodd" clip-rule="evenodd" d="M91.6594 46.1736C90.8838 46.0813 90.3254 45.9587 89.6428 45.6515C89.5499 45.59 89.3946 45.2832 89.3946 45.1602C89.3325 44.0854 89.3325 41.0147 89.3325 38.9573C89.3325 37.299 89.0536 35.8558 88.3399 34.8425C87.5022 33.6755 86.2925 33 84.7414 33C83.3764 33 81.5462 33.9214 80.0262 35.2111C79.9951 35.2416 79.7469 35.4568 79.778 35.1189C79.778 34.781 79.8401 34.1056 79.8712 33.645C79.9022 33.2149 79.6541 33 79.6541 33C78.6611 33.4913 75.8693 34.1363 74.8456 34.2282C74.1011 34.3819 73.9151 35.0881 74.6906 35.3338H74.7217C75.559 35.5794 76.1175 35.8558 76.5517 36.1322C76.8619 36.3779 76.8309 36.7157 76.8309 36.9921C76.8619 39.2952 76.8619 42.8264 76.7691 44.7612C76.738 45.5288 76.5209 45.8049 75.9625 45.9279L76.0243 45.8972C75.5901 45.9894 75.2488 46.0813 74.7214 46.1428C74.5353 46.327 74.5353 47.3099 74.7214 47.5248C75.0627 47.5248 76.8619 47.4325 78.3512 47.4325C80.3985 47.4325 81.4533 47.5248 81.9806 47.5248C82.1977 47.2791 82.2599 46.3577 82.1356 46.1428C81.5462 46.1121 81.112 46.0509 80.7088 45.9279C80.1504 45.8049 79.9951 45.5288 79.964 44.8838C79.9022 43.2563 79.9022 39.8172 79.9022 37.4834C79.9022 36.8384 80.0883 36.5313 80.2743 36.3471C80.9877 35.7331 82.1356 35.303 83.1593 35.303C84.152 35.303 84.8035 35.6102 85.2999 36.0095C85.9822 36.562 86.1993 37.3604 86.2925 37.944C86.4475 39.2644 86.3857 41.8746 86.3857 44.1469C86.3857 45.3751 86.2925 45.6823 85.8272 45.8357C85.6101 45.9279 85.0517 46.0509 84.4001 46.1121C84.183 46.327 84.2451 47.2791 84.4001 47.494C85.2999 47.494 86.3546 47.4018 87.9057 47.4018C89.8288 47.4018 91.0699 47.494 91.5662 47.494C91.7212 47.3099 91.7833 46.4192 91.6591 46.1736H91.6594ZM100.252 34.4434C98.6081 34.4434 97.5844 35.7024 97.5844 37.6676C97.5844 39.6635 98.4838 41.9665 101.028 41.9665C101.462 41.9665 102.269 41.7824 102.641 41.3526C103.23 40.7998 103.634 39.6942 103.634 38.5275C103.634 35.9788 102.361 34.4434 100.252 34.4434ZM100.035 48.0161C99.4146 48.0161 98.9802 48.2002 98.7012 48.3539C97.398 49.1828 96.8089 49.9812 96.8089 50.9334C96.8089 51.8237 97.1499 52.5299 97.8947 53.1442C98.7941 53.9119 100.035 54.2805 101.617 54.2805C104.781 54.2805 106.177 52.5914 106.177 50.9334C106.177 49.7663 105.588 48.9986 104.378 48.5688C103.509 48.2002 101.927 48.0161 100.035 48.0161ZM100.252 56C98.3599 56 96.9949 55.6006 95.8162 54.7103C94.6683 53.8504 94.172 52.5607 94.172 51.6703C94.172 51.4247 94.2341 50.7489 94.7925 50.1349C95.1336 49.7663 95.878 49.0601 97.6465 47.8626C97.7083 47.8319 97.7394 47.8011 97.7394 47.7397C97.7394 47.6782 97.6773 47.6167 97.6154 47.5862C96.1573 47.0335 95.7231 46.1428 95.5988 45.6515V45.59C95.5681 45.4059 95.506 45.2217 95.7852 45.0373C96.0023 44.8838 96.3125 44.6997 96.6536 44.4848C97.1809 44.1776 97.7394 43.8398 98.0807 43.5634C98.1428 43.5019 98.1428 43.4407 98.1428 43.3792C98.1428 43.3177 98.0807 43.2563 98.0186 43.2258C95.8473 42.5193 94.7615 40.9225 94.7615 38.5275C94.7615 36.9614 95.4749 35.5487 96.7467 34.6583C97.6154 33.9826 99.7867 33.1537 101.214 33.1537H101.307C102.765 33.1842 103.572 33.4913 104.719 33.8906C105.34 34.1056 105.929 34.1975 106.736 34.1975C107.945 34.1975 108.473 33.8292 108.907 33.3994C108.938 33.4606 109 33.6143 109.031 34.0133C109.062 34.4127 108.938 34.9959 108.628 35.426C108.38 35.7636 107.822 36.0095 107.263 36.0095H107.108C106.549 35.948 106.301 35.8866 106.301 35.8866L106.177 35.948C106.146 36.0095 106.177 36.0707 106.208 36.163L106.239 36.2244C106.301 36.5008 106.425 37.3297 106.425 37.5449C106.425 40.0628 105.402 41.1681 104.316 41.9973C103.261 42.765 102.051 43.2563 100.686 43.3792C100.655 43.3792 100.531 43.3792 100.252 43.41C100.097 43.41 99.8799 43.4407 99.8488 43.4407H99.8178C99.5696 43.5019 98.9494 43.809 98.9494 44.3311C98.9494 44.7916 99.2286 45.3444 100.562 45.4366C100.841 45.4674 101.121 45.4674 101.431 45.4981C103.199 45.6208 105.402 45.7745 106.425 46.1121C107.852 46.6341 108.752 47.8931 108.752 49.398C108.752 51.6703 107.108 53.7892 104.378 55.1094C103.044 55.6929 101.71 56 100.252 56ZM117.934 34.5968C117.283 34.5968 116.693 34.7503 116.259 35.0574C115.049 35.7943 114.429 37.2685 114.429 39.4178C114.429 43.4407 116.476 46.2658 119.392 46.2658C120.261 46.2658 120.943 46.0201 121.533 45.5288C122.432 44.7916 122.898 43.3177 122.898 41.2603C122.898 37.2685 120.881 34.5968 117.934 34.5968ZM118.493 47.7397C113.219 47.7397 111.327 43.9013 111.327 40.3085C111.327 37.7905 112.35 35.8558 114.398 34.4739C115.856 33.5835 117.593 33.0922 119.144 33.0922C123.177 33.0922 126 35.948 126 40.0628C126 42.8572 124.883 45.068 122.743 46.4192C121.719 47.0947 119.951 47.7397 118.493 47.7397H118.493ZM63.2127 34.5968C62.5611 34.5968 61.9719 34.7503 61.5374 35.0574C60.3277 35.7943 59.7071 37.2685 59.7071 39.4178C59.7071 43.4407 61.7545 46.2658 64.6706 46.2658C65.5393 46.2658 66.2216 46.0201 66.8111 45.5288C67.7106 44.7916 68.1761 43.3177 68.1761 41.2603C68.1761 37.2685 66.1906 34.5968 63.2127 34.5968ZM63.7711 47.7397C58.4974 47.7397 56.605 43.9013 56.605 40.3085C56.605 37.7905 57.6287 35.8558 59.6761 34.4739C61.1343 33.5835 62.8714 33.0922 64.4224 33.0922C68.4553 33.0922 71.2782 35.948 71.2782 40.0628C71.2782 42.8572 70.1614 45.068 68.0209 46.4192C67.0282 47.0947 65.2601 47.7397 63.7711 47.7397ZM28.3136 47.4325C28.2515 47.3406 28.1894 47.0642 28.2205 46.7263C28.2205 46.4807 28.2826 46.327 28.3136 46.2658C28.965 46.1736 29.3063 46.0813 29.6784 45.9894C30.2989 45.8357 30.5471 45.4981 30.5781 44.7304C30.6713 42.8879 30.6713 39.3871 30.6402 36.9614V36.8999C30.6402 36.6235 30.6402 36.2856 30.2989 36.04C29.8026 35.7331 29.2131 35.4568 28.4376 35.2416C28.1584 35.1496 27.9723 34.9959 28.0034 34.8118C28.0034 34.6276 28.1894 34.4127 28.5929 34.3512C29.6165 34.259 32.2842 33.6143 33.3389 33.1537C33.401 33.2149 33.4942 33.3994 33.4942 33.645L33.4631 33.9826C33.4321 34.3205 33.401 34.7198 33.401 35.1189C33.401 35.2416 33.5252 35.3338 33.6492 35.3338C33.7113 35.3338 33.7734 35.303 33.8355 35.2723C35.8208 33.7369 37.62 33.1842 38.5505 33.1842C40.0708 33.1842 41.2495 33.8906 42.1492 35.3645C42.211 35.4568 42.2732 35.4872 42.3663 35.4872C42.4284 35.4872 42.5213 35.4568 42.5524 35.3953C44.3826 34.0133 46.2129 33.1842 47.4226 33.1842C50.3076 33.1842 52.014 35.303 52.014 38.8958C52.014 39.9091 52.014 41.2296 51.9829 42.4274C51.9829 43.5019 51.9519 44.4848 51.9519 45.191C51.9519 45.3444 52.169 45.8357 52.5103 45.9279C52.9445 46.1428 53.534 46.235 54.3095 46.3577H54.3406C54.4027 46.5726 54.2785 47.3711 54.1545 47.5248C53.9682 47.5248 53.689 47.5248 53.379 47.494C52.7895 47.4633 51.9519 47.4325 51.0213 47.4325C49.0979 47.4325 48.1053 47.4633 47.1434 47.5248C47.0816 47.2791 47.0505 46.5422 47.1434 46.3577C47.7018 46.2658 47.9811 46.1736 48.3224 46.0813C48.9429 45.8972 49.0979 45.6208 49.129 44.8224C49.129 44.2391 49.2529 39.2644 49.0669 38.0666C48.8808 36.8384 47.95 35.3953 45.9026 35.3953C45.1271 35.3953 43.9174 35.7024 42.7384 36.5928C42.6766 36.6542 42.6145 36.8077 42.6145 36.8999V36.9306C42.7384 37.5753 42.7384 38.3126 42.7384 39.4486V41.4445C42.7384 42.8264 42.7074 44.1162 42.7384 45.0987C42.7384 45.7745 43.1418 45.9279 43.4832 46.0509C43.6692 46.0813 43.7932 46.1121 43.9484 46.1428C44.2276 46.2043 44.5069 46.2658 44.9411 46.3577C45.0032 46.4807 45.0032 46.8798 44.91 47.2176C44.8789 47.4018 44.8168 47.494 44.7861 47.5248C43.7313 47.494 42.6455 47.4633 41.0634 47.4633C40.5982 47.4633 39.7916 47.494 39.1089 47.494C38.5505 47.494 38.0231 47.5248 37.7132 47.5248C37.6821 47.4633 37.62 47.2484 37.62 46.9105C37.62 46.6341 37.6821 46.4192 37.7442 46.3577C37.8992 46.327 38.0231 46.2965 38.1784 46.2965C38.5505 46.235 38.8608 46.1736 39.171 46.1121C39.6984 45.9587 39.8845 45.6823 39.9155 45.0068C40.0087 43.4714 40.1016 39.0803 39.8845 37.9747C39.5124 36.1937 38.4887 35.303 36.8445 35.303C35.8829 35.303 34.6729 35.7636 33.6802 36.5008C33.5252 36.6235 33.401 36.9306 33.401 37.207V39.0188C33.401 41.2296 33.401 43.9935 33.4321 45.191C33.4631 45.5593 33.5871 45.9894 34.3008 46.1428C34.4558 46.1736 34.7039 46.235 35.0142 46.2658L35.5726 46.3577C35.6347 46.5422 35.6037 47.2791 35.4794 47.5248C35.1692 47.5248 34.7971 47.494 34.3626 47.494C33.7113 47.4633 32.8736 47.4325 31.9431 47.4325C30.8573 47.4325 30.0818 47.4633 29.4613 47.494C29.0271 47.4325 28.6857 47.4325 28.3136 47.4325Z" fill="#442D22"/>
<path fill-rule="evenodd" clip-rule="evenodd" d="M11.7483 55L10.5494 54.5632C10.5494 54.5632 10.6958 48.0449 8.5027 47.5772C7.04062 45.7683 8.73662 -29.1453 14 47.3277C14 47.3277 12.1872 48.2944 11.8654 49.9475C11.5144 51.5693 11.7483 55 11.7483 55Z" fill="#A6A385"/>
<path fill-rule="evenodd" clip-rule="evenodd" d="M11.976 48C11.976 48 23.235 40.7466 20.6006 25.6557C18.0603 14.6836 12.0699 11.0877 11.4114 9.7045C10.6902 8.72105 10 7 10 7L10.4707 37.5193C10.4707 37.5501 9.49823 46.8627 11.976 48Z" fill="#499D4A"/>
<path fill-rule="evenodd" clip-rule="evenodd" d="M9.74655 49C9.74655 49 -0.587117 41.8496 0.0262648 29.2592C0.608661 16.6684 7.90669 10.482 9.31707 9.36271C10.2371 8.36795 10.2678 7.99476 10.3292 7C10.973 8.39907 10.8505 27.9223 10.9423 30.2228C11.2183 39.0829 10.4517 47.3214 9.74655 49Z" fill="#58AA50"/>
</svg>
