<svg width="107" height="64" viewBox="0 0 107 64" fill="none" xmlns="http://www.w3.org/2000/svg">
<path fill-rule="evenodd" clip-rule="evenodd" d="M27.8879 18.1227H46.183V19.5644H29.5649V30.415H45.192V31.8566H29.5649V43.7695H46.3735V45.2112H27.8879V18.1227ZM47.8219 18.1227H49.7658L58.3797 30.0356L67.1842 18.1227L79.1598 2.9906L59.485 31.2876L69.6235 45.2112H67.6035L58.3797 32.5396L49.1178 45.2112H47.1358L57.3506 31.2876L47.8219 18.1227ZM70.3477 19.5644V18.1227H91.1965V19.5644H81.5916V45.2112H79.9145V19.5644H70.3477ZM5 18.1227H7.09631L36.0032 61.0093L24.0574 45.2112L6.75328 20.1714L6.67705 45.2112H5V18.1227ZM91.6272 42.7311C91.6272 43.0712 91.3743 43.3344 91.0276 43.3344C90.685 43.3344 90.428 43.0712 90.428 42.7311C90.428 42.3909 90.685 42.1277 91.0276 42.1277C91.3743 42.1277 91.6272 42.3909 91.6272 42.7311ZM94.4702 43.4073C93.4056 43.4073 92.6755 42.7513 92.6755 41.7471H93.5729C93.5851 42.2289 93.94 42.5529 94.4621 42.5529C95.0454 42.5529 95.3758 42.2046 95.3758 41.5527V37.4223H96.2895V41.5567C96.2895 42.7311 95.6042 43.4073 94.4702 43.4073ZM99.7321 43.4073C98.4268 43.4073 97.5499 42.7392 97.4846 41.6944H98.3901C98.4676 42.2492 99.0142 42.6015 99.8015 42.6015C100.536 42.6015 101.074 42.2249 101.074 41.7066C101.074 41.2611 100.731 40.9939 99.9524 40.8117L99.1937 40.6294C98.1291 40.3824 97.6437 39.8722 97.6437 39.0137C97.6437 37.9731 98.5003 37.2806 99.7851 37.2806C100.98 37.2806 101.853 37.9731 101.906 38.9571H101.017C100.931 38.4185 100.458 38.0824 99.7729 38.0824C99.0509 38.0824 98.5696 38.4266 98.5696 38.953C98.5696 39.3701 98.8796 39.609 99.6465 39.7872L100.295 39.9451C101.502 40.2245 102 40.7104 102 41.5891C102 42.7068 101.127 43.4073 99.7321 43.4073Z" fill="black"/>
</svg>
