<svg width="442" height="125" viewBox="0 0 442 125" fill="none" xmlns="http://www.w3.org/2000/svg">
<g clip-path="url(#clip0_412_2504)">
<path d="M406.078 44.4923C405.005 44.4923 403.962 44.7142 403.039 45.2366L373.825 62.1077C371.934 63.1962 370.785 65.2536 370.785 67.4419V101.122C370.785 103.309 371.934 105.364 373.825 106.456L381.454 110.86C385.161 112.687 386.528 112.659 388.215 112.659C393.703 112.659 396.836 109.329 396.836 103.541V70.2951C396.836 69.8251 396.429 69.4887 395.968 69.4887H392.308C391.839 69.4887 391.44 69.8251 391.44 70.2951V103.541C391.44 106.106 388.768 108.686 384.431 106.518L376.492 101.866C376.211 101.714 375.996 101.444 375.996 101.122V67.4419C375.996 67.1221 376.209 66.7974 376.492 66.6357L405.644 49.8265C405.917 49.6697 406.242 49.6697 406.512 49.8265L435.665 66.6357C435.942 66.8024 436.161 67.1124 436.161 67.4419V101.122C436.161 101.444 435.999 101.773 435.727 101.928L406.512 118.737C406.262 118.886 405.917 118.886 405.644 118.737L398.139 114.272C397.916 114.141 397.61 114.15 397.395 114.272C395.323 115.446 394.933 115.583 392.991 116.256C392.512 116.423 391.785 116.683 393.239 117.497L403.039 123.265C403.972 123.805 405.011 124.071 406.078 124.071C407.16 124.071 408.185 123.805 409.117 123.265L438.332 106.456C440.222 105.357 441.371 103.309 441.371 101.122V67.4419C441.371 65.2536 440.222 63.2007 438.332 62.1077L409.117 45.2366C408.202 44.7142 407.151 44.4923 406.078 44.4923Z" fill="#83CD29"/>
<path d="M413.893 68.5587C405.574 68.5587 400.62 72.0991 400.62 77.9867C400.62 84.3736 405.537 86.1284 413.521 86.9184C423.073 87.8535 423.818 89.2559 423.818 91.1362C423.818 94.3974 421.217 95.788 415.072 95.788C407.351 95.788 405.654 93.8605 405.086 90.0197C405.019 89.6078 404.701 89.2754 404.279 89.2754H400.496C400.029 89.2754 399.627 89.6765 399.627 90.1437C399.627 95.0602 402.302 100.874 415.072 100.874C424.316 100.874 429.648 97.2457 429.648 90.8881C429.648 84.5854 425.341 82.8937 416.374 81.7082C407.314 80.5094 406.45 79.9227 406.45 77.8007C406.45 76.0491 407.182 73.7068 413.893 73.7068C419.888 73.7068 422.103 74.9995 423.011 79.0412C423.091 79.4211 423.426 79.7234 423.818 79.7234H427.601C427.834 79.7234 428.06 79.5805 428.221 79.4132C428.38 79.2345 428.492 79.0333 428.469 78.7931C427.884 71.8325 423.242 68.5587 413.893 68.5587Z" fill="#83CD29"/>
<path d="M234.328 0.329896C234.008 0.333808 233.684 0.410277 233.398 0.577995C232.827 0.913173 232.468 1.52873 232.468 2.19067V49.6404C232.468 50.1066 232.251 50.5233 231.847 50.7571C231.443 50.9915 230.95 50.9915 230.545 50.7571L222.792 46.2912C221.636 45.6251 220.225 45.6255 219.07 46.2912L188.119 64.1547C186.962 64.8222 186.258 66.1064 186.258 67.442V103.169C186.258 104.503 186.963 105.726 188.119 106.394L219.07 124.258C220.227 124.925 221.634 124.925 222.792 124.258L253.743 106.394C254.899 105.726 255.603 104.503 255.603 103.169V14.0997C255.603 12.7447 254.864 11.4732 253.681 10.8123L235.259 0.51597C234.97 0.354606 234.649 0.326422 234.328 0.329998V0.329896ZM35.2252 44.9264C34.635 44.9502 34.0804 45.0535 33.5505 45.3607L2.59954 63.2242C1.44626 63.8909 0.73877 65.1052 0.73877 66.4495L0.800661 114.395C0.800661 115.062 1.14471 115.682 1.73106 116.008C2.30576 116.352 3.01907 116.352 3.59183 116.008L21.9515 105.464C23.1145 104.773 23.8743 103.571 23.8743 102.238V79.8471C23.8743 78.5115 24.5769 77.2857 25.7351 76.6218L33.5504 72.094C34.1337 71.7568 34.7599 71.5978 35.4111 71.5978C36.049 71.5978 36.7047 71.7566 37.2719 72.094L45.0872 76.6218C46.2453 77.2857 46.948 78.5115 46.948 79.8471V102.238C46.948 103.571 47.7153 104.781 48.8708 105.464L67.2304 116.008C67.807 116.352 68.5193 116.352 69.0912 116.008C69.6611 115.682 70.0216 115.062 70.0216 114.395L70.0835 66.4495C70.0835 65.1052 69.3838 63.8909 68.2227 63.2242L37.2718 45.3607C36.7483 45.0535 36.1914 44.9507 35.5971 44.9264H35.225H35.2252ZM313.349 45.3607C312.703 45.3599 312.069 45.5235 311.489 45.8569L280.538 63.7204C279.382 64.3881 278.677 65.6102 278.677 66.9457V102.673C278.677 104.016 279.434 105.234 280.6 105.898L311.303 123.389C312.436 124.037 313.821 124.085 314.962 123.451L333.57 113.092C334.16 112.765 334.56 112.153 334.562 111.48C334.566 110.806 334.215 110.202 333.632 109.867L302.495 92.0036C301.912 91.6711 301.503 90.9975 301.503 90.3288V79.1641C301.503 78.4966 301.917 77.8849 302.495 77.5517L312.171 71.9691C312.747 71.6361 313.454 71.6361 314.032 71.9691L323.708 77.5517C324.286 77.8849 324.638 78.4966 324.638 79.1641V87.972C324.638 88.6405 324.99 89.2512 325.569 89.5845C326.149 89.9187 326.851 89.9201 327.429 89.5845L345.975 78.7922C347.126 78.1235 347.836 76.8982 347.836 75.5668V66.9451C347.836 65.6135 347.129 64.3885 345.975 63.7198L315.21 45.8563C314.631 45.5205 313.996 45.3609 313.349 45.3601V45.3607ZM220.807 72.0319C220.968 72.0319 221.158 72.0715 221.303 72.1549L231.909 78.2956C232.197 78.4623 232.406 78.7694 232.406 79.1018V91.383C232.406 91.7164 232.199 92.0237 231.909 92.1894L221.303 98.3299C221.014 98.4946 220.661 98.4946 220.373 98.3299L209.766 92.1894C209.477 92.0227 209.27 91.7164 209.27 91.383V79.1018C209.27 78.7694 209.478 78.4631 209.766 78.2956L220.373 72.1559C220.517 72.0726 220.645 72.0329 220.807 72.0329V72.0319Z" fill="#404137"/>
<path d="M128.202 45.1746C127.557 45.1746 126.919 45.3373 126.341 45.6708L95.3903 63.4723C94.2332 64.1392 93.5295 65.4252 93.5295 66.7596V102.487C93.5295 103.823 94.2339 105.044 95.3903 105.712L126.341 123.575C127.498 124.244 128.906 124.244 130.063 123.575L161.014 105.712C162.169 105.044 162.875 103.823 162.875 102.487V66.7596C162.875 65.4232 162.171 64.1392 161.014 63.4723L130.063 45.6708C129.485 45.3373 128.847 45.1746 128.202 45.1746Z" fill="#83CD29"/>
<path d="M313.287 77.0564C313.164 77.0564 313.027 77.0564 312.915 77.1179L306.961 80.5914C306.737 80.7184 306.589 80.9548 306.589 81.2117V88.0345C306.589 88.2913 306.737 88.5267 306.961 88.6548L312.915 92.0661C313.139 92.1951 313.377 92.1951 313.598 92.0661L319.552 88.6548C319.773 88.5277 319.924 88.2913 319.924 88.0345V81.2117C319.924 80.9548 319.773 80.7192 319.552 80.5914L313.598 77.1179C313.487 77.0525 313.411 77.0564 313.287 77.0564Z" fill="#83CD29"/>
</g>
<defs>
<clipPath id="clip0_412_2504">
<rect width="441.379" height="125" fill="white"/>
</clipPath>
</defs>
</svg>
