<svg width="123" height="63" viewBox="0 0 123 63" fill="none" xmlns="http://www.w3.org/2000/svg">
<path d="M65.3008 14.0923C65.2115 14.0934 65.1212 14.1148 65.0415 14.1618C64.8824 14.2557 64.7822 14.428 64.7822 14.6134V27.8993C64.7822 28.0298 64.7217 28.1465 64.6094 28.2119C64.4968 28.2776 64.3593 28.2776 64.2464 28.2119L62.0858 26.9615C61.7639 26.775 61.3707 26.7751 61.0487 26.9615L52.4236 31.9633C52.1011 32.1502 51.905 32.5097 51.905 32.8837V42.8873C51.905 43.2609 52.1014 43.6031 52.4236 43.7904L61.0487 48.7921C61.3712 48.9791 61.7633 48.9791 62.0858 48.7921L70.711 43.7904C71.0331 43.6031 71.2295 43.2609 71.2295 42.8873V17.9479C71.2295 17.5685 71.0235 17.2125 70.6937 17.0274L65.5601 14.1444C65.4794 14.0993 65.3901 14.0914 65.3008 14.0924V14.0923ZM9.81633 26.5794C9.65185 26.586 9.49732 26.6149 9.34964 26.701L0.724478 31.7027C0.40309 31.8894 0.205933 32.2294 0.205933 32.6058L0.22318 46.0307C0.22318 46.2174 0.319057 46.3908 0.482455 46.4823C0.642608 46.5786 0.841388 46.5786 1.001 46.4823L6.11733 43.5298C6.44142 43.3364 6.65316 42.9998 6.65316 42.6267V36.3572C6.65316 35.9832 6.84895 35.64 7.1717 35.4541L9.3496 34.1863C9.51215 34.0919 9.68666 34.0473 9.86814 34.0473C10.0459 34.0473 10.2286 34.0918 10.3867 34.1863L12.5646 35.4541C12.8873 35.64 13.0831 35.9832 13.0831 36.3572V42.6267C13.0831 42.9998 13.297 43.3385 13.619 43.5298L18.7353 46.4823C18.896 46.5786 19.0945 46.5786 19.2538 46.4823C19.4127 46.3908 19.5131 46.2174 19.5131 46.0307L19.5304 32.6058C19.5304 32.2294 19.3354 31.8894 19.0118 31.7027L10.3867 26.701C10.2408 26.6149 10.0856 26.5861 9.91998 26.5794H9.81627H9.81633ZM87.3217 26.701C87.1415 26.7007 86.965 26.7465 86.8032 26.8399L78.178 31.8417C77.8558 32.0286 77.6595 32.3708 77.6595 32.7448V42.7483C77.6595 43.1244 77.8704 43.4655 78.1953 43.6514L86.7513 48.549C87.0673 48.7303 87.4531 48.7438 87.7711 48.5662L92.9566 45.6658C93.1212 45.5741 93.2325 45.4029 93.2332 45.2143C93.2342 45.0257 93.1364 44.8566 92.9739 44.7627L84.2969 39.761C84.1344 39.6679 84.0203 39.4793 84.0203 39.292V36.1659C84.0203 35.979 84.1358 35.8077 84.2969 35.7144L86.9933 34.1513C87.1537 34.0581 87.3508 34.0581 87.5119 34.1513L90.2083 35.7144C90.3694 35.8077 90.4676 35.979 90.4676 36.1659V38.6321C90.4676 38.8193 90.5658 38.9903 90.7269 39.0836C90.8886 39.1772 91.0843 39.1776 91.2454 39.0836L96.4136 36.0618C96.7344 35.8745 96.9321 35.5315 96.9321 35.1587V32.7446C96.9321 32.3717 96.7351 32.0287 96.4136 31.8415L87.8403 26.8397C87.6788 26.7457 87.5019 26.701 87.3217 26.7008V26.701ZM61.5327 34.1689C61.5777 34.1689 61.6306 34.18 61.671 34.2033L64.6267 35.9227C64.7069 35.9694 64.765 36.0554 64.765 36.1485V39.5872C64.765 39.6806 64.7074 39.7666 64.6267 39.813L61.671 41.5323C61.5905 41.5785 61.4922 41.5785 61.4117 41.5323L58.456 39.813C58.3755 39.7663 58.3177 39.6806 58.3177 39.5872V36.1485C58.3177 36.0554 58.3758 35.9696 58.456 35.9227L61.4117 34.2036C61.4521 34.1803 61.4877 34.1692 61.5327 34.1692V34.1689Z" fill="#404137"/>
<path fill-rule="evenodd" clip-rule="evenodd" d="M112.316 26.6663C112.573 26.52 112.864 26.4579 113.163 26.4579C113.462 26.4579 113.754 26.52 114.01 26.6663L122.151 31.3902C122.678 31.6962 122.998 32.2711 122.998 32.8838V42.3142C122.998 42.9266 122.678 43.4999 122.151 43.8077L114.01 48.5143C113.75 48.6655 113.464 48.7401 113.163 48.7401C112.865 48.7401 112.576 48.6655 112.316 48.5143L109.585 46.8992C109.179 46.6712 109.382 46.5985 109.515 46.5518C110.057 46.3632 110.165 46.3249 110.743 45.9961C110.803 45.9622 110.888 45.9594 110.95 45.9961L113.042 47.2465C113.118 47.2882 113.214 47.2882 113.284 47.2465L121.425 42.54C121.501 42.4966 121.546 42.4043 121.546 42.3142V32.8838C121.546 32.7915 121.485 32.7047 121.407 32.658L113.284 27.9515C113.208 27.9076 113.118 27.9076 113.042 27.9515L104.918 32.658C104.839 32.7033 104.779 32.7942 104.779 32.8838V42.3142C104.779 42.4043 104.84 42.4798 104.918 42.5226L107.13 43.8251C108.339 44.4322 109.083 43.7098 109.083 42.9915V33.6827C109.083 33.5511 109.195 33.4569 109.325 33.4569H110.345C110.474 33.4569 110.587 33.5511 110.587 33.6827V42.9915C110.587 44.6121 109.714 45.5445 108.185 45.5445H108.163C107.703 45.5446 107.318 45.5447 106.3 45.0409L104.174 43.8077C103.648 43.502 103.327 42.9266 103.327 42.3142V32.8838C103.327 32.2711 103.648 31.695 104.174 31.3902L112.316 26.6663ZM111.642 35.8363C111.642 34.1878 113.022 33.1965 115.34 33.1965C117.946 33.1965 119.239 34.1131 119.402 36.0621C119.409 36.1294 119.378 36.1857 119.333 36.2357C119.288 36.2826 119.225 36.3226 119.16 36.3226H118.106C117.997 36.3226 117.903 36.2379 117.881 36.1316C117.628 34.9999 117.011 34.6379 115.34 34.6379C113.47 34.6379 113.266 35.2938 113.266 35.7842C113.266 36.3784 113.507 36.5427 116.032 36.8783C118.531 37.2103 119.731 37.684 119.731 39.4487C119.731 41.2288 118.245 42.2449 115.669 42.2449C112.11 42.2449 111.365 40.6169 111.365 39.2403C111.365 39.1095 111.477 38.9971 111.607 38.9971H112.661C112.779 38.9971 112.867 39.0902 112.886 39.2056C113.044 40.281 113.517 40.8207 115.669 40.8207C117.381 40.8207 118.106 40.4313 118.106 39.5182C118.106 38.9917 117.899 38.599 115.237 38.3372C113.012 38.116 111.642 37.6247 111.642 35.8363ZM35.7263 26.6489C35.5466 26.6489 35.3687 26.6945 35.2078 26.7879L26.5826 31.7723C26.2602 31.959 26.0641 32.3191 26.0641 32.6927V42.6963C26.0641 43.0703 26.2604 43.4122 26.5826 43.5994L35.2078 48.6011C35.5303 48.7883 35.9224 48.7883 36.2449 48.6011L44.87 43.5994C45.1919 43.4122 45.3886 43.0703 45.3886 42.6963V32.6927C45.3886 32.3185 45.1925 31.959 44.87 31.7723L36.2449 26.7879C36.0839 26.6945 35.9061 26.6489 35.7263 26.6489ZM87.2007 35.5931C87.2318 35.5758 87.27 35.5758 87.3044 35.5758L87.31 35.5758C87.3413 35.5758 87.3618 35.5757 87.3909 35.5931L89.0502 36.5656C89.1118 36.6014 89.1539 36.6674 89.1539 36.7393V38.6497C89.1539 38.7216 89.1117 38.7878 89.0502 38.8234L87.3909 39.7785C87.3293 39.8147 87.2629 39.8147 87.2007 39.7785L85.5414 38.8234C85.4791 38.7875 85.4377 38.7216 85.4377 38.6497V36.7393C85.4377 36.6674 85.4791 36.6012 85.5414 36.5656L87.2007 35.5931Z" fill="#83CD29"/>
</svg>
