<svg width="66" height="64" viewBox="0 0 66 64" fill="none" xmlns="http://www.w3.org/2000/svg">
<path d="M13.625 3H52.375C58.25 3 63 7.7094 63 13.5342V50.4658C63 56.2906 58.25 61 52.375 61H13.625C7.75 61 3 56.2906 3 50.4658V13.5342C3 7.7094 7.75 3 13.625 3Z" fill="#001E36"/>
<path fill-rule="evenodd" clip-rule="evenodd" d="M16.5516 18.1693V43.6744C16.5516 43.8975 16.6513 43.9966 16.8507 43.9966H21.5859H21.6855C21.86 43.9719 21.9846 43.8231 21.9597 43.6496V35.6932C22.4332 35.6932 22.7821 35.6932 23.0313 35.718C23.2805 35.7428 23.6793 35.7428 24.2774 35.7428C26.321 35.7428 28.1902 35.5197 29.8848 34.9001C31.5048 34.3052 32.9004 33.2642 33.8973 31.8761C34.8941 30.4881 35.3926 28.7283 35.3926 26.5966C35.3926 25.4813 35.1932 24.4154 34.8194 23.3744C34.4206 22.3086 33.7976 21.3419 33.0001 20.5488C32.053 19.6317 30.9066 18.9377 29.6605 18.5163C28.2649 17.9958 26.5702 17.7479 24.5266 17.7479H24.5266C23.779 17.7479 23.0313 17.7479 22.2587 17.7727C21.8858 17.7847 21.5244 17.7909 21.1746 17.7969C20.7999 17.8033 20.4386 17.8095 20.0905 17.8223C19.7642 17.8343 19.4495 17.8405 19.1438 17.8465C18.8191 17.8529 18.5045 17.8591 18.1965 17.8719C17.6233 17.8966 17.2245 17.8966 16.8009 17.8966H16.8009C16.6264 17.8966 16.5516 17.9958 16.5516 18.1693ZM21.9846 31.0086V22.6804C22.1591 22.6556 22.508 22.6308 23.0064 22.6556C23.4799 22.6308 24.0531 22.6308 24.7011 22.6308C25.7229 22.606 26.7198 22.7548 27.6419 23.1266C28.3646 23.3992 28.9627 23.8949 29.3864 24.5394C29.7852 25.2086 29.9845 25.977 29.9596 26.7454C29.9596 27.836 29.7104 28.6787 29.187 29.2984C28.6387 29.918 27.9409 30.389 27.1434 30.612C26.2213 30.9095 25.2494 31.0582 24.2774 31.0582H22.9566C22.679 31.0582 22.3799 31.0368 22.0594 31.0139C22.0346 31.0122 22.0097 31.0104 21.9846 31.0086ZM48.5512 28.654C49.3986 28.8275 50.1961 29.1001 50.9437 29.4967C51.0434 29.5463 51.168 29.5463 51.3923 29.4967C51.4671 29.4471 51.5169 29.348 51.5169 29.2488V25.2087C51.5169 25.1095 51.492 25.0104 51.4671 24.9112C51.4172 24.8121 51.3175 24.7129 51.2179 24.6881C50.545 24.4155 49.8222 24.2172 49.0746 24.1181C48.0528 23.9693 47.0061 23.895 45.9843 23.895C44.2148 23.895 42.7444 24.1676 41.5731 24.7625C40.5015 25.2582 39.5793 26.0514 38.9563 27.0428C38.408 27.9599 38.109 28.9762 38.109 30.042C38.084 30.9095 38.2834 31.777 38.6822 32.5702C39.1557 33.4129 39.8036 34.1317 40.5762 34.677C41.6728 35.4206 42.8441 36.0155 44.1151 36.4616C45.3363 36.9326 46.1587 37.3044 46.5575 37.6266C46.9562 37.9488 47.1556 38.271 47.1556 38.6181C47.1556 39.0642 46.8815 39.4856 46.4827 39.6591C46.0341 39.8822 45.3612 40.0061 44.4142 40.0061C43.4173 40.0061 42.4204 39.8822 41.4734 39.6343C40.3768 39.3864 39.355 38.9899 38.3831 38.4198C38.3083 38.3702 38.2336 38.3454 38.1588 38.395C38.084 38.4446 38.0591 38.5437 38.0591 38.6181V42.9309C38.0342 43.1292 38.1588 43.3027 38.3332 43.4018C39.1307 43.7736 40.003 44.0463 40.8753 44.195C41.9968 44.4181 43.1182 44.5172 44.2647 44.5172C46.059 44.5172 47.5543 44.2446 48.7755 43.724C49.897 43.2779 50.8689 42.5095 51.5668 41.5181C52.2147 40.5514 52.5636 39.3864 52.5387 38.2215C52.5636 37.3292 52.3643 36.4616 51.9655 35.6685C51.492 34.8258 50.8191 34.1317 49.9967 33.6112C48.8004 32.8676 47.5045 32.248 46.1587 31.8018C45.5606 31.554 44.9625 31.2813 44.3893 30.9839C44.0653 30.8104 43.7662 30.5873 43.5419 30.3146C43.3924 30.1163 43.2927 29.8933 43.2927 29.6702C43.2927 29.4471 43.3675 29.1993 43.4921 29.001C43.6665 28.7531 43.9407 28.5796 44.2647 28.5052C44.7382 28.3813 45.2615 28.3069 45.76 28.3317C46.707 28.3317 47.6291 28.4557 48.5512 28.654Z" fill="#31A8FF"/>
</svg>
