<svg width="62" height="64" viewBox="0 0 62 64" fill="none" xmlns="http://www.w3.org/2000/svg">
<path d="M58.8518 37.7433C58.5152 36.7192 57.6335 36.0059 56.4933 35.8347C55.9556 35.7541 55.3399 35.7885 54.6112 35.9394C53.3412 36.2026 52.399 36.3028 51.7113 36.3222C54.3069 31.9199 56.4174 26.8996 57.6324 22.1739C59.5971 14.5326 58.5472 11.0514 57.3204 9.47686C54.0736 5.30912 49.3366 3.07017 43.6218 3.00166C40.5732 2.96421 37.897 3.56889 36.5008 4.00372C35.201 3.77331 33.8033 3.64466 32.3368 3.62087C29.5877 3.57682 27.1588 4.17885 25.0834 5.41617C23.9344 5.02583 22.0903 4.47557 19.9607 4.12444C14.952 3.29838 10.9151 3.94204 7.96237 6.03759C4.38686 8.5748 2.72936 12.9831 3.03591 19.14C3.13326 21.0948 4.22175 27.0424 5.9356 32.6829C6.92059 35.925 7.97092 38.6173 9.05743 40.6858C10.5983 43.6188 12.247 45.3461 14.0979 45.9664C15.1353 46.3136 17.0202 46.5568 19.0027 44.898C19.254 45.2038 19.5892 45.5075 20.0341 45.7897C20.5992 46.1477 21.2901 46.4402 21.9802 46.6136C24.467 47.2381 26.7964 47.0819 28.7837 46.2065C28.7959 46.5616 28.8054 46.9008 28.8133 47.1938C28.8264 47.669 28.8396 48.1349 28.8569 48.5706C28.9747 51.5166 29.1742 53.8073 29.7654 55.4101C29.7978 55.4982 29.8414 55.6326 29.8875 55.7751C30.1824 56.6822 30.6756 58.2009 31.9303 59.3902C33.2295 60.6222 34.801 61 36.2403 61C36.9622 61 37.6509 60.9048 38.255 60.7749C40.4083 60.3112 42.8539 59.605 44.623 57.0744C46.2957 54.6821 47.1087 51.0789 47.2559 45.4016C47.2749 45.241 47.2925 45.0877 47.3094 44.9416L47.3444 44.6416L47.7385 44.6764L47.84 44.6833C50.0332 44.7837 52.7149 44.3165 54.3619 43.5479C55.6633 42.9413 59.8337 40.7294 58.8518 37.7433" fill="black"/>
<path d="M54.5676 38.1828C48.1922 39.5052 47.7538 37.3348 47.7538 37.3348C54.4851 27.2915 57.2991 14.5431 54.8709 11.423C48.246 2.91186 36.7781 6.93709 36.5867 7.04142L36.5252 7.05262C35.2655 6.78965 33.856 6.63316 32.2716 6.60708C29.387 6.55965 27.1987 7.36755 25.5381 8.6337C25.5381 8.6337 5.0806 0.159463 6.0322 19.2915C6.23457 23.3616 11.834 50.0882 18.5125 42.0155C20.9536 39.0635 23.3123 36.5676 23.3123 36.5676C24.4837 37.3501 25.8861 37.7493 27.3562 37.6059L27.4705 37.5085C27.4349 37.8749 27.4512 38.2334 27.5162 38.6578C25.7956 40.5907 26.3013 40.93 22.8619 41.6419C19.3816 42.3632 21.4261 43.647 22.761 43.9828C24.3793 44.3896 28.123 44.966 30.6526 41.4053L30.5519 41.8116C31.2259 42.3546 31.6992 45.343 31.6199 48.0523C31.5406 50.7613 31.4876 52.6213 32.0186 54.0742C32.5501 55.527 33.0793 58.7958 37.6009 57.8218C41.3788 57.0076 43.3366 54.898 43.6091 51.3789C43.8022 48.8772 44.2398 49.2471 44.2672 47.0103L44.6181 45.9515C45.0227 42.5602 44.6825 41.4661 47.0099 41.975L47.5758 42.025C49.2887 42.1032 51.531 41.7478 52.847 41.1328C55.6806 39.8106 57.3613 37.6027 54.5672 38.1828H54.5676" fill="#336791"/>
<path fill-rule="evenodd" clip-rule="evenodd" d="M55.0221 37.5484C56.3523 37.2738 57.153 37.5157 57.4018 38.2678C57.8822 39.7212 55.2331 41.3939 53.7652 42.0756C52.4584 42.6821 50.3747 43.0657 48.5689 43.0657C47.703 43.0659 46.9022 42.9771 46.28 42.783C45.9852 45.4927 45.3585 50.5444 44.9933 52.6599C44.3108 56.6184 42.5465 58.4139 38.4836 59.2847C37.792 59.433 37.1633 59.4994 36.5921 59.4994C32.6998 59.4996 31.4672 56.4195 30.9625 55.1584L30.9623 55.1578C30.3463 53.6178 30.1325 48.5633 30.1757 43.4337C28.7713 44.7035 27.014 45.3598 25.0171 45.3598C24.196 45.3598 23.335 45.2495 22.4414 45.0257C22.1849 44.9617 19.934 44.3574 19.9639 42.9185C19.9915 41.6024 21.868 41.2149 22.5765 41.0686L22.5778 41.0684C25.0646 40.5564 25.2255 40.3522 25.998 39.3717L25.9981 39.3715C26.182 39.1362 26.3699 38.904 26.5619 38.6751C26.5613 38.6684 26.5606 38.6617 26.56 38.6549C26.558 38.6326 26.5559 38.6102 26.5542 38.5878C25.4392 38.558 24.3489 38.2606 23.3565 37.728C21.8269 39.3611 20.3448 41.038 18.912 42.7566C17.7373 44.1688 16.6083 44.5838 15.6874 44.5838C15.3116 44.5838 14.9709 44.5149 14.6754 44.4164C12.151 43.5743 9.7516 39.4812 7.54436 32.2508C5.86755 26.7574 4.80495 21.0212 4.71172 19.1566C4.43466 13.6142 5.86491 9.69109 8.96299 7.49636C11.5594 5.65718 15.1977 5.09874 19.7763 5.83572C22.4247 6.26234 24.5902 7.00569 25.4282 7.3176C27.3573 6.00221 29.6874 5.3569 32.3829 5.40055C33.8529 5.42468 35.2031 5.61375 36.4416 5.92171C37.0297 5.66332 40.0635 4.7445 43.6543 4.78486C48.8773 4.84013 53.1922 6.85501 56.1321 10.6112C56.8613 11.543 57.2149 13.0683 57.1826 15.1439C57.1535 17.0351 56.797 19.3553 56.1516 21.8536C54.7892 27.1277 52.2636 32.7805 49.1936 37.4569C49.658 37.7989 51.0725 38.3634 55.0221 37.5484ZM47.4863 22.2414C47.603 21.4833 47.7131 20.7571 47.7265 19.9572C44.5335 19.5608 43.2614 20.2969 42.7601 21.0129C41.0774 23.4181 44.3645 29.3127 45.7682 31.8299L45.7683 31.8299C46.1291 32.4765 46.3897 32.9437 46.5097 33.2346C46.6343 33.5361 46.7771 33.8298 46.9375 34.1139C47.9029 32.0596 47.6535 29.9776 47.4104 27.9552L47.4102 27.9534C47.2901 26.9527 47.1658 25.9181 47.1981 24.9228C47.2308 23.8996 47.3606 23.0567 47.4863 22.2414ZM54.8589 11.6075C52.238 8.25857 48.536 6.50801 43.8561 6.4047C42.0088 6.36368 40.359 6.59684 39.1525 6.84689C41.9575 8.08442 44.0118 9.91921 45.4206 11.5588C47.9959 14.5563 49.2594 17.8682 49.3636 18.9747C49.3796 19.1445 49.3674 19.2875 49.3369 19.4086C49.3777 20.5625 49.2296 21.5415 49.0842 22.4875C48.9657 23.2552 48.8433 24.0492 48.8139 24.9748C48.7854 25.8482 48.8973 26.778 49.0157 27.7624C49.304 30.1612 49.6277 32.8667 47.9718 35.6013L48.0529 35.7026C48.1181 35.784 48.1828 35.8657 48.2473 35.9476C54.6556 25.8643 56.8692 14.1762 54.8589 11.6075ZM15.1874 42.8831C15.4817 42.9811 16.3752 43.2784 17.6689 41.7231C19.4979 39.5231 21.2162 37.6508 22.0068 36.8041C21.8066 36.6333 21.615 36.4526 21.4327 36.2628C19.6565 34.4096 18.848 31.8426 19.2147 29.22C19.6095 26.398 19.4618 23.9061 19.3823 22.5669L19.3823 22.5665L19.3814 22.5511C19.3604 22.1933 19.345 21.9323 19.3455 21.7472C19.3341 21.2605 19.2246 13.2993 23.8391 8.63957C23.8613 8.61703 23.8842 8.5955 23.907 8.57397C23.9253 8.55675 23.9436 8.53953 23.9615 8.52178C21.1495 7.60559 14.1514 5.79909 9.89484 8.81724C7.27937 10.672 6.07879 14.1233 6.32624 19.0756C6.40477 20.6415 7.39541 26.2257 9.09066 31.779C11.0498 38.197 13.2719 42.2443 15.187 42.883L15.1874 42.8831ZM20.8159 29.4437C20.5182 31.5731 21.1684 33.6507 22.6 35.1444V35.1442C23.7257 36.319 25.2062 36.9691 26.7282 36.9735C26.9026 36.2574 27.1838 35.5034 27.4862 34.6926L27.4882 34.6871L27.608 34.3655C27.7625 33.9496 27.9434 33.5476 28.1349 33.1223L28.1351 33.122C29.0643 31.0573 30.2206 28.4881 28.8878 22.3243C28.6303 21.1337 28.0108 20.4415 26.9942 20.2087C24.7664 19.6983 21.6424 21.3719 20.9683 21.9696C20.9739 22.0975 20.9835 22.2579 20.9944 22.4405L20.9962 22.4708C21.0789 23.8658 21.2327 26.4624 20.8159 29.4437ZM21.755 42.9937C21.9895 43.1536 22.3891 43.3464 22.8336 43.4574C24.9906 43.9972 27.9941 44.0343 30.0552 41.1486C30.2994 40.8065 30.2248 40.3669 30.1583 40.1353C30.018 39.6448 29.6716 39.1991 29.316 39.0522L29.3159 39.0521C28.8772 38.8701 28.6353 38.7697 28.1064 39.3619L28.106 39.3623C27.7508 39.7589 27.4944 40.0844 27.2682 40.3717C26.2815 41.6244 25.8296 42.0495 22.904 42.6516C22.2994 42.7762 21.9509 42.9016 21.755 42.9937ZM32.4634 54.5574C33.2985 56.6449 34.5658 58.4709 38.1449 57.7041V57.7043C41.5971 56.9641 42.8248 55.7215 43.4002 52.3853C43.8361 49.86 44.694 42.7126 44.8147 41.1859C44.6651 38.1434 46.3066 37.5348 47.2205 37.2713C47.1033 37.1033 46.9493 36.911 46.7905 36.7127C46.2726 36.0656 45.5632 35.179 45.0152 33.8511C44.9314 33.648 44.6651 33.1701 44.3564 32.6171C42.6737 29.5996 39.1724 23.3212 41.4356 20.0864C42.4758 18.5992 44.528 18.0037 47.5453 18.3106C47.1441 17.1187 46.1388 14.9088 44.2821 12.7152C42.1275 10.1693 38.3097 7.11427 32.3562 7.01688C29.3346 6.96687 26.8547 7.89425 24.9925 9.77181C22.0351 12.7544 21.2445 17.4685 21.0352 19.9909C21.173 19.9142 21.3204 19.8352 21.4816 19.7536C22.2314 19.3735 23.7347 18.7106 25.3778 18.5407C28.1185 18.2566 29.9265 19.4792 30.4679 21.9828C31.9133 28.6668 30.5815 31.6255 29.6091 33.7856L29.6033 33.7983C29.4256 34.1936 29.2575 34.5674 29.1234 34.9283L29.003 35.2519C28.7158 36.0211 28.451 36.7315 28.2984 37.3606C29.0143 37.1775 29.6101 37.4242 29.9348 37.5587L29.9348 37.5587C30.7519 37.8973 31.4331 38.7142 31.7125 39.6907C31.7572 39.8462 31.7906 40.0046 31.8126 40.1649C31.8371 40.2461 31.8499 40.3323 31.8474 40.4215C31.6595 47.1327 31.9244 53.2098 32.4634 54.5574ZM49.1006 41.4384C50.5862 41.3684 52.15 41.0431 53.0845 40.6095C54.1712 40.1048 54.9377 39.5428 55.3856 39.1241L55.3492 39.1314C52.0282 39.8168 49.676 39.7229 48.3572 38.8526C48.2747 38.7982 48.1995 38.7427 48.1308 38.6868C48.0203 38.7254 47.9057 38.7576 47.7884 38.7905L47.7883 38.7905C47.0414 39.0002 46.3358 39.1983 46.4279 41.0942C46.6244 41.2546 47.4598 41.5152 49.1006 41.4384ZM25.3613 21.2474C25.6307 21.0434 26.1631 20.9677 26.751 21.0495V21.0497C27.4725 21.15 28.2163 21.4915 28.1451 22.0039C28.088 22.4129 27.4407 22.9672 26.7288 22.9672C26.6676 22.9672 26.606 22.9633 26.5441 22.9545C26.1173 22.8953 25.686 22.6264 25.3907 22.2351C25.2863 22.0969 25.1165 21.8288 25.1503 21.5865C25.163 21.495 25.21 21.3621 25.3613 21.2474ZM44.7779 20.644C45.4561 20.5496 46.1708 20.6641 46.227 21.0657C46.2522 21.2463 46.1149 21.524 45.878 21.7731C45.7222 21.9365 45.3945 22.2201 44.9479 22.282C44.8904 22.2901 44.8334 22.2938 44.7768 22.2938C44.1077 22.2938 43.5424 21.7595 43.4985 21.4465C43.4437 21.044 44.1005 20.7383 44.7779 20.644Z" fill="white"/>
</svg>
