<svg width="192" height="198" viewBox="0 0 192 198" fill="none" xmlns="http://www.w3.org/2000/svg">
<path d="M191.256 118.553C190.105 115.066 187.089 112.638 183.189 112.055C181.35 111.781 179.244 111.898 176.752 112.411C172.408 113.308 169.185 113.649 166.833 113.715C175.711 98.7276 182.929 81.6368 187.085 65.5487C193.805 39.5345 190.214 27.6835 186.018 22.323C174.913 8.13442 158.71 0.512189 139.164 0.278962C128.737 0.151475 119.583 2.21002 114.808 3.69037C110.362 2.90595 105.581 2.46799 100.565 2.387C91.1624 2.23702 82.8547 4.28656 75.7559 8.49889C71.8259 7.17002 65.5184 5.29671 58.2344 4.10133C41.1029 1.28911 27.2954 3.48039 17.196 10.6144C4.96646 19.2521 -0.702787 34.2595 0.345712 55.2199C0.678712 61.8748 4.40171 82.1227 10.2637 101.325C13.6327 112.363 17.2252 121.528 20.9415 128.57C26.2117 138.555 31.8509 144.435 38.1817 146.547C41.7299 147.729 48.1769 148.557 54.9577 142.91C55.8172 143.951 56.9639 144.985 58.4857 145.946C60.4184 147.164 62.7817 148.16 65.1419 148.751C73.6477 150.877 81.6149 150.345 88.4122 147.365C88.4542 148.574 88.4864 149.728 88.5134 150.726C88.5584 152.343 88.6034 153.93 88.6627 155.413C89.0654 165.442 89.7479 173.241 91.7699 178.697C91.8809 178.997 92.0302 179.455 92.1877 179.94C93.1964 183.028 94.8832 188.198 99.1747 192.247C103.618 196.441 108.994 197.727 113.917 197.727C116.386 197.727 118.741 197.403 120.808 196.961C128.173 195.382 136.537 192.978 142.588 184.363C148.309 176.219 151.09 163.952 151.594 144.624C151.659 144.078 151.719 143.556 151.777 143.059L151.897 142.037L153.244 142.156L153.592 142.179C161.093 142.521 170.266 140.93 175.899 138.314C180.35 136.249 194.614 128.719 191.256 118.553" fill="black"/>
<path d="M178.43 120.529C156.125 125.13 154.591 117.579 154.591 117.579C178.141 82.638 187.986 38.2852 179.491 27.43C156.313 -2.18079 116.192 11.8233 115.522 12.1863L115.307 12.2253C110.9 11.3104 105.968 10.7659 100.425 10.6752C90.3331 10.5102 82.6771 13.3209 76.8676 17.726C76.8676 17.726 5.29512 -11.7566 8.62437 54.8053C9.33237 68.9654 28.9224 161.949 52.2879 133.864C60.8281 123.594 69.0804 114.91 69.0804 114.91C73.1784 117.632 78.0849 119.021 83.2284 118.523L83.6281 118.184C83.5036 119.459 83.5606 120.706 83.7879 122.182C77.7684 128.907 79.5376 130.087 67.5046 132.564C55.3284 135.074 62.4811 139.54 67.1514 140.708C72.8131 142.124 85.9111 144.129 94.7611 131.741L94.4086 133.154C96.7666 135.044 98.4226 145.44 98.1451 154.866C97.8676 164.291 97.6824 170.762 99.5401 175.817C101.399 180.871 103.251 192.244 119.07 188.855C132.287 186.023 139.137 178.683 140.09 166.44C140.766 157.736 142.297 159.023 142.393 151.241L143.621 147.558C145.036 135.759 143.846 131.952 151.988 133.723L153.968 133.897C159.961 134.169 167.806 132.932 172.41 130.793C182.324 126.193 188.204 118.511 178.428 120.529H178.43" fill="#336791"/>
<path d="M81.057 61.1376C79.047 60.8579 77.2268 61.1166 76.3058 61.814C75.7883 62.2062 75.6278 62.6607 75.5843 62.9734C75.4688 63.8021 76.0493 64.7185 76.4063 65.1909C77.4158 66.5288 78.8903 67.4482 80.3498 67.6507C80.5613 67.6807 80.772 67.6942 80.9813 67.6942C83.415 67.6942 85.6283 65.7991 85.8233 64.4005C86.067 62.6487 83.5238 61.4811 81.057 61.1383V61.1376ZM147.645 61.1931C147.453 59.82 145.01 59.4285 142.691 59.751C140.375 60.0735 138.129 61.1188 138.317 62.495C138.467 63.5651 140.399 65.3919 142.687 65.3919C142.88 65.3919 143.075 65.3792 143.272 65.3514C144.799 65.1399 145.919 64.1703 146.452 63.6116C147.262 62.7597 147.731 61.8103 147.645 61.1931" fill="white"/>
<path d="M185.852 120.007C185.001 117.435 182.264 116.608 177.716 117.547C164.212 120.334 159.376 118.403 157.788 117.234C168.284 101.246 176.919 81.9188 181.577 63.8869C183.784 55.3452 185.003 47.4125 185.102 40.9467C185.213 33.8501 184.004 28.6351 181.511 25.4495C171.459 12.607 156.707 5.71817 138.849 5.52919C126.572 5.3912 116.2 8.53264 114.189 9.41605C109.955 8.36316 105.338 7.71672 100.313 7.63423C91.0965 7.48499 83.13 9.69127 76.5345 14.1886C73.6695 13.1222 66.2655 10.5807 57.2107 9.12208C41.5567 6.60233 29.1172 8.51164 20.2402 14.7998C9.64796 22.3035 4.75795 35.7167 5.7052 54.6658C6.02395 61.0409 9.65696 80.653 15.39 99.4348C22.9365 124.155 31.14 138.15 39.771 141.029C40.7812 141.365 41.946 141.601 43.2307 141.601C46.3792 141.601 50.2395 140.182 54.2557 135.354C59.1544 129.478 64.2218 123.745 69.4515 118.161C72.8445 119.982 76.572 120.999 80.3843 121.101C80.3918 121.201 80.4015 121.3 80.4105 121.399C79.7543 122.182 79.1117 122.976 78.483 123.78C75.8415 127.133 75.2917 127.832 66.789 129.582C64.3702 130.081 57.9465 131.405 57.852 135.907C57.75 140.827 65.4457 142.893 66.3225 143.112C69.378 143.877 72.3217 144.254 75.129 144.254C81.9563 144.254 87.9645 142.01 92.766 137.669C92.6183 155.207 93.3495 172.488 95.4555 177.753C97.1805 182.064 101.394 192.598 114.704 192.597C116.657 192.597 118.806 192.37 121.171 191.863C135.062 188.886 141.094 182.747 143.427 169.213C144.676 161.98 146.819 144.709 147.827 135.444C149.954 136.108 152.692 136.411 155.652 136.411C161.826 136.411 168.95 135.099 173.418 133.026C178.437 130.695 187.494 124.976 185.852 120.007V120.007ZM152.772 57.403C152.726 60.138 152.35 62.621 151.951 65.2128C151.521 68.0002 151.077 70.8822 150.965 74.3806C150.855 77.7852 151.28 81.3249 151.691 84.7483C152.522 91.6626 153.375 98.7809 150.074 105.805C149.526 104.833 149.038 103.829 148.612 102.798C148.202 101.804 147.311 100.207 146.077 97.9957C141.278 89.3896 130.039 69.2361 135.792 61.0124C137.506 58.5647 141.855 56.0479 152.772 57.403V57.403ZM139.539 11.0674C155.54 11.4206 168.197 17.4058 177.158 28.8556C184.031 37.638 176.462 77.5993 154.553 112.074C154.332 111.794 154.111 111.515 153.888 111.236L153.611 110.89C159.272 101.541 158.165 92.2903 157.18 84.0891C156.775 80.7235 156.392 77.5445 156.49 74.5583C156.59 71.3936 157.009 68.6789 157.414 66.0542C157.911 62.8197 158.417 59.4728 158.278 55.5275C158.382 55.1135 158.424 54.6246 158.369 54.0441C158.013 50.2607 153.693 38.9376 144.888 28.6891C140.072 23.0834 133.048 16.8103 123.458 12.5792C127.583 11.7243 133.223 10.9272 139.539 11.0674V11.0674ZM50.0055 131.82C45.5805 137.14 42.525 136.12 41.52 135.786C34.9725 133.602 27.375 119.765 20.6767 97.8218C14.8807 78.8351 11.4937 59.7428 11.2252 54.3891C10.3792 37.4573 14.484 25.6572 23.4262 19.3158C37.9792 8.99684 61.9057 15.1732 71.52 18.3057C71.382 18.4422 71.238 18.5696 71.1015 18.7084C55.3245 34.6398 55.6987 61.8591 55.7377 63.5232C55.7362 64.1651 55.7902 65.074 55.8637 66.3241C56.1352 70.9024 56.6407 79.4231 55.2907 89.0724C54.0367 98.0392 56.8012 106.816 62.874 113.152C63.4972 113.801 64.1523 114.418 64.8367 115.003C62.1337 117.897 56.259 124.299 50.0055 131.82V131.82ZM66.8647 109.328C61.9702 104.221 59.7472 97.1176 60.765 89.8373C62.19 79.6443 61.6642 70.7667 61.3815 65.9972C61.3417 65.3297 61.3065 64.7448 61.2862 64.2836C63.591 62.24 74.2717 56.5181 81.8888 58.2632C85.3643 59.0589 87.4823 61.4256 88.3628 65.4962C92.9198 86.5714 88.9658 95.3552 85.7888 102.414C85.134 103.868 84.5153 105.243 83.9873 106.665L83.5778 107.764C82.5413 110.543 81.5768 113.128 80.979 115.581C75.7755 115.566 70.7137 113.344 66.8647 109.327V109.328ZM67.6635 137.75C66.144 137.371 64.7775 136.711 63.9757 136.165C64.6455 135.85 65.8372 135.421 67.9042 134.995C77.907 132.936 79.452 131.483 82.8255 127.2C83.5988 126.218 84.4755 125.105 85.6898 123.749L85.6913 123.747C87.4995 121.723 88.3268 122.066 89.8268 122.689C91.0425 123.191 92.2268 124.715 92.7068 126.392C92.934 127.184 93.189 128.686 92.3543 129.856C85.3073 139.722 75.0383 139.596 67.6635 137.75V137.75ZM120.013 186.459C107.776 189.081 103.443 182.838 100.588 175.701C98.745 171.093 97.839 150.316 98.4818 127.37C98.49 127.065 98.4465 126.77 98.3625 126.493C98.2874 125.945 98.1731 125.403 98.0205 124.872C97.065 121.533 94.7363 118.74 91.9425 117.582C90.8325 117.123 88.7955 116.279 86.3475 116.905C86.8695 114.754 87.7748 112.325 88.7565 109.695L89.1683 108.589C89.6318 107.342 90.2138 106.05 90.8288 104.682C94.1535 97.2968 98.7068 87.1811 93.765 64.3286C91.914 55.7689 85.7325 51.5889 76.362 52.56C70.7445 53.1412 65.6047 55.4075 63.0412 56.7071C62.49 56.9861 61.986 57.256 61.515 57.5185C62.2305 48.8944 64.9335 32.777 75.045 22.5795C81.4118 16.1601 89.8905 12.9894 100.221 13.1604C120.576 13.4934 133.629 23.9384 140.996 32.6427C147.344 40.1427 150.781 47.6982 152.153 51.7733C141.836 50.7242 134.82 52.7602 131.264 57.8447C123.526 68.9046 135.497 90.3705 141.25 100.687C142.305 102.578 143.216 104.212 143.502 104.906C145.376 109.446 147.801 112.478 149.572 114.69C150.115 115.368 150.641 116.025 151.042 116.6C147.917 117.501 142.305 119.582 142.817 129.984C142.404 135.203 139.471 159.64 137.981 168.274C136.013 179.681 131.816 183.929 120.013 186.46V186.459ZM171.091 128.013C167.896 129.496 162.549 130.608 157.47 130.847C151.86 131.109 149.004 130.219 148.332 129.67C148.017 123.188 150.43 122.511 152.984 121.794C153.385 121.681 153.776 121.571 154.154 121.439C154.389 121.63 154.646 121.82 154.928 122.006C159.437 124.982 167.48 125.303 178.834 122.959L178.958 122.935C177.427 124.366 174.806 126.287 171.091 128.013Z" fill="white"/>
</svg>
