<svg width="366" height="106" viewBox="0 0 366 106" fill="none" xmlns="http://www.w3.org/2000/svg">
<path d="M138 45.1319C138 33.9371 134.799 28.1897 128.397 27.8753C125.85 27.7554 123.364 28.1598 120.944 29.0969C119.013 29.7857 117.713 30.4684 117.03 31.158V57.8789C121.124 60.442 124.76 61.6336 127.932 61.446C134.64 61.0025 138 55.5703 138 45.1319ZM145.896 45.5963C145.896 51.2837 144.559 56.0047 141.869 59.7586C138.871 64.0076 134.716 66.1955 129.404 66.3155C125.4 66.4423 121.274 65.1915 117.029 62.5685V86.8547L110.161 84.4116V30.5053C111.288 29.1269 112.739 27.943 114.497 26.9382C118.584 24.5627 123.55 23.3419 129.396 23.2819L129.494 23.3788C134.836 23.3119 138.953 25.4998 141.846 29.9356C144.544 34.0047 145.896 39.2201 145.896 45.5963V45.5963ZM187.867 61.5352C187.867 69.1637 187.101 74.446 185.568 77.3835C184.028 80.3202 181.097 82.6657 176.77 84.4123C173.261 85.7908 169.466 86.5403 165.394 86.6679L164.259 82.352C168.399 81.7908 171.314 81.2281 173.005 80.6661C176.333 79.5422 178.617 77.8194 179.872 75.5107C180.879 73.6303 181.375 70.0409 181.375 64.7287V62.9452C176.679 65.0739 171.758 66.1302 166.611 66.1302C163.23 66.1302 160.247 65.0739 157.677 62.9452C154.792 60.6296 153.35 57.6929 153.35 54.1335V25.6274L160.217 23.2819V51.9732C160.217 55.0376 161.209 57.3985 163.192 59.0544C165.175 60.7103 167.745 61.5052 170.894 61.4445C174.042 61.3769 177.415 60.163 180.999 57.7875V24.3151H187.866V61.5352H187.867ZM214.675 65.9411C213.922 66.0044 213.168 66.0368 212.413 66.0379C208.529 66.0379 205.5 65.1169 203.337 63.2657C201.18 61.4153 200.099 58.8607 200.099 55.6003V28.6241H195.395V24.3159H200.099V12.8735L206.958 10.438V24.3159H214.675V28.6241H206.958V55.4127C206.958 57.9835 207.649 59.804 209.031 60.8687C210.218 61.7451 212.105 62.2471 214.674 62.3747V65.9411H214.675ZM256.255 65.3791H249.388V38.9426C249.388 36.2526 248.757 33.9371 247.502 32.0044C246.052 29.8157 244.039 28.7217 241.453 28.7217C238.305 28.7217 234.368 30.3777 229.642 33.6895V65.3791H222.776V2.18834L229.642 0.0303955V28.8117C234.03 25.6267 238.824 24.0307 244.031 24.0307C247.668 24.0307 250.612 25.2523 252.867 27.6877C255.129 30.1224 256.256 33.1575 256.256 36.7846V65.3791H256.255V65.3791ZM292.756 44.0534C292.756 39.7521 291.937 36.2003 290.306 33.3905C288.367 29.9664 285.355 28.1598 281.282 27.9729C273.753 28.4073 269.996 33.7872 269.996 44.0987C269.996 48.8267 270.778 52.7758 272.356 55.9455C274.369 59.9846 277.39 61.978 281.418 61.9104C288.976 61.8497 292.756 55.9001 292.756 44.0534V44.0534ZM300.277 44.0979C300.277 50.2204 298.706 55.3159 295.573 59.3842C292.123 63.9407 287.361 66.2255 281.282 66.2255C275.256 66.2255 270.56 63.9399 267.172 59.3842C264.098 55.3159 262.565 50.2204 262.565 44.0979C262.565 38.3437 264.226 33.5027 267.547 29.5612C271.056 25.3799 275.669 23.2819 281.372 23.2819C287.074 23.2819 291.718 25.3799 295.295 29.5612C298.616 33.5027 300.277 38.3437 300.277 44.0979V44.0979ZM339.647 65.3791H332.78V37.4442C332.78 34.3799 331.856 31.989 330.008 30.2654C328.159 28.5495 325.694 27.7177 322.621 27.7846C319.361 27.8446 316.257 28.9085 313.313 30.9696V65.3791H306.445V30.1232C310.397 27.2541 314.034 25.3799 317.355 24.5035C320.488 23.687 323.253 23.2819 325.635 23.2819C327.264 23.2819 328.798 23.4387 330.24 23.7539C332.938 24.3759 335.132 25.5298 336.822 27.2234C338.708 29.0969 339.647 31.344 339.647 33.9748V65.3791V65.3791Z" fill="#646464"/>
<path d="M42.3342 2.4413C38.8006 2.45745 35.4266 2.75804 32.4581 3.28234C23.712 4.82373 22.1241 8.04873 22.1241 13.9975V21.8536H42.7921V24.472H14.367C8.36056 24.472 3.10029 28.0729 1.4553 34.9227C-0.442534 42.7742 -0.526557 47.6735 1.4553 55.8717C2.92453 61.9742 6.43344 66.3224 12.4399 66.3224H19.5464V56.905C19.5464 50.1013 25.4487 44.1003 32.4581 44.1003H53.1022C58.8489 44.1003 63.4362 39.3816 63.4362 33.6258V13.9967C63.4362 8.41082 58.7109 4.21409 53.1022 3.28157C49.5509 2.69269 45.8678 2.42439 42.3342 2.4413V2.4413ZM31.1569 8.75907C33.2921 8.75907 35.035 10.5265 35.035 12.699C35.035 14.8639 33.2914 16.6152 31.1569 16.6152C29.0147 16.6152 27.2787 14.8647 27.2787 12.699C27.2787 10.5265 29.0147 8.75907 31.1569 8.75907Z" fill="url(#paint0_linear_416_2677)"/>
<path d="M66.0141 24.4712V33.6242C66.0141 40.7207 59.9814 46.6933 53.1024 46.6933H32.4583C26.8033 46.6933 22.1243 51.5197 22.1243 57.1678V76.7953C22.1243 82.382 26.9945 85.6677 32.4583 87.2699C39.0005 89.1887 45.2744 89.5354 53.1024 87.2699C58.3056 85.7677 63.4364 82.7433 63.4364 76.7953V68.94H42.7923V66.3216H73.7704C79.7776 66.3216 82.0154 62.1426 84.1044 55.8709C86.2628 49.4148 86.171 43.2046 84.1044 34.9219C82.6197 28.9585 79.7846 24.4712 73.7704 24.4712H66.0141V24.4712ZM54.4028 74.1769C56.545 74.1769 58.2809 75.9274 58.2809 78.093C58.2809 80.2656 56.545 82.033 54.4028 82.033C52.2676 82.033 50.5247 80.2656 50.5247 78.093C50.5247 75.9282 52.2683 74.1769 54.4028 74.1769Z" fill="url(#paint1_linear_416_2677)"/>
<path d="M353.02 18.2096H354.224V10.6787H357.076V9.78076H350.167V10.6787H353.02V18.2096H353.02ZM358.144 18.2096H359.172V11.3314L361.405 18.2088H362.55L364.877 11.3544V18.2096H365.999V9.78153H364.514L361.971 17.0026L359.804 9.78153H358.144V18.2096" fill="#646464"/>
<path opacity="0.444" d="M70.7239 100.614C70.7239 103.572 58.3233 105.97 43.0258 105.97C27.729 105.97 15.3284 103.572 15.3284 100.614C15.3284 97.6553 27.729 95.2567 43.0258 95.2567C58.3233 95.2567 70.7239 97.6553 70.7239 100.614Z" fill="url(#paint2_radial_416_2677)"/>
<defs>
<linearGradient id="paint0_linear_416_2677" x1="-2.03819" y1="4.89444" x2="45.5139" y2="45.5197" gradientUnits="userSpaceOnUse">
<stop stop-color="#5A9FD4"/>
<stop offset="1" stop-color="#306998"/>
</linearGradient>
<linearGradient id="paint1_linear_416_2677" x1="63.5058" y1="70.6396" x2="46.4674" y2="46.7016" gradientUnits="userSpaceOnUse">
<stop stop-color="#FFD43B"/>
<stop offset="1" stop-color="#FFE873"/>
</linearGradient>
<radialGradient id="paint2_radial_416_2677" cx="0" cy="0" r="1" gradientUnits="userSpaceOnUse" gradientTransform="translate(43.0169 100.49) rotate(-90) scale(5.35525 23.6075)">
<stop stop-color="#B8B8B8" stop-opacity="0.498"/>
<stop offset="1" stop-color="#7F7F7F" stop-opacity="0"/>
</radialGradient>
</defs>
</svg>
