<svg width="64" height="64" viewBox="0 0 64 64" fill="none" xmlns="http://www.w3.org/2000/svg">
<path d="M32.0266 0.000458655C29.8542 0.0103147 27.7799 0.193826 25.9549 0.513913C20.5778 1.45493 19.6016 3.4238 19.6016 7.05553V11.8517H32.3081V13.4502H14.8326C11.1399 13.4502 7.90589 15.6486 6.89456 19.8304C5.72778 24.6237 5.67613 27.6148 6.89456 32.6198C7.79783 36.3454 9.95509 39 13.6478 39H18.0168V33.2506C18.0168 29.097 21.6456 25.4334 25.9549 25.4334H38.6467C42.1797 25.4334 45 22.5526 45 19.0386V7.05506C45 3.64486 42.0949 1.08275 38.6467 0.513444C36.4634 0.153932 34.199 -0.00986676 32.0266 0.000458655V0.000458655ZM25.1549 3.85747C26.4676 3.85747 27.5391 4.93647 27.5391 6.26282C27.5391 7.58447 26.4672 8.65362 25.1549 8.65362C23.8379 8.65362 22.7706 7.58494 22.7706 6.26282C22.7706 4.93647 23.8379 3.85747 25.1549 3.85747Z" fill="url(#paint0_linear_416_2677)"/>
<path d="M46.9285 15V20.5455C46.9285 24.8451 43.2272 28.4637 39.0066 28.4637H26.3404C22.8708 28.4637 20 31.3878 20 34.8098V46.7015C20 50.0863 22.9881 52.077 26.3404 53.0477C30.3544 54.2102 34.2037 54.4203 39.0066 53.0477C42.199 52.1375 45.347 50.3052 45.347 46.7015V41.9422H32.6808V40.3558H51.6874C55.3731 40.3558 56.7461 37.8239 58.0278 34.0241C59.3521 30.1125 59.2958 26.35 58.0278 21.3317C57.1169 17.7187 55.3774 15 51.6874 15H46.9285V15ZM39.8044 45.1151C41.1188 45.1151 42.1839 46.1756 42.1839 47.4877C42.1839 48.804 41.1188 49.8748 39.8044 49.8748C38.4944 49.8748 37.425 48.804 37.425 47.4877C37.425 46.1761 38.4948 45.1151 39.8044 45.1151Z" fill="url(#paint1_linear_416_2677)"/>
<path opacity="0.444" d="M50 61.0002C50 62.6571 42.165 64 32.4998 64C22.835 64 15 62.6571 15 61.0002C15 59.3434 22.835 58 32.4998 58C42.165 58 50 59.3434 50 61.0002Z" fill="url(#paint2_radial_416_2677)"/>
<defs>
<linearGradient id="paint0_linear_416_2677" x1="4.74678" y1="1.4981" x2="33.8085" y2="26.501" gradientUnits="userSpaceOnUse">
<stop stop-color="#5A9FD4"/>
<stop offset="1" stop-color="#306998"/>
</linearGradient>
<linearGradient id="paint1_linear_416_2677" x1="45.3896" y1="42.9719" x2="35.1098" y2="28.3463" gradientUnits="userSpaceOnUse">
<stop stop-color="#FFD43B"/>
<stop offset="1" stop-color="#FFE873"/>
</linearGradient>
<radialGradient id="paint2_radial_416_2677" cx="0" cy="0" r="1" gradientUnits="userSpaceOnUse" gradientTransform="translate(32.4942 60.9312) rotate(-90) scale(2.99934 14.9157)">
<stop stop-color="#B8B8B8" stop-opacity="0.498"/>
<stop offset="1" stop-color="#7F7F7F" stop-opacity="0"/>
</radialGradient>
</defs>
</svg>
