<svg width="241" height="217" viewBox="0 0 241 217" fill="none" xmlns="http://www.w3.org/2000/svg">
<path d="M0.709961 108.264C0.709961 126.393 18.3731 143.316 46.2204 152.855C40.6596 180.912 45.2238 203.526 60.4689 212.337C76.1393 221.394 99.4844 215.125 121.642 195.714C143.241 214.341 165.07 221.672 180.301 212.835C195.956 203.753 200.718 179.605 195.003 150.673C224.007 141.062 240.232 126.631 240.232 108.264C240.232 90.5564 222.536 75.2365 195.064 65.7585C201.216 35.6301 196.003 13.5652 180.127 4.38972C164.821 -4.45603 142.738 3.25395 120.822 22.3691C98.022 2.07987 76.1573 -4.11469 60.2965 5.08755C45.0051 13.9585 40.6416 36.9831 46.2204 65.5594C19.3134 74.9614 0.709961 90.6272 0.709961 108.264Z" fill="white"/>
<path d="M189.246 75.1708C187.039 74.4096 184.753 73.6893 182.398 73.0082C182.785 71.4254 183.14 69.8632 183.456 68.3275C188.64 43.1108 185.25 22.7961 173.678 16.1076C162.581 9.69422 144.432 16.3812 126.103 32.3673C124.341 33.9046 122.573 35.5321 120.807 37.2378C119.63 36.1093 118.454 35.0187 117.282 33.9755C98.0728 16.8821 78.8186 9.67866 67.257 16.3865C56.1706 22.8184 52.8875 41.9162 57.5534 65.8143C58.004 68.1226 58.5307 70.4798 59.1262 72.8765C56.4012 73.6518 53.7705 74.4783 51.2533 75.3575C28.7326 83.2265 14.3499 95.5591 14.3499 108.351C14.3499 121.563 29.7898 134.815 53.2468 142.85C55.098 143.484 57.0188 144.084 58.9983 144.653C58.3557 147.245 57.7969 149.785 57.3277 152.263C52.8788 175.746 56.3531 194.393 67.41 200.784C78.8307 207.385 97.9979 200.6 116.662 184.25C118.137 182.957 119.617 181.586 121.101 180.15C123.023 182.005 124.942 183.761 126.851 185.408C144.929 200.999 162.785 207.295 173.831 200.885C185.241 194.266 188.949 174.235 184.135 149.864C183.767 148.003 183.339 146.101 182.859 144.166C184.205 143.767 185.526 143.356 186.815 142.928C211.2 134.83 227.067 121.74 227.067 108.351C227.067 95.5129 212.22 83.0971 189.246 75.1708Z" fill="#53C1DE"/>
<path d="M183.957 134.283C182.794 134.669 181.6 135.042 180.384 135.404C177.692 126.862 174.058 117.78 169.612 108.396C173.855 99.2355 177.348 90.269 179.965 81.783C182.141 82.4141 184.253 83.0797 186.288 83.7821C205.972 90.5734 217.98 100.614 217.98 108.351C217.98 116.593 205.012 127.291 183.957 134.283ZM175.22 151.633C177.349 162.409 177.653 172.153 176.243 179.769C174.976 186.613 172.428 191.176 169.278 193.004C162.574 196.893 148.238 191.838 132.778 178.504C131.005 176.976 129.22 175.344 127.429 173.616C133.423 167.046 139.413 159.409 145.26 150.927C155.543 150.012 165.258 148.517 174.069 146.476C174.503 148.23 174.888 149.951 175.22 151.633ZM86.8698 192.332C80.3202 194.65 75.1038 194.716 71.9505 192.894C65.2408 189.016 62.4514 174.044 66.2563 153.961C66.6921 151.661 67.2108 149.299 67.8087 146.884C76.5225 148.815 86.1667 150.205 96.4746 151.042C102.36 159.342 108.524 166.971 114.735 173.652C113.378 174.964 112.026 176.214 110.682 177.392C102.429 184.622 94.1585 189.752 86.8698 192.332ZM56.1858 134.233C45.8135 130.68 37.2477 126.062 31.3762 121.023C26.1003 116.495 23.4366 111.999 23.4366 108.351C23.4366 100.589 34.9846 90.6872 54.2445 83.9574C56.5814 83.1408 59.0278 82.3712 61.5665 81.6483C64.2283 90.326 67.7201 99.3986 71.9339 108.573C67.6655 117.884 64.1242 127.101 61.4363 135.88C59.6264 135.359 57.873 134.81 56.1858 134.233ZM66.4713 64.0654C62.4737 43.5901 65.1287 28.1443 71.8097 24.2684C78.9261 20.1395 94.6625 26.0265 111.248 40.7859C112.308 41.7292 113.373 42.7166 114.44 43.7381C108.26 50.389 102.153 57.9609 96.319 66.212C86.3147 67.1413 76.7383 68.6341 67.9336 70.6332C67.3801 68.4015 66.8897 66.209 66.4713 64.0654ZM158.228 86.7723C156.123 83.1286 153.962 79.5711 151.759 76.1108C158.546 76.9706 165.049 78.1121 171.155 79.5089C169.322 85.3975 167.037 91.5543 164.347 97.866C162.418 94.1946 160.377 90.4929 158.228 86.7723ZM120.81 50.2467C125.001 54.7977 129.199 59.8787 133.327 65.3916C129.167 65.1947 124.955 65.0922 120.708 65.0922C116.502 65.0922 112.321 65.1924 108.186 65.3859C112.319 59.9242 116.553 54.85 120.81 50.2467ZM83.152 86.8353C81.0495 90.4891 79.0465 94.1707 77.1473 97.8591C74.501 91.5695 72.2372 85.3846 70.3879 79.4125C76.457 78.0514 82.929 76.9384 89.6728 76.0948C87.4389 79.5871 85.2602 83.1707 83.152 86.8345V86.8353ZM89.8671 141.258C82.8995 140.479 76.3302 139.423 70.2626 138.099C72.1414 132.021 74.4552 125.704 77.1575 119.278C79.0616 122.964 81.0726 126.647 83.188 130.309H83.1884C85.3432 134.04 87.5756 137.694 89.8671 141.258ZM121.061 167.098C116.754 162.441 112.458 157.289 108.263 151.748C112.336 151.908 116.488 151.99 120.708 151.99C125.044 151.99 129.33 151.892 133.549 151.704C129.407 157.345 125.224 162.505 121.061 167.098ZM164.434 118.951C167.277 125.446 169.674 131.73 171.577 137.705C165.409 139.115 158.75 140.25 151.734 141.094C153.942 137.587 156.122 133.969 158.264 130.247C160.431 126.481 162.489 122.709 164.434 118.951ZM150.393 125.697C147.068 131.475 143.654 136.991 140.188 142.198C133.876 142.65 127.355 142.883 120.708 142.883C114.089 142.883 107.65 142.677 101.449 142.273C97.8437 136.998 94.3558 131.466 91.0518 125.747H91.0526C87.7573 120.042 84.7245 114.29 81.9764 108.57C84.7237 102.837 87.7486 97.0778 91.0249 91.3839L91.0242 91.3851C94.3092 85.676 97.7665 80.1707 101.339 74.9287C107.665 74.4495 114.152 74.1994 120.708 74.1994H120.708C127.294 74.1994 133.789 74.4514 140.114 74.9348C143.631 80.1384 147.065 85.6259 150.363 91.3357C153.698 97.1097 156.762 102.83 159.533 108.441C156.77 114.147 153.713 119.925 150.393 125.697ZM169.138 23.9975C176.262 28.1143 179.032 44.7175 174.556 66.4894C174.271 67.8786 173.949 69.2936 173.6 70.7277C164.775 68.6869 155.192 67.1683 145.159 66.2249C139.314 57.8831 133.257 50.2995 127.177 43.7339C128.811 42.158 130.444 40.6553 132.069 39.2372C147.773 25.5404 162.451 20.1326 169.138 23.9975Z" fill="white"/>
<path d="M120.708 89.3147C131.199 89.3147 139.703 97.8375 139.703 108.351C139.703 118.865 131.199 127.388 120.708 127.388C110.218 127.388 101.713 118.865 101.713 108.351C101.713 97.8375 110.218 89.3147 120.708 89.3147Z" fill="#53C1DE"/>
</svg>
