<svg width="71" height="63" viewBox="0 0 71 63" fill="none" xmlns="http://www.w3.org/2000/svg">
<path d="M57.0874 21.123C56.3924 20.8862 55.6722 20.6622 54.9306 20.4503C55.0525 19.958 55.1644 19.472 55.2639 18.9943C56.8965 11.1504 55.829 4.83133 52.1839 2.75081C48.6886 0.755875 42.9724 2.83592 37.1993 7.80857C36.6442 8.28674 36.0875 8.793 35.531 9.32357C35.1602 8.97253 34.7901 8.6333 34.4208 8.30881C28.3705 2.99173 22.3059 0.751036 18.6643 2.83757C15.1724 4.8383 14.1383 10.7789 15.6079 18.2126C15.7499 18.9306 15.9157 19.6638 16.1033 20.4094C15.245 20.6505 14.4164 20.9076 13.6236 21.1811C6.53018 23.6288 2 27.465 2 31.4441C2 35.5538 6.86315 39.6759 14.2515 42.1753C14.8345 42.3726 15.4395 42.5591 16.063 42.7361C15.8607 43.5424 15.6846 44.3326 15.5369 45.1032C14.1356 52.4079 15.2299 58.2082 18.7125 60.1962C22.3097 62.2494 28.3468 60.139 34.2255 55.053C34.6901 54.651 35.1564 54.2246 35.6236 53.7778C36.229 54.3548 36.8336 54.901 37.4349 55.4133C43.129 60.2631 48.7529 62.2214 52.2323 60.2278C55.8259 58.1687 56.9938 51.9379 55.4776 44.3571C55.3618 43.7782 55.227 43.1867 55.0757 42.5847C55.4996 42.4606 55.9158 42.3326 56.3217 42.1994C64.0026 39.6806 69 35.6087 69 31.4441C69 27.4506 64.3237 23.5886 57.0874 21.123Z" fill="#53C1DE"/>
<path d="M55.3319 39.4588C54.9672 39.5781 54.593 39.6934 54.2117 39.8051C53.3676 37.1655 52.2283 34.3586 50.8341 31.4586C52.1645 28.6277 53.2598 25.8567 54.0803 23.2342C54.7626 23.4292 55.4248 23.6349 56.0629 23.852C62.2351 25.9508 66 29.0539 66 31.4449C66 33.9918 61.934 37.298 55.3319 39.4588ZM52.5925 44.8207C53.26 48.151 53.3553 51.1621 52.9132 53.5159C52.516 55.631 51.7171 57.0412 50.7293 57.606C48.6273 58.8077 44.1323 57.2456 39.2845 53.1249C38.7287 52.6526 38.1689 52.1482 37.6074 51.6144C39.4868 49.5841 41.3651 47.2238 43.1983 44.6024C46.4226 44.3198 49.469 43.8578 52.2315 43.227C52.3676 43.7691 52.4884 44.3008 52.5925 44.8207ZM24.8898 57.3983C22.8362 58.1147 21.2005 58.1352 20.2118 57.5721C18.1079 56.3734 17.2333 51.7467 18.4263 45.5402C18.563 44.8295 18.7256 44.0993 18.9131 43.353C21.6454 43.9498 24.6694 44.3793 27.9015 44.6381C29.747 47.2031 31.6796 49.5609 33.6271 51.6253C33.2016 52.031 32.7777 52.4173 32.3563 52.7813C29.7685 55.0157 27.1752 56.6009 24.8898 57.3983ZM15.2687 39.4432C12.0164 38.3452 9.33052 36.9182 7.48949 35.3609C5.83521 33.9615 5 32.5722 5 31.4449C5 29.0459 8.62092 25.986 14.66 23.9062C15.3927 23.6538 16.1598 23.416 16.9558 23.1926C17.7905 25.8743 18.8853 28.6782 20.2066 31.5134C18.8682 34.3907 17.7578 37.2392 16.915 39.9524C16.3475 39.7913 15.7977 39.6217 15.2687 39.4432ZM18.4938 17.7588C17.2403 11.4311 18.0728 6.6577 20.1676 5.4599C22.399 4.18388 27.3333 6.00321 32.5338 10.5644C32.8662 10.856 33.1999 11.1611 33.5346 11.4768C31.5967 13.5322 29.6818 15.8722 27.8527 18.4222C24.7158 18.7093 21.713 19.1707 18.9523 19.7885C18.7787 19.0988 18.625 18.4212 18.4938 17.7588ZM47.2645 24.7761C46.6045 23.6501 45.927 22.5507 45.2363 21.4813C47.3644 21.747 49.4033 22.0998 51.3181 22.5314C50.7432 24.3512 50.0267 26.2539 49.1833 28.2045C48.5783 27.0699 47.9384 25.9259 47.2645 24.7761ZM35.5319 13.4882C36.8461 14.8947 38.1623 16.4649 39.4568 18.1686C38.1523 18.1078 36.8316 18.0761 35.5001 18.0761C34.181 18.0761 32.8701 18.107 31.5737 18.1669C32.8695 16.479 34.1971 14.9108 35.5319 13.4882ZM23.7241 24.7956C23.0648 25.9248 22.4368 27.0625 21.8413 28.2024C21.0115 26.2586 20.3017 24.3472 19.7218 22.5016C21.6248 22.081 23.6542 21.737 25.7687 21.4763C25.0683 22.5556 24.3851 23.6631 23.7241 24.7953V24.7956ZM25.8296 41.6143C23.6449 41.3735 21.5851 41.0473 19.6825 40.6382C20.2716 38.7597 20.9971 36.8075 21.8445 34.8218C22.4415 35.9609 23.0721 37.0991 23.7354 38.2308H23.7355C24.4111 39.3837 25.1111 40.513 25.8296 41.6143ZM35.6107 49.6C34.2602 48.1608 32.9132 46.5687 31.5976 44.8562C32.8747 44.9057 34.1768 44.931 35.5001 44.931C36.8595 44.931 38.2035 44.9008 39.5263 44.8426C38.2275 46.5859 36.9161 48.1805 35.6107 49.6ZM49.2105 34.7206C50.102 36.7277 50.8535 38.6697 51.4502 40.5163C49.5163 40.952 47.4283 41.303 45.2284 41.5638C45.9208 40.48 46.6043 39.3617 47.2759 38.2114C47.9554 37.0476 48.6005 35.8821 49.2105 34.7206ZM44.8078 36.8053C43.7652 38.591 42.6948 40.2957 41.6081 41.9047C39.6289 42.0445 37.5841 42.1165 35.5001 42.1165C33.4244 42.1165 31.4054 42.0528 29.4612 41.9282C28.3308 40.298 27.2371 38.5883 26.2011 36.8207H26.2014C25.1681 35.0579 24.2171 33.2802 23.3555 31.5125C24.2169 29.7406 25.1654 27.9609 26.1927 26.2013L26.1924 26.2016C27.2225 24.4373 28.3065 22.7359 29.4266 21.116C31.4102 20.9679 33.4443 20.8906 35.4999 20.8906H35.5001C37.565 20.8906 39.6017 20.9684 41.5847 21.1178C42.6876 22.726 43.7643 24.4218 44.7984 26.1864C45.8442 27.9708 46.8049 29.7386 47.6737 31.4725C46.8075 33.2361 45.849 35.0218 44.8078 36.8053ZM50.6856 5.37617C52.9191 6.64844 53.7877 11.7795 52.3844 18.5079C52.2949 18.9372 52.1941 19.3745 52.0846 19.8177C49.3175 19.187 46.3126 18.7177 43.1666 18.4261C41.3338 15.8482 39.4346 13.5045 37.5283 11.4755C38.0408 10.9885 38.5526 10.5241 39.0623 10.0859C43.9865 5.85299 48.5887 4.18177 50.6856 5.37617Z" fill="white"/>
<path d="M35.5 25C38.5375 25 41 27.6862 41 31C41 34.3137 38.5375 37 35.5 37C32.4625 37 30 34.3137 30 31C30 27.6862 32.4625 25 35.5 25Z" fill="#53C1DE"/>
</svg>
