<svg width="152" height="64" viewBox="0 0 152 64" fill="none" xmlns="http://www.w3.org/2000/svg">
<path fill-rule="evenodd" clip-rule="evenodd" d="M129.318 15.5812C129.318 16.8357 128.357 17.8809 127.06 17.8809C125.805 17.8809 124.802 16.8357 124.802 15.5812V14.7031C124.802 13.4486 125.805 12.4448 127.06 12.4448C128.357 12.4448 129.318 13.4486 129.318 14.7031V15.5812ZM129.318 23.1496V39.4575C129.318 40.712 128.357 41.7157 127.06 41.7157C125.805 41.7157 124.802 40.712 124.802 39.4575V23.1496C124.802 21.8117 125.805 20.8497 127.06 20.8497C128.357 20.8497 129.318 21.8117 129.318 23.1496ZM119.102 41.716C120.357 41.716 121.361 40.6705 121.361 39.4578H121.36V31.304V31.2619V14.7033C121.36 13.4906 120.357 12.4451 119.102 12.4451C117.806 12.4451 116.802 13.4906 116.802 14.7033V22.5643C115.255 21.4771 113.248 20.8082 111.199 20.8082C105.553 20.8082 101.037 25.5751 101.037 31.304C101.037 36.9491 105.553 41.716 111.199 41.716C113.29 41.716 115.297 41.0048 116.886 39.9179C117.095 40.9216 117.973 41.716 119.102 41.716ZM107.269 27.0804C108.313 25.9932 109.694 25.3661 111.199 25.3661C112.746 25.3661 114.085 25.9932 115.13 27.0804C116.175 28.1259 116.803 29.6308 116.803 31.3037C116.803 32.8924 116.175 34.398 115.13 35.4432C114.085 36.5307 112.746 37.1578 111.199 37.1578C109.694 37.1578 108.313 36.5307 107.269 35.4432C106.223 34.3977 105.596 32.8924 105.596 31.3037C105.596 29.6308 106.223 28.1259 107.269 27.0804ZM79.7746 31.2617C79.8166 25.5749 84.2493 20.808 89.9781 20.808C95.4146 20.808 99.7217 24.864 100.057 30.5088V30.7178C100.057 30.8016 100.057 31.0103 100.015 31.0941C99.889 32.0978 99.0111 32.767 97.84 32.767H84.5419C84.7509 33.729 85.2108 34.8159 85.9638 35.5268C86.842 36.5305 88.5147 37.2825 89.9781 37.408C91.4835 37.5332 93.2817 37.1573 94.3273 36.3629C95.2052 35.4426 96.92 35.5685 97.4636 36.237C98.0073 36.823 98.4254 38.0775 97.4636 38.955C95.4143 40.8363 92.9471 41.7148 89.9777 41.7148C84.2493 41.6737 79.8166 36.9486 79.7746 31.2617ZM84.3328 29.2129H96.1673C95.7492 27.5403 93.6163 25.0734 89.9781 24.7805C86.4239 24.9475 84.6674 27.4986 84.3328 29.2129ZM81.001 23.0235C81.001 24.1945 80.0389 25.2397 78.7843 25.2397C77.8222 25.2397 76.9861 25.4908 76.2751 26.0344C75.4807 26.5366 74.8532 27.2471 74.3516 28.0415C73.4381 29.2594 72.9408 30.6847 72.7009 31.3722C72.6772 31.4402 72.656 31.5009 72.6372 31.5536V39.4986C72.6372 40.7114 71.5919 41.7151 70.3373 41.7151C69.1245 41.7151 68.121 40.7114 68.121 39.4986V23.0235C68.121 21.8107 69.1245 20.8491 70.3373 20.8491C71.5919 20.8491 72.6372 21.8111 72.6372 23.0235V23.3163C72.888 23.0235 73.2226 22.6893 73.5154 22.4799C74.8956 21.5603 76.6935 20.8073 78.7843 20.8491C80.0389 20.8491 81.001 21.8111 81.001 23.0235ZM135.328 35.3993C134.409 34.6049 132.945 34.7305 132.192 35.7335C131.44 36.6535 131.565 38.0756 132.485 38.8282C134.158 40.1662 136.667 41.6715 139.929 41.7132C141.978 41.7132 143.86 41.0855 145.365 40.0403C146.871 38.9534 148 37.2388 148 35.1899C148 34.2283 147.707 33.2663 147.206 32.4302C146.495 31.2595 145.365 30.4651 144.236 29.9632C143.024 29.3779 141.727 29.0013 140.347 28.7508H140.305L140.263 28.7087C138.841 28.4576 137.754 28.0813 137.21 27.705C136.918 27.5377 136.792 27.3704 136.75 27.287C136.667 27.1617 136.667 27.1197 136.667 26.9527C136.667 26.7437 136.792 26.3674 137.336 25.9907C137.879 25.5727 138.799 25.2381 139.845 25.2381C141.183 25.2381 142.354 25.9076 143.692 26.7854C144.737 27.4963 146.118 27.2035 146.786 26.1997C147.414 25.1549 147.121 23.7749 146.118 23.1057C144.779 22.1861 142.73 20.8061 139.845 20.8061C137.921 20.8061 136.165 21.3497 134.701 22.3531C133.321 23.3986 132.234 25.0294 132.234 26.953C132.234 27.9147 132.485 28.8346 132.944 29.5872C133.697 30.7162 134.701 31.4688 135.83 32.0121C136.917 32.5143 138.172 32.8489 139.468 33.0996H139.51C141.015 33.3922 142.27 33.8523 142.855 34.2707C143.19 34.4794 143.357 34.6467 143.399 34.7719C143.483 34.8978 143.525 34.9812 143.525 35.1903C143.525 35.5252 143.358 35.9429 142.772 36.4448C142.103 36.8631 141.057 37.2391 139.928 37.2391C138.298 37.2806 136.416 36.3195 135.328 35.3993Z" fill="#636466"/>
<path d="M52.8451 44.8469C49.91 46.4282 34.705 52.8896 31.4679 54.6336C28.2309 56.3783 26.4326 56.3612 23.8754 55.0978C21.3183 53.8343 5.13753 47.0791 2.22281 45.6392C0.765941 44.9194 0 44.3122 0 43.7385V37.9925C0 37.9925 21.0652 33.2527 24.4661 31.9919C27.8668 30.7307 29.0466 30.6853 31.9406 31.781C34.835 32.8767 52.1396 36.1038 55 37.1865C55 37.1865 54.9987 42.3183 54.9987 42.8509C54.999 43.419 54.3391 44.0422 52.8451 44.8469V44.8469Z" fill="#A41E11"/>
<path d="M52.8441 39.2613C49.9091 40.7832 34.7046 47.0052 31.4676 48.6844C28.2307 50.3642 26.4324 50.3478 23.8754 49.1313C21.318 47.9154 5.13806 41.41 2.22343 40.0242C-0.691187 38.6378 -0.752294 37.6835 2.11092 36.568C4.97381 35.4518 21.0652 29.169 24.4664 27.9547C27.8669 26.7411 29.0467 26.6967 31.9406 27.752C34.8349 28.8071 49.9485 34.7938 52.8085 35.8363C55.6691 36.8797 55.7791 37.7388 52.8441 39.2613V39.2613Z" fill="#D82C20"/>
<path d="M52.8451 35.8468C49.91 37.4281 34.705 43.8895 31.4679 45.6342C28.2309 47.3782 26.4326 47.3612 23.8754 46.0977C21.318 44.8349 5.13753 38.079 2.22281 36.6391C0.765941 35.9193 0 35.3128 0 34.739V28.9924C0 28.9924 21.0652 24.2529 24.4661 22.9918C27.8668 21.7309 29.0466 21.6852 31.9406 22.7809C34.835 23.8766 52.1396 27.103 55 28.186C55 28.186 54.9987 33.3178 54.9987 33.8512C54.999 34.4189 54.3391 35.0421 52.8451 35.8468V35.8468Z" fill="#A41E11"/>
<path d="M52.8441 30.2612C49.9091 31.7837 34.7046 38.0051 31.4676 39.6849C28.2307 41.3642 26.4324 41.3478 23.8754 40.1312C21.318 38.9153 5.13806 32.4102 2.22343 31.0241C-0.691187 29.638 -0.752294 28.6837 2.11092 27.5675C4.97381 26.452 21.0652 20.1689 24.4664 18.9549C27.8669 17.7409 29.0467 17.6969 31.9406 18.7519C34.8349 19.8069 49.9485 25.7934 52.8085 26.8362C55.6691 27.8793 55.7791 28.7387 52.8441 30.2612V30.2612Z" fill="#D82C20"/>
<path d="M52.8451 26.2925C49.91 27.8106 34.705 34.0139 31.4679 35.6888C28.2309 37.3631 26.4326 37.3467 23.8754 36.1338C21.318 34.9215 5.13753 28.4355 2.22281 27.0535C0.765941 26.3625 0 25.7799 0 25.2294V19.7125C0 19.7125 21.0652 15.1626 24.4661 13.9522C27.8668 12.7415 29.0466 12.6979 31.9406 13.7498C34.835 14.8017 52.1396 17.899 55 18.9388C55 18.9388 54.9987 23.8653 54.9987 24.377C54.999 24.9217 54.3391 25.52 52.8451 26.2925V26.2925Z" fill="#A41E11"/>
<path d="M52.8441 20.7942C49.9091 22.3829 34.7046 28.8751 31.4676 30.6277C28.2307 32.38 26.4324 32.3628 23.8754 31.0937C21.3183 29.8246 5.13806 23.0369 2.22343 21.5905C-0.691187 20.1442 -0.752294 19.148 2.11092 17.9837C4.97381 16.8193 21.0652 10.2636 24.4664 8.9965C27.8669 7.72941 29.0467 7.68375 31.9406 8.78498C34.8349 9.88588 49.9485 16.1327 52.8085 17.2208C55.6691 18.3086 55.7791 19.2058 52.8441 20.7942Z" fill="#D82C20"/>
<path fill-rule="evenodd" clip-rule="evenodd" d="M34.7353 15.3839L29.9654 15.8789L28.8975 18.4481L27.1727 15.5812L21.665 15.0862L25.7747 13.6042L24.5418 11.3295L28.3894 12.8341L32.017 11.6466L31.0365 13.999L34.7353 15.3839ZM28.6127 27.8481L19.7104 24.1561L32.4668 22.1984L28.6127 27.8481ZM23.0885 19.4545C23.0885 20.914 20.036 22.0971 16.2705 22.0971C12.505 22.0971 9.45251 20.914 9.45251 19.4545C9.45251 17.995 12.505 16.8118 16.2705 16.8118C20.036 16.8118 23.0885 17.995 23.0885 19.4545Z" fill="white"/>
<path d="M40 16L48 19.0016L40.0069 22L40 16Z" fill="#7A0C00"/>
<path d="M32 19.1545L39.9938 16L40 21.6941L39.2164 22L32 19.1545Z" fill="#AD2115"/>
</svg>
