<svg width="468" height="156" viewBox="0 0 468 156" fill="none" xmlns="http://www.w3.org/2000/svg">
<path d="M255.316 50.1577C255.316 53.7767 252.343 57.0067 248.466 57.0067C245.493 57.0067 242.909 57.7828 240.712 59.4628C238.257 61.0148 236.318 63.2108 234.768 65.6658C231.666 69.8018 230.117 74.7117 229.47 76.5197V101.074C229.47 104.822 226.24 107.924 222.363 107.924C218.615 107.924 215.514 104.822 215.514 101.074V50.1577C215.514 46.4097 218.615 43.4377 222.363 43.4377C226.24 43.4377 229.47 46.4107 229.47 50.1577V51.0627C230.245 50.1577 231.279 49.1247 232.184 48.4777C236.449 45.6357 242.005 43.3087 248.466 43.4377C252.343 43.4377 255.316 46.4107 255.316 50.1577V50.1577Z" fill="#636466"/>
<path d="M251.526 75.6178C251.656 58.0428 265.354 43.3108 283.057 43.3108C299.857 43.3108 313.167 55.8458 314.202 73.2908V73.9368C314.202 74.1958 314.202 74.8408 314.073 75.0998C313.684 78.2018 310.971 80.2698 307.352 80.2698H266.258C266.904 83.2428 268.325 86.6018 270.652 88.7988C273.366 91.9008 278.535 94.2248 283.057 94.6128C287.709 94.9998 293.266 93.8378 296.497 91.3828C299.21 88.5388 304.509 88.9278 306.189 90.9938C307.869 92.8048 309.161 96.6818 306.189 99.3938C299.856 105.208 292.232 107.923 283.056 107.923C265.354 107.796 251.656 93.1928 251.526 75.6178ZM265.612 69.2858H302.183C300.891 64.1168 294.3 56.4928 283.057 55.5878C272.074 56.1038 266.646 63.9878 265.612 69.2858V69.2858Z" fill="#636466"/>
<path d="M380.036 100.948C380.036 104.696 376.934 107.927 373.057 107.927C369.568 107.927 366.855 105.472 366.208 102.37C361.298 105.729 355.095 107.927 348.633 107.927C331.188 107.927 317.231 93.1946 317.231 75.7486C317.231 58.0436 331.188 43.3116 348.633 43.3116C354.966 43.3116 361.168 45.3786 365.949 48.7386V24.4446C365.949 20.6966 369.051 17.4656 373.056 17.4656C376.933 17.4656 380.035 20.6966 380.035 24.4446V75.6186V75.7486V100.948H380.036ZM348.634 57.3976C343.982 57.3976 339.717 59.3356 336.488 62.6956C333.257 65.9266 331.318 70.5776 331.318 75.7476C331.318 80.6576 333.256 85.3096 336.488 88.5406C339.717 91.9016 343.982 93.8396 348.634 93.8396C353.415 93.8396 357.551 91.9016 360.781 88.5406C364.011 85.3106 365.95 80.6576 365.95 75.7476C365.95 70.5776 364.012 65.9266 360.781 62.6956C357.551 59.3356 353.415 57.3976 348.634 57.3976Z" fill="#636466"/>
<path d="M404.627 27.1576C404.627 31.0346 401.655 34.2646 397.648 34.2646C393.771 34.2646 390.67 31.0346 390.67 27.1576V24.4436C390.67 20.5666 393.771 17.4646 397.648 17.4646C401.655 17.4646 404.627 20.5666 404.627 24.4436V27.1576ZM404.627 50.5476V100.947C404.627 104.824 401.655 107.926 397.648 107.926C393.771 107.926 390.67 104.824 390.67 100.947V50.5476C390.67 46.4126 393.771 43.4396 397.648 43.4396C401.656 43.4396 404.627 46.4126 404.627 50.5476Z" fill="#636466"/>
<path d="M413.507 89.4378C415.833 86.3378 420.357 85.9498 423.199 88.4048C426.559 91.2488 432.375 94.2188 437.414 94.0908C440.903 94.0908 444.134 92.9288 446.202 91.6358C448.011 90.0848 448.527 88.7938 448.527 87.7588C448.527 87.1128 448.398 86.8548 448.14 86.4658C448.01 86.0788 447.494 85.5618 446.459 84.9168C444.65 83.6238 440.773 82.2018 436.121 81.2978H435.992C431.985 80.5228 428.108 79.4888 424.749 77.9368C421.26 76.2578 418.158 73.9318 415.832 70.4428C414.411 68.1168 413.636 65.2738 413.636 62.3018C413.636 56.3568 416.996 51.3168 421.26 48.0858C425.783 44.9848 431.211 43.3048 437.156 43.3048C446.072 43.3048 452.404 47.5698 456.54 50.4118C459.642 52.4798 460.546 56.7448 458.607 59.9738C456.54 63.0758 452.275 63.9808 449.045 61.7838C444.91 59.0708 441.291 57.0018 437.156 57.0018C433.925 57.0018 431.082 58.0358 429.402 59.3278C427.722 60.4918 427.335 61.6548 427.335 62.3008C427.335 62.8168 427.335 62.9468 427.593 63.3338C427.723 63.5918 428.11 64.1088 429.015 64.6258C430.696 65.7888 434.055 66.9518 438.449 67.7278L438.578 67.8578H438.708C442.973 68.6318 446.979 69.7958 450.726 71.6048C454.215 73.1558 457.705 75.6108 459.902 79.2288C461.453 81.8128 462.357 84.7858 462.357 87.7578C462.357 94.0898 458.868 99.3888 454.215 102.748C449.563 105.978 443.747 107.918 437.415 107.918C427.336 107.789 419.582 103.137 414.413 99.0018C411.569 96.6758 411.182 92.2808 413.507 89.4378V89.4378Z" fill="#636466"/>
<path d="M168.445 117.428C159.367 122.16 112.339 141.496 102.327 146.715C92.3148 151.936 86.7528 151.886 78.8437 148.104C70.9347 144.323 20.8884 124.108 11.8733 119.799C7.36731 117.645 4.99829 115.828 4.99829 114.111V96.9162C4.99829 96.9162 70.1517 82.7321 80.6707 78.9591C91.1888 75.185 94.8378 75.049 103.789 78.3281C112.741 81.6071 166.263 91.2641 175.11 94.5041C175.11 94.5041 175.106 109.861 175.106 111.455C175.107 113.155 173.066 115.02 168.445 117.428V117.428Z" fill="#A41E11"/>
<path d="M168.445 100.228C159.367 104.958 112.339 124.296 102.327 129.515C92.3148 134.736 86.7527 134.685 78.8437 130.904C70.9336 127.125 20.8883 106.906 11.8733 102.599C2.85822 98.2901 2.66921 95.324 11.5253 91.857C20.3803 88.388 70.1516 68.8609 80.6717 65.0869C91.1898 61.3148 94.8388 61.1768 103.79 64.4569C112.742 67.7359 159.489 86.343 168.335 89.583C177.183 92.826 177.523 95.4961 168.445 100.228V100.228Z" fill="#D82C20"/>
<path d="M168.445 89.388C159.367 94.1201 112.339 113.456 102.327 118.677C92.3148 123.896 86.7528 123.845 78.8437 120.064C70.9337 116.285 20.8884 96.0681 11.8733 91.759C7.36731 89.605 4.99829 87.79 4.99829 86.073V68.8759C4.99829 68.8759 70.1517 54.6928 80.6707 50.9188C91.1888 47.1458 94.8378 47.0088 103.789 50.2878C112.741 53.5668 166.263 63.2219 175.11 66.4629C175.11 66.4629 175.106 81.82 175.106 83.416C175.107 85.115 173.066 86.98 168.445 89.388V89.388Z" fill="#A41E11"/>
<path d="M168.445 72.1879C159.367 76.9199 112.339 96.256 102.327 101.477C92.3148 106.696 86.7527 106.645 78.8437 102.864C70.9336 99.0851 20.8883 78.8669 11.8733 74.5589C2.85822 70.2509 2.66921 67.2849 11.5253 63.8159C20.3803 60.3489 70.1516 40.8207 80.6717 37.0477C91.1898 33.2747 94.8388 33.1377 103.79 36.4167C112.742 39.6957 159.489 58.3018 168.335 61.5428C177.183 64.7849 177.523 67.4559 168.445 72.1879V72.1879Z" fill="#D82C20"/>
<path d="M168.445 60.3079C159.367 65.0399 112.339 84.377 102.327 89.5981C92.3148 94.8171 86.7528 94.7661 78.8437 90.9851C70.9337 87.206 20.8884 66.9879 11.8733 62.6799C7.36731 60.5259 4.99829 58.7099 4.99829 56.9938V39.7968C4.99829 39.7968 70.1517 25.6137 80.6707 21.8407C91.1888 18.0666 94.8378 17.9306 103.789 21.2097C112.741 24.4887 166.263 34.1437 175.11 37.3848C175.11 37.3848 175.106 52.7418 175.106 54.3369C175.107 56.0349 173.066 57.8999 168.445 60.3079V60.3079Z" fill="#A41E11"/>
<path d="M168.445 43.1078C159.367 47.8398 112.339 67.1769 102.327 72.397C92.3148 77.616 86.7527 77.565 78.8437 73.785C70.9346 70.0049 20.8883 49.7878 11.8733 45.4798C2.85822 41.1718 2.66921 38.2047 11.5253 34.7367C20.3803 31.2687 70.1516 11.7426 80.6717 7.96855C91.1898 4.19453 94.8388 4.05854 103.79 7.33856C112.742 10.6176 159.489 29.2237 168.335 32.4647C177.183 35.7047 177.523 38.3767 168.445 43.1078Z" fill="#D82C20"/>
<path d="M112.345 26.5476L97.6046 28.0776L94.3046 36.0176L88.9746 27.1576L71.9546 25.6276L84.6546 21.0476L80.8446 14.0176L92.7346 18.6676L103.945 14.9976L100.915 22.2676L112.345 26.5476Z" fill="white"/>
<path d="M93.4245 65.0678L65.9146 53.6578L105.335 47.6078L93.4245 65.0678Z" fill="white"/>
<path d="M55.2845 47.2947C66.9205 47.2947 76.3535 43.6382 76.3535 39.1277C76.3535 34.6172 66.9205 30.9607 55.2845 30.9607C43.6484 30.9607 34.2155 34.6172 34.2155 39.1277C34.2155 43.6382 43.6484 47.2947 55.2845 47.2947Z" fill="white"/>
<path d="M129.765 28.7177L153.095 37.9376L129.785 47.1477L129.765 28.7177Z" fill="#7A0C00"/>
<path d="M103.955 38.9277L129.765 28.7177L129.785 47.1477L127.255 48.1376L103.955 38.9277Z" fill="#AD2115"/>
</svg>
