<svg width="196" height="147" viewBox="0 0 196 147" fill="none" xmlns="http://www.w3.org/2000/svg">
<g clip-path="url(#clip0_416_2649)">
<path d="M168.667 84.4485C161.815 84.4871 155.881 86.1328 150.905 88.5832C149.067 84.9465 147.23 81.7688 146.924 79.3957C146.579 76.6395 146.158 74.9547 146.579 71.6629C147 68.3703 148.914 63.7 148.914 63.3172C148.875 62.9727 148.493 61.2883 144.55 61.25C140.607 61.2117 137.2 62.0156 136.817 63.0492C136.434 64.0828 135.669 66.4563 135.171 68.9063C134.482 72.5047 127.285 85.2524 123.189 91.9516C121.849 89.3484 120.701 87.0516 120.471 85.2137C120.127 82.4578 119.705 80.7731 120.127 77.4813C120.548 74.1887 122.462 69.5188 122.462 69.136C122.423 68.7914 122.041 67.1071 118.098 67.0688C114.155 67.0305 110.748 67.8344 110.365 68.868C109.982 69.9016 109.561 72.3516 108.719 74.725C107.915 77.0985 98.3446 98.3828 95.8563 103.934C94.593 106.766 93.4833 109.025 92.679 110.556C91.8751 112.088 92.6407 110.671 92.5641 110.824C91.8751 112.126 91.4922 112.853 91.4922 112.853V112.892C90.9563 113.849 90.3821 114.767 90.1137 114.767C89.9223 114.767 89.5395 112.202 90.1903 108.681C91.6067 101.292 95.052 89.7699 95.0141 89.3488C95.0141 89.1574 95.6645 87.1281 92.7934 86.0949C89.9989 85.0613 89.004 86.784 88.7739 86.784C88.5442 86.784 88.3528 87.3965 88.3528 87.3965C88.3528 87.3965 91.4536 74.4195 82.4192 74.4195C76.7536 74.4195 68.9442 80.5828 65.0778 86.2102C62.6278 87.55 57.4216 90.3824 51.9091 93.407C49.8036 94.5555 47.6216 95.7805 45.5544 96.8906L45.1337 96.4305C34.1852 84.7547 13.9345 76.486 14.7766 60.7907C15.0829 55.0867 17.0735 40.0422 53.6708 21.8204C83.645 6.89068 107.647 10.9868 111.82 20.0977C117.753 33.1133 98.9954 57.3071 67.8348 60.7907C55.9676 62.1305 49.7274 57.5367 48.1583 55.8141C46.5122 54.0149 46.2825 53.9383 45.67 54.2828C44.6747 54.8188 45.2872 56.4266 45.67 57.3836C46.5887 59.7953 50.4169 64.0828 56.9247 66.2266C62.6282 68.1024 76.5629 69.136 93.4067 62.6282C112.279 55.3164 127.018 35.0274 122.692 18.0688C118.289 0.803962 89.6551 -4.86166 62.5903 4.74693C46.4735 10.4891 29.0173 19.4469 16.461 31.1993C1.53134 45.1336 -0.842099 57.3071 0.153213 62.3602C3.63719 80.3906 28.4813 92.143 38.4345 100.833C37.9368 101.1 37.4774 101.368 37.0563 101.598C32.0798 104.048 13.1306 113.963 8.38368 124.452C3.02431 136.319 9.22587 144.856 13.3602 146.005C26.1462 149.565 39.2384 143.172 46.3204 132.645C53.3638 122.117 52.5219 108.451 49.268 102.211L49.1528 101.981L53.0575 99.6844C55.5844 98.1914 58.0727 96.8133 60.2544 95.6262C59.0298 98.9567 58.1489 102.9 57.6899 108.642C57.154 115.38 59.9102 124.107 63.5469 127.553C65.1548 129.045 67.0688 129.084 68.2555 129.084C72.4665 129.084 74.3805 125.6 76.486 121.428C79.0891 116.336 81.386 110.441 81.386 110.441C81.386 110.441 78.5149 126.404 86.3626 126.404C89.2337 126.404 92.1047 122.691 93.4063 120.777V120.815C93.4063 120.815 93.4829 120.7 93.636 120.432C93.7966 120.195 93.9498 119.952 94.0954 119.705V119.629C95.2438 117.638 97.8087 113.083 101.637 105.541C106.575 95.818 111.322 83.6445 111.322 83.6445C111.322 83.6445 111.781 86.6305 113.198 91.5305C114.04 94.4402 115.877 97.6172 117.293 100.718C116.145 102.326 115.456 103.245 115.456 103.245L115.494 103.283C114.576 104.508 113.542 105.81 112.47 107.111C108.566 111.782 103.895 117.103 103.283 118.634C102.556 120.433 102.709 121.773 104.125 122.845C105.159 123.611 106.996 123.764 108.948 123.611C112.47 123.381 114.92 122.501 116.145 121.964C118.059 121.275 120.241 120.242 122.347 118.711C126.175 115.878 128.51 111.859 128.281 106.499C128.166 103.552 127.209 100.642 126.022 97.8859C126.366 97.3883 126.711 96.8902 127.056 96.3547C133.104 87.5113 137.774 77.7883 137.774 77.7883C137.774 77.7883 138.234 80.7742 139.65 85.6742C140.377 88.1625 141.832 90.8808 143.134 93.5605C137.468 98.1926 133.908 103.552 132.683 107.074C130.424 113.582 132.185 116.529 135.516 117.218C137.008 117.525 139.152 116.836 140.76 116.146C142.75 115.496 145.162 114.385 147.383 112.739C151.211 109.907 154.886 105.964 154.695 100.643C154.58 98.1926 153.929 95.7808 153.048 93.484C157.872 91.4933 164.111 90.3449 172.036 91.3019C189.071 93.2926 192.44 103.935 191.789 108.375C191.139 112.816 187.579 115.266 186.391 116.032C185.205 116.759 184.822 117.027 184.937 117.563C185.09 118.367 185.626 118.328 186.659 118.176C188.076 117.946 195.617 114.539 195.923 106.347C196.383 95.8184 186.391 84.334 168.667 84.4485V84.4485ZM37.286 128.74C31.6587 134.903 23.7345 137.238 20.3657 135.248C16.729 133.142 18.145 124.07 25.0743 117.523C29.2852 113.542 34.7595 109.867 38.3579 107.609C39.1618 107.111 40.3868 106.384 41.8415 105.503C42.0712 105.35 42.2243 105.273 42.2243 105.273C42.4923 105.12 42.7985 104.929 43.1048 104.738C45.6696 114.078 43.2196 122.27 37.286 128.74V128.74ZM78.4383 100.756C76.486 105.541 72.3516 117.83 69.8633 117.141C67.7192 116.566 66.418 107.264 69.4419 98.0766C70.9731 93.4442 74.227 87.932 76.1411 85.7879C79.2423 82.3426 82.6106 81.1942 83.4532 82.6106C84.4485 84.4484 79.6633 97.7703 78.4383 100.756ZM112.394 116.988C111.552 117.409 110.786 117.715 110.441 117.486C110.173 117.332 110.786 116.758 110.786 116.758C110.786 116.758 115.035 112.203 116.719 110.097C117.676 108.873 118.825 107.456 120.05 105.848V106.307C120.05 111.82 114.767 115.495 112.394 116.988ZM138.578 111.016C137.965 110.556 138.042 109.14 140.109 104.699C140.913 102.938 142.75 99.9906 145.928 97.1961C146.311 98.3445 146.541 99.4543 146.502 100.488C146.464 107.379 141.564 109.944 138.578 111.016Z" fill="#CF649A"/>
</g>
<defs>
<clipPath id="clip0_416_2649">
<rect width="196" height="147" fill="white"/>
</clipPath>
</defs>
</svg>
