<svg width="85" height="64" viewBox="0 0 85 64" fill="none" xmlns="http://www.w3.org/2000/svg">
<path d="M68.1202 36.0083C65.6378 36.0225 63.4882 36.6275 61.6853 37.5282C61.0196 36.1914 60.3539 35.0233 60.2431 34.151C60.1183 33.1378 59.9657 32.5185 60.1183 31.3085C60.2707 30.0982 60.9641 28.3815 60.9641 28.2407C60.9501 28.1141 60.8114 27.4949 59.3831 27.4809C57.9548 27.4668 56.7204 27.7623 56.5817 28.1422C56.443 28.5222 56.1656 29.3946 55.9854 30.2952C55.7357 31.6179 53.1285 36.3038 51.6445 38.7664C51.1592 37.8095 50.7431 36.9652 50.6598 36.2896C50.5351 35.2766 50.3824 34.6573 50.5351 33.4473C50.6876 32.237 51.381 30.5204 51.381 30.3796C51.3672 30.253 51.2285 29.6338 49.8002 29.6198C48.3716 29.6057 47.1375 29.9012 46.9988 30.2811C46.8601 30.6611 46.7075 31.5617 46.4024 32.4341C46.1111 33.3066 42.644 41.1304 41.7425 43.1708C41.2849 44.2121 40.8828 45.0424 40.5914 45.6052C40.3002 46.1681 40.5776 45.6474 40.5498 45.7037C40.3002 46.1822 40.1615 46.4495 40.1615 46.4495V46.4637C39.9674 46.8155 39.7593 47.1531 39.6621 47.1531C39.5928 47.1531 39.4541 46.2103 39.6898 44.9158C40.203 42.1999 41.4511 37.9644 41.4374 37.8096C41.4374 37.7393 41.673 36.9933 40.6329 36.6135C39.6205 36.2336 39.2601 36.8668 39.1767 36.8668C39.0935 36.8668 39.0242 37.092 39.0242 37.092C39.0242 37.092 40.1475 32.3218 36.8746 32.3218C34.822 32.3218 31.9929 34.5874 30.5922 36.6559C29.7046 37.1484 27.8185 38.1896 25.8215 39.3014C25.0587 39.7235 24.2682 40.1738 23.5193 40.5819L23.3669 40.4128C19.4005 36.1209 12.0641 33.0814 12.3692 27.312C12.4802 25.2153 13.2013 19.6851 26.4597 12.987C37.3186 7.49905 46.0141 9.00472 47.5256 12.3538C49.6752 17.1382 42.8797 26.0315 31.591 27.312C27.2918 27.8045 25.0311 26.1159 24.4626 25.4827C23.8663 24.8213 23.7831 24.7932 23.5612 24.9198C23.2006 25.1168 23.4225 25.7078 23.5612 26.0596C23.894 26.9461 25.2809 28.5222 27.6385 29.3102C29.7047 29.9997 34.753 30.3796 40.8551 27.9874C47.6922 25.2998 53.0315 17.8418 51.4644 11.608C49.8695 5.26165 39.496 3.17904 29.691 6.71103C23.8523 8.82179 17.5283 12.1146 12.9795 16.4346C7.57078 21.5567 6.71094 26.0315 7.07151 27.8889C8.33368 34.5167 17.3341 38.8367 20.9399 42.031C20.7596 42.1294 20.5932 42.2279 20.4407 42.3124C18.6378 43.2129 11.7729 46.8576 10.0532 50.7131C8.11164 55.0753 10.3583 58.2135 11.8561 58.6356C16.4882 59.9443 21.2311 57.5943 23.7968 53.7246C26.3484 49.8549 26.0435 44.8313 24.8647 42.5376L24.8229 42.4532L26.2375 41.6089C27.153 41.0601 28.0544 40.5535 28.8448 40.1171C28.4011 41.3414 28.082 42.7907 27.9157 44.9015C27.7216 47.3783 28.7201 50.5865 30.0376 51.8529C30.6201 52.4016 31.3135 52.4158 31.7434 52.4158C33.2689 52.4158 33.9623 51.1351 34.7251 49.6014C35.6682 47.7299 36.5003 45.5629 36.5003 45.5629C36.5003 45.5629 35.4601 51.4308 38.3031 51.4308C39.3433 51.4308 40.3834 50.0658 40.8549 49.3622V49.3763C40.8549 49.3763 40.8827 49.3341 40.9381 49.2356C40.9963 49.1483 41.0518 49.0592 41.1046 48.9684V48.9402C41.5206 48.2085 42.4498 46.534 43.8366 43.7618C45.6255 40.1876 47.3453 35.7128 47.3453 35.7128C47.3453 35.7128 47.5118 36.8104 48.0249 38.6116C48.3299 39.6812 48.9955 40.849 49.5087 41.9888C49.0926 42.5798 48.843 42.9177 48.843 42.9177L48.8569 42.9317C48.5242 43.382 48.1496 43.8606 47.7614 44.3389C46.3468 46.0557 44.6549 48.0118 44.433 48.5746C44.1695 49.2359 44.225 49.7284 44.7381 50.1225C45.1125 50.404 45.7782 50.4601 46.4855 50.404C47.7614 50.3194 48.649 49.9959 49.0928 49.7987C49.7862 49.5454 50.5767 49.1655 51.3394 48.6026C52.7263 47.5615 53.5723 46.0839 53.489 44.1139C53.4474 43.0304 53.1007 41.9609 52.6708 40.9478C52.7956 40.7648 52.9206 40.5818 53.0453 40.3849C55.2365 37.1342 56.9284 33.5601 56.9284 33.5601C56.9284 33.5601 57.0948 34.6577 57.608 36.4589C57.8713 37.3736 58.3985 38.3728 58.87 39.3578C56.8175 41.0605 55.5277 43.0305 55.0839 44.3251C54.2657 46.7173 54.9036 47.8008 56.1102 48.0541C56.6509 48.1667 57.4277 47.9134 58.01 47.6601C58.7312 47.4209 59.6049 47.0127 60.4094 46.4077C61.7962 45.3664 63.1276 43.917 63.0582 41.9611C63.0166 41.0605 62.7809 40.174 62.4619 39.3297C64.2093 38.5979 66.4697 38.1758 69.3406 38.5276C75.5121 39.2593 76.7325 43.1712 76.4969 44.8036C76.2611 46.436 74.9713 47.3365 74.5413 47.6179C74.1114 47.8853 73.9727 47.9839 74.0143 48.1808C74.0698 48.4764 74.2639 48.4622 74.6384 48.4061C75.1515 48.3215 77.8836 47.0692 77.9945 44.058C78.1609 40.1878 74.5413 35.9662 68.1202 36.0083V36.0083ZM20.5239 52.2893C18.4852 54.5548 15.6144 55.4132 14.394 54.6815C13.0765 53.9075 13.5895 50.5725 16.0998 48.1663C17.6254 46.7028 19.6085 45.3519 20.9122 44.5217C21.2034 44.3388 21.6472 44.0715 22.1742 43.7478C22.2574 43.6916 22.3129 43.6633 22.3129 43.6633C22.41 43.607 22.5209 43.5367 22.6319 43.4663C23.561 46.8998 22.6735 49.9112 20.5239 52.2893V52.2893ZM35.4324 42.0029C34.7251 43.7618 33.2273 48.2788 32.3259 48.0256C31.5491 47.8145 31.0777 44.3951 32.1732 41.0178C32.7279 39.315 33.9067 37.2888 34.6001 36.5007C35.7236 35.2342 36.9439 34.8121 37.2492 35.3327C37.6097 36.0083 35.8762 40.9053 35.4324 42.0029ZM47.7337 47.9693C47.4286 48.1242 47.1512 48.2366 47.0264 48.1523C46.9293 48.0961 47.151 47.885 47.151 47.885C47.151 47.885 48.6904 46.2104 49.3006 45.4365C49.6474 44.9863 50.0634 44.4657 50.5072 43.8745V44.0434C50.5073 46.0696 48.5935 47.4205 47.7337 47.9693ZM57.2195 45.7741C56.9976 45.6052 57.0255 45.0846 57.7742 43.4523C58.0656 42.805 58.7312 41.7214 59.8822 40.6942C60.0209 41.1163 60.1043 41.5243 60.0903 41.9044C60.0765 44.4373 58.3014 45.3801 57.2195 45.7741Z" fill="#CF649A"/>
</svg>
