<svg width="224" height="202" viewBox="0 0 224 202" fill="none" xmlns="http://www.w3.org/2000/svg">
<path d="M48.7742 6.64736L111.774 0L174.774 6.64736L223.548 71.9943L111.774 201.9L0 71.9943L48.7742 6.64736Z" fill="#FDB300"/>
<path d="M45.2742 71.9943L111.774 201.9L0 71.9943H45.2742Z" fill="#EA6C00"/>
<path d="M178.274 71.9943L111.774 201.9L223.548 71.9943H178.274Z" fill="#EA6C00"/>
<path d="M45.2742 71.9943H178.274L111.774 201.9L45.2742 71.9943Z" fill="#FDAD00"/>
<path d="M111.774 0L48.774 6.64728L45.2742 71.9943L111.774 0Z" fill="#FDD231"/>
<path d="M111.774 0L174.774 6.64728L178.274 71.9943L111.774 0Z" fill="#FDD231"/>
<path d="M223.549 71.9942L174.774 6.64722L178.274 71.9942H223.549Z" fill="#FDAD00"/>
<path d="M0 71.9942L48.774 6.64722L45.2742 71.9942H0Z" fill="#FDAD00"/>
<path d="M111.774 0L45.2742 71.9943H178.274L111.774 0Z" fill="#FEEEB7"/>
</svg>
