<svg width="60" height="60" viewBox="0 0 60 60" fill="none" xmlns="http://www.w3.org/2000/svg">
<path fill-rule="evenodd" clip-rule="evenodd" d="M22.4022 0.947099C30.1653 -1.04582 38.7451 0.115494 45.5915 4.34529C54.2142 9.50712 59.8435 19.2713 59.9866 29.3223C60.3018 39.4736 55.0163 49.539 46.5226 55.0592C37.0692 61.4252 23.992 61.6692 14.338 55.6185C4.4979 49.7397 -1.2459 37.8821 0.229631 26.4976C1.41814 14.4678 10.7 3.85784 22.4022 0.94734V0.947099ZM21.2133 5.8652C35.8804 -0.013588 53.8706 10.8404 55.3887 26.5838C57.7523 40.7497 46.007 55.1452 31.6692 55.5611C18.0334 56.9233 4.85594 45.3521 4.46932 31.6452C3.45235 20.5475 10.7573 9.53578 21.2133 5.8652ZM22.6888 28.4763C22.6887 28.4763 22.6886 28.4764 22.6885 28.4765V28.4763C22.6886 28.4763 22.6887 28.4763 22.6888 28.4763ZM22.6888 28.4763C25.6968 28.5194 28.7187 28.5194 31.7409 28.5049C33.5018 25.7965 35.2876 23.106 37.0735 20.4155C38.8613 17.7221 40.6491 15.0286 42.4119 12.3172C38.0061 15.7401 33.7236 19.3111 29.443 22.8805C27.1969 24.7534 24.9514 26.6259 22.6888 28.4763ZM37.3271 31.5161C34.3048 31.473 31.2826 31.473 28.2461 31.473C26.4843 34.183 24.6974 36.8785 22.9106 39.574C21.1238 42.2696 19.3369 44.9652 17.5751 47.6752C21.6629 44.5147 25.6292 41.2062 29.5959 37.8975C32.1618 35.7571 34.7279 33.6167 37.3271 31.5161Z" fill="#010101"/>
</svg>
