<svg width="151" height="151" viewBox="0 0 151 151" fill="none" xmlns="http://www.w3.org/2000/svg">
<path d="M56.8886 4.35426C75.9211 -0.526695 96.9561 2.31753 113.741 12.677C134.881 25.3191 148.683 49.2331 149.033 73.8496C149.806 98.7115 136.848 123.363 116.024 136.883C92.8473 152.475 60.7863 153.072 37.1176 138.253C12.993 123.855 -1.08896 94.8138 2.52856 66.9314C5.44239 37.4687 28.1986 11.4831 56.8886 4.35485V4.35426Z" fill="#010101"/>
<path d="M53.9736 16.3995C89.9328 2.00139 134.039 28.5844 137.761 67.1425C143.556 101.837 114.76 137.094 79.6082 138.112C46.1777 141.449 13.8708 113.109 12.9229 79.5386C10.4296 52.3587 28.339 25.3893 53.9736 16.3995V16.3995Z" fill="white"/>
<path d="M57.5905 71.778C73.7092 58.6092 89.4763 44.9838 105.946 32.2013C97.3071 45.4757 88.4228 58.5738 79.784 71.8476C72.3744 71.883 64.9653 71.883 57.5905 71.7775V71.778ZM71.2159 79.1169C78.6603 79.1169 86.0699 79.1169 93.4796 79.2225C77.2559 92.3205 61.559 106.051 45.054 118.799C53.6928 105.524 62.577 92.3913 71.2159 79.1169Z" fill="#010101"/>
</svg>
