<svg width="153" height="64" viewBox="0 0 153 64" fill="none" xmlns="http://www.w3.org/2000/svg">
<path fill-rule="evenodd" clip-rule="evenodd" d="M31.4899 20.9289C32.284 19.8702 32.9645 18.698 33.4561 17.4881C35.7625 24.5209 37.1615 30.4194 36.6322 34.9945C36.3675 38.8512 34.8551 42.5566 32.3596 45.5058C25.8561 53.2192 14.286 54.2023 6.57265 47.6989L6.42581 47.5683C7.10151 48.0324 8.02987 47.9373 8.53881 47.2829C9.06816 46.6024 8.95473 45.6193 8.31195 45.0899C7.63135 44.5606 6.64828 44.6362 6.11893 45.3168C5.65107 45.9183 5.65579 46.7561 6.13308 47.3081L5.89206 47.0939C5.62739 46.867 5.36271 46.6402 5.13585 46.3755C-1.89695 39.1158 -1.67009 27.5079 5.58957 20.4751C12.8492 13.4423 24.4571 13.6314 31.4899 20.9289ZM6.13308 47.3081C6.19582 47.3807 6.26672 47.4483 6.34579 47.5098C6.37203 47.5302 6.39872 47.5497 6.42581 47.5683L6.13308 47.3081ZM17.5014 46.1035C23.1838 46.2795 29.8362 46.4855 33.3427 41.8004C37.9556 35.675 35.3844 25.7686 33.267 19.3786C31.3765 23.3487 26.688 26.3736 22.6422 27.3189C20.9717 27.7158 19.3952 27.7944 17.8558 27.8712C15.8761 27.9699 13.9578 28.0656 11.9796 28.8313C3.96371 31.894 4.11496 41.4223 8.501 43.5775L8.76568 43.7287C8.76568 43.7287 15.2313 42.4432 18.8233 41.1198C24.0412 39.1914 29.7884 34.4273 31.679 28.9069C30.6959 34.6542 25.7427 40.2123 20.7895 42.7457C19.1134 43.6077 17.6798 44.0451 15.7495 44.6341L15.7495 44.6341L15.7494 44.6341L15.7494 44.6341C14.6316 44.9752 13.3473 45.3671 11.7527 45.9218C11.2234 46.1108 10.8075 46.2999 10.8075 46.2999C11.904 46.1486 13.0005 46.073 13.0005 46.073C14.3607 46.0062 15.8921 46.0537 17.5014 46.1035ZM46.2739 39.494C46.2361 40.0611 46.5386 40.5905 47.0302 40.893C49.0341 42.2542 51.4162 42.9726 53.8361 43.0104C57.5037 43.0104 60.4152 41.1577 60.4152 37.4144V37.3388C60.4152 34.1627 57.5037 32.9527 54.8948 32.1587C54.755 32.1129 54.6159 32.0679 54.478 32.0232C52.5647 31.4033 50.8868 30.8598 50.8868 29.6254V29.5498C50.8868 28.5667 51.7943 27.8105 53.3824 27.8105C54.857 27.8861 56.256 28.302 57.5415 29.0204C57.8062 29.1338 58.0709 29.2095 58.3356 29.2095H58.3734C59.2808 29.2095 60.037 28.4532 60.037 27.5458C60.037 26.8652 59.6589 26.298 59.054 25.9955C57.3147 25.0881 55.4241 24.5965 53.458 24.5587C49.9416 24.5587 47.1436 26.6005 47.1436 29.9657V30.0413C47.1436 33.4443 50.0928 34.503 52.7018 35.2592C52.8674 35.3104 53.0319 35.3604 53.1943 35.4098C55.0706 35.9802 56.6719 36.4671 56.6719 37.7547V37.8303C56.6719 39.0024 55.651 39.7587 53.9117 39.7587C52.0968 39.683 50.3197 39.1159 48.8073 38.0572C48.5426 37.9059 48.2401 37.8303 47.9376 37.8303H47.8998C46.9923 37.8303 46.2739 38.5865 46.2739 39.494ZM61.9276 26.6384C61.8897 25.5418 62.7972 24.6344 63.8937 24.5966H63.9315C65.0658 24.5966 65.9733 25.504 65.9733 26.6384V27.8483C67.2967 25.9956 69.1494 24.521 72.023 24.521C76.1822 24.521 80.2658 27.8105 80.2658 33.7468V33.8224C80.2658 39.7209 76.22 43.0482 72.023 43.0482C69.0738 43.0482 67.2211 41.5736 65.9733 39.9099V46.1865C65.9733 47.3208 65.0658 48.2283 63.9315 48.2283C62.835 48.2283 61.9276 47.3208 61.9276 46.2243V46.1865V26.6384ZM76.1822 33.8224V33.7468C76.1822 30.306 73.8757 28.0752 71.1156 28.0752C68.3554 28.0752 65.9355 30.3816 65.9355 33.7468V33.8224C65.9355 37.2254 68.3554 39.494 71.1156 39.494C73.8757 39.494 76.1822 37.3388 76.1822 33.8224ZM83.82 24.5965C82.7235 24.6343 81.816 25.5418 81.8538 26.6383L81.816 40.9685V41.0063C81.816 42.1029 82.7235 42.9725 83.82 42.9725C84.9543 42.9725 85.8618 42.1029 85.8618 40.9685V35.1079C85.8618 31.5915 87.8279 29.0582 90.7393 28.5666C91.6846 28.4154 92.3652 27.5835 92.3652 26.6005V26.298C92.2896 25.2771 91.3821 24.5209 90.3612 24.5965C88.5841 24.5965 86.0886 26.1089 85.8996 27.6213V26.6383C85.8996 25.5039 84.9921 24.5965 83.8578 24.5965H83.82ZM93.9911 26.6761C93.9533 25.5796 94.8607 24.6721 95.9573 24.6343H95.9951C97.1294 24.6343 98.0368 25.5418 98.0368 26.6761V41.0063C98.0368 42.1407 97.1294 43.0103 95.9951 43.0103C94.8607 43.0103 93.9911 42.1029 93.9911 41.0063V26.6761ZM102.083 24.6343C100.986 24.6721 100.079 25.5796 100.116 26.6761L100.079 41.0063C100.079 42.1407 100.986 43.0481 102.12 43.0481C103.255 43.0481 104.162 42.1407 104.162 41.0063V32.7258C104.162 29.9656 105.826 28.3019 108.17 28.3019C110.628 28.3019 111.989 29.89 111.989 32.6502V40.9685V41.0063C112.027 42.1029 112.934 43.0103 114.031 42.9725H114.106C115.203 42.9347 116.073 42.065 116.035 40.9685V31.4024C116.035 27.281 113.728 24.5965 109.72 24.5965C107.49 24.5209 105.372 25.6174 104.162 27.5079V26.6761C104.162 25.5417 103.255 24.6343 102.12 24.6343H102.083ZM133.957 24.5587C132.823 24.5587 131.915 25.4661 131.915 26.6005V27.8104C130.592 25.9577 128.739 24.4831 125.866 24.4831C121.706 24.4831 117.623 27.7726 117.623 33.7089V33.7845C117.623 39.683 121.669 43.0103 125.866 43.0103C128.815 43.0103 130.668 41.5357 131.915 39.9098C131.726 43.1238 129.76 44.7874 126.319 44.7874C124.429 44.7874 122.538 44.3337 120.875 43.3884C120.648 43.275 120.421 43.2372 120.156 43.2372C119.211 43.2372 118.455 43.9556 118.417 44.9009C118.417 45.6193 118.871 46.2999 119.551 46.5267C121.706 47.5854 124.051 48.1148 126.433 48.1148C129.647 48.1148 132.142 47.3586 133.73 45.7327C135.205 44.2581 135.999 42.0273 135.999 39.0402V26.6383C136.037 25.504 135.129 24.5965 133.995 24.5587H133.957ZM126.811 39.4939C124.013 39.4939 121.744 37.3009 121.744 33.7845V33.7089C121.744 30.2681 124.051 28.0373 126.811 28.0373C129.571 28.0373 131.991 30.3437 131.991 33.7089V33.7845C132.029 37.1875 129.609 39.4939 126.811 39.4939ZM96.0329 21.7607C97.1673 21.7607 98.0747 20.8533 98.0747 19.7189V19.6433C98.0369 18.5468 97.1294 17.6394 96.0329 17.6772C94.8986 17.6772 93.9911 18.5846 93.9911 19.7189C93.9911 20.8533 94.8986 21.7607 96.0329 21.7607Z" fill="#6DB33F"/>
</svg>
