<svg width="378" height="98" viewBox="0 0 378 98" fill="none" xmlns="http://www.w3.org/2000/svg">
<g clip-path="url(#clip0_416_2651)">
<path d="M88.5 5.69999C87.2 8.89999 85.4 12 83.3 14.8C64.7 -4.5 34 -5.00001 14.8 13.6C-4.4 32.2 -5 62.9 13.6 82.1C14.2 82.8 14.9 83.4 15.6 84L17.4 85.6C37.8 102.8 68.4 100.2 85.6 79.8C92.2 72 96.2 62.2 96.9 52C98.3 39.9 94.6 24.3 88.5 5.69999ZM22.6 84.5C21.2 86.3 18.6 86.5 16.8 85.1C15 83.7 14.8 81.1 16.2 79.3C17.6 77.5 20.2 77.3 22 78.7C23.7 80.1 24 82.7 22.6 84.5ZM88.2 70C76.3 85.9 50.7 80.5 34.4 81.3C34.4 81.3 31.5 81.5 28.6 81.9C28.6 81.9 29.7 81.4 31.1 80.9C42.6 76.9 48 76.1 55 72.5C68.1 65.8 81.2 51.1 83.8 35.9C78.8 50.5 63.6 63.1 49.8 68.2C40.3 71.7 23.2 75.1 23.2 75.1L22.5 74.7C10.9 69 10.5 43.8 31.7 35.7C41 32.1 49.8 34.1 59.9 31.7C70.6 29.2 83 21.2 88 10.7C93.6 27.6 100.4 53.8 88.2 70Z" fill="#6DB33F"/>
<path d="M124.4 67.6C123.1 66.8 122.3 65.4 122.4 63.9C122.4 61.5 124.3 59.5 126.7 59.5C126.7 59.5 126.7 59.5 126.8 59.5C127.6 59.5 128.4 59.7 129.1 60.1C133.1 62.9 137.8 64.4 142.6 64.6C147.2 64.6 149.9 62.6 149.9 59.5V59.3C149.9 55.6 144.9 54.4 139.4 52.7C132.5 50.7 124.7 47.9 124.7 38.9V38.7C124.7 29.8 132.1 24.4 141.4 24.4C146.6 24.5 151.6 25.8 156.2 28.2C157.8 29 158.8 30.5 158.8 32.3C158.8 34.7 156.8 36.7 154.4 36.7H154.3C153.6 36.7 152.9 36.5 152.2 36.2C148.8 34.3 145.1 33.2 141.2 33C137 33 134.6 35 134.6 37.6V37.8C134.6 41.3 139.7 42.7 145.2 44.5C152.1 46.6 159.8 49.8 159.8 58.2V58.4C159.8 68.3 152.1 73.2 142.4 73.2C136 73.1 129.7 71.2 124.4 67.6Z" fill="#6DB33F"/>
<path d="M163.8 29.9C163.7 27 166.1 24.6 169 24.5H169.1C172.1 24.5 174.5 26.9 174.5 29.9V33.1C178 28.2 182.9 24.3 190.5 24.3C201.5 24.3 212.3 33.0001 212.3 48.7001V48.9001C212.3 64.5001 201.6 73.3001 190.5 73.3001C182.7 73.3001 177.8 69.4 174.5 65V81.6C174.5 84.6 172.1 87 169.1 87C166.2 87 163.8 84.6 163.8 81.7V81.6V29.9V29.9ZM201.5 48.9001V48.7001C201.5 39.6 195.4 33.7001 188.1 33.7001C180.8 33.7001 174.4 39.8001 174.4 48.7001V48.9001C174.4 57.9001 180.8 63.9001 188.1 63.9001C195.4 63.9001 201.5 58.2001 201.5 48.9001Z" fill="#6DB33F"/>
<path d="M216.5 29.9C216.4 27 218.8 24.6 221.7 24.5H221.8C224.8 24.5 227.2 26.9 227.2 29.9V32.5C227.7 28.5 234.3 24.5 239 24.5C241.7 24.3 244.1 26.3 244.3 29C244.3 29.3 244.3 29.5 244.3 29.8C244.3 32.4 242.5 34.6 240 35C232.3 36.3 227.1 43 227.1 52.3V67.8C227.1 70.8 224.7 73.1 221.7 73.1C218.8 73.1 216.4 70.8 216.4 67.9C216.4 67.9 216.4 67.9 216.4 67.8L216.5 29.9Z" fill="#6DB33F"/>
<path d="M248.6 30C248.5 27.1 250.9 24.7 253.8 24.6H253.9C256.9 24.6 259.3 27 259.3 30V67.9C259.3 70.9 256.9 73.2 253.9 73.2C250.9 73.2 248.6 70.8 248.6 67.9V30Z" fill="#6DB33F"/>
<path d="M264.8 29.9999C264.7 27.0999 267.1 24.6999 270 24.5999H270.1C273.1 24.5999 275.5 26.9999 275.5 29.9999V32.1999C278.7 27.1999 284.3 24.2999 290.2 24.4999C300.8 24.4999 306.9 31.5999 306.9 42.4999V67.7999C307 70.6999 304.7 72.9999 301.8 73.0999C301.7 73.0999 301.7 73.0999 301.6 73.0999C298.7 73.1999 296.3 70.7999 296.2 67.8999V67.7999V45.7999C296.2 38.4999 292.6 34.2999 286.1 34.2999C279.9 34.2999 275.5 38.6999 275.5 45.9999V67.8999C275.5 70.8999 273.1 73.2999 270.1 73.2999C267.1 73.2999 264.7 70.8999 264.7 67.8999L264.8 29.9999Z" fill="#6DB33F"/>
<path d="M354.3 24.4C351.3 24.4 348.9 26.7999 348.9 29.7999V33C345.4 28.1 340.5 24.2 332.9 24.2C321.9 24.2 311.1 32.8999 311.1 48.5999V48.7999C311.1 64.4 321.8 73.1999 332.9 73.1999C340.7 73.1999 345.6 69.3 348.9 65C348.4 73.5 343.2 77.9 334.1 77.9C329.1 77.9 324.1 76.6999 319.7 74.1999C319.1 73.8999 318.5 73.8 317.8 73.8C315.3 73.8 313.3 75.6999 313.2 78.1999C313.2 80.0999 314.4 81.9 316.2 82.5C321.9 85.3 328.1 86.6999 334.4 86.6999C342.9 86.6999 349.5 84.7 353.7 80.4C357.6 76.5 359.7 70.6 359.7 62.7V29.9C359.8 26.9 357.4 24.5 354.4 24.4C354.4 24.4 354.3 24.4 354.3 24.4ZM335.4 63.9C328 63.9 322 58.0999 322 48.7999V48.5999C322 39.4999 328.1 33.5999 335.4 33.5999C342.7 33.5999 349.1 39.6999 349.1 48.5999V48.7999C349.2 57.7999 342.8 63.9 335.4 63.9Z" fill="#6DB33F"/>
<path d="M259.4 11.6C259.4 14.6 257 17 254 17C251 17 248.6 14.6 248.6 11.6C248.6 8.60004 251 6.20004 254 6.20004C256.9 6.10004 259.3 8.50004 259.4 11.4C259.4 11.5 259.4 11.5 259.4 11.6Z" fill="#6DB33F"/>
<path d="M372 35.7C369 35.7 366.5 33.2 366.5 30.2C366.5 27.2 369 24.7 372 24.7C375 24.7 377.5 27.2 377.5 30.2C377.5 33.2 375 35.7 372 35.7ZM372 25.5C369.4 25.5 367.3 27.6 367.3 30.2C367.3 32.8 369.4 34.9 372 34.9C374.6 34.9 376.7 32.8 376.7 30.2C376.7 27.6 374.7 25.5 372.1 25.5H372ZM373.5 33.2999L371.9 30.7999H370.8V33.2999H369.9V27H372.5C373.6 26.9 374.5 27.8 374.6 28.9C374.6 29.8 373.9 30.5999 373 30.7999L374.7 33.2999H373.5ZM372.4 27.7999H370.8V30H372.5C373.1 30 373.6 29.5 373.6 28.9C373.6 28.3 373.1 27.7999 372.4 27.7999Z" fill="#6DB33F"/>
<path d="M85.6 79.8C92.2 72 96.2 62.2 96.9 52Z" fill="#6DB33F"/>
<path d="M88.2 70C76.3 85.9 50.7 80.5 34.4 81.3C34.4 81.3 31.5 81.5 28.6 81.9C28.6 81.9 29.7 81.4 31.1 80.9C42.6 76.9 48 76.1 55 72.5C68.1 65.8 81.2 51.1 83.8 35.9C78.8 50.5 63.6 63.0999 49.8 68.1999C40.3 71.6999 23.2 75.1 23.2 75.1L22.5 74.6999C10.9 68.9999 10.5 43.8 31.7 35.7C41 32.1 49.8 34.1 59.9 31.7C70.6 29.2 83 21.2 88 10.7C93.6 27.6 100.4 53.7999 88.2 70Z" fill="white"/>
<path d="M22.6 84.5C21.2 86.3 18.6 86.5 16.8 85.1C15 83.7 14.8 81.1 16.2 79.3C17.6 77.5 20.2 77.3 22 78.7C23.7 80.1 24 82.7 22.6 84.5Z" fill="white"/>
</g>
<defs>
<clipPath id="clip0_416_2651">
<rect width="377.5" height="97.1" fill="white"/>
</clipPath>
</defs>
</svg>
